# Created by Kenney (www.kenney.nl) - UVs and materials modified

mtllib fantasytown.mtl


g bannerRed

v 0.375 0.950 0.200
v 0.375 0.950 0.120
v 0.375 1.000 0.120
v 0.375 1.000 0.200
v 0.375 0.950 0.040
v 0.375 0.950 -0.040
v 0.375 1.000 -0.040
v 0.375 1.000 0.040
v 0.375 1.000 0.120
v 0.425 1.000 0.120
v 0.425 1.000 0.200
v 0.375 1.000 0.200
v 0.375 1.000 -0.200
v 0.425 1.000 -0.200
v 0.425 1.000 -0.120
v 0.375 1.000 -0.120
v 0.375 0.950 -0.200
v 0.375 1.000 -0.200
v 0.375 1.000 -0.120
v 0.375 0.950 -0.120
v 0.375 1.000 -0.040
v 0.425 1.000 -0.040
v 0.425 1.000 0.040
v 0.375 1.000 0.040
v 0.400 0.950 0.120
v 0.400 0.950 0.200
v 0.400 0.291 0.200
v 0.400 0.890 0.120
v 0.400 0.334 0.120
v 0.400 0.256 0.000
v 0.400 0.161 0.000
v 0.400 0.334 -0.120
v 0.400 0.291 -0.200
v 0.400 0.890 -0.120
v 0.400 0.950 -0.120
v 0.400 0.950 -0.200
v 0.400 0.950 0.200
v 0.400 0.950 0.120
v 0.400 0.291 0.200
v 0.400 0.890 0.120
v 0.400 0.334 0.120
v 0.400 0.256 0.000
v 0.400 0.161 0.000
v 0.400 0.334 -0.120
v 0.400 0.291 -0.200
v 0.400 0.890 -0.120
v 0.400 0.950 -0.120
v 0.400 0.950 -0.200
v 0.388 0.988 -0.250
v 0.388 0.963 -0.250
v 0.413 0.963 -0.250
v 0.413 0.988 -0.250
v 0.425 1.000 -0.200
v 0.425 0.950 -0.200
v 0.425 0.950 0.200
v 0.425 1.000 -0.120
v 0.425 1.000 -0.040
v 0.425 1.000 0.040
v 0.425 1.000 0.120
v 0.425 1.000 0.200
v 0.400 0.950 0.200
v 0.425 0.950 0.200
v 0.425 0.950 -0.200
v 0.400 0.950 -0.200
v 0.375 0.950 0.200
v 0.375 0.950 -0.200
v 0.375 0.950 0.120
v 0.375 0.950 0.040
v 0.375 0.950 -0.040
v 0.375 0.950 -0.120
v 0.413 0.988 0.250
v 0.413 0.963 0.250
v 0.388 0.963 0.250
v 0.388 0.988 0.250
v 0.388 0.963 -0.250
v 0.388 0.988 -0.250
v 0.375 1.000 -0.200
v 0.375 0.950 -0.200
v 0.413 0.988 -0.250
v 0.413 0.963 -0.250
v 0.425 0.950 -0.200
v 0.425 1.000 -0.200
v 0.413 0.988 -0.250
v 0.425 1.000 -0.200
v 0.375 1.000 -0.200
v 0.388 0.988 -0.250
v 0.400 0.950 -0.200
v 0.425 0.950 -0.200
v 0.413 0.963 -0.250
v 0.388 0.963 -0.250
v 0.375 0.950 -0.200
v 0.413 0.963 0.250
v 0.425 0.950 0.200
v 0.400 0.950 0.200
v 0.388 0.963 0.250
v 0.375 0.950 0.200
v 0.375 1.000 0.200
v 0.425 1.000 0.200
v 0.413 0.988 0.250
v 0.388 0.988 0.250
v 0.388 0.963 0.250
v 0.375 0.950 0.200
v 0.375 1.000 0.200
v 0.388 0.988 0.250
v 0.425 1.000 0.200
v 0.425 0.950 0.200
v 0.413 0.963 0.250
v 0.413 0.988 0.250
v 0.400 0.890 0.040
v 0.400 0.950 0.040
v 0.400 0.950 -0.040
v 0.400 0.890 -0.040
v 0.400 0.890 0.040
v 0.400 0.950 0.040
v 0.400 0.950 -0.040
v 0.400 0.890 -0.040

vt -0.200 0.950
vt -0.120 0.950
vt -0.120 1.000
vt -0.200 1.000
vt -0.040 0.950
vt 0.040 0.950
vt 0.040 1.000
vt -0.040 1.000
vt 0.120 -0.375
vt 0.120 -0.425
vt 0.200 -0.425
vt 0.200 -0.375
vt -0.200 -0.375
vt -0.200 -0.425
vt -0.120 -0.425
vt -0.120 -0.375
vt 0.200 0.950
vt 0.200 1.000
vt 0.120 1.000
vt 0.120 0.950
vt -0.040 -0.375
vt -0.040 -0.425
vt 0.040 -0.425
vt 0.040 -0.375
vt -0.120 0.950
vt -0.200 0.950
vt -0.200 0.291
vt -0.120 0.890
vt -0.120 0.334
vt 0.000 0.256
vt 0.000 0.161
vt 0.120 0.334
vt 0.200 0.291
vt 0.120 0.890
vt 0.120 0.950
vt 0.200 0.950
vt 0.200 0.950
vt 0.120 0.950
vt 0.200 0.291
vt 0.120 0.890
vt 0.120 0.334
vt 0.000 0.256
vt 0.000 0.161
vt -0.120 0.334
vt -0.200 0.291
vt -0.120 0.890
vt -0.120 0.950
vt -0.200 0.950
vt 0.388 0.988
vt 0.388 0.963
vt 0.413 0.963
vt 0.413 0.988
vt -0.200 1.000
vt -0.200 0.950
vt 0.200 0.950
vt -0.120 1.000
vt -0.040 1.000
vt 0.040 1.000
vt 0.120 1.000
vt 0.200 1.000
vt -0.200 -0.400
vt -0.200 -0.425
vt 0.200 -0.425
vt 0.200 -0.400
vt -0.200 -0.375
vt 0.200 -0.375
vt 14.764 4.724
vt 14.764 1.575
vt 14.764 -1.575
vt 14.764 -4.724
vt -0.413 0.988
vt -0.413 0.963
vt -0.388 0.963
vt -0.388 0.988
vt 0.252 0.963
vt 0.252 0.988
vt 0.200 1.000
vt 0.200 0.950
vt -0.252 0.988
vt -0.252 0.963
vt -0.200 0.950
vt -0.200 1.000
vt -0.252 -0.413
vt -0.200 -0.425
vt -0.200 -0.375
vt -0.252 -0.388
vt 0.200 -0.400
vt 0.200 -0.425
vt 0.252 -0.413
vt 0.252 -0.388
vt 0.200 -0.375
vt -0.252 -0.413
vt -0.200 -0.425
vt -0.200 -0.400
vt -0.252 -0.388
vt -0.200 -0.375
vt 0.200 -0.375
vt 0.200 -0.425
vt 0.252 -0.413
vt 0.252 -0.388
vt -0.252 0.963
vt -0.200 0.950
vt -0.200 1.000
vt -0.252 0.988
vt 0.200 1.000
vt 0.200 0.950
vt 0.252 0.963
vt 0.252 0.988
vt -0.040 0.890
vt -0.040 0.950
vt 0.040 0.950
vt 0.040 0.890
vt 0.040 0.890
vt 0.040 0.950
vt -0.040 0.950
vt -0.040 0.890

vn -0.994 0.000 0.112
vn -1.000 0.000 0.000
vn -1.000 0.000 0.000
vn -0.994 0.000 0.112
vn -1.000 0.000 0.000
vn -1.000 0.000 0.000
vn -1.000 0.000 0.000
vn -1.000 0.000 0.000
vn 0.000 1.000 0.000
vn 0.000 1.000 0.000
vn 0.000 0.994 0.112
vn 0.000 0.994 0.112
vn 0.000 0.994 -0.112
vn 0.000 0.994 -0.112
vn 0.000 1.000 0.000
vn 0.000 1.000 0.000
vn -0.994 0.000 -0.112
vn -0.994 0.000 -0.112
vn -1.000 0.000 0.000
vn -1.000 0.000 0.000
vn 0.000 1.000 0.000
vn 0.000 1.000 0.000
vn 0.000 1.000 0.000
vn 0.000 1.000 0.000
vn -1.000 0.000 0.000
vn -1.000 0.000 0.000
vn -1.000 0.000 0.000
vn -1.000 0.000 0.000
vn -1.000 0.000 0.000
vn -1.000 0.000 0.000
vn -1.000 0.000 0.000
vn -1.000 0.000 0.000
vn -1.000 0.000 0.000
vn -1.000 0.000 0.000
vn -1.000 0.000 0.000
vn -1.000 0.000 0.000
vn 1.000 0.000 0.000
vn 1.000 0.000 0.000
vn 1.000 0.000 0.000
vn 1.000 0.000 0.000
vn 1.000 0.000 0.000
vn 1.000 0.000 0.000
vn 1.000 0.000 0.000
vn 1.000 0.000 0.000
vn 1.000 0.000 0.000
vn 1.000 0.000 0.000
vn 1.000 0.000 0.000
vn 1.000 0.000 0.000
vn 0.000 0.000 -1.000
vn 0.000 0.000 -1.000
vn 0.000 0.000 -1.000
vn 0.000 0.000 -1.000
vn 0.994 0.000 -0.112
vn 0.994 0.000 -0.112
vn 0.994 0.000 0.112
vn 1.000 0.000 0.000
vn 1.000 0.000 0.000
vn 1.000 0.000 0.000
vn 1.000 0.000 0.000
vn 0.994 0.000 0.112
vn 0.000 -0.993 0.122
vn 0.000 -0.994 0.112
vn 0.000 -0.994 -0.112
vn 0.000 -0.993 -0.122
vn 0.000 -0.994 0.112
vn 0.000 -0.994 -0.112
vn 0.000 -1.000 0.000
vn 0.000 -1.000 0.000
vn 0.000 -1.000 0.000
vn 0.000 -1.000 0.000
vn 0.000 0.000 1.000
vn 0.000 0.000 1.000
vn 0.000 0.000 1.000
vn 0.000 0.000 1.000
vn -0.970 0.000 -0.243
vn -0.970 0.000 -0.243
vn -0.994 0.000 -0.112
vn -0.994 0.000 -0.112
vn 0.970 0.000 -0.243
vn 0.970 0.000 -0.243
vn 0.994 0.000 -0.112
vn 0.994 0.000 -0.112
vn 0.000 0.970 -0.243
vn 0.000 0.994 -0.112
vn 0.000 0.994 -0.112
vn 0.000 0.970 -0.243
vn 0.000 -0.993 -0.122
vn 0.000 -0.994 -0.112
vn 0.000 -0.970 -0.243
vn 0.000 -0.970 -0.243
vn 0.000 -0.994 -0.112
vn 0.000 -0.970 0.243
vn 0.000 -0.994 0.112
vn 0.000 -0.993 0.122
vn 0.000 -0.970 0.243
vn 0.000 -0.994 0.112
vn 0.000 0.994 0.112
vn 0.000 0.994 0.112
vn 0.000 0.970 0.243
vn 0.000 0.970 0.243
vn -0.970 0.000 0.243
vn -0.994 0.000 0.112
vn -0.994 0.000 0.112
vn -0.970 0.000 0.243
vn 0.994 0.000 0.112
vn 0.994 0.000 0.112
vn 0.970 0.000 0.243
vn 0.970 0.000 0.243
vn -1.000 0.000 0.000
vn -1.000 0.000 0.000
vn -1.000 0.000 0.000
vn -1.000 0.000 0.000
vn 1.000 0.000 0.000
vn 1.000 0.000 0.000
vn 1.000 0.000 0.000
vn 1.000 0.000 0.000


usemtl roofRed

f 1/1/1 3/3/3 2/2/2
f 3/3/3 1/1/1 4/4/4
f 5/5/5 7/7/7 6/6/6
f 7/7/7 5/5/5 8/8/8
f 9/9/9 11/11/11 10/10/10
f 11/11/11 9/9/9 12/12/12
f 13/13/13 15/15/15 14/14/14
f 15/15/15 13/13/13 16/16/16
f 17/17/17 19/19/19 18/18/18
f 19/19/19 17/17/17 20/20/20
f 21/21/21 23/23/23 22/22/22
f 23/23/23 21/21/21 24/24/24
f 25/25/25 27/27/27 26/26/26
f 28/28/28 27/27/27 25/25/25
f 29/29/29 27/27/27 28/28/28
f 30/30/30 27/27/27 29/29/29
f 30/30/30 31/31/31 27/27/27
f 32/32/32 31/31/31 30/30/30
f 32/32/32 33/33/33 31/31/31
f 33/33/33 32/32/32 34/34/34
f 35/35/35 33/33/33 34/34/34
f 33/33/33 35/35/35 36/36/36
f 37/37/37 39/39/39 38/38/38
f 38/38/38 39/39/39 40/40/40
f 40/40/40 39/39/39 41/41/41
f 41/41/41 39/39/39 42/42/42
f 39/39/39 43/43/43 42/42/42
f 42/42/42 43/43/43 44/44/44
f 43/43/43 45/45/45 44/44/44
f 46/46/46 44/44/44 45/45/45
f 46/46/46 45/45/45 47/47/47
f 48/48/48 47/47/47 45/45/45

usemtl wood

f 24/24/24 10/10/10 23/23/23
f 10/10/10 24/24/24 9/9/9
f 2/2/2 8/8/8 5/5/5
f 8/8/8 2/2/2 3/3/3
f 49/49/49 51/51/51 50/50/50
f 51/51/51 49/49/49 52/52/52
f 53/53/53 55/55/55 54/54/54
f 55/55/55 53/53/53 56/56/56
f 55/55/55 56/56/56 57/57/57
f 55/55/55 57/57/57 58/58/58
f 55/55/55 58/58/58 59/59/59
f 55/55/55 59/59/59 60/60/60
f 61/61/61 63/63/63 62/62/62
f 63/63/63 61/61/61 64/64/64
f 64/64/64 61/61/61 65/65/65
f 64/64/64 65/65/65 66/66/66
f 66/66/66 65/65/65 67/67/67
f 66/66/66 67/67/67 68/68/68
f 66/66/66 68/68/68 69/69/69
f 66/66/66 69/69/69 70/70/70
f 71/71/71 73/73/73 72/72/72
f 73/73/73 71/71/71 74/74/74
f 6/6/6 19/19/19 20/20/20
f 19/19/19 6/6/6 7/7/7
f 16/16/16 22/22/22 15/15/15
f 22/22/22 16/16/16 21/21/21
f 75/75/75 77/77/77 76/76/76
f 77/77/77 75/75/75 78/78/78
f 79/79/79 81/81/81 80/80/80
f 81/81/81 79/79/79 82/82/82
f 83/83/83 85/85/85 84/84/84
f 85/85/85 83/83/83 86/86/86
f 87/87/87 89/89/89 88/88/88
f 89/89/89 87/87/87 90/90/90
f 90/90/90 87/87/87 91/91/91
f 92/92/92 94/94/94 93/93/93
f 94/94/94 92/92/92 95/95/95
f 94/94/94 95/95/95 96/96/96
f 97/97/97 99/99/99 98/98/98
f 99/99/99 97/97/97 100/100/100
f 101/101/101 103/103/103 102/102/102
f 103/103/103 101/101/101 104/104/104
f 105/105/105 107/107/107 106/106/106
f 107/107/107 105/105/105 108/108/108

usemtl roofRedLight

f 109/109/109 29/29/29 28/28/28
f 29/29/29 109/109/109 30/30/30
f 110/110/110 30/30/30 109/109/109
f 111/111/111 30/30/30 110/110/110
f 112/112/112 30/30/30 111/111/111
f 112/112/112 32/32/32 30/30/30
f 32/32/32 112/112/112 34/34/34
f 40/40/40 41/41/41 113/113/113
f 42/42/42 113/113/113 41/41/41
f 113/113/113 42/42/42 114/114/114
f 114/114/114 42/42/42 115/115/115
f 115/115/115 42/42/42 116/116/116
f 42/42/42 44/44/44 116/116/116
f 46/46/46 116/116/116 44/44/44
