# Created by Kenney (www.kenney.nl) - UVs and materials modified

mtllib fantasytown.mtl


g chimneyBase

v 0.253 0.590 -0.130
v 0.081 0.410 -0.260
v 0.425 0.410 -0.260
v 0.425 0.590 -0.130
v 0.081 0.410 0.260
v 0.081 0.410 -0.260
v 0.253 0.590 -0.130
v 0.253 0.590 0.130
v 0.425 0.590 -0.130
v 0.425 0.410 -0.260
v 0.425 0.350 -0.260
v 0.425 0.350 -0.200
v 0.425 0.129 -0.200
v 0.425 0.000 0.240
v 0.425 0.000 -0.240
v 0.425 0.129 -0.240
v 0.425 0.129 0.200
v 0.425 0.129 0.240
v 0.425 0.590 0.130
v 0.425 0.350 0.200
v 0.425 1.000 0.130
v 0.425 1.000 -0.130
v 0.425 0.410 0.260
v 0.425 0.350 0.260
v 0.101 0.000 0.240
v 0.101 0.000 -0.240
v 0.101 0.129 -0.240
v 0.101 0.129 0.240
v 0.425 0.129 0.240
v 0.425 0.000 0.240
v 0.101 0.000 0.240
v 0.101 0.129 0.240
v 0.101 0.129 -0.240
v 0.425 0.129 -0.240
v 0.425 0.129 -0.200
v 0.141 0.129 -0.200
v 0.141 0.129 -0.149
v 0.141 0.129 0.149
v 0.241 0.129 0.149
v 0.241 0.129 -0.149
v 0.141 0.129 0.200
v 0.101 0.129 0.240
v 0.425 0.129 0.240
v 0.425 0.129 0.200
v 0.081 0.410 -0.260
v 0.081 0.350 -0.260
v 0.425 0.350 -0.260
v 0.425 0.410 -0.260
v 0.081 0.350 0.260
v 0.081 0.350 -0.260
v 0.081 0.410 -0.260
v 0.081 0.410 0.260
v 0.101 0.129 -0.240
v 0.101 0.000 -0.240
v 0.425 0.000 -0.240
v 0.425 0.129 -0.240
v 0.425 0.410 0.260
v 0.425 0.350 0.260
v 0.081 0.350 0.260
v 0.081 0.410 0.260
v 0.081 0.350 0.260
v 0.425 0.350 0.260
v 0.425 0.350 0.200
v 0.141 0.350 0.200
v 0.141 0.350 -0.200
v 0.081 0.350 -0.260
v 0.425 0.350 -0.260
v 0.425 0.350 -0.200
v 0.101 0.000 0.240
v 0.425 0.000 0.240
v 0.425 0.000 -0.240
v 0.101 0.000 -0.240
v 0.425 0.590 0.130
v 0.425 0.410 0.260
v 0.081 0.410 0.260
v 0.253 0.590 0.130
v 0.141 0.129 0.200
v 0.141 0.129 0.149
v 0.141 0.299 0.149
v 0.141 0.350 0.200
v 0.141 0.299 -0.149
v 0.141 0.350 -0.200
v 0.141 0.129 -0.149
v 0.141 0.129 -0.200
v 0.425 0.350 0.200
v 0.425 0.129 0.200
v 0.141 0.129 0.200
v 0.141 0.350 0.200
v 0.141 0.350 -0.200
v 0.141 0.129 -0.200
v 0.425 0.129 -0.200
v 0.425 0.350 -0.200
v 0.141 0.299 0.149
v 0.141 0.129 0.149
v 0.241 0.129 0.149
v 0.241 0.299 0.149
v 0.425 1.000 0.130
v 0.425 0.590 0.130
v 0.253 0.590 0.130
v 0.253 1.000 0.130
v 0.141 0.299 0.149
v 0.241 0.299 0.149
v 0.241 0.299 -0.149
v 0.141 0.299 -0.149
v 0.253 0.590 0.130
v 0.253 0.590 -0.130
v 0.253 1.000 -0.130
v 0.253 1.000 0.130
v 0.241 0.129 0.149
v 0.241 0.129 -0.149
v 0.241 0.299 -0.149
v 0.241 0.299 0.149
v 0.253 1.000 -0.130
v 0.253 0.590 -0.130
v 0.425 0.590 -0.130
v 0.425 1.000 -0.130
v 0.241 0.299 -0.149
v 0.241 0.129 -0.149
v 0.141 0.129 -0.149
v 0.141 0.299 -0.149
v 0.253 1.000 -0.130
v 0.425 1.000 -0.130
v 0.425 1.000 0.130
v 0.253 1.000 0.130

vt 0.253 0.402
vt 0.081 0.180
vt 0.425 0.180
vt 0.425 0.402
vt -0.260 0.353
vt 0.260 0.353
vt 0.130 0.601
vt -0.130 0.601
vt -0.130 0.590
vt -0.260 0.410
vt -0.260 0.350
vt -0.200 0.350
vt -0.200 0.129
vt 0.240 0.000
vt -0.240 0.000
vt -0.240 0.129
vt 0.200 0.129
vt 0.240 0.129
vt 0.130 0.590
vt 0.200 0.350
vt 0.130 1.000
vt -0.130 1.000
vt 0.260 0.410
vt 0.260 0.350
vt -0.240 0.000
vt 0.240 0.000
vt 0.240 0.129
vt -0.240 0.129
vt -0.425 0.129
vt -0.425 0.000
vt -0.101 0.000
vt -0.101 0.129
vt -0.240 -0.101
vt -0.240 -0.425
vt -0.200 -0.425
vt -0.200 -0.141
vt -0.149 -0.141
vt 0.149 -0.141
vt 0.149 -0.241
vt -0.149 -0.241
vt 0.200 -0.141
vt 0.240 -0.101
vt 0.240 -0.425
vt 0.200 -0.425
vt 0.081 0.410
vt 0.081 0.350
vt 0.425 0.350
vt 0.425 0.410
vt -0.260 0.350
vt 0.260 0.350
vt 0.260 0.410
vt -0.260 0.410
vt 0.101 0.129
vt 0.101 0.000
vt 0.425 0.000
vt 0.425 0.129
vt -0.425 0.410
vt -0.425 0.350
vt -0.081 0.350
vt -0.081 0.410
vt -0.260 -0.081
vt -0.260 -0.425
vt -0.200 -0.425
vt -0.200 -0.141
vt 0.200 -0.141
vt 0.260 -0.081
vt 0.260 -0.425
vt 0.200 -0.425
vt -0.240 -0.101
vt -0.240 -0.425
vt 0.240 -0.425
vt 0.240 -0.101
vt -0.425 0.402
vt -0.425 0.180
vt -0.081 0.180
vt -0.253 0.402
vt -0.200 0.129
vt -0.149 0.129
vt -0.149 0.299
vt -0.200 0.350
vt 0.149 0.299
vt 0.200 0.350
vt 0.149 0.129
vt 0.200 0.129
vt -0.425 0.350
vt -0.425 0.129
vt -0.141 0.129
vt -0.141 0.350
vt 0.141 0.350
vt 0.141 0.129
vt 0.425 0.129
vt 0.425 0.350
vt 0.141 0.299
vt 0.141 0.129
vt 0.241 0.129
vt 0.241 0.299
vt -0.425 1.000
vt -0.425 0.590
vt -0.253 0.590
vt -0.253 1.000
vt -0.149 -0.141
vt -0.149 -0.241
vt 0.149 -0.241
vt 0.149 -0.141
vt -0.130 0.590
vt 0.130 0.590
vt 0.130 1.000
vt -0.130 1.000
vt -0.149 0.129
vt 0.149 0.129
vt 0.149 0.299
vt -0.149 0.299
vt 0.253 1.000
vt 0.253 0.590
vt 0.425 0.590
vt 0.425 1.000
vt -0.241 0.299
vt -0.241 0.129
vt -0.141 0.129
vt -0.141 0.299
vt -0.130 -0.253
vt -0.130 -0.425
vt 0.130 -0.425
vt 0.130 -0.253

vn 0.000 0.585 -0.811
vn 0.000 0.585 -0.811
vn 0.000 0.585 -0.811
vn 0.000 0.585 -0.811
vn -0.723 0.691 0.000
vn -0.723 0.691 0.000
vn -0.723 0.691 0.000
vn -0.723 0.691 0.000
vn 1.000 0.000 0.000
vn 1.000 0.000 0.000
vn 1.000 0.000 0.000
vn 1.000 0.000 0.000
vn 1.000 0.000 0.000
vn 1.000 0.000 0.000
vn 1.000 0.000 0.000
vn 1.000 0.000 0.000
vn 1.000 0.000 0.000
vn 1.000 0.000 0.000
vn 1.000 0.000 0.000
vn 1.000 0.000 0.000
vn 1.000 0.000 0.000
vn 1.000 0.000 0.000
vn 1.000 0.000 0.000
vn 1.000 0.000 0.000
vn -1.000 0.000 0.000
vn -1.000 0.000 0.000
vn -1.000 0.000 0.000
vn -1.000 0.000 0.000
vn 0.000 0.000 1.000
vn 0.000 0.000 1.000
vn 0.000 0.000 1.000
vn 0.000 0.000 1.000
vn 0.000 1.000 0.000
vn 0.000 1.000 0.000
vn 0.000 1.000 0.000
vn 0.000 1.000 0.000
vn 0.000 1.000 0.000
vn 0.000 1.000 0.000
vn 0.000 1.000 0.000
vn 0.000 1.000 0.000
vn 0.000 1.000 0.000
vn 0.000 1.000 0.000
vn 0.000 1.000 0.000
vn 0.000 1.000 0.000
vn 0.000 0.000 -1.000
vn 0.000 0.000 -1.000
vn 0.000 0.000 -1.000
vn 0.000 0.000 -1.000
vn -1.000 0.000 0.000
vn -1.000 0.000 0.000
vn -1.000 0.000 0.000
vn -1.000 0.000 0.000
vn 0.000 0.000 -1.000
vn 0.000 0.000 -1.000
vn 0.000 0.000 -1.000
vn 0.000 0.000 -1.000
vn 0.000 0.000 1.000
vn 0.000 0.000 1.000
vn 0.000 0.000 1.000
vn 0.000 0.000 1.000
vn 0.000 -1.000 0.000
vn 0.000 -1.000 0.000
vn 0.000 -1.000 0.000
vn 0.000 -1.000 0.000
vn 0.000 -1.000 0.000
vn 0.000 -1.000 0.000
vn 0.000 -1.000 0.000
vn 0.000 -1.000 0.000
vn 0.000 -1.000 0.000
vn 0.000 -1.000 0.000
vn 0.000 -1.000 0.000
vn 0.000 -1.000 0.000
vn 0.000 0.585 0.811
vn 0.000 0.585 0.811
vn 0.000 0.585 0.811
vn 0.000 0.585 0.811
vn -1.000 0.000 0.000
vn -1.000 0.000 0.000
vn -1.000 0.000 0.000
vn -1.000 0.000 0.000
vn -1.000 0.000 0.000
vn -1.000 0.000 0.000
vn -1.000 0.000 0.000
vn -1.000 0.000 0.000
vn 0.000 0.000 1.000
vn 0.000 0.000 1.000
vn 0.000 0.000 1.000
vn 0.000 0.000 1.000
vn 0.000 0.000 -1.000
vn 0.000 0.000 -1.000
vn 0.000 0.000 -1.000
vn 0.000 0.000 -1.000
vn 0.000 0.000 -1.000
vn 0.000 0.000 -1.000
vn 0.000 0.000 -1.000
vn 0.000 0.000 -1.000
vn 0.000 0.000 1.000
vn 0.000 0.000 1.000
vn 0.000 0.000 1.000
vn 0.000 0.000 1.000
vn 0.000 -1.000 0.000
vn 0.000 -1.000 0.000
vn 0.000 -1.000 0.000
vn 0.000 -1.000 0.000
vn -1.000 0.000 0.000
vn -1.000 0.000 0.000
vn -1.000 0.000 0.000
vn -1.000 0.000 0.000
vn -1.000 0.000 0.000
vn -1.000 0.000 0.000
vn -1.000 0.000 0.000
vn -1.000 0.000 0.000
vn 0.000 0.000 -1.000
vn 0.000 0.000 -1.000
vn 0.000 0.000 -1.000
vn 0.000 0.000 -1.000
vn 0.000 0.000 1.000
vn 0.000 0.000 1.000
vn 0.000 0.000 1.000
vn 0.000 0.000 1.000
vn 0.000 1.000 0.000
vn 0.000 1.000 0.000
vn 0.000 1.000 0.000
vn 0.000 1.000 0.000


usemtl stone

f 1/1/1 3/3/3 2/2/2
f 3/3/3 1/1/1 4/4/4
f 5/5/5 7/7/7 6/6/6
f 7/7/7 5/5/5 8/8/8
f 9/9/9 11/11/11 10/10/10
f 11/11/11 9/9/9 12/12/12
f 12/12/12 9/9/9 13/13/13
f 14/14/14 13/13/13 9/9/9
f 15/15/15 13/13/13 14/14/14
f 13/13/13 15/15/15 16/16/16
f 14/14/14 9/9/9 17/17/17
f 14/14/14 17/17/17 18/18/18
f 17/17/17 9/9/9 19/19/19
f 17/17/17 19/19/19 20/20/20
f 19/19/19 9/9/9 21/21/21
f 21/21/21 9/9/9 22/22/22
f 23/23/23 20/20/20 19/19/19
f 20/20/20 23/23/23 24/24/24
f 25/25/25 27/27/27 26/26/26
f 27/27/27 25/25/25 28/28/28
f 29/29/29 31/31/31 30/30/30
f 31/31/31 29/29/29 32/32/32
f 33/33/33 35/35/35 34/34/34
f 35/35/35 33/33/33 36/36/36
f 36/36/36 33/33/33 37/37/37
f 37/37/37 33/33/33 38/38/38
f 39/39/39 37/37/37 38/38/38
f 37/37/37 39/39/39 40/40/40
f 38/38/38 33/33/33 41/41/41
f 42/42/42 41/41/41 33/33/33
f 43/43/43 41/41/41 42/42/42
f 41/41/41 43/43/43 44/44/44
f 45/45/45 47/47/47 46/46/46
f 47/47/47 45/45/45 48/48/48
f 49/49/49 51/51/51 50/50/50
f 51/51/51 49/49/49 52/52/52
f 53/53/53 55/55/55 54/54/54
f 55/55/55 53/53/53 56/56/56
f 57/57/57 59/59/59 58/58/58
f 59/59/59 57/57/57 60/60/60
f 61/61/61 63/63/63 62/62/62
f 63/63/63 61/61/61 64/64/64
f 64/64/64 61/61/61 65/65/65
f 66/66/66 65/65/65 61/61/61
f 67/67/67 65/65/65 66/66/66
f 65/65/65 67/67/67 68/68/68
f 69/69/69 71/71/71 70/70/70
f 71/71/71 69/69/69 72/72/72
f 73/73/73 75/75/75 74/74/74
f 75/75/75 73/73/73 76/76/76

usemtl stoneDark

f 77/77/77 79/79/79 78/78/78
f 80/80/80 79/79/79 77/77/77
f 80/80/80 81/81/81 79/79/79
f 82/82/82 81/81/81 80/80/80
f 82/82/82 83/83/83 81/81/81
f 83/83/83 82/82/82 84/84/84
f 85/85/85 87/87/87 86/86/86
f 87/87/87 85/85/85 88/88/88
f 89/89/89 91/91/91 90/90/90
f 91/91/91 89/89/89 92/92/92
f 93/93/93 95/95/95 94/94/94
f 95/95/95 93/93/93 96/96/96
f 97/97/97 99/99/99 98/98/98
f 99/99/99 97/97/97 100/100/100
f 101/101/101 103/103/103 102/102/102
f 103/103/103 101/101/101 104/104/104
f 105/105/105 107/107/107 106/106/106
f 107/107/107 105/105/105 108/108/108
f 109/109/109 111/111/111 110/110/110
f 111/111/111 109/109/109 112/112/112
f 113/113/113 115/115/115 114/114/114
f 115/115/115 113/113/113 116/116/116
f 117/117/117 119/119/119 118/118/118
f 119/119/119 117/117/117 120/120/120
f 121/121/121 123/123/123 122/122/122
f 123/123/123 121/121/121 124/124/124
