# Created by Kenney (www.kenney.nl) - UVs and materials modified

mtllib fantasytown.mtl


g chimneyTop

v 0.253 0.000 0.130
v 0.425 0.000 0.130
v 0.425 0.000 -0.130
v 0.253 0.000 -0.130
v 0.425 0.625 -0.170
v 0.465 0.625 -0.130
v 0.465 0.625 0.130
v 0.425 0.625 -0.113
v 0.425 0.625 0.113
v 0.408 0.625 -0.130
v 0.425 0.625 0.170
v 0.408 0.625 0.130
v 0.253 0.625 -0.170
v 0.270 0.625 -0.130
v 0.253 0.625 -0.113
v 0.253 0.625 0.170
v 0.213 0.625 -0.130
v 0.270 0.625 0.130
v 0.253 0.625 0.113
v 0.213 0.625 0.130
v 0.425 0.375 0.130
v 0.425 0.000 0.130
v 0.253 0.000 0.130
v 0.270 0.375 0.130
v 0.253 0.375 0.130
v 0.408 0.375 0.130
v 0.253 0.000 0.130
v 0.253 0.000 -0.130
v 0.253 0.375 -0.130
v 0.253 0.375 -0.113
v 0.253 0.375 0.113
v 0.253 0.375 0.130
v 0.253 0.375 -0.130
v 0.253 0.000 -0.130
v 0.425 0.000 -0.130
v 0.425 0.375 -0.130
v 0.270 0.375 -0.130
v 0.408 0.375 -0.130
v 0.425 0.375 -0.113
v 0.425 0.375 -0.130
v 0.425 0.000 -0.130
v 0.425 0.000 0.130
v 0.425 0.375 0.113
v 0.425 0.375 0.130
v 0.465 0.625 0.130
v 0.465 0.625 -0.130
v 0.465 0.375 -0.130
v 0.465 0.375 0.130
v 0.425 0.375 0.170
v 0.465 0.375 0.130
v 0.465 0.375 -0.130
v 0.425 0.375 0.113
v 0.425 0.375 -0.113
v 0.425 0.375 0.130
v 0.425 0.375 -0.170
v 0.425 0.375 -0.130
v 0.408 0.375 -0.130
v 0.253 0.375 0.170
v 0.253 0.375 -0.170
v 0.408 0.375 0.130
v 0.270 0.375 0.130
v 0.253 0.375 0.130
v 0.270 0.375 -0.130
v 0.213 0.375 0.130
v 0.253 0.375 0.113
v 0.253 0.375 -0.113
v 0.213 0.375 -0.130
v 0.253 0.375 -0.130
v 0.465 0.625 0.130
v 0.465 0.375 0.130
v 0.425 0.375 0.170
v 0.425 0.625 0.170
v 0.425 0.625 -0.170
v 0.425 0.375 -0.170
v 0.465 0.375 -0.130
v 0.465 0.625 -0.130
v 0.253 0.375 0.170
v 0.213 0.375 0.130
v 0.213 0.625 0.130
v 0.253 0.625 0.170
v 0.213 0.375 -0.130
v 0.253 0.375 -0.170
v 0.253 0.625 -0.170
v 0.213 0.625 -0.130
v 0.408 0.375 -0.130
v 0.425 0.375 -0.113
v 0.425 0.375 0.113
v 0.408 0.375 0.130
v 0.270 0.375 -0.130
v 0.270 0.375 0.130
v 0.253 0.375 -0.113
v 0.253 0.375 0.113
v 0.270 0.625 0.130
v 0.270 0.375 0.130
v 0.408 0.375 0.130
v 0.408 0.625 0.130
v 0.408 0.375 0.130
v 0.425 0.375 0.113
v 0.425 0.625 0.113
v 0.408 0.625 0.130
v 0.425 0.375 0.113
v 0.425 0.375 -0.113
v 0.425 0.625 -0.113
v 0.425 0.625 0.113
v 0.425 0.375 -0.113
v 0.408 0.375 -0.130
v 0.408 0.625 -0.130
v 0.425 0.625 -0.113
v 0.408 0.625 -0.130
v 0.408 0.375 -0.130
v 0.270 0.375 -0.130
v 0.270 0.625 -0.130
v 0.253 0.625 -0.113
v 0.270 0.625 -0.130
v 0.270 0.375 -0.130
v 0.253 0.375 -0.113
v 0.253 0.625 0.113
v 0.253 0.625 -0.113
v 0.253 0.375 -0.113
v 0.253 0.375 0.113
v 0.253 0.625 0.113
v 0.253 0.375 0.113
v 0.270 0.375 0.130
v 0.270 0.625 0.130
v 0.425 0.625 0.170
v 0.425 0.375 0.170
v 0.253 0.375 0.170
v 0.253 0.625 0.170
v 0.213 0.375 0.130
v 0.213 0.375 -0.130
v 0.213 0.625 -0.130
v 0.213 0.625 0.130
v 0.253 0.625 -0.170
v 0.253 0.375 -0.170
v 0.425 0.375 -0.170
v 0.425 0.625 -0.170
v 0.408 0.375 -0.130
v 0.425 0.375 -0.113
v 0.425 0.375 -0.130
v 0.408 0.375 0.130
v 0.425 0.375 0.130
v 0.425 0.375 0.113
v 0.253 0.375 -0.130
v 0.253 0.375 -0.113
v 0.270 0.375 -0.130
v 0.253 0.375 0.113
v 0.253 0.375 0.130
v 0.270 0.375 0.130

vt -0.130 -0.253
vt -0.130 -0.425
vt 0.130 -0.425
vt 0.130 -0.253
vt -0.170 -0.425
vt -0.130 -0.465
vt 0.130 -0.465
vt -0.113 -0.425
vt 0.113 -0.425
vt -0.130 -0.408
vt 0.170 -0.425
vt 0.130 -0.408
vt -0.170 -0.253
vt -0.130 -0.270
vt -0.113 -0.253
vt 0.170 -0.253
vt -0.130 -0.213
vt 0.130 -0.270
vt 0.113 -0.253
vt 0.130 -0.213
vt -0.425 0.375
vt -0.425 0.000
vt -0.253 0.000
vt -0.270 0.375
vt -0.253 0.375
vt 16.080 14.764
vt -0.130 0.000
vt 0.130 0.000
vt 0.130 0.375
vt 0.113 0.375
vt -0.113 0.375
vt -0.130 0.375
vt 0.253 0.375
vt 0.253 0.000
vt 0.425 0.000
vt 0.425 0.375
vt -10.617 14.764
vt -16.080 14.764
vt -0.113 0.375
vt -0.130 0.375
vt -0.130 0.000
vt 0.130 0.000
vt 0.113 0.375
vt 0.130 0.375
vt 0.130 0.625
vt -0.130 0.625
vt -0.130 0.375
vt 0.130 0.375
vt -0.170 -0.425
vt -0.130 -0.465
vt 0.130 -0.465
vt -0.113 -0.425
vt 0.113 -0.425
vt -0.130 -0.425
vt 0.170 -0.425
vt 0.130 -0.425
vt 0.130 -0.408
vt -0.170 -0.253
vt 0.170 -0.253
vt -0.130 -0.408
vt -0.130 -0.270
vt -0.130 -0.253
vt 0.130 -0.270
vt -0.130 -0.213
vt -0.113 -0.253
vt 0.113 -0.253
vt 0.130 -0.213
vt 0.130 -0.253
vt -0.237 0.625
vt -0.237 0.375
vt -0.180 0.375
vt -0.180 0.625
vt 0.180 0.625
vt 0.180 0.375
vt 0.237 0.375
vt 0.237 0.625
vt -0.299 0.375
vt -0.243 0.375
vt -0.243 0.625
vt -0.299 0.625
vt 0.243 0.375
vt 0.299 0.375
vt 0.299 0.625
vt 0.243 0.625
vt -0.130 -0.408
vt -0.113 -0.425
vt 0.113 -0.425
vt 0.130 -0.408
vt -0.130 -0.270
vt 0.130 -0.270
vt -0.113 -0.253
vt 0.113 -0.253
vt 0.270 0.625
vt 0.270 0.375
vt 0.408 0.375
vt 0.408 0.625
vt 0.197 0.375
vt 0.220 0.375
vt 0.220 0.625
vt 0.197 0.625
vt -0.113 0.375
vt 0.113 0.375
vt 0.113 0.625
vt -0.113 0.625
vt -0.220 0.375
vt -0.197 0.375
vt -0.197 0.625
vt -0.220 0.625
vt -0.408 0.625
vt -0.408 0.375
vt -0.270 0.375
vt -0.270 0.625
vt -0.259 0.625
vt -0.283 0.625
vt -0.283 0.375
vt -0.259 0.375
vt 0.113 0.625
vt -0.113 0.625
vt -0.113 0.375
vt 0.113 0.375
vt 0.259 0.625
vt 0.259 0.375
vt 0.283 0.375
vt 0.283 0.625
vt -0.425 0.625
vt -0.425 0.375
vt -0.253 0.375
vt -0.253 0.625
vt -0.130 0.375
vt 0.130 0.375
vt 0.130 0.625
vt -0.130 0.625
vt 0.253 0.625
vt 0.253 0.375
vt 0.425 0.375
vt 0.425 0.625
vt 0.130 -0.408
vt 0.113 -0.425
vt 0.130 -0.425
vt -0.130 -0.408
vt -0.130 -0.425
vt -0.113 -0.425
vt 0.130 -0.253
vt 0.113 -0.253
vt 0.130 -0.270
vt -0.113 -0.253
vt -0.130 -0.253
vt -0.130 -0.270

vn 0.000 -1.000 0.000
vn 0.000 -1.000 0.000
vn 0.000 -1.000 0.000
vn 0.000 -1.000 0.000
vn 0.000 1.000 0.000
vn 0.000 1.000 0.000
vn 0.000 1.000 0.000
vn 0.000 1.000 0.000
vn 0.000 1.000 0.000
vn 0.000 1.000 0.000
vn 0.000 1.000 0.000
vn 0.000 1.000 0.000
vn 0.000 1.000 0.000
vn 0.000 1.000 0.000
vn 0.000 1.000 0.000
vn 0.000 1.000 0.000
vn 0.000 1.000 0.000
vn 0.000 1.000 0.000
vn 0.000 1.000 0.000
vn 0.000 1.000 0.000
vn 0.000 0.000 1.000
vn 0.000 0.000 1.000
vn 0.000 0.000 1.000
vn 0.000 0.000 1.000
vn 0.000 0.000 1.000
vn 0.000 0.000 1.000
vn -1.000 0.000 0.000
vn -1.000 0.000 0.000
vn -1.000 0.000 0.000
vn -1.000 0.000 0.000
vn -1.000 0.000 0.000
vn -1.000 0.000 0.000
vn 0.000 0.000 -1.000
vn 0.000 0.000 -1.000
vn 0.000 0.000 -1.000
vn 0.000 0.000 -1.000
vn 0.000 0.000 -1.000
vn 0.000 0.000 -1.000
vn 1.000 0.000 0.000
vn 1.000 0.000 0.000
vn 1.000 0.000 0.000
vn 1.000 0.000 0.000
vn 1.000 0.000 0.000
vn 1.000 0.000 0.000
vn 1.000 0.000 0.000
vn 1.000 0.000 0.000
vn 1.000 0.000 0.000
vn 1.000 0.000 0.000
vn 0.000 -1.000 0.000
vn 0.000 -1.000 0.000
vn 0.000 -1.000 0.000
vn 0.000 -1.000 0.000
vn 0.000 -1.000 0.000
vn 0.000 -1.000 0.000
vn 0.000 -1.000 0.000
vn 0.000 -1.000 0.000
vn 0.000 -1.000 0.000
vn 0.000 -1.000 0.000
vn 0.000 -1.000 0.000
vn 0.000 -1.000 0.000
vn 0.000 -1.000 0.000
vn 0.000 -1.000 0.000
vn 0.000 -1.000 0.000
vn 0.000 -1.000 0.000
vn 0.000 -1.000 0.000
vn 0.000 -1.000 0.000
vn 0.000 -1.000 0.000
vn 0.000 -1.000 0.000
vn 0.707 0.000 0.707
vn 0.707 0.000 0.707
vn 0.707 0.000 0.707
vn 0.707 0.000 0.707
vn 0.707 0.000 -0.707
vn 0.707 0.000 -0.707
vn 0.707 0.000 -0.707
vn 0.707 0.000 -0.707
vn -0.707 0.000 0.707
vn -0.707 0.000 0.707
vn -0.707 0.000 0.707
vn -0.707 0.000 0.707
vn -0.707 0.000 -0.707
vn -0.707 0.000 -0.707
vn -0.707 0.000 -0.707
vn -0.707 0.000 -0.707
vn 0.000 1.000 0.000
vn 0.000 1.000 0.000
vn 0.000 1.000 0.000
vn 0.000 1.000 0.000
vn 0.000 1.000 0.000
vn 0.000 1.000 0.000
vn 0.000 1.000 0.000
vn 0.000 1.000 0.000
vn 0.000 0.000 -1.000
vn 0.000 0.000 -1.000
vn 0.000 0.000 -1.000
vn 0.000 0.000 -1.000
vn -0.707 0.000 -0.707
vn -0.707 0.000 -0.707
vn -0.707 0.000 -0.707
vn -0.707 0.000 -0.707
vn -1.000 0.000 0.000
vn -1.000 0.000 0.000
vn -1.000 0.000 0.000
vn -1.000 0.000 0.000
vn -0.707 0.000 0.707
vn -0.707 0.000 0.707
vn -0.707 0.000 0.707
vn -0.707 0.000 0.707
vn 0.000 0.000 1.000
vn 0.000 0.000 1.000
vn 0.000 0.000 1.000
vn 0.000 0.000 1.000
vn 0.707 0.000 0.707
vn 0.707 0.000 0.707
vn 0.707 0.000 0.707
vn 0.707 0.000 0.707
vn 1.000 0.000 0.000
vn 1.000 0.000 0.000
vn 1.000 0.000 0.000
vn 1.000 0.000 0.000
vn 0.707 0.000 -0.707
vn 0.707 0.000 -0.707
vn 0.707 0.000 -0.707
vn 0.707 0.000 -0.707
vn 0.000 0.000 1.000
vn 0.000 0.000 1.000
vn 0.000 0.000 1.000
vn 0.000 0.000 1.000
vn -1.000 0.000 0.000
vn -1.000 0.000 0.000
vn -1.000 0.000 0.000
vn -1.000 0.000 0.000
vn 0.000 0.000 -1.000
vn 0.000 0.000 -1.000
vn 0.000 0.000 -1.000
vn 0.000 0.000 -1.000
vn 0.000 -1.000 0.000
vn 0.000 -1.000 0.000
vn 0.000 -1.000 0.000
vn 0.000 -1.000 0.000
vn 0.000 -1.000 0.000
vn 0.000 -1.000 0.000
vn 0.000 -1.000 0.000
vn 0.000 -1.000 0.000
vn 0.000 -1.000 0.000
vn 0.000 -1.000 0.000
vn 0.000 -1.000 0.000
vn 0.000 -1.000 0.000


usemtl stoneDark

f 1/1/1 3/3/3 2/2/2
f 3/3/3 1/1/1 4/4/4
f 5/5/5 7/7/7 6/6/6
f 7/7/7 5/5/5 8/8/8
f 9/9/9 7/7/7 8/8/8
f 8/8/8 5/5/5 10/10/10
f 7/7/7 9/9/9 11/11/11
f 11/11/11 9/9/9 12/12/12
f 10/10/10 5/5/5 13/13/13
f 10/10/10 13/13/13 14/14/14
f 14/14/14 13/13/13 15/15/15
f 11/11/11 12/12/12 16/16/16
f 15/15/15 13/13/13 17/17/17
f 16/16/16 12/12/12 18/18/18
f 15/15/15 17/17/17 19/19/19
f 16/16/16 18/18/18 19/19/19
f 19/19/19 17/17/17 16/16/16
f 16/16/16 17/17/17 20/20/20
f 21/21/21 23/23/23 22/22/22
f 23/23/23 21/21/21 24/24/24
f 23/23/23 24/24/24 25/25/25
f 24/24/24 21/21/21 26/26/26
f 27/27/27 29/29/29 28/28/28
f 29/29/29 27/27/27 30/30/30
f 30/30/30 27/27/27 31/31/31
f 31/31/31 27/27/27 32/32/32
f 33/33/33 35/35/35 34/34/34
f 35/35/35 33/33/33 36/36/36
f 36/36/36 33/33/33 37/37/37
f 36/36/36 37/37/37 38/38/38
f 39/39/39 41/41/41 40/40/40
f 41/41/41 39/39/39 42/42/42
f 42/42/42 39/39/39 43/43/43
f 42/42/42 43/43/43 44/44/44
f 45/45/45 47/47/47 46/46/46
f 47/47/47 45/45/45 48/48/48
f 49/49/49 51/51/51 50/50/50
f 51/51/51 49/49/49 52/52/52
f 53/53/53 51/51/51 52/52/52
f 52/52/52 49/49/49 54/54/54
f 51/51/51 53/53/53 55/55/55
f 55/55/55 53/53/53 56/56/56
f 55/55/55 56/56/56 57/57/57
f 54/54/54 49/49/49 58/58/58
f 55/55/55 57/57/57 59/59/59
f 54/54/54 58/58/58 60/60/60
f 60/60/60 58/58/58 61/61/61
f 61/61/61 58/58/58 62/62/62
f 59/59/59 57/57/57 63/63/63
f 62/62/62 58/58/58 64/64/64
f 62/62/62 64/64/64 65/65/65
f 65/65/65 64/64/64 66/66/66
f 59/59/59 64/64/64 67/67/67
f 59/59/59 63/63/63 68/68/68
f 66/66/66 64/64/64 68/68/68
f 68/68/68 64/64/64 59/59/59
f 69/69/69 71/71/71 70/70/70
f 71/71/71 69/69/69 72/72/72
f 73/73/73 75/75/75 74/74/74
f 75/75/75 73/73/73 76/76/76
f 77/77/77 79/79/79 78/78/78
f 79/79/79 77/77/77 80/80/80
f 81/81/81 83/83/83 82/82/82
f 83/83/83 81/81/81 84/84/84
f 85/85/85 87/87/87 86/86/86
f 87/87/87 85/85/85 88/88/88
f 88/88/88 85/85/85 89/89/89
f 88/88/88 89/89/89 90/90/90
f 90/90/90 89/89/89 91/91/91
f 90/90/90 91/91/91 92/92/92
f 93/93/93 95/95/95 94/94/94
f 95/95/95 93/93/93 96/96/96
f 97/97/97 99/99/99 98/98/98
f 99/99/99 97/97/97 100/100/100
f 101/101/101 103/103/103 102/102/102
f 103/103/103 101/101/101 104/104/104
f 105/105/105 107/107/107 106/106/106
f 107/107/107 105/105/105 108/108/108
f 109/109/109 111/111/111 110/110/110
f 111/111/111 109/109/109 112/112/112
f 113/113/113 115/115/115 114/114/114
f 115/115/115 113/113/113 116/116/116
f 117/117/117 119/119/119 118/118/118
f 119/119/119 117/117/117 120/120/120
f 121/121/121 123/123/123 122/122/122
f 123/123/123 121/121/121 124/124/124

usemtl stone

f 125/125/125 127/127/127 126/126/126
f 127/127/127 125/125/125 128/128/128
f 129/129/129 131/131/131 130/130/130
f 131/131/131 129/129/129 132/132/132
f 133/133/133 135/135/135 134/134/134
f 135/135/135 133/133/133 136/136/136

usemtl _defaultMat

f 137/137/137 139/139/139 138/138/138
f 140/140/140 142/142/142 141/141/141
f 143/143/143 145/145/145 144/144/144
f 146/146/146 148/148/148 147/147/147
