# Created by Kenney (www.kenney.nl) - UVs and materials modified

mtllib fantasytown.mtl


g fountainSquareDetail

v 1.000 0.140 -0.963
v 0.963 0.140 -1.000
v 0.970 0.112 -0.970
v -1.000 0.140 -0.963
v -0.970 0.112 -0.970
v -0.963 0.140 -1.000
v -0.963 0.140 1.000
v -0.970 0.112 0.970
v -1.000 0.140 0.963
v 0.963 0.140 1.000
v 1.000 0.140 0.963
v 0.970 0.112 0.970
v 0.963 0.280 -1.000
v 0.963 0.140 -1.000
v 1.000 0.140 -0.963
v 1.000 0.280 -0.963
v -1.000 0.140 0.963
v -1.000 0.140 -0.963
v -1.000 0.280 -0.963
v -1.000 0.280 0.963
v -0.970 0.112 -0.970
v -0.970 0.056 -0.970
v 0.970 0.056 -0.970
v 0.970 0.112 -0.970
v 0.700 0.140 -0.700
v 0.700 0.000 -0.700
v -0.700 0.000 -0.700
v -0.700 0.140 -0.700
v 0.700 0.280 -0.700
v -0.700 0.280 -0.700
v -0.970 0.056 0.970
v -0.970 0.056 -0.970
v -0.970 0.112 -0.970
v -0.970 0.112 0.970
v -0.963 0.280 -1.000
v -0.963 0.140 -1.000
v 0.963 0.140 -1.000
v 0.963 0.280 -1.000
v -1.000 0.140 -0.963
v -0.963 0.140 -1.000
v -0.963 0.280 -1.000
v -1.000 0.280 -0.963
v -0.970 0.112 -0.970
v 0.970 0.112 -0.970
v 0.963 0.140 -1.000
v -0.963 0.140 -1.000
v -0.700 0.140 0.700
v -0.700 0.280 0.700
v -0.700 0.280 -0.700
v -0.700 0.140 -0.700
v -0.700 0.000 -0.700
v -0.700 0.000 0.700
v -0.963 0.140 1.000
v -1.000 0.140 0.963
v -1.000 0.280 0.963
v -0.963 0.280 1.000
v 0.700 0.000 0.700
v 0.700 0.000 -0.700
v 0.700 0.140 -0.700
v 0.700 0.140 0.700
v 0.700 0.280 0.700
v 0.700 0.280 -0.700
v 1.000 0.140 0.963
v 1.000 0.140 -0.963
v 0.970 0.112 -0.970
v 0.970 0.112 0.970
v -0.700 0.140 0.700
v -0.700 0.000 0.700
v 0.700 0.000 0.700
v 0.700 0.140 0.700
v -0.700 0.280 0.700
v 0.700 0.280 0.700
v -0.970 0.112 0.970
v -0.970 0.112 -0.970
v -1.000 0.140 -0.963
v -1.000 0.140 0.963
v 0.963 0.140 1.000
v 0.970 0.112 0.970
v -0.970 0.112 0.970
v -0.963 0.140 1.000
v 0.970 0.112 0.970
v 0.970 0.112 -0.970
v 0.970 0.056 -0.970
v 0.970 0.056 0.970
v 0.963 0.280 1.000
v 0.963 0.140 1.000
v -0.963 0.140 1.000
v -0.963 0.280 1.000
v 0.970 0.112 0.970
v 0.970 0.056 0.970
v -0.970 0.056 0.970
v -0.970 0.112 0.970
v 1.000 0.280 0.963
v 1.000 0.280 -0.963
v 1.000 0.140 -0.963
v 1.000 0.140 0.963
v 1.000 0.280 0.963
v 1.000 0.140 0.963
v 0.963 0.140 1.000
v 0.963 0.280 1.000
v 0.250 0.140 0.250
v 0.250 0.280 0.250
v 0.250 0.280 -0.250
v 0.250 0.140 -0.250
v 0.250 0.000 -0.250
v 0.250 0.000 0.250
v 0.250 0.140 -0.250
v 0.250 0.280 -0.250
v -0.250 0.280 -0.250
v -0.250 0.140 -0.250
v 0.250 0.000 -0.250
v -0.250 0.000 -0.250
v -0.250 0.140 0.250
v -0.250 0.000 0.250
v -0.250 0.000 -0.250
v -0.250 0.140 -0.250
v -0.250 0.280 -0.250
v -0.250 0.280 0.250
v -0.250 0.140 0.250
v -0.250 0.280 0.250
v 0.250 0.280 0.250
v 0.250 0.140 0.250
v -0.250 0.000 0.250
v 0.250 0.000 0.250
v -0.275 0.380 -0.275
v -0.250 0.280 -0.250
v 0.250 0.280 -0.250
v 0.275 0.380 -0.275
v 0.275 0.380 0.275
v 0.275 0.380 -0.275
v 0.250 0.280 -0.250
v 0.250 0.280 0.250
v -0.250 0.280 -0.250
v -0.275 0.380 -0.275
v -0.275 0.380 0.275
v -0.250 0.280 0.250
v 0.275 0.380 0.275
v 0.250 0.280 0.250
v -0.250 0.280 0.250
v -0.275 0.380 0.275
v 0.275 0.480 0.275
v 0.275 0.480 -0.275
v 0.275 0.380 -0.275
v 0.275 0.380 0.275
v -0.275 0.480 -0.275
v -0.275 0.380 -0.275
v 0.275 0.380 -0.275
v 0.275 0.480 -0.275
v -0.275 0.380 0.275
v -0.275 0.380 -0.275
v -0.275 0.480 -0.275
v -0.275 0.480 0.275
v 0.275 0.480 0.275
v 0.275 0.380 0.275
v -0.275 0.380 0.275
v -0.275 0.480 0.275
v -0.174 0.480 0.174
v -0.174 0.480 -0.174
v -0.174 0.380 -0.174
v -0.174 0.380 0.174
v -0.174 0.280 -0.174
v -0.174 0.280 0.174
v -0.174 0.380 0.174
v -0.174 0.280 0.174
v 0.174 0.280 0.174
v 0.174 0.380 0.174
v -0.174 0.480 0.174
v 0.174 0.480 0.174
v 0.174 0.280 0.174
v 0.174 0.280 -0.174
v 0.174 0.380 -0.174
v 0.174 0.380 0.174
v 0.174 0.480 -0.174
v 0.174 0.480 0.174
v -0.174 0.380 -0.174
v -0.174 0.480 -0.174
v 0.174 0.480 -0.174
v 0.174 0.380 -0.174
v -0.174 0.280 -0.174
v 0.174 0.280 -0.174
v 0.174 0.280 -0.174
v 0.174 0.280 0.174
v -0.174 0.280 0.174
v -0.174 0.280 -0.174
v 0.925 0.280 -0.925
v 0.925 0.280 0.925
v 0.700 0.280 -0.700
v -0.925 0.280 -0.925
v 0.700 0.280 0.700
v -0.700 0.280 -0.700
v -0.925 0.280 0.925
v -0.700 0.280 0.700
v 1.000 0.000 -1.000
v -1.000 0.000 -1.000
v 0.700 0.000 -0.700
v 1.000 0.000 1.000
v -0.700 0.000 -0.700
v 0.700 0.000 0.700
v -0.700 0.000 0.700
v -1.000 0.000 1.000
v -0.700 0.000 0.700
v -0.250 0.000 0.250
v 0.250 0.000 0.250
v -0.250 0.000 -0.250
v 0.700 0.000 0.700
v -0.700 0.000 -0.700
v 0.250 0.000 -0.250
v 0.700 0.000 -0.700
v 0.275 0.480 0.275
v -0.275 0.480 0.275
v 0.174 0.480 0.174
v 0.275 0.480 -0.275
v -0.174 0.480 0.174
v 0.174 0.480 -0.174
v -0.174 0.480 -0.174
v -0.275 0.480 -0.275
v -1.000 0.000 1.000
v -1.000 0.000 -1.000
v -1.000 0.056 -1.000
v -1.000 0.056 1.000
v -1.000 0.056 -1.000
v -1.000 0.000 -1.000
v 1.000 0.000 -1.000
v 1.000 0.056 -1.000
v 0.963 0.280 -1.000
v 1.000 0.280 -0.963
v 1.000 0.280 0.963
v 0.963 0.280 1.000
v -0.963 0.280 -1.000
v -0.963 0.280 1.000
v -1.000 0.280 -0.963
v -1.000 0.280 0.963
v 1.000 0.056 1.000
v 1.000 0.056 -1.000
v 1.000 0.000 -1.000
v 1.000 0.000 1.000
v 1.000 0.056 1.000
v 1.000 0.000 1.000
v -1.000 0.000 1.000
v -1.000 0.056 1.000
v 1.000 0.056 -1.000
v 1.000 0.056 1.000
v 0.970 0.056 -0.970
v -1.000 0.056 -1.000
v 0.970 0.056 0.970
v -0.970 0.056 -0.970
v -1.000 0.056 1.000
v -0.970 0.056 0.970
v 0.174 0.380 -0.174
v 0.174 0.380 0.174
v -0.174 0.380 0.174
v -0.174 0.380 -0.174
v 0.174 0.380 0.174
v 0.174 0.380 -0.174
v -0.174 0.380 0.174
v -0.174 0.380 -0.174
v 0.700 0.140 -0.700
v 0.700 0.140 0.700
v 0.250 0.140 -0.250
v -0.700 0.140 -0.700
v 0.250 0.140 0.250
v -0.250 0.140 -0.250
v -0.700 0.140 0.700
v -0.250 0.140 0.250
v 0.700 0.140 0.700
v 0.700 0.140 -0.700
v 0.250 0.140 -0.250
v -0.700 0.140 -0.700
v 0.250 0.140 0.250
v -0.250 0.140 -0.250
v -0.700 0.140 0.700
v -0.250 0.140 0.250

vt 0.027 0.807
vt -0.027 0.807
vt 0.000 0.775
vt -0.027 0.807
vt 0.000 0.775
vt 0.027 0.807
vt -0.027 0.807
vt 0.000 0.775
vt 0.027 0.807
vt 0.027 0.807
vt -0.027 0.807
vt 0.000 0.775
vt -0.027 0.280
vt -0.027 0.140
vt 0.027 0.140
vt 0.027 0.280
vt -0.963 0.140
vt 0.963 0.140
vt 0.963 0.280
vt -0.963 0.280
vt -0.970 0.112
vt -0.970 0.056
vt 0.970 0.056
vt 0.970 0.112
vt -0.700 0.140
vt -0.700 0.000
vt 0.700 0.000
vt 0.700 0.140
vt -0.700 0.280
vt 0.700 0.280
vt -0.970 0.056
vt 0.970 0.056
vt 0.970 0.112
vt -0.970 0.112
vt -0.963 0.280
vt -0.963 0.140
vt 0.963 0.140
vt 0.963 0.280
vt -0.027 0.140
vt 0.027 0.140
vt 0.027 0.280
vt -0.027 0.280
vt -0.970 0.786
vt 0.970 0.786
vt 0.963 0.827
vt -0.963 0.827
vt 0.700 0.140
vt 0.700 0.280
vt -0.700 0.280
vt -0.700 0.140
vt -0.700 0.000
vt 0.700 0.000
vt -0.027 0.140
vt 0.027 0.140
vt 0.027 0.280
vt -0.027 0.280
vt -0.700 0.000
vt 0.700 0.000
vt 0.700 0.140
vt -0.700 0.140
vt -0.700 0.280
vt 0.700 0.280
vt 0.963 0.827
vt -0.963 0.827
vt -0.970 0.786
vt 0.970 0.786
vt -0.700 0.140
vt -0.700 0.000
vt 0.700 0.000
vt 0.700 0.140
vt -0.700 0.280
vt 0.700 0.280
vt -0.970 0.786
vt 0.970 0.786
vt 0.963 0.827
vt -0.963 0.827
vt -0.963 0.827
vt -0.970 0.786
vt 0.970 0.786
vt 0.963 0.827
vt 0.970 0.112
vt -0.970 0.112
vt -0.970 0.056
vt 0.970 0.056
vt -0.963 0.280
vt -0.963 0.140
vt 0.963 0.140
vt 0.963 0.280
vt -0.970 0.112
vt -0.970 0.056
vt 0.970 0.056
vt 0.970 0.112
vt 0.963 0.280
vt -0.963 0.280
vt -0.963 0.140
vt 0.963 0.140
vt -0.027 0.280
vt -0.027 0.140
vt 0.027 0.140
vt 0.027 0.280
vt 0.250 0.140
vt 0.250 0.280
vt -0.250 0.280
vt -0.250 0.140
vt -0.250 0.000
vt 0.250 0.000
vt 0.250 0.140
vt 0.250 0.280
vt -0.250 0.280
vt -0.250 0.140
vt 0.250 0.000
vt -0.250 0.000
vt -0.250 0.140
vt -0.250 0.000
vt 0.250 0.000
vt 0.250 0.140
vt 0.250 0.280
vt -0.250 0.280
vt 0.250 0.140
vt 0.250 0.280
vt -0.250 0.280
vt -0.250 0.140
vt 0.250 0.000
vt -0.250 0.000
vt -0.275 0.383
vt -0.250 0.280
vt 0.250 0.280
vt 0.275 0.383
vt 0.275 0.383
vt -0.275 0.383
vt -0.250 0.280
vt 0.250 0.280
vt 0.250 0.280
vt 0.275 0.383
vt -0.275 0.383
vt -0.250 0.280
vt -0.275 0.383
vt -0.250 0.280
vt 0.250 0.280
vt 0.275 0.383
vt 0.275 0.483
vt -0.275 0.483
vt -0.275 0.383
vt 0.275 0.383
vt -0.275 0.483
vt -0.275 0.383
vt 0.275 0.383
vt 0.275 0.483
vt -0.275 0.383
vt 0.275 0.383
vt 0.275 0.483
vt -0.275 0.483
vt -0.275 0.483
vt -0.275 0.383
vt 0.275 0.383
vt 0.275 0.483
vt 0.174 0.480
vt -0.174 0.480
vt -0.174 0.380
vt 0.174 0.380
vt -0.174 0.280
vt 0.174 0.280
vt -0.174 0.380
vt -0.174 0.280
vt 0.174 0.280
vt 0.174 0.380
vt -0.174 0.480
vt 0.174 0.480
vt -0.174 0.280
vt 0.174 0.280
vt 0.174 0.380
vt -0.174 0.380
vt 0.174 0.480
vt -0.174 0.480
vt 0.174 0.380
vt 0.174 0.480
vt -0.174 0.480
vt -0.174 0.380
vt 0.174 0.280
vt -0.174 0.280
vt -0.174 -0.174
vt 0.174 -0.174
vt 0.174 0.174
vt -0.174 0.174
vt -0.925 -0.925
vt 0.925 -0.925
vt -0.700 -0.700
vt -0.925 0.925
vt 0.700 -0.700
vt -0.700 0.700
vt 0.925 0.925
vt 0.700 0.700
vt 1.000 -1.000
vt 1.000 1.000
vt 0.700 -0.700
vt -1.000 -1.000
vt 0.700 0.700
vt -0.700 -0.700
vt -0.700 0.700
vt -1.000 1.000
vt 0.700 0.700
vt 0.250 0.250
vt 0.250 -0.250
vt -0.250 0.250
vt 0.700 -0.700
vt -0.700 0.700
vt -0.250 -0.250
vt -0.700 -0.700
vt 0.275 -0.275
vt 0.275 0.275
vt 0.174 -0.174
vt -0.275 -0.275
vt 0.174 0.174
vt -0.174 -0.174
vt -0.174 0.174
vt -0.275 0.275
vt -1.000 0.000
vt 1.000 0.000
vt 1.000 0.056
vt -1.000 0.056
vt -1.000 0.056
vt -1.000 0.000
vt 1.000 0.000
vt 1.000 0.056
vt -1.000 -0.963
vt -0.963 -1.000
vt 0.963 -1.000
vt 1.000 -0.963
vt -1.000 0.963
vt 1.000 0.963
vt -0.963 1.000
vt 0.963 1.000
vt 1.000 0.056
vt -1.000 0.056
vt -1.000 0.000
vt 1.000 0.000
vt -1.000 0.056
vt -1.000 0.000
vt 1.000 0.000
vt 1.000 0.056
vt -1.000 -1.000
vt 1.000 -1.000
vt -0.970 -0.970
vt -1.000 1.000
vt 0.970 -0.970
vt -0.970 0.970
vt 1.000 1.000
vt 0.970 0.970
vt -0.174 -0.174
vt 0.174 -0.174
vt 0.174 0.174
vt -0.174 0.174
vt -0.174 -0.174
vt 0.174 -0.174
vt -0.174 0.174
vt 0.174 0.174
vt -0.700 -0.700
vt 0.700 -0.700
vt -0.250 -0.250
vt -0.700 0.700
vt 0.250 -0.250
vt -0.250 0.250
vt 0.700 0.700
vt 0.250 0.250
vt -0.700 -0.700
vt 0.700 -0.700
vt 0.250 -0.250
vt 0.700 0.700
vt -0.250 -0.250
vt 0.250 0.250
vt -0.700 0.700
vt -0.250 0.250

vn 0.615 -0.494 -0.615
vn 0.615 -0.494 -0.615
vn 0.615 -0.494 -0.615
vn -0.615 -0.494 -0.615
vn -0.615 -0.494 -0.615
vn -0.615 -0.494 -0.615
vn -0.615 -0.494 0.615
vn -0.615 -0.494 0.615
vn -0.615 -0.494 0.615
vn 0.615 -0.494 0.615
vn 0.615 -0.494 0.615
vn 0.615 -0.494 0.615
vn 0.707 0.000 -0.707
vn 0.707 0.000 -0.707
vn 0.707 0.000 -0.707
vn 0.707 0.000 -0.707
vn -1.000 0.000 0.000
vn -1.000 0.000 0.000
vn -1.000 0.000 0.000
vn -1.000 0.000 0.000
vn 0.000 0.000 -1.000
vn 0.000 0.000 -1.000
vn 0.000 0.000 -1.000
vn 0.000 0.000 -1.000
vn 0.000 0.000 1.000
vn 0.000 0.000 1.000
vn 0.000 0.000 1.000
vn 0.000 0.000 1.000
vn 0.000 0.000 1.000
vn 0.000 0.000 1.000
vn -1.000 0.000 0.000
vn -1.000 0.000 0.000
vn -1.000 0.000 0.000
vn -1.000 0.000 0.000
vn 0.000 0.000 -1.000
vn 0.000 0.000 -1.000
vn 0.000 0.000 -1.000
vn 0.000 0.000 -1.000
vn -0.707 0.000 -0.707
vn -0.707 0.000 -0.707
vn -0.707 0.000 -0.707
vn -0.707 0.000 -0.707
vn 0.000 -0.731 -0.682
vn 0.000 -0.731 -0.682
vn 0.000 -0.731 -0.682
vn 0.000 -0.731 -0.682
vn 1.000 0.000 0.000
vn 1.000 0.000 0.000
vn 1.000 0.000 0.000
vn 1.000 0.000 0.000
vn 1.000 0.000 0.000
vn 1.000 0.000 0.000
vn -0.707 0.000 0.707
vn -0.707 0.000 0.707
vn -0.707 0.000 0.707
vn -0.707 0.000 0.707
vn -1.000 0.000 0.000
vn -1.000 0.000 0.000
vn -1.000 0.000 0.000
vn -1.000 0.000 0.000
vn -1.000 0.000 0.000
vn -1.000 0.000 0.000
vn 0.682 -0.731 0.000
vn 0.682 -0.731 0.000
vn 0.682 -0.731 0.000
vn 0.682 -0.731 0.000
vn 0.000 0.000 -1.000
vn 0.000 0.000 -1.000
vn 0.000 0.000 -1.000
vn 0.000 0.000 -1.000
vn 0.000 0.000 -1.000
vn 0.000 0.000 -1.000
vn -0.682 -0.731 0.000
vn -0.682 -0.731 0.000
vn -0.682 -0.731 0.000
vn -0.682 -0.731 0.000
vn 0.000 -0.731 0.682
vn 0.000 -0.731 0.682
vn 0.000 -0.731 0.682
vn 0.000 -0.731 0.682
vn 1.000 0.000 0.000
vn 1.000 0.000 0.000
vn 1.000 0.000 0.000
vn 1.000 0.000 0.000
vn 0.000 0.000 1.000
vn 0.000 0.000 1.000
vn 0.000 0.000 1.000
vn 0.000 0.000 1.000
vn 0.000 0.000 1.000
vn 0.000 0.000 1.000
vn 0.000 0.000 1.000
vn 0.000 0.000 1.000
vn 1.000 0.000 0.000
vn 1.000 0.000 0.000
vn 1.000 0.000 0.000
vn 1.000 0.000 0.000
vn 0.707 0.000 0.707
vn 0.707 0.000 0.707
vn 0.707 0.000 0.707
vn 0.707 0.000 0.707
vn 1.000 0.000 0.000
vn 0.991 -0.131 0.000
vn 0.991 -0.131 0.000
vn 1.000 0.000 0.000
vn 1.000 0.000 0.000
vn 1.000 0.000 0.000
vn 0.000 0.000 -1.000
vn 0.000 -0.131 -0.991
vn 0.000 -0.131 -0.991
vn 0.000 0.000 -1.000
vn 0.000 0.000 -1.000
vn 0.000 0.000 -1.000
vn -1.000 0.000 0.000
vn -1.000 0.000 0.000
vn -1.000 0.000 0.000
vn -1.000 0.000 0.000
vn -0.991 -0.131 0.000
vn -0.991 -0.131 0.000
vn 0.000 0.000 1.000
vn 0.000 -0.131 0.991
vn 0.000 -0.131 0.991
vn 0.000 0.000 1.000
vn 0.000 0.000 1.000
vn 0.000 0.000 1.000
vn 0.000 -0.112 -0.994
vn 0.000 -0.131 -0.991
vn 0.000 -0.131 -0.991
vn 0.000 -0.112 -0.994
vn 0.994 -0.112 0.000
vn 0.994 -0.112 0.000
vn 0.991 -0.131 0.000
vn 0.991 -0.131 0.000
vn -0.991 -0.131 0.000
vn -0.994 -0.112 0.000
vn -0.994 -0.112 0.000
vn -0.991 -0.131 0.000
vn 0.000 -0.112 0.994
vn 0.000 -0.131 0.991
vn 0.000 -0.131 0.991
vn 0.000 -0.112 0.994
vn 1.000 0.000 0.000
vn 1.000 0.000 0.000
vn 0.994 -0.112 0.000
vn 0.994 -0.112 0.000
vn 0.000 0.000 -1.000
vn 0.000 -0.112 -0.994
vn 0.000 -0.112 -0.994
vn 0.000 0.000 -1.000
vn -0.994 -0.112 0.000
vn -0.994 -0.112 0.000
vn -1.000 0.000 0.000
vn -1.000 0.000 0.000
vn 0.000 0.000 1.000
vn 0.000 -0.112 0.994
vn 0.000 -0.112 0.994
vn 0.000 0.000 1.000
vn 1.000 0.000 0.000
vn 1.000 0.000 0.000
vn 1.000 0.000 0.000
vn 1.000 0.000 0.000
vn 1.000 0.000 0.000
vn 1.000 0.000 0.000
vn 0.000 0.000 -1.000
vn 0.000 0.000 -1.000
vn 0.000 0.000 -1.000
vn 0.000 0.000 -1.000
vn 0.000 0.000 -1.000
vn 0.000 0.000 -1.000
vn -1.000 0.000 0.000
vn -1.000 0.000 0.000
vn -1.000 0.000 0.000
vn -1.000 0.000 0.000
vn -1.000 0.000 0.000
vn -1.000 0.000 0.000
vn 0.000 0.000 1.000
vn 0.000 0.000 1.000
vn 0.000 0.000 1.000
vn 0.000 0.000 1.000
vn 0.000 0.000 1.000
vn 0.000 0.000 1.000
vn 0.000 1.000 0.000
vn 0.000 1.000 0.000
vn 0.000 1.000 0.000
vn 0.000 1.000 0.000
vn 0.000 1.000 0.000
vn 0.000 1.000 0.000
vn 0.000 1.000 0.000
vn 0.000 1.000 0.000
vn 0.000 1.000 0.000
vn 0.000 1.000 0.000
vn 0.000 1.000 0.000
vn 0.000 1.000 0.000
vn 0.000 -1.000 0.000
vn 0.000 -1.000 0.000
vn 0.000 -1.000 0.000
vn 0.000 -1.000 0.000
vn 0.000 -1.000 0.000
vn 0.000 -1.000 0.000
vn 0.000 -1.000 0.000
vn 0.000 -1.000 0.000
vn 0.000 1.000 0.000
vn 0.000 1.000 0.000
vn 0.000 1.000 0.000
vn 0.000 1.000 0.000
vn 0.000 1.000 0.000
vn 0.000 1.000 0.000
vn 0.000 1.000 0.000
vn 0.000 1.000 0.000
vn 0.000 1.000 0.000
vn 0.000 1.000 0.000
vn 0.000 1.000 0.000
vn 0.000 1.000 0.000
vn 0.000 1.000 0.000
vn 0.000 1.000 0.000
vn 0.000 1.000 0.000
vn 0.000 1.000 0.000
vn -1.000 0.000 0.000
vn -1.000 0.000 0.000
vn -1.000 0.000 0.000
vn -1.000 0.000 0.000
vn 0.000 0.000 -1.000
vn 0.000 0.000 -1.000
vn 0.000 0.000 -1.000
vn 0.000 0.000 -1.000
vn 0.000 1.000 0.000
vn 0.000 1.000 0.000
vn 0.000 1.000 0.000
vn 0.000 1.000 0.000
vn 0.000 1.000 0.000
vn 0.000 1.000 0.000
vn 0.000 1.000 0.000
vn 0.000 1.000 0.000
vn 1.000 0.000 0.000
vn 1.000 0.000 0.000
vn 1.000 0.000 0.000
vn 1.000 0.000 0.000
vn 0.000 0.000 1.000
vn 0.000 0.000 1.000
vn 0.000 0.000 1.000
vn 0.000 0.000 1.000
vn 0.000 1.000 0.000
vn 0.000 1.000 0.000
vn 0.000 1.000 0.000
vn 0.000 1.000 0.000
vn 0.000 1.000 0.000
vn 0.000 1.000 0.000
vn 0.000 1.000 0.000
vn 0.000 1.000 0.000
vn 0.000 1.000 0.000
vn 0.000 1.000 0.000
vn 0.000 1.000 0.000
vn 0.000 1.000 0.000
vn 0.000 -1.000 0.000
vn 0.000 -1.000 0.000
vn 0.000 -1.000 0.000
vn 0.000 -1.000 0.000
vn 0.000 1.000 0.000
vn 0.000 1.000 0.000
vn 0.000 1.000 0.000
vn 0.000 1.000 0.000
vn 0.000 1.000 0.000
vn 0.000 1.000 0.000
vn 0.000 1.000 0.000
vn 0.000 1.000 0.000
vn 0.000 -1.000 0.000
vn 0.000 -1.000 0.000
vn 0.000 -1.000 0.000
vn 0.000 -1.000 0.000
vn 0.000 -1.000 0.000
vn 0.000 -1.000 0.000
vn 0.000 -1.000 0.000
vn 0.000 -1.000 0.000


usemtl stone

f 1/1/1 3/3/3 2/2/2
f 4/4/4 6/6/6 5/5/5
f 7/7/7 9/9/9 8/8/8
f 10/10/10 12/12/12 11/11/11
f 13/13/13 15/15/15 14/14/14
f 15/15/15 13/13/13 16/16/16
f 17/17/17 19/19/19 18/18/18
f 19/19/19 17/17/17 20/20/20
f 21/21/21 23/23/23 22/22/22
f 23/23/23 21/21/21 24/24/24
f 25/25/25 27/27/27 26/26/26
f 27/27/27 25/25/25 28/28/28
f 29/29/29 28/28/28 25/25/25
f 28/28/28 29/29/29 30/30/30
f 31/31/31 33/33/33 32/32/32
f 33/33/33 31/31/31 34/34/34
f 35/35/35 37/37/37 36/36/36
f 37/37/37 35/35/35 38/38/38
f 39/39/39 41/41/41 40/40/40
f 41/41/41 39/39/39 42/42/42
f 43/43/43 45/45/45 44/44/44
f 45/45/45 43/43/43 46/46/46
f 47/47/47 49/49/49 48/48/48
f 49/49/49 47/47/47 50/50/50
f 47/47/47 51/51/51 50/50/50
f 51/51/51 47/47/47 52/52/52
f 53/53/53 55/55/55 54/54/54
f 55/55/55 53/53/53 56/56/56
f 57/57/57 59/59/59 58/58/58
f 59/59/59 57/57/57 60/60/60
f 61/61/61 59/59/59 60/60/60
f 59/59/59 61/61/61 62/62/62
f 63/63/63 65/65/65 64/64/64
f 65/65/65 63/63/63 66/66/66
f 67/67/67 69/69/69 68/68/68
f 69/69/69 67/67/67 70/70/70
f 71/71/71 70/70/70 67/67/67
f 70/70/70 71/71/71 72/72/72
f 73/73/73 75/75/75 74/74/74
f 75/75/75 73/73/73 76/76/76
f 77/77/77 79/79/79 78/78/78
f 79/79/79 77/77/77 80/80/80
f 81/81/81 83/83/83 82/82/82
f 83/83/83 81/81/81 84/84/84
f 85/85/85 87/87/87 86/86/86
f 87/87/87 85/85/85 88/88/88
f 89/89/89 91/91/91 90/90/90
f 91/91/91 89/89/89 92/92/92
f 93/93/93 95/95/95 94/94/94
f 95/95/95 93/93/93 96/96/96
f 97/97/97 99/99/99 98/98/98
f 99/99/99 97/97/97 100/100/100
f 101/101/101 103/103/103 102/102/102
f 103/103/103 101/101/101 104/104/104
f 101/101/101 105/105/105 104/104/104
f 105/105/105 101/101/101 106/106/106
f 107/107/107 109/109/109 108/108/108
f 109/109/109 107/107/107 110/110/110
f 111/111/111 110/110/110 107/107/107
f 110/110/110 111/111/111 112/112/112
f 113/113/113 115/115/115 114/114/114
f 115/115/115 113/113/113 116/116/116
f 113/113/113 117/117/117 116/116/116
f 117/117/117 113/113/113 118/118/118
f 119/119/119 121/121/121 120/120/120
f 121/121/121 119/119/119 122/122/122
f 123/123/123 122/122/122 119/119/119
f 122/122/122 123/123/123 124/124/124
f 125/125/125 127/127/127 126/126/126
f 127/127/127 125/125/125 128/128/128
f 129/129/129 131/131/131 130/130/130
f 131/131/131 129/129/129 132/132/132
f 133/133/133 135/135/135 134/134/134
f 135/135/135 133/133/133 136/136/136
f 137/137/137 139/139/139 138/138/138
f 139/139/139 137/137/137 140/140/140
f 141/141/141 143/143/143 142/142/142
f 143/143/143 141/141/141 144/144/144
f 145/145/145 147/147/147 146/146/146
f 147/147/147 145/145/145 148/148/148
f 149/149/149 151/151/151 150/150/150
f 151/151/151 149/149/149 152/152/152
f 153/153/153 155/155/155 154/154/154
f 155/155/155 153/153/153 156/156/156
f 157/157/157 159/159/159 158/158/158
f 159/159/159 157/157/157 160/160/160
f 160/160/160 161/161/161 159/159/159
f 161/161/161 160/160/160 162/162/162
f 163/163/163 165/165/165 164/164/164
f 165/165/165 163/163/163 166/166/166
f 167/167/167 166/166/166 163/163/163
f 166/166/166 167/167/167 168/168/168
f 169/169/169 171/171/171 170/170/170
f 171/171/171 169/169/169 172/172/172
f 172/172/172 173/173/173 171/171/171
f 173/173/173 172/172/172 174/174/174
f 175/175/175 177/177/177 176/176/176
f 177/177/177 175/175/175 178/178/178
f 179/179/179 178/178/178 175/175/175
f 178/178/178 179/179/179 180/180/180
f 181/181/181 183/183/183 182/182/182
f 183/183/183 181/181/181 184/184/184
f 185/185/185 187/187/187 186/186/186
f 187/187/187 185/185/185 188/188/188
f 189/189/189 186/186/186 187/187/187
f 187/187/187 188/188/188 190/190/190
f 186/186/186 189/189/189 191/191/191
f 190/190/190 188/188/188 192/192/192
f 191/191/191 189/189/189 192/192/192
f 191/191/191 192/192/192 188/188/188
f 193/193/193 195/195/195 194/194/194
f 195/195/195 193/193/193 196/196/196
f 194/194/194 195/195/195 197/197/197
f 196/196/196 198/198/198 195/195/195
f 194/194/194 197/197/197 199/199/199
f 198/198/198 196/196/196 200/200/200
f 199/199/199 200/200/200 194/194/194
f 198/198/198 200/200/200 199/199/199
f 201/201/201 203/203/203 202/202/202
f 201/201/201 202/202/202 204/204/204
f 203/203/203 201/201/201 205/205/205
f 201/201/201 204/204/204 206/206/206
f 205/205/205 207/207/207 203/203/203
f 207/207/207 206/206/206 204/204/204
f 208/208/208 207/207/207 205/205/205
f 207/207/207 208/208/208 206/206/206
f 209/209/209 211/211/211 210/210/210
f 211/211/211 209/209/209 212/212/212
f 210/210/210 211/211/211 213/213/213
f 212/212/212 214/214/214 211/211/211
f 210/210/210 213/213/213 215/215/215
f 214/214/214 212/212/212 216/216/216
f 215/215/215 216/216/216 210/210/210
f 214/214/214 216/216/216 215/215/215

usemtl stoneDark

f 217/217/217 219/219/219 218/218/218
f 219/219/219 217/217/217 220/220/220
f 221/221/221 223/223/223 222/222/222
f 223/223/223 221/221/221 224/224/224
f 225/225/225 227/227/227 226/226/226
f 227/227/227 225/225/225 228/228/228
f 228/228/228 225/225/225 185/185/185
f 185/185/185 225/225/225 229/229/229
f 186/186/186 228/228/228 185/185/185
f 185/185/185 229/229/229 188/188/188
f 228/228/228 186/186/186 230/230/230
f 188/188/188 229/229/229 191/191/191
f 230/230/230 186/186/186 191/191/191
f 230/230/230 191/191/191 229/229/229
f 230/230/230 229/229/229 231/231/231
f 230/230/230 231/231/231 232/232/232
f 233/233/233 235/235/235 234/234/234
f 235/235/235 233/233/233 236/236/236
f 237/237/237 239/239/239 238/238/238
f 239/239/239 237/237/237 240/240/240
f 241/241/241 243/243/243 242/242/242
f 243/243/243 241/241/241 244/244/244
f 245/245/245 242/242/242 243/243/243
f 243/243/243 244/244/244 246/246/246
f 242/242/242 245/245/245 247/247/247
f 246/246/246 244/244/244 248/248/248
f 247/247/247 245/245/245 248/248/248
f 247/247/247 248/248/248 244/244/244

usemtl water

f 249/249/249 251/251/251 250/250/250
f 251/251/251 249/249/249 252/252/252
f 253/253/253 255/255/255 254/254/254
f 256/256/256 254/254/254 255/255/255
f 257/257/257 259/259/259 258/258/258
f 259/259/259 257/257/257 260/260/260
f 258/258/258 259/259/259 261/261/261
f 259/259/259 260/260/260 262/262/262
f 261/261/261 263/263/263 258/258/258
f 263/263/263 262/262/262 260/260/260
f 263/263/263 261/261/261 264/264/264
f 263/263/263 264/264/264 262/262/262
f 265/265/265 267/267/267 266/266/266
f 268/268/268 266/266/266 267/267/267
f 269/269/269 267/267/267 265/265/265
f 270/270/270 268/268/268 267/267/267
f 265/265/265 271/271/271 269/269/269
f 268/268/268 270/270/270 271/271/271
f 272/272/272 269/269/269 271/271/271
f 270/270/270 272/272/272 271/271/271
