# Created by Kenney (www.kenney.nl) - UVs and materials modified

mtllib fantasytown.mtl


g fountainEdge

v -0.200 0.140 0.500
v -0.200 0.280 0.500
v -0.200 0.280 -0.500
v -0.200 0.140 -0.500
v -0.200 0.000 0.500
v -0.200 0.000 -0.500
v -0.200 0.280 -0.500
v -0.200 0.280 0.500
v -0.425 0.280 0.500
v -0.425 0.280 -0.500
v -0.470 0.112 0.500
v -0.470 0.056 0.500
v -0.470 0.056 -0.500
v -0.470 0.112 -0.500
v -0.500 0.140 -0.500
v -0.500 0.140 0.500
v -0.470 0.112 0.500
v -0.470 0.112 -0.500
v 0.500 0.000 -0.500
v 0.500 0.000 0.500
v -0.200 0.000 0.500
v -0.200 0.000 -0.500
v -0.500 0.280 0.500
v -0.500 0.140 0.500
v -0.500 0.140 -0.500
v -0.500 0.280 -0.500
v -0.500 0.000 -0.500
v -0.200 0.000 -0.500
v -0.200 0.140 -0.500
v -0.200 0.280 -0.500
v -0.470 0.056 -0.500
v -0.500 0.056 -0.500
v -0.425 0.280 -0.500
v -0.470 0.112 -0.500
v -0.500 0.280 -0.500
v -0.500 0.140 -0.500
v -0.470 0.112 0.500
v -0.500 0.140 0.500
v -0.500 0.280 0.500
v -0.425 0.280 0.500
v -0.470 0.056 0.500
v -0.200 0.000 0.500
v -0.200 0.140 0.500
v -0.200 0.280 0.500
v -0.500 0.000 0.500
v -0.500 0.056 0.500
v -0.500 0.000 0.500
v -0.200 0.000 0.500
v -0.200 0.000 -0.500
v -0.500 0.000 -0.500
v -0.470 0.056 -0.500
v -0.470 0.056 0.500
v -0.500 0.056 0.500
v -0.500 0.056 -0.500
v -0.500 0.280 0.500
v -0.500 0.280 -0.500
v -0.500 0.056 0.500
v -0.500 0.000 0.500
v -0.500 0.000 -0.500
v -0.500 0.056 -0.500
v 0.500 0.140 -0.500
v 0.500 0.140 0.500
v -0.200 0.140 0.500
v -0.200 0.140 -0.500

vt 0.500 0.140
vt 0.500 0.280
vt -0.500 0.280
vt -0.500 0.140
vt 0.500 0.000
vt -0.500 0.000
vt -0.500 0.200
vt 0.500 0.200
vt 0.500 0.425
vt -0.500 0.425
vt -0.500 0.112
vt -0.500 0.056
vt 0.500 0.056
vt 0.500 0.112
vt 0.500 0.461
vt -0.500 0.461
vt -0.500 0.420
vt 0.500 0.420
vt -0.500 -0.500
vt 0.500 -0.500
vt 0.500 0.200
vt -0.500 0.200
vt -0.500 0.280
vt -0.500 0.140
vt 0.500 0.140
vt 0.500 0.280
vt -0.500 0.000
vt -0.200 0.000
vt -0.200 0.140
vt -0.200 0.280
vt -0.470 0.056
vt -0.500 0.056
vt -0.425 0.280
vt -0.470 0.112
vt -0.500 0.280
vt -0.500 0.140
vt 0.470 0.112
vt 0.500 0.140
vt 0.500 0.280
vt 0.425 0.280
vt 0.470 0.056
vt 0.200 0.000
vt 0.200 0.140
vt 0.200 0.280
vt 0.500 0.000
vt 0.500 0.056
vt -0.500 0.500
vt -0.500 0.200
vt 0.500 0.200
vt 0.500 0.500
vt -0.500 0.470
vt 0.500 0.470
vt 0.500 0.500
vt -0.500 0.500
vt 0.500 0.500
vt -0.500 0.500
vt -0.500 0.056
vt -0.500 0.000
vt 0.500 0.000
vt 0.500 0.056
vt -0.500 -0.500
vt 0.500 -0.500
vt 0.500 0.200
vt -0.500 0.200

vn 1.000 0.000 0.000
vn 1.000 0.000 0.000
vn 1.000 0.000 0.000
vn 1.000 0.000 0.000
vn 1.000 0.000 0.000
vn 1.000 0.000 0.000
vn 0.000 1.000 0.000
vn 0.000 1.000 0.000
vn 0.000 1.000 0.000
vn 0.000 1.000 0.000
vn -1.000 0.000 0.000
vn -1.000 0.000 0.000
vn -1.000 0.000 0.000
vn -1.000 0.000 0.000
vn -0.682 -0.731 0.000
vn -0.682 -0.731 0.000
vn -0.682 -0.731 0.000
vn -0.682 -0.731 0.000
vn 0.000 1.000 0.000
vn 0.000 1.000 0.000
vn 0.000 1.000 0.000
vn 0.000 1.000 0.000
vn -1.000 0.000 0.000
vn -1.000 0.000 0.000
vn -1.000 0.000 0.000
vn -1.000 0.000 0.000
vn 0.000 0.000 -1.000
vn 0.000 0.000 -1.000
vn 0.000 0.000 -1.000
vn 0.000 0.000 -1.000
vn 0.000 0.000 -1.000
vn 0.000 0.000 -1.000
vn 0.000 0.000 -1.000
vn 0.000 0.000 -1.000
vn 0.000 0.000 -1.000
vn 0.000 0.000 -1.000
vn 0.000 0.000 1.000
vn 0.000 0.000 1.000
vn 0.000 0.000 1.000
vn 0.000 0.000 1.000
vn 0.000 0.000 1.000
vn 0.000 0.000 1.000
vn 0.000 0.000 1.000
vn 0.000 0.000 1.000
vn 0.000 0.000 1.000
vn 0.000 0.000 1.000
vn 0.000 -1.000 0.000
vn 0.000 -1.000 0.000
vn 0.000 -1.000 0.000
vn 0.000 -1.000 0.000
vn 0.000 1.000 0.000
vn 0.000 1.000 0.000
vn 0.000 1.000 0.000
vn 0.000 1.000 0.000
vn 0.000 1.000 0.000
vn 0.000 1.000 0.000
vn -1.000 0.000 0.000
vn -1.000 0.000 0.000
vn -1.000 0.000 0.000
vn -1.000 0.000 0.000
vn 0.000 1.000 0.000
vn 0.000 1.000 0.000
vn 0.000 1.000 0.000
vn 0.000 1.000 0.000


usemtl stone

f 1/1/1 3/3/3 2/2/2
f 3/3/3 1/1/1 4/4/4
f 5/5/5 4/4/4 1/1/1
f 4/4/4 5/5/5 6/6/6
f 7/7/7 9/9/9 8/8/8
f 9/9/9 7/7/7 10/10/10
f 11/11/11 13/13/13 12/12/12
f 13/13/13 11/11/11 14/14/14
f 15/15/15 17/17/17 16/16/16
f 17/17/17 15/15/15 18/18/18
f 19/19/19 21/21/21 20/20/20
f 21/21/21 19/19/19 22/22/22
f 23/23/23 25/25/25 24/24/24
f 25/25/25 23/23/23 26/26/26
f 27/27/27 29/29/29 28/28/28
f 29/29/29 27/27/27 30/30/30
f 30/30/30 27/27/27 31/31/31
f 31/31/31 27/27/27 32/32/32
f 30/30/30 31/31/31 33/33/33
f 34/34/34 33/33/33 31/31/31
f 33/33/33 34/34/34 35/35/35
f 35/35/35 34/34/34 36/36/36
f 37/37/37 39/39/39 38/38/38
f 39/39/39 37/37/37 40/40/40
f 41/41/41 40/40/40 37/37/37
f 42/42/42 40/40/40 41/41/41
f 43/43/43 40/40/40 42/42/42
f 40/40/40 43/43/43 44/44/44
f 42/42/42 41/41/41 45/45/45
f 45/45/45 41/41/41 46/46/46
f 47/47/47 49/49/49 48/48/48
f 49/49/49 47/47/47 50/50/50

usemtl stoneDark

f 51/51/51 53/53/53 52/52/52
f 53/53/53 51/51/51 54/54/54
f 10/10/10 55/55/55 9/9/9
f 55/55/55 10/10/10 56/56/56
f 57/57/57 59/59/59 58/58/58
f 59/59/59 57/57/57 60/60/60

usemtl water

f 61/61/61 63/63/63 62/62/62
f 63/63/63 61/61/61 64/64/64
