# Created by Kenney (www.kenney.nl) - UVs and materials modified

mtllib fantasytown.mtl


g hedgeGate

v 0.438 0.220 -0.263
v 0.438 0.220 -0.500
v 0.438 0.100 -0.500
v 0.438 0.100 -0.263
v 0.313 0.220 -0.500
v 0.313 0.100 -0.500
v 0.438 0.100 -0.500
v 0.438 0.220 -0.500
v 0.343 0.250 -0.500
v 0.408 0.250 -0.500
v 0.408 0.250 -0.500
v 0.438 0.220 -0.500
v 0.438 0.220 -0.263
v 0.408 0.250 -0.263
v 0.343 0.250 -0.500
v 0.408 0.250 -0.500
v 0.408 0.250 -0.263
v 0.343 0.250 -0.263
v 0.313 0.220 -0.263
v 0.313 0.220 -0.500
v 0.343 0.250 -0.500
v 0.343 0.250 -0.263
v 0.313 0.100 -0.263
v 0.313 0.100 -0.500
v 0.313 0.220 -0.500
v 0.313 0.220 -0.263
v 0.408 0.250 0.263
v 0.438 0.220 0.263
v 0.438 0.220 0.500
v 0.408 0.250 0.500
v 0.313 0.220 0.500
v 0.313 0.220 0.263
v 0.343 0.250 0.263
v 0.343 0.250 0.500
v 0.343 0.250 0.263
v 0.408 0.250 0.263
v 0.408 0.250 0.500
v 0.343 0.250 0.500
v 0.313 0.100 0.263
v 0.313 0.220 0.263
v 0.313 0.220 0.500
v 0.313 0.100 0.500
v 0.438 0.220 0.500
v 0.438 0.100 0.500
v 0.313 0.100 0.500
v 0.313 0.220 0.500
v 0.408 0.250 0.500
v 0.343 0.250 0.500
v 0.438 0.220 0.500
v 0.438 0.220 0.263
v 0.438 0.100 0.263
v 0.438 0.100 0.500
v 0.438 0.220 -0.263
v 0.438 0.100 -0.263
v 0.313 0.100 -0.263
v 0.313 0.220 -0.263
v 0.408 0.250 -0.263
v 0.343 0.250 -0.263
v 0.313 0.220 0.263
v 0.313 0.100 0.263
v 0.438 0.100 0.263
v 0.438 0.220 0.263
v 0.343 0.250 0.263
v 0.408 0.250 0.263
v 0.250 0.100 -0.500
v 0.250 0.000 -0.500
v 0.500 0.000 -0.500
v 0.500 0.100 -0.500
v 0.500 0.100 -0.200
v 0.500 0.000 -0.200
v 0.250 0.000 -0.200
v 0.250 0.100 -0.200
v 0.250 0.000 -0.500
v 0.250 0.100 -0.500
v 0.250 0.100 -0.200
v 0.250 0.000 -0.200
v 0.500 0.100 -0.200
v 0.500 0.100 -0.500
v 0.500 0.000 -0.500
v 0.500 0.000 -0.200
v 0.250 0.000 -0.200
v 0.500 0.000 -0.200
v 0.500 0.000 -0.500
v 0.250 0.000 -0.500
v 0.250 0.100 -0.500
v 0.313 0.100 -0.500
v 0.313 0.100 -0.263
v 0.250 0.100 -0.200
v 0.438 0.100 -0.263
v 0.500 0.100 -0.200
v 0.438 0.100 -0.500
v 0.500 0.100 -0.500
v 0.250 0.000 0.500
v 0.250 0.000 0.200
v 0.250 0.100 0.200
v 0.250 0.100 0.500
v 0.500 0.100 0.500
v 0.500 0.100 0.200
v 0.500 0.000 0.200
v 0.500 0.000 0.500
v 0.500 0.100 0.500
v 0.500 0.000 0.500
v 0.250 0.000 0.500
v 0.250 0.100 0.500
v 0.250 0.100 0.200
v 0.250 0.000 0.200
v 0.500 0.000 0.200
v 0.500 0.100 0.200
v 0.250 0.000 0.500
v 0.500 0.000 0.500
v 0.500 0.000 0.200
v 0.250 0.000 0.200
v 0.313 0.100 0.500
v 0.250 0.100 0.500
v 0.250 0.100 0.200
v 0.313 0.100 0.263
v 0.438 0.100 0.263
v 0.500 0.100 0.200
v 0.500 0.100 0.500
v 0.438 0.100 0.500

vt -0.263 0.220
vt -0.500 0.220
vt -0.500 0.100
vt -0.263 0.100
vt 0.313 0.220
vt 0.313 0.100
vt 0.438 0.100
vt 0.438 0.220
vt 0.343 0.250
vt 0.408 0.250
vt -0.500 -0.111
vt -0.500 -0.154
vt -0.263 -0.154
vt -0.263 -0.111
vt -0.500 -0.343
vt -0.500 -0.408
vt -0.263 -0.408
vt -0.263 -0.343
vt 0.263 0.377
vt 0.500 0.377
vt 0.500 0.419
vt 0.263 0.419
vt 0.263 0.100
vt 0.500 0.100
vt 0.500 0.220
vt 0.263 0.220
vt 0.263 -0.111
vt 0.263 -0.154
vt 0.500 -0.154
vt 0.500 -0.111
vt -0.500 0.377
vt -0.263 0.377
vt -0.263 0.419
vt -0.500 0.419
vt 0.263 -0.343
vt 0.263 -0.408
vt 0.500 -0.408
vt 0.500 -0.343
vt -0.263 0.100
vt -0.263 0.220
vt -0.500 0.220
vt -0.500 0.100
vt -0.438 0.220
vt -0.438 0.100
vt -0.313 0.100
vt -0.313 0.220
vt -0.408 0.250
vt -0.343 0.250
vt 0.500 0.220
vt 0.263 0.220
vt 0.263 0.100
vt 0.500 0.100
vt -0.438 0.220
vt -0.438 0.100
vt -0.313 0.100
vt -0.313 0.220
vt -0.408 0.250
vt -0.343 0.250
vt 0.313 0.220
vt 0.313 0.100
vt 0.438 0.100
vt 0.438 0.220
vt 0.343 0.250
vt 0.408 0.250
vt 0.250 0.100
vt 0.250 0.000
vt 0.500 0.000
vt 0.500 0.100
vt -0.500 0.100
vt -0.500 0.000
vt -0.250 0.000
vt -0.250 0.100
vt 0.500 0.000
vt 0.500 0.100
vt 0.200 0.100
vt 0.200 0.000
vt -0.200 0.100
vt -0.500 0.100
vt -0.500 0.000
vt -0.200 0.000
vt 0.200 -0.250
vt 0.200 -0.500
vt 0.500 -0.500
vt 0.500 -0.250
vt -0.500 -0.250
vt -0.500 -0.313
vt -0.263 -0.313
vt -0.200 -0.250
vt -0.263 -0.438
vt -0.200 -0.500
vt -0.500 -0.438
vt -0.500 -0.500
vt -0.500 0.000
vt -0.200 0.000
vt -0.200 0.100
vt -0.500 0.100
vt 0.500 0.100
vt 0.200 0.100
vt 0.200 0.000
vt 0.500 0.000
vt -0.500 0.100
vt -0.500 0.000
vt -0.250 0.000
vt -0.250 0.100
vt 0.250 0.100
vt 0.250 0.000
vt 0.500 0.000
vt 0.500 0.100
vt -0.500 -0.250
vt -0.500 -0.500
vt -0.200 -0.500
vt -0.200 -0.250
vt 0.500 -0.313
vt 0.500 -0.250
vt 0.200 -0.250
vt 0.263 -0.313
vt 0.263 -0.438
vt 0.200 -0.500
vt 0.500 -0.500
vt 0.500 -0.438

vn 1.000 0.000 0.000
vn 1.000 0.000 0.000
vn 1.000 0.000 0.000
vn 1.000 0.000 0.000
vn 0.000 0.000 -1.000
vn 0.000 0.000 -1.000
vn 0.000 0.000 -1.000
vn 0.000 0.000 -1.000
vn 0.000 0.000 -1.000
vn 0.000 0.000 -1.000
vn 0.707 0.707 0.000
vn 0.707 0.707 0.000
vn 0.707 0.707 0.000
vn 0.707 0.707 0.000
vn 0.000 1.000 0.000
vn 0.000 1.000 0.000
vn 0.000 1.000 0.000
vn 0.000 1.000 0.000
vn -0.707 0.707 0.000
vn -0.707 0.707 0.000
vn -0.707 0.707 0.000
vn -0.707 0.707 0.000
vn -1.000 0.000 0.000
vn -1.000 0.000 0.000
vn -1.000 0.000 0.000
vn -1.000 0.000 0.000
vn 0.707 0.707 0.000
vn 0.707 0.707 0.000
vn 0.707 0.707 0.000
vn 0.707 0.707 0.000
vn -0.707 0.707 0.000
vn -0.707 0.707 0.000
vn -0.707 0.707 0.000
vn -0.707 0.707 0.000
vn 0.000 1.000 0.000
vn 0.000 1.000 0.000
vn 0.000 1.000 0.000
vn 0.000 1.000 0.000
vn -1.000 0.000 0.000
vn -1.000 0.000 0.000
vn -1.000 0.000 0.000
vn -1.000 0.000 0.000
vn 0.000 0.000 1.000
vn 0.000 0.000 1.000
vn 0.000 0.000 1.000
vn 0.000 0.000 1.000
vn 0.000 0.000 1.000
vn 0.000 0.000 1.000
vn 1.000 0.000 0.000
vn 1.000 0.000 0.000
vn 1.000 0.000 0.000
vn 1.000 0.000 0.000
vn 0.000 0.000 1.000
vn 0.000 0.000 1.000
vn 0.000 0.000 1.000
vn 0.000 0.000 1.000
vn 0.000 0.000 1.000
vn 0.000 0.000 1.000
vn 0.000 0.000 -1.000
vn 0.000 0.000 -1.000
vn 0.000 0.000 -1.000
vn 0.000 0.000 -1.000
vn 0.000 0.000 -1.000
vn 0.000 0.000 -1.000
vn 0.000 0.000 -1.000
vn 0.000 0.000 -1.000
vn 0.000 0.000 -1.000
vn 0.000 0.000 -1.000
vn 0.000 0.000 1.000
vn 0.000 0.000 1.000
vn 0.000 0.000 1.000
vn 0.000 0.000 1.000
vn -1.000 0.000 0.000
vn -1.000 0.000 0.000
vn -1.000 0.000 0.000
vn -1.000 0.000 0.000
vn 1.000 0.000 0.000
vn 1.000 0.000 0.000
vn 1.000 0.000 0.000
vn 1.000 0.000 0.000
vn 0.000 -1.000 0.000
vn 0.000 -1.000 0.000
vn 0.000 -1.000 0.000
vn 0.000 -1.000 0.000
vn 0.000 1.000 0.000
vn 0.000 1.000 0.000
vn 0.000 1.000 0.000
vn 0.000 1.000 0.000
vn 0.000 1.000 0.000
vn 0.000 1.000 0.000
vn 0.000 1.000 0.000
vn 0.000 1.000 0.000
vn -1.000 0.000 0.000
vn -1.000 0.000 0.000
vn -1.000 0.000 0.000
vn -1.000 0.000 0.000
vn 1.000 0.000 0.000
vn 1.000 0.000 0.000
vn 1.000 0.000 0.000
vn 1.000 0.000 0.000
vn 0.000 0.000 1.000
vn 0.000 0.000 1.000
vn 0.000 0.000 1.000
vn 0.000 0.000 1.000
vn 0.000 0.000 -1.000
vn 0.000 0.000 -1.000
vn 0.000 0.000 -1.000
vn 0.000 0.000 -1.000
vn 0.000 -1.000 0.000
vn 0.000 -1.000 0.000
vn 0.000 -1.000 0.000
vn 0.000 -1.000 0.000
vn 0.000 1.000 0.000
vn 0.000 1.000 0.000
vn 0.000 1.000 0.000
vn 0.000 1.000 0.000
vn 0.000 1.000 0.000
vn 0.000 1.000 0.000
vn 0.000 1.000 0.000
vn 0.000 1.000 0.000


usemtl foliage

f 1/1/1 3/3/3 2/2/2
f 3/3/3 1/1/1 4/4/4
f 5/5/5 7/7/7 6/6/6
f 7/7/7 5/5/5 8/8/8
f 8/8/8 5/5/5 9/9/9
f 8/8/8 9/9/9 10/10/10
f 11/11/11 13/13/13 12/12/12
f 13/13/13 11/11/11 14/14/14
f 15/15/15 17/17/17 16/16/16
f 17/17/17 15/15/15 18/18/18
f 19/19/19 21/21/21 20/20/20
f 21/21/21 19/19/19 22/22/22
f 23/23/23 25/25/25 24/24/24
f 25/25/25 23/23/23 26/26/26
f 27/27/27 29/29/29 28/28/28
f 29/29/29 27/27/27 30/30/30
f 31/31/31 33/33/33 32/32/32
f 33/33/33 31/31/31 34/34/34
f 35/35/35 37/37/37 36/36/36
f 37/37/37 35/35/35 38/38/38
f 39/39/39 41/41/41 40/40/40
f 41/41/41 39/39/39 42/42/42
f 43/43/43 45/45/45 44/44/44
f 45/45/45 43/43/43 46/46/46
f 46/46/46 43/43/43 47/47/47
f 46/46/46 47/47/47 48/48/48
f 49/49/49 51/51/51 50/50/50
f 51/51/51 49/49/49 52/52/52
f 53/53/53 55/55/55 54/54/54
f 55/55/55 53/53/53 56/56/56
f 56/56/56 53/53/53 57/57/57
f 56/56/56 57/57/57 58/58/58
f 59/59/59 61/61/61 60/60/60
f 61/61/61 59/59/59 62/62/62
f 62/62/62 59/59/59 63/63/63
f 62/62/62 63/63/63 64/64/64

usemtl stone

f 65/65/65 67/67/67 66/66/66
f 67/67/67 65/65/65 68/68/68
f 68/68/68 65/65/65 6/6/6
f 68/68/68 6/6/6 7/7/7
f 69/69/69 71/71/71 70/70/70
f 71/71/71 69/69/69 72/72/72
f 73/73/73 75/75/75 74/74/74
f 75/75/75 73/73/73 76/76/76
f 77/77/77 79/79/79 78/78/78
f 79/79/79 77/77/77 80/80/80
f 81/81/81 83/83/83 82/82/82
f 83/83/83 81/81/81 84/84/84
f 85/85/85 87/87/87 86/86/86
f 88/88/88 87/87/87 85/85/85
f 88/88/88 89/89/89 87/87/87
f 90/90/90 89/89/89 88/88/88
f 90/90/90 91/91/91 89/89/89
f 91/91/91 90/90/90 92/92/92
f 93/93/93 95/95/95 94/94/94
f 95/95/95 93/93/93 96/96/96
f 97/97/97 99/99/99 98/98/98
f 99/99/99 97/97/97 100/100/100
f 101/101/101 103/103/103 102/102/102
f 103/103/103 101/101/101 104/104/104
f 104/104/104 101/101/101 44/44/44
f 104/104/104 44/44/44 45/45/45
f 105/105/105 107/107/107 106/106/106
f 107/107/107 105/105/105 108/108/108
f 109/109/109 111/111/111 110/110/110
f 111/111/111 109/109/109 112/112/112
f 113/113/113 115/115/115 114/114/114
f 116/116/116 115/115/115 113/113/113
f 117/117/117 115/115/115 116/116/116
f 117/117/117 118/118/118 115/115/115
f 118/118/118 117/117/117 119/119/119
f 120/120/120 119/119/119 117/117/117
