# Created by Kenney (www.kenney.nl) - UVs and materials modified

mtllib fantasytown.mtl


g lantern

v 0.048 0.442 0.048
v 0.048 0.298 0.048
v -0.048 0.298 0.048
v -0.048 0.442 0.048
v -0.048 0.298 0.048
v -0.048 0.298 -0.048
v -0.048 0.442 -0.048
v -0.048 0.442 0.048
v 0.032 1.286 0.032
v 0.032 1.286 -0.032
v 0.032 0.682 -0.032
v 0.032 0.682 0.032
v 0.032 1.286 0.032
v 0.032 0.682 0.032
v -0.032 0.682 0.032
v 0.016 1.238 0.032
v -0.016 1.238 0.032
v 0.016 1.270 0.032
v -0.032 1.286 0.032
v -0.016 1.270 0.032
v -0.048 0.442 0.048
v -0.048 0.442 -0.048
v -0.032 0.682 -0.032
v -0.032 0.682 0.032
v 0.032 0.682 -0.032
v 0.048 0.442 -0.048
v 0.048 0.442 0.048
v 0.032 0.682 0.032
v 0.032 0.682 0.032
v 0.048 0.442 0.048
v -0.048 0.442 0.048
v -0.032 0.682 0.032
v 0.048 0.442 0.048
v 0.048 0.442 -0.048
v 0.048 0.298 -0.048
v 0.048 0.298 0.048
v -0.048 0.442 -0.048
v -0.048 0.298 -0.048
v 0.048 0.298 -0.048
v 0.048 0.442 -0.048
v -0.032 0.682 -0.032
v -0.048 0.442 -0.048
v 0.048 0.442 -0.048
v 0.032 0.682 -0.032
v 0.008 1.246 0.112
v 0.016 1.238 0.032
v -0.016 1.238 0.032
v -0.008 1.246 0.112
v -0.108 1.486 0.058
v -0.108 1.486 -0.058
v -0.108 1.526 -0.058
v -0.108 1.526 0.058
v -0.058 1.526 -0.108
v -0.058 1.486 -0.108
v 0.058 1.486 -0.108
v 0.058 1.526 -0.108
v 0.108 1.526 0.058
v 0.108 1.486 0.058
v 0.058 1.486 0.108
v 0.058 1.526 0.108
v 0.034 1.556 -0.056
v 0.043 1.526 -0.072
v 0.072 1.526 -0.043
v 0.056 1.556 -0.034
v 0.056 1.556 -0.034
v 0.072 1.526 -0.043
v 0.072 1.526 0.043
v 0.056 1.556 0.034
v 0.016 1.270 -0.032
v 0.008 1.262 -0.112
v 0.008 1.246 -0.112
v 0.016 1.238 -0.032
v 0.034 1.556 -0.056
v 0.056 1.556 -0.034
v 0.056 1.556 0.034
v 0.034 1.556 0.056
v -0.034 1.556 -0.056
v -0.034 1.556 0.056
v -0.056 1.556 -0.034
v -0.056 1.556 0.034
v -0.032 1.286 -0.032
v -0.032 0.682 -0.032
v 0.032 0.682 -0.032
v -0.016 1.238 -0.032
v 0.016 1.238 -0.032
v -0.016 1.270 -0.032
v 0.032 1.286 -0.032
v 0.016 1.270 -0.032
v 0.058 1.526 0.108
v 0.058 1.486 0.108
v -0.058 1.486 0.108
v -0.058 1.526 0.108
v -0.056 1.556 -0.034
v -0.072 1.526 -0.043
v -0.043 1.526 -0.072
v -0.034 1.556 -0.056
v -0.034 1.556 -0.056
v -0.043 1.526 -0.072
v 0.043 1.526 -0.072
v 0.034 1.556 -0.056
v -0.072 1.526 0.043
v -0.072 1.526 -0.043
v -0.056 1.556 -0.034
v -0.056 1.556 0.034
v -0.016 1.270 0.032
v 0.016 1.270 0.032
v 0.008 1.262 0.112
v -0.008 1.262 0.112
v -0.008 1.246 0.112
v -0.016 1.238 0.032
v -0.016 1.270 0.032
v -0.008 1.262 0.112
v -0.072 1.526 0.043
v -0.056 1.556 0.034
v -0.034 1.556 0.056
v -0.043 1.526 0.072
v -0.016 1.238 -0.032
v 0.016 1.238 -0.032
v 0.008 1.246 -0.112
v -0.008 1.246 -0.112
v -0.058 1.486 0.108
v -0.108 1.486 0.058
v -0.108 1.526 0.058
v -0.058 1.526 0.108
v -0.016 1.238 -0.032
v -0.008 1.246 -0.112
v -0.008 1.262 -0.112
v -0.016 1.270 -0.032
v -0.032 0.682 0.032
v -0.032 0.682 -0.032
v -0.032 1.286 -0.032
v -0.032 1.286 0.032
v 0.034 1.556 0.056
v 0.043 1.526 0.072
v -0.043 1.526 0.072
v -0.034 1.556 0.056
v 0.108 1.526 -0.058
v 0.058 1.526 -0.108
v 0.058 1.486 -0.108
v 0.108 1.486 -0.058
v 0.058 1.526 -0.108
v 0.108 1.526 -0.058
v 0.108 1.526 0.058
v 0.072 1.526 -0.043
v 0.072 1.526 0.043
v 0.043 1.526 -0.072
v 0.058 1.526 0.108
v 0.043 1.526 0.072
v -0.058 1.526 -0.108
v -0.043 1.526 -0.072
v -0.072 1.526 -0.043
v -0.108 1.526 -0.058
v -0.058 1.526 0.108
v -0.043 1.526 0.072
v -0.072 1.526 0.043
v -0.108 1.526 0.058
v 0.108 1.526 0.058
v 0.108 1.526 -0.058
v 0.108 1.486 -0.058
v 0.108 1.486 0.058
v -0.108 1.526 -0.058
v -0.108 1.486 -0.058
v -0.058 1.486 -0.108
v -0.058 1.526 -0.108
v 0.008 1.262 0.112
v 0.008 1.246 0.112
v -0.008 1.246 0.112
v -0.008 1.262 0.112
v -0.008 1.262 -0.112
v -0.008 1.246 -0.112
v 0.008 1.246 -0.112
v 0.008 1.262 -0.112
v 0.008 1.262 0.112
v 0.016 1.270 0.032
v 0.016 1.238 0.032
v 0.008 1.246 0.112
v 0.056 1.556 0.034
v 0.072 1.526 0.043
v 0.043 1.526 0.072
v 0.034 1.556 0.056
v 0.008 1.262 -0.112
v 0.016 1.270 -0.032
v -0.016 1.270 -0.032
v -0.008 1.262 -0.112
v 0.048 1.486 0.083
v -0.048 1.486 0.083
v -0.058 1.486 0.108
v -0.083 1.486 0.048
v 0.058 1.486 0.108
v -0.108 1.486 0.058
v 0.083 1.486 0.048
v -0.108 1.486 -0.058
v 0.108 1.486 0.058
v -0.083 1.486 -0.048
v 0.083 1.486 -0.048
v 0.108 1.486 -0.058
v 0.058 1.486 -0.108
v 0.048 1.486 -0.083
v -0.058 1.486 -0.108
v -0.048 1.486 -0.083
v 0.077 0.298 -0.048
v 0.048 0.298 -0.077
v 0.048 0.000 -0.077
v 0.077 0.000 -0.048
v 0.077 0.000 0.048
v 0.048 0.000 0.077
v 0.048 0.298 0.077
v 0.077 0.298 0.048
v 0.048 0.298 0.077
v 0.048 0.000 0.077
v -0.048 0.000 0.077
v -0.048 0.298 0.077
v 0.077 0.298 0.048
v 0.077 0.298 -0.048
v 0.077 0.000 -0.048
v 0.077 0.000 0.048
v -0.048 0.298 -0.077
v -0.048 0.000 -0.077
v 0.048 0.000 -0.077
v 0.048 0.298 -0.077
v -0.077 0.000 -0.048
v -0.048 0.000 -0.077
v -0.048 0.298 -0.077
v -0.077 0.298 -0.048
v 0.048 0.298 -0.077
v 0.077 0.298 -0.048
v 0.077 0.298 0.048
v 0.048 0.298 0.077
v 0.048 0.298 -0.048
v -0.048 0.298 -0.077
v 0.048 0.298 0.048
v -0.048 0.298 -0.048
v -0.048 0.298 0.048
v -0.048 0.298 0.077
v -0.077 0.298 -0.048
v -0.077 0.298 0.048
v -0.077 0.000 0.048
v -0.077 0.000 -0.048
v -0.077 0.298 -0.048
v -0.077 0.298 0.048
v -0.048 0.000 0.077
v -0.077 0.000 0.048
v -0.077 0.298 0.048
v -0.048 0.298 0.077
v 0.077 0.000 0.048
v 0.077 0.000 -0.048
v 0.048 0.000 -0.077
v 0.048 0.000 0.077
v -0.048 0.000 -0.077
v -0.048 0.000 0.077
v -0.077 0.000 -0.048
v -0.077 0.000 0.048
v 0.032 1.286 -0.032
v 0.083 1.486 -0.048
v 0.048 1.486 -0.083
v -0.048 1.486 -0.083
v -0.083 1.486 -0.048
v -0.032 1.286 -0.032
v 0.048 1.486 0.083
v 0.032 1.286 0.032
v -0.032 1.286 0.032
v -0.032 1.286 0.032
v -0.048 1.486 0.083
v 0.048 1.486 0.083
v 0.032 1.286 0.032
v 0.032 1.286 -0.032
v -0.032 1.286 -0.032
v -0.032 1.286 -0.032
v -0.032 1.286 0.032
v 0.032 1.286 0.032
v 0.048 1.486 0.083
v 0.083 1.486 0.048
v 0.032 1.286 0.032
v -0.048 1.486 -0.083
v -0.032 1.286 -0.032
v 0.032 1.286 -0.032
v 0.032 1.286 -0.032
v 0.048 1.486 -0.083
v -0.048 1.486 -0.083
v -0.048 1.486 0.083
v -0.032 1.286 0.032
v -0.083 1.486 0.048
v -0.032 1.286 -0.032
v -0.083 1.486 -0.048
v -0.083 1.486 0.048
v -0.083 1.486 0.048
v -0.032 1.286 0.032
v -0.032 1.286 -0.032
v 0.083 1.486 0.048
v 0.083 1.486 -0.048
v 0.032 1.286 -0.032
v 0.032 1.286 -0.032
v 0.032 1.286 0.032
v 0.083 1.486 0.048

vt -0.048 0.442
vt -0.048 0.298
vt 0.048 0.298
vt 0.048 0.442
vt -0.048 0.298
vt 0.048 0.298
vt 0.048 0.442
vt -0.048 0.442
vt 0.032 1.286
vt -0.032 1.286
vt -0.032 0.682
vt 0.032 0.682
vt -0.032 1.287
vt -0.032 0.682
vt 0.032 0.682
vt -0.016 1.238
vt 0.016 1.238
vt -0.016 1.270
vt 0.032 1.287
vt 0.016 1.270
vt -0.048 0.442
vt 0.048 0.442
vt 0.032 0.682
vt -0.032 0.682
vt -0.032 0.682
vt -0.048 0.441
vt 0.048 0.441
vt 0.032 0.682
vt -0.032 0.682
vt -0.048 0.442
vt 0.048 0.442
vt 0.032 0.682
vt 0.048 0.441
vt -0.048 0.441
vt -0.048 0.297
vt 0.048 0.297
vt -0.048 0.442
vt -0.048 0.298
vt 0.048 0.298
vt 0.048 0.442
vt -0.032 0.682
vt -0.048 0.442
vt 0.048 0.442
vt 0.032 0.682
vt -0.236 -0.008
vt -0.156 -0.016
vt -0.156 0.016
vt -0.236 0.008
vt -0.058 1.486
vt 0.058 1.486
vt 0.058 1.526
vt -0.058 1.526
vt -0.058 1.526
vt -0.058 1.486
vt 0.058 1.486
vt 0.058 1.526
vt -0.035 1.526
vt -0.035 1.486
vt 0.035 1.486
vt 0.035 1.526
vt -0.016 1.304
vt -0.020 1.269
vt 0.020 1.269
vt 0.016 1.304
vt -0.034 1.351
vt -0.043 1.317
vt 0.043 1.317
vt 0.034 1.351
vt -0.030 1.270
vt -0.111 1.262
vt -0.111 1.246
vt -0.030 1.238
vt -0.056 -0.034
vt -0.034 -0.056
vt 0.034 -0.056
vt 0.056 -0.034
vt -0.056 0.034
vt 0.056 0.034
vt -0.034 0.056
vt 0.034 0.056
vt -0.032 1.287
vt -0.032 0.682
vt 0.032 0.682
vt -0.016 1.238
vt 0.016 1.238
vt -0.016 1.270
vt 0.032 1.287
vt 0.016 1.270
vt -0.058 1.526
vt -0.058 1.486
vt 0.058 1.486
vt 0.058 1.526
vt -0.016 1.304
vt -0.020 1.269
vt 0.020 1.269
vt 0.016 1.304
vt -0.034 1.351
vt -0.043 1.317
vt 0.043 1.317
vt 0.034 1.351
vt -0.043 1.317
vt 0.043 1.317
vt 0.034 1.351
vt -0.034 1.351
vt -0.095 0.016
vt -0.095 -0.016
vt -0.015 -0.008
vt -0.015 0.008
vt -0.111 1.246
vt -0.030 1.238
vt -0.030 1.270
vt -0.111 1.262
vt 0.020 1.269
vt 0.016 1.304
vt -0.016 1.304
vt -0.020 1.269
vt 0.156 0.016
vt 0.156 -0.016
vt 0.236 -0.008
vt 0.236 0.008
vt -0.035 1.486
vt 0.035 1.486
vt 0.035 1.526
vt -0.035 1.526
vt 0.030 1.238
vt 0.111 1.246
vt 0.111 1.262
vt 0.030 1.270
vt -0.032 0.682
vt 0.032 0.682
vt 0.032 1.287
vt -0.032 1.287
vt -0.034 1.351
vt -0.043 1.317
vt 0.043 1.317
vt 0.034 1.351
vt 0.035 1.526
vt -0.035 1.526
vt -0.035 1.486
vt 0.035 1.486
vt -0.108 -0.058
vt -0.058 -0.108
vt 0.058 -0.108
vt -0.043 -0.072
vt 0.043 -0.072
vt -0.072 -0.043
vt 0.108 -0.058
vt 0.072 -0.043
vt -0.108 0.058
vt -0.072 0.043
vt -0.043 0.072
vt -0.058 0.108
vt 0.108 0.058
vt 0.072 0.043
vt 0.043 0.072
vt 0.058 0.108
vt 0.058 1.526
vt -0.058 1.526
vt -0.058 1.486
vt 0.058 1.486
vt -0.035 1.526
vt -0.035 1.486
vt 0.035 1.486
vt 0.035 1.526
vt -0.008 1.262
vt -0.008 1.246
vt 0.008 1.246
vt 0.008 1.262
vt -0.008 1.262
vt -0.008 1.246
vt 0.008 1.246
vt 0.008 1.262
vt 0.111 1.262
vt 0.030 1.270
vt 0.030 1.238
vt 0.111 1.246
vt -0.016 1.304
vt -0.020 1.269
vt 0.020 1.269
vt 0.016 1.304
vt 0.015 -0.008
vt 0.095 -0.016
vt 0.095 0.016
vt 0.015 0.008
vt -0.083 -0.048
vt -0.083 0.048
vt -0.108 0.058
vt -0.048 0.083
vt -0.108 -0.058
vt -0.058 0.108
vt -0.048 -0.083
vt 0.058 0.108
vt -0.058 -0.108
vt 0.048 0.083
vt 0.048 -0.083
vt 0.058 -0.108
vt 0.108 -0.058
vt 0.083 -0.048
vt 0.108 0.058
vt 0.083 0.048
vt 0.020 0.298
vt -0.020 0.298
vt -0.020 0.000
vt 0.020 0.000
vt -0.020 0.000
vt 0.020 0.000
vt 0.020 0.298
vt -0.020 0.298
vt -0.048 0.298
vt -0.048 0.000
vt 0.048 0.000
vt 0.048 0.298
vt 0.048 0.298
vt -0.048 0.298
vt -0.048 0.000
vt 0.048 0.000
vt -0.048 0.298
vt -0.048 0.000
vt 0.048 0.000
vt 0.048 0.298
vt -0.020 0.000
vt 0.020 0.000
vt 0.020 0.298
vt -0.020 0.298
vt -0.077 -0.048
vt -0.048 -0.077
vt 0.048 -0.077
vt 0.077 -0.048
vt -0.048 -0.048
vt -0.077 0.048
vt 0.048 -0.048
vt -0.048 0.048
vt 0.048 0.048
vt 0.077 0.048
vt -0.048 0.077
vt 0.048 0.077
vt -0.048 0.000
vt 0.048 0.000
vt 0.048 0.298
vt -0.048 0.298
vt -0.020 0.000
vt 0.020 0.000
vt 0.020 0.298
vt -0.020 0.298
vt -0.048 -0.077
vt 0.048 -0.077
vt 0.077 -0.048
vt -0.077 -0.048
vt 0.077 0.048
vt -0.077 0.048
vt 0.048 0.077
vt -0.048 0.077
vt 0.000 1.262
vt 0.025 1.467
vt -0.025 1.467
vt 0.025 1.467
vt -0.025 1.467
vt 0.000 1.262
vt -0.048 1.460
vt -0.032 1.254
vt 0.032 1.254
vt 0.032 1.254
vt 0.048 1.460
vt -0.048 1.460
vt -0.032 -0.032
vt 0.032 -0.032
vt 0.032 0.032
vt 0.032 0.032
vt -0.032 0.032
vt -0.032 -0.032
vt 0.025 1.467
vt -0.025 1.467
vt 0.000 1.262
vt -0.048 1.460
vt -0.032 1.254
vt 0.032 1.254
vt 0.032 1.254
vt 0.048 1.460
vt -0.048 1.460
vt -0.025 1.467
vt 0.000 1.262
vt 0.025 1.467
vt 0.032 1.254
vt 0.048 1.460
vt -0.048 1.460
vt -0.048 1.460
vt -0.032 1.254
vt 0.032 1.254
vt 0.048 1.460
vt -0.048 1.460
vt -0.032 1.254
vt -0.032 1.254
vt 0.032 1.254
vt 0.048 1.460

vn 0.000 0.032 0.999
vn 0.000 0.000 1.000
vn 0.000 0.000 1.000
vn 0.000 0.032 0.999
vn -1.000 0.000 0.000
vn -1.000 0.000 0.000
vn -0.999 0.032 0.000
vn -0.999 0.032 0.000
vn 1.000 0.000 0.000
vn 1.000 0.000 0.000
vn 0.999 0.034 0.000
vn 0.999 0.034 0.000
vn 0.000 0.000 1.000
vn 0.000 0.034 0.999
vn 0.000 0.034 0.999
vn 0.000 0.000 1.000
vn 0.000 0.000 1.000
vn 0.000 0.000 1.000
vn 0.000 0.000 1.000
vn 0.000 0.000 1.000
vn -0.999 0.032 0.000
vn -0.999 0.032 0.000
vn -0.999 0.034 0.000
vn -0.999 0.034 0.000
vn 0.999 0.034 0.000
vn 0.999 0.032 0.000
vn 0.999 0.032 0.000
vn 0.999 0.034 0.000
vn 0.000 0.034 0.999
vn 0.000 0.032 0.999
vn 0.000 0.032 0.999
vn 0.000 0.034 0.999
vn 0.999 0.032 0.000
vn 0.999 0.032 0.000
vn 1.000 0.000 0.000
vn 1.000 0.000 0.000
vn 0.000 0.032 -0.999
vn 0.000 0.000 -1.000
vn 0.000 0.000 -1.000
vn 0.000 0.032 -0.999
vn 0.000 0.034 -0.999
vn 0.000 0.032 -0.999
vn 0.000 0.032 -0.999
vn 0.000 0.034 -0.999
vn 0.000 -0.995 0.100
vn 0.000 -0.995 0.100
vn 0.000 -0.995 0.100
vn 0.000 -0.995 0.100
vn -1.000 0.000 0.000
vn -1.000 0.000 0.000
vn -1.000 0.000 0.000
vn -1.000 0.000 0.000
vn 0.000 0.000 -1.000
vn 0.000 0.000 -1.000
vn 0.000 0.000 -1.000
vn 0.000 0.000 -1.000
vn 0.707 0.000 0.707
vn 0.707 0.000 0.707
vn 0.707 0.000 0.707
vn 0.707 0.000 0.707
vn 0.607 0.512 -0.607
vn 0.607 0.512 -0.607
vn 0.607 0.512 -0.607
vn 0.607 0.512 -0.607
vn 0.885 0.466 0.000
vn 0.885 0.466 0.000
vn 0.885 0.466 0.000
vn 0.885 0.466 0.000
vn 0.995 0.000 -0.100
vn 0.995 0.000 -0.100
vn 0.995 0.000 -0.100
vn 0.995 0.000 -0.100
vn 0.000 1.000 0.000
vn 0.000 1.000 0.000
vn 0.000 1.000 0.000
vn 0.000 1.000 0.000
vn 0.000 1.000 0.000
vn 0.000 1.000 0.000
vn 0.000 1.000 0.000
vn 0.000 1.000 0.000
vn 0.000 0.000 -1.000
vn 0.000 0.034 -0.999
vn 0.000 0.034 -0.999
vn 0.000 0.000 -1.000
vn 0.000 0.000 -1.000
vn 0.000 0.000 -1.000
vn 0.000 0.000 -1.000
vn 0.000 0.000 -1.000
vn 0.000 0.000 1.000
vn 0.000 0.000 1.000
vn 0.000 0.000 1.000
vn 0.000 0.000 1.000
vn -0.607 0.512 -0.607
vn -0.607 0.512 -0.607
vn -0.607 0.512 -0.607
vn -0.607 0.512 -0.607
vn 0.000 0.466 -0.885
vn 0.000 0.466 -0.885
vn 0.000 0.466 -0.885
vn 0.000 0.466 -0.885
vn -0.885 0.466 0.000
vn -0.885 0.466 0.000
vn -0.885 0.466 0.000
vn -0.885 0.466 0.000
vn 0.000 0.995 0.100
vn 0.000 0.995 0.100
vn 0.000 0.995 0.100
vn 0.000 0.995 0.100
vn -0.995 0.000 0.100
vn -0.995 0.000 0.100
vn -0.995 0.000 0.100
vn -0.995 0.000 0.100
vn -0.607 0.512 0.607
vn -0.607 0.512 0.607
vn -0.607 0.512 0.607
vn -0.607 0.512 0.607
vn 0.000 -0.995 -0.100
vn 0.000 -0.995 -0.100
vn 0.000 -0.995 -0.100
vn 0.000 -0.995 -0.100
vn -0.707 0.000 0.707
vn -0.707 0.000 0.707
vn -0.707 0.000 0.707
vn -0.707 0.000 0.707
vn -0.995 0.000 -0.100
vn -0.995 0.000 -0.100
vn -0.995 0.000 -0.100
vn -0.995 0.000 -0.100
vn -0.999 0.034 0.000
vn -0.999 0.034 0.000
vn -1.000 0.000 0.000
vn -1.000 0.000 0.000
vn 0.000 0.466 0.885
vn 0.000 0.466 0.885
vn 0.000 0.466 0.885
vn 0.000 0.466 0.885
vn 0.707 0.000 -0.707
vn 0.707 0.000 -0.707
vn 0.707 0.000 -0.707
vn 0.707 0.000 -0.707
vn 0.000 1.000 0.000
vn 0.000 1.000 0.000
vn 0.000 1.000 0.000
vn 0.000 1.000 0.000
vn 0.000 1.000 0.000
vn 0.000 1.000 0.000
vn 0.000 1.000 0.000
vn 0.000 1.000 0.000
vn 0.000 1.000 0.000
vn 0.000 1.000 0.000
vn 0.000 1.000 0.000
vn 0.000 1.000 0.000
vn 0.000 1.000 0.000
vn 0.000 1.000 0.000
vn 0.000 1.000 0.000
vn 0.000 1.000 0.000
vn 1.000 0.000 0.000
vn 1.000 0.000 0.000
vn 1.000 0.000 0.000
vn 1.000 0.000 0.000
vn -0.707 0.000 -0.707
vn -0.707 0.000 -0.707
vn -0.707 0.000 -0.707
vn -0.707 0.000 -0.707
vn 0.000 0.000 1.000
vn 0.000 0.000 1.000
vn 0.000 0.000 1.000
vn 0.000 0.000 1.000
vn 0.000 0.000 -1.000
vn 0.000 0.000 -1.000
vn 0.000 0.000 -1.000
vn 0.000 0.000 -1.000
vn 0.995 0.000 0.100
vn 0.995 0.000 0.100
vn 0.995 0.000 0.100
vn 0.995 0.000 0.100
vn 0.607 0.512 0.607
vn 0.607 0.512 0.607
vn 0.607 0.512 0.607
vn 0.607 0.512 0.607
vn 0.000 0.995 -0.100
vn 0.000 0.995 -0.100
vn 0.000 0.995 -0.100
vn 0.000 0.995 -0.100
vn 0.000 -1.000 0.000
vn 0.000 -1.000 0.000
vn 0.000 -1.000 0.000
vn 0.000 -1.000 0.000
vn 0.000 -1.000 0.000
vn 0.000 -1.000 0.000
vn 0.000 -1.000 0.000
vn 0.000 -1.000 0.000
vn 0.000 -1.000 0.000
vn 0.000 -1.000 0.000
vn 0.000 -1.000 0.000
vn 0.000 -1.000 0.000
vn 0.000 -1.000 0.000
vn 0.000 -1.000 0.000
vn 0.000 -1.000 0.000
vn 0.000 -1.000 0.000
vn 0.707 0.000 -0.707
vn 0.707 0.000 -0.707
vn 0.707 0.000 -0.707
vn 0.707 0.000 -0.707
vn 0.707 0.000 0.707
vn 0.707 0.000 0.707
vn 0.707 0.000 0.707
vn 0.707 0.000 0.707
vn 0.000 0.000 1.000
vn 0.000 0.000 1.000
vn 0.000 0.000 1.000
vn 0.000 0.000 1.000
vn 1.000 0.000 0.000
vn 1.000 0.000 0.000
vn 1.000 0.000 0.000
vn 1.000 0.000 0.000
vn 0.000 0.000 -1.000
vn 0.000 0.000 -1.000
vn 0.000 0.000 -1.000
vn 0.000 0.000 -1.000
vn -0.707 0.000 -0.707
vn -0.707 0.000 -0.707
vn -0.707 0.000 -0.707
vn -0.707 0.000 -0.707
vn 0.000 1.000 0.000
vn 0.000 1.000 0.000
vn 0.000 1.000 0.000
vn 0.000 1.000 0.000
vn 0.000 1.000 0.000
vn 0.000 1.000 0.000
vn 0.000 1.000 0.000
vn 0.000 1.000 0.000
vn 0.000 1.000 0.000
vn 0.000 1.000 0.000
vn 0.000 1.000 0.000
vn 0.000 1.000 0.000
vn -1.000 0.000 0.000
vn -1.000 0.000 0.000
vn -1.000 0.000 0.000
vn -1.000 0.000 0.000
vn -0.707 0.000 0.707
vn -0.707 0.000 0.707
vn -0.707 0.000 0.707
vn -0.707 0.000 0.707
vn 0.000 -1.000 0.000
vn 0.000 -1.000 0.000
vn 0.000 -1.000 0.000
vn 0.000 -1.000 0.000
vn 0.000 -1.000 0.000
vn 0.000 -1.000 0.000
vn 0.000 -1.000 0.000
vn 0.000 -1.000 0.000
vn 0.688 -0.230 -0.688
vn 0.688 -0.230 -0.688
vn 0.688 -0.230 -0.688
vn -0.688 -0.230 -0.688
vn -0.688 -0.230 -0.688
vn -0.688 -0.230 -0.688
vn 0.000 -0.248 0.969
vn 0.000 -0.248 0.969
vn 0.000 -0.248 0.969
vn 0.000 -0.248 0.969
vn 0.000 -0.248 0.969
vn 0.000 -0.248 0.969
vn 0.000 -1.000 0.000
vn 0.000 -1.000 0.000
vn 0.000 -1.000 0.000
vn 0.000 -1.000 0.000
vn 0.000 -1.000 0.000
vn 0.000 -1.000 0.000
vn 0.688 -0.230 0.688
vn 0.688 -0.230 0.688
vn 0.688 -0.230 0.688
vn 0.000 -0.248 -0.969
vn 0.000 -0.248 -0.969
vn 0.000 -0.248 -0.969
vn 0.000 -0.248 -0.969
vn 0.000 -0.248 -0.969
vn 0.000 -0.248 -0.969
vn -0.688 -0.230 0.688
vn -0.688 -0.230 0.688
vn -0.688 -0.230 0.688
vn -0.969 -0.248 0.000
vn -0.969 -0.248 0.000
vn -0.969 -0.248 0.000
vn -0.969 -0.248 0.000
vn -0.969 -0.248 0.000
vn -0.969 -0.248 0.000
vn 0.969 -0.248 0.000
vn 0.969 -0.248 0.000
vn 0.969 -0.248 0.000
vn 0.969 -0.248 0.000
vn 0.969 -0.248 0.000
vn 0.969 -0.248 0.000


usemtl roof

f 1/1/1 3/3/3 2/2/2
f 3/3/3 1/1/1 4/4/4
f 5/5/5 7/7/7 6/6/6
f 7/7/7 5/5/5 8/8/8
f 9/9/9 11/11/11 10/10/10
f 11/11/11 9/9/9 12/12/12
f 13/13/13 15/15/15 14/14/14
f 15/15/15 13/13/13 16/16/16
f 17/17/17 15/15/15 16/16/16
f 16/16/16 13/13/13 18/18/18
f 15/15/15 17/17/17 19/19/19
f 18/18/18 13/13/13 20/20/20
f 19/19/19 17/17/17 20/20/20
f 19/19/19 20/20/20 13/13/13
f 21/21/21 23/23/23 22/22/22
f 23/23/23 21/21/21 24/24/24
f 25/25/25 27/27/27 26/26/26
f 27/27/27 25/25/25 28/28/28
f 29/29/29 31/31/31 30/30/30
f 31/31/31 29/29/29 32/32/32
f 33/33/33 35/35/35 34/34/34
f 35/35/35 33/33/33 36/36/36
f 37/37/37 39/39/39 38/38/38
f 39/39/39 37/37/37 40/40/40
f 41/41/41 43/43/43 42/42/42
f 43/43/43 41/41/41 44/44/44
f 45/45/45 47/47/47 46/46/46
f 47/47/47 45/45/45 48/48/48
f 49/49/49 51/51/51 50/50/50
f 51/51/51 49/49/49 52/52/52
f 53/53/53 55/55/55 54/54/54
f 55/55/55 53/53/53 56/56/56
f 57/57/57 59/59/59 58/58/58
f 59/59/59 57/57/57 60/60/60
f 61/61/61 63/63/63 62/62/62
f 63/63/63 61/61/61 64/64/64
f 65/65/65 67/67/67 66/66/66
f 67/67/67 65/65/65 68/68/68
f 69/69/69 71/71/71 70/70/70
f 71/71/71 69/69/69 72/72/72
f 73/73/73 75/75/75 74/74/74
f 75/75/75 73/73/73 76/76/76
f 76/76/76 73/73/73 77/77/77
f 76/76/76 77/77/77 78/78/78
f 78/78/78 77/77/77 79/79/79
f 78/78/78 79/79/79 80/80/80
f 81/81/81 83/83/83 82/82/82
f 83/83/83 81/81/81 84/84/84
f 85/85/85 83/83/83 84/84/84
f 84/84/84 81/81/81 86/86/86
f 83/83/83 85/85/85 87/87/87
f 86/86/86 81/81/81 88/88/88
f 87/87/87 85/85/85 88/88/88
f 87/87/87 88/88/88 81/81/81
f 89/89/89 91/91/91 90/90/90
f 91/91/91 89/89/89 92/92/92
f 93/93/93 95/95/95 94/94/94
f 95/95/95 93/93/93 96/96/96
f 97/97/97 99/99/99 98/98/98
f 99/99/99 97/97/97 100/100/100
f 101/101/101 103/103/103 102/102/102
f 103/103/103 101/101/101 104/104/104
f 105/105/105 107/107/107 106/106/106
f 107/107/107 105/105/105 108/108/108
f 109/109/109 111/111/111 110/110/110
f 111/111/111 109/109/109 112/112/112
f 113/113/113 115/115/115 114/114/114
f 115/115/115 113/113/113 116/116/116
f 117/117/117 119/119/119 118/118/118
f 119/119/119 117/117/117 120/120/120
f 121/121/121 123/123/123 122/122/122
f 123/123/123 121/121/121 124/124/124
f 125/125/125 127/127/127 126/126/126
f 127/127/127 125/125/125 128/128/128
f 129/129/129 131/131/131 130/130/130
f 131/131/131 129/129/129 132/132/132
f 133/133/133 135/135/135 134/134/134
f 135/135/135 133/133/133 136/136/136
f 137/137/137 139/139/139 138/138/138
f 139/139/139 137/137/137 140/140/140
f 141/141/141 143/143/143 142/142/142
f 143/143/143 141/141/141 144/144/144
f 145/145/145 143/143/143 144/144/144
f 144/144/144 141/141/141 146/146/146
f 143/143/143 145/145/145 147/147/147
f 147/147/147 145/145/145 148/148/148
f 146/146/146 141/141/141 149/149/149
f 146/146/146 149/149/149 150/150/150
f 150/150/150 149/149/149 151/151/151
f 151/151/151 149/149/149 152/152/152
f 147/147/147 148/148/148 153/153/153
f 153/153/153 148/148/148 154/154/154
f 151/151/151 152/152/152 155/155/155
f 153/153/153 154/154/154 155/155/155
f 156/156/156 155/155/155 152/152/152
f 153/153/153 155/155/155 156/156/156
f 157/157/157 159/159/159 158/158/158
f 159/159/159 157/157/157 160/160/160
f 161/161/161 163/163/163 162/162/162
f 163/163/163 161/161/161 164/164/164
f 165/165/165 167/167/167 166/166/166
f 167/167/167 165/165/165 168/168/168
f 169/169/169 171/171/171 170/170/170
f 171/171/171 169/169/169 172/172/172
f 173/173/173 175/175/175 174/174/174
f 175/175/175 173/173/173 176/176/176
f 177/177/177 179/179/179 178/178/178
f 179/179/179 177/177/177 180/180/180
f 181/181/181 183/183/183 182/182/182
f 183/183/183 181/181/181 184/184/184
f 185/185/185 187/187/187 186/186/186
f 186/186/186 187/187/187 188/188/188
f 185/185/185 189/189/189 187/187/187
f 188/188/188 187/187/187 190/190/190
f 191/191/191 189/189/189 185/185/185
f 188/188/188 190/190/190 192/192/192
f 191/191/191 193/193/193 189/189/189
f 192/192/192 194/194/194 188/188/188
f 193/193/193 191/191/191 195/195/195
f 195/195/195 196/196/196 193/193/193
f 196/196/196 195/195/195 197/197/197
f 197/197/197 195/195/195 198/198/198
f 199/199/199 194/194/194 192/192/192
f 197/197/197 198/198/198 199/199/199
f 199/199/199 200/200/200 194/194/194
f 199/199/199 198/198/198 200/200/200

usemtl stoneDark

f 201/201/201 203/203/203 202/202/202
f 203/203/203 201/201/201 204/204/204
f 205/205/205 207/207/207 206/206/206
f 207/207/207 205/205/205 208/208/208
f 209/209/209 211/211/211 210/210/210
f 211/211/211 209/209/209 212/212/212
f 213/213/213 215/215/215 214/214/214
f 215/215/215 213/213/213 216/216/216
f 217/217/217 219/219/219 218/218/218
f 219/219/219 217/217/217 220/220/220
f 221/221/221 223/223/223 222/222/222
f 223/223/223 221/221/221 224/224/224
f 225/225/225 227/227/227 226/226/226
f 227/227/227 225/225/225 228/228/228
f 228/228/228 225/225/225 229/229/229
f 230/230/230 229/229/229 225/225/225
f 228/228/228 229/229/229 231/231/231
f 229/229/229 230/230/230 232/232/232
f 228/228/228 231/231/231 233/233/233
f 232/232/232 230/230/230 233/233/233
f 228/228/228 233/233/233 234/234/234
f 234/234/234 233/233/233 230/230/230
f 234/234/234 230/230/230 235/235/235
f 234/234/234 235/235/235 236/236/236
f 237/237/237 239/239/239 238/238/238
f 239/239/239 237/237/237 240/240/240
f 241/241/241 243/243/243 242/242/242
f 243/243/243 241/241/241 244/244/244
f 245/245/245 247/247/247 246/246/246
f 247/247/247 245/245/245 248/248/248
f 247/247/247 248/248/248 249/249/249
f 249/249/249 248/248/248 250/250/250
f 249/249/249 250/250/250 251/251/251
f 251/251/251 250/250/250 252/252/252

usemtl _defaultMat

f 253/253/253 255/255/255 254/254/254
f 256/256/256 258/258/258 257/257/257
f 259/259/259 261/261/261 260/260/260
f 262/262/262 264/264/264 263/263/263
f 265/265/265 267/267/267 266/266/266
f 268/268/268 270/270/270 269/269/269
f 271/271/271 273/273/273 272/272/272
f 274/274/274 276/276/276 275/275/275
f 277/277/277 279/279/279 278/278/278
f 280/280/280 282/282/282 281/281/281
f 283/283/283 285/285/285 284/284/284
f 286/286/286 288/288/288 287/287/287
f 289/289/289 291/291/291 290/290/290
f 292/292/292 294/294/294 293/293/293
