# Created by Kenney (www.kenney.nl) - UVs and materials modified

mtllib fantasytown.mtl


g poles

v 0.400 1.000 0.400
v 0.400 0.000 0.400
v 0.413 0.000 0.400
v 0.500 0.000 0.400
v 0.500 1.000 0.400
v 0.500 1.000 0.500
v 0.500 1.000 0.400
v 0.500 0.000 0.400
v 0.500 0.000 0.500
v 0.500 1.000 -0.400
v 0.500 0.000 -0.400
v 0.413 0.000 -0.400
v 0.400 0.000 -0.400
v 0.400 1.000 -0.400
v 0.413 0.000 -0.400
v 0.500 0.000 -0.400
v 0.500 0.000 -0.500
v 0.400 0.000 -0.500
v 0.400 0.000 -0.400
v 0.400 1.000 -0.500
v 0.500 1.000 -0.500
v 0.500 1.000 -0.400
v 0.400 1.000 -0.400
v 0.400 0.000 0.500
v 0.500 0.000 0.500
v 0.500 0.000 0.400
v 0.413 0.000 0.400
v 0.400 0.000 0.400
v 0.400 1.000 0.400
v 0.500 1.000 0.400
v 0.500 1.000 0.500
v 0.400 1.000 0.500
v 0.400 0.000 0.500
v 0.400 0.000 0.400
v 0.400 1.000 0.400
v 0.400 1.000 0.500
v 0.400 0.000 -0.400
v 0.400 0.000 -0.500
v 0.400 1.000 -0.500
v 0.400 1.000 -0.400
v 0.400 1.000 -0.500
v 0.400 0.000 -0.500
v 0.500 0.000 -0.500
v 0.500 1.000 -0.500
v 0.500 1.000 -0.400
v 0.500 1.000 -0.500
v 0.500 0.000 -0.500
v 0.500 0.000 -0.400
v 0.500 1.000 0.500
v 0.500 0.000 0.500
v 0.400 0.000 0.500
v 0.400 1.000 0.500

vt 0.400 1.000
vt 0.400 0.000
vt 0.413 0.000
vt 0.500 0.000
vt 0.500 1.000
vt 0.500 1.000
vt 0.400 1.000
vt 0.400 0.000
vt 0.500 0.000
vt -0.500 1.000
vt -0.500 0.000
vt -0.413 0.000
vt -0.400 0.000
vt -0.400 1.000
vt 0.400 -0.413
vt 0.400 -0.500
vt 0.500 -0.500
vt 0.500 -0.400
vt 0.400 -0.400
vt -0.500 -0.400
vt -0.500 -0.500
vt -0.400 -0.500
vt -0.400 -0.400
vt -0.500 -0.400
vt -0.500 -0.500
vt -0.400 -0.500
vt -0.400 -0.413
vt -0.400 -0.400
vt 0.400 -0.400
vt 0.400 -0.500
vt 0.500 -0.500
vt 0.500 -0.400
vt -0.500 0.000
vt -0.400 0.000
vt -0.400 1.000
vt -0.500 1.000
vt 0.400 0.000
vt 0.500 0.000
vt 0.500 1.000
vt 0.400 1.000
vt 0.400 1.000
vt 0.400 0.000
vt 0.500 0.000
vt 0.500 1.000
vt -0.400 1.000
vt -0.500 1.000
vt -0.500 0.000
vt -0.400 0.000
vt -0.500 1.000
vt -0.500 0.000
vt -0.400 0.000
vt -0.400 1.000

vn 0.000 0.000 -1.000
vn 0.000 0.000 -1.000
vn 0.000 0.000 -1.000
vn 0.000 0.000 -1.000
vn 0.000 0.000 -1.000
vn 1.000 0.000 0.000
vn 1.000 0.000 0.000
vn 1.000 0.000 0.000
vn 1.000 0.000 0.000
vn 0.000 0.000 1.000
vn 0.000 0.000 1.000
vn 0.000 0.000 1.000
vn 0.000 0.000 1.000
vn 0.000 0.000 1.000
vn 0.000 -1.000 0.000
vn 0.000 -1.000 0.000
vn 0.000 -1.000 0.000
vn 0.000 -1.000 0.000
vn 0.000 -1.000 0.000
vn 0.000 1.000 0.000
vn 0.000 1.000 0.000
vn 0.000 1.000 0.000
vn 0.000 1.000 0.000
vn 0.000 -1.000 0.000
vn 0.000 -1.000 0.000
vn 0.000 -1.000 0.000
vn 0.000 -1.000 0.000
vn 0.000 -1.000 0.000
vn 0.000 1.000 0.000
vn 0.000 1.000 0.000
vn 0.000 1.000 0.000
vn 0.000 1.000 0.000
vn -1.000 0.000 0.000
vn -1.000 0.000 0.000
vn -1.000 0.000 0.000
vn -1.000 0.000 0.000
vn -1.000 0.000 0.000
vn -1.000 0.000 0.000
vn -1.000 0.000 0.000
vn -1.000 0.000 0.000
vn 0.000 0.000 -1.000
vn 0.000 0.000 -1.000
vn 0.000 0.000 -1.000
vn 0.000 0.000 -1.000
vn 1.000 0.000 0.000
vn 1.000 0.000 0.000
vn 1.000 0.000 0.000
vn 1.000 0.000 0.000
vn 0.000 0.000 1.000
vn 0.000 0.000 1.000
vn 0.000 0.000 1.000
vn 0.000 0.000 1.000


usemtl wood

f 1/1/1 3/3/3 2/2/2
f 3/3/3 1/1/1 4/4/4
f 4/4/4 1/1/1 5/5/5
f 6/6/6 8/8/8 7/7/7
f 8/8/8 6/6/6 9/9/9
f 10/10/10 12/12/12 11/11/11
f 12/12/12 10/10/10 13/13/13
f 13/13/13 10/10/10 14/14/14
f 15/15/15 17/17/17 16/16/16
f 17/17/17 15/15/15 18/18/18
f 18/18/18 15/15/15 19/19/19
f 20/20/20 22/22/22 21/21/21
f 22/22/22 20/20/20 23/23/23
f 24/24/24 26/26/26 25/25/25
f 26/26/26 24/24/24 27/27/27
f 27/27/27 24/24/24 28/28/28
f 29/29/29 31/31/31 30/30/30
f 31/31/31 29/29/29 32/32/32
f 33/33/33 35/35/35 34/34/34
f 35/35/35 33/33/33 36/36/36
f 37/37/37 39/39/39 38/38/38
f 39/39/39 37/37/37 40/40/40
f 41/41/41 43/43/43 42/42/42
f 43/43/43 41/41/41 44/44/44
f 45/45/45 47/47/47 46/46/46
f 47/47/47 45/45/45 48/48/48
f 49/49/49 51/51/51 50/50/50
f 51/51/51 49/49/49 52/52/52
