# Created by Kenney (www.kenney.nl) - UVs and materials modified

mtllib fantasytown.mtl


g roofCorner

v -0.500 0.000 0.500
v 0.500 0.000 0.500
v 0.500 0.000 -0.500
v -0.500 0.000 -0.500
v -0.567 0.022 -0.500
v -0.545 -0.022 -0.500
v -0.500 0.000 -0.500
v 0.500 0.000 -0.500
v -0.446 0.083 -0.500
v 0.400 0.506 -0.500
v 0.500 0.626 -0.500
v 0.400 0.576 -0.500
v 0.500 0.506 -0.400
v 0.500 0.576 -0.400
v 0.500 0.626 -0.500
v 0.500 0.000 -0.500
v 0.500 0.000 0.500
v 0.500 0.083 0.446
v 0.500 0.022 0.567
v 0.500 -0.022 0.545
v 0.400 0.576 -0.400
v 0.400 0.576 -0.500
v 0.500 0.626 -0.500
v 0.400 0.576 -0.400
v 0.500 0.626 -0.500
v 0.500 0.576 -0.400
v -0.545 -0.022 0.545
v -0.500 0.000 0.500
v -0.500 0.000 -0.500
v -0.545 -0.022 -0.500
v 0.500 -0.022 0.545
v 0.500 0.000 0.500
v -0.500 0.000 0.500
v -0.545 -0.022 0.545
v -0.545 -0.022 0.545
v -0.545 -0.022 -0.500
v -0.567 0.022 -0.500
v -0.567 0.022 0.567
v 0.500 0.022 0.567
v 0.500 -0.022 0.545
v -0.545 -0.022 0.545
v -0.567 0.022 0.567
v 0.400 0.506 -0.400
v 0.400 0.506 -0.500
v 0.400 0.576 -0.500
v 0.400 0.576 -0.400
v 0.500 0.576 -0.400
v 0.500 0.506 -0.400
v 0.400 0.506 -0.400
v 0.400 0.576 -0.400
v -0.446 0.083 -0.500
v 0.400 0.506 -0.500
v 0.400 0.506 -0.400
v -0.446 0.083 0.446
v 0.400 0.506 -0.400
v 0.500 0.506 -0.400
v 0.500 0.083 0.446
v -0.446 0.083 0.446
v -0.567 0.022 0.567
v -0.567 0.022 -0.500
v 0.500 0.022 0.567
v -0.567 0.022 0.567

vt -0.500 0.500
vt -0.500 -0.500
vt 0.500 -0.500
vt 0.500 0.500
vt -0.567 0.022
vt -0.545 -0.022
vt -0.500 0.000
vt 0.500 0.000
vt -0.446 0.083
vt 0.400 0.506
vt 0.500 0.626
vt 0.400 0.576
vt -0.400 0.506
vt -0.400 0.576
vt -0.500 0.626
vt -0.500 0.000
vt 0.500 0.000
vt 0.446 0.083
vt 0.567 0.022
vt 0.545 -0.022
vt 0.400 0.615
vt 0.500 0.615
vt 0.500 0.727
vt -0.400 0.615
vt -0.500 0.727
vt -0.500 0.615
vt 0.545 -0.497
vt 0.500 -0.447
vt -0.500 -0.447
vt -0.500 -0.497
vt 0.500 -0.497
vt 0.500 -0.447
vt -0.500 -0.447
vt -0.545 -0.497
vt -0.545 0.224
vt 0.500 0.224
vt 0.500 0.274
vt -0.567 0.274
vt -0.500 0.274
vt -0.500 0.224
vt 0.545 0.224
vt 0.567 0.274
vt 0.400 0.506
vt 0.500 0.506
vt 0.500 0.576
vt 0.400 0.576
vt -0.500 0.576
vt -0.500 0.506
vt -0.400 0.506
vt -0.400 0.576
vt 0.500 -0.362
vt 0.500 0.584
vt 0.400 0.584
vt -0.446 -0.362
vt -0.400 0.584
vt -0.500 0.584
vt -0.500 -0.362
vt 0.446 -0.362
vt -0.567 -0.497
vt 0.500 -0.497
vt -0.500 -0.497
vt 0.567 -0.497

vn 0.000 -1.000 0.000
vn 0.000 -1.000 0.000
vn 0.000 -1.000 0.000
vn 0.000 -1.000 0.000
vn 0.000 0.000 -1.000
vn 0.000 0.000 -1.000
vn 0.000 0.000 -1.000
vn 0.000 0.000 -1.000
vn 0.000 0.000 -1.000
vn 0.000 0.000 -1.000
vn 0.000 0.000 -1.000
vn 0.000 0.000 -1.000
vn 1.000 0.000 0.000
vn 1.000 0.000 0.000
vn 1.000 0.000 0.000
vn 1.000 0.000 0.000
vn 1.000 0.000 0.000
vn 1.000 0.000 0.000
vn 1.000 0.000 0.000
vn 1.000 0.000 0.000
vn -0.447 0.894 0.000
vn -0.447 0.894 0.000
vn -0.447 0.894 0.000
vn 0.000 0.894 0.447
vn 0.000 0.894 0.447
vn 0.000 0.894 0.447
vn 0.447 -0.894 0.000
vn 0.447 -0.894 0.000
vn 0.447 -0.894 0.000
vn 0.447 -0.894 0.000
vn 0.000 -0.894 -0.447
vn 0.000 -0.894 -0.447
vn 0.000 -0.894 -0.447
vn 0.000 -0.894 -0.447
vn -0.894 -0.447 0.000
vn -0.894 -0.447 0.000
vn -0.894 -0.447 0.000
vn -0.894 -0.447 0.000
vn 0.000 -0.447 0.894
vn 0.000 -0.447 0.894
vn 0.000 -0.447 0.894
vn 0.000 -0.447 0.894
vn -1.000 0.000 0.000
vn -1.000 0.000 0.000
vn -1.000 0.000 0.000
vn -1.000 0.000 0.000
vn 0.000 0.000 1.000
vn 0.000 0.000 1.000
vn 0.000 0.000 1.000
vn 0.000 0.000 1.000
vn -0.447 0.894 0.000
vn -0.447 0.894 0.000
vn -0.447 0.894 0.000
vn -0.447 0.894 0.000
vn 0.000 0.894 0.447
vn 0.000 0.894 0.447
vn 0.000 0.894 0.447
vn 0.000 0.894 0.447
vn -0.447 0.894 0.000
vn -0.447 0.894 0.000
vn 0.000 0.894 0.447
vn 0.000 0.894 0.447


usemtl stone

f 1/1/1 3/3/3 2/2/2
f 3/3/3 1/1/1 4/4/4
f 5/5/5 7/7/7 6/6/6
f 7/7/7 5/5/5 8/8/8
f 8/8/8 5/5/5 9/9/9
f 8/8/8 9/9/9 10/10/10
f 8/8/8 10/10/10 11/11/11
f 11/11/11 10/10/10 12/12/12
f 13/13/13 15/15/15 14/14/14
f 13/13/13 16/16/16 15/15/15
f 16/16/16 13/13/13 17/17/17
f 17/17/17 13/13/13 18/18/18
f 17/17/17 18/18/18 19/19/19
f 17/17/17 19/19/19 20/20/20

usemtl roof

f 21/21/21 23/23/23 22/22/22
f 24/24/24 26/26/26 25/25/25
f 27/27/27 29/29/29 28/28/28
f 29/29/29 27/27/27 30/30/30
f 31/31/31 33/33/33 32/32/32
f 33/33/33 31/31/31 34/34/34
f 35/35/35 37/37/37 36/36/36
f 37/37/37 35/35/35 38/38/38
f 39/39/39 41/41/41 40/40/40
f 41/41/41 39/39/39 42/42/42
f 43/43/43 45/45/45 44/44/44
f 45/45/45 43/43/43 46/46/46
f 47/47/47 49/49/49 48/48/48
f 49/49/49 47/47/47 50/50/50
f 51/51/51 53/53/53 52/52/52
f 53/53/53 51/51/51 54/54/54
f 55/55/55 57/57/57 56/56/56
f 57/57/57 55/55/55 58/58/58

usemtl roofLight

f 51/51/51 59/59/59 54/54/54
f 59/59/59 51/51/51 60/60/60
f 58/58/58 61/61/61 57/57/57
f 61/61/61 58/58/58 62/62/62
