# Created by Kenney (www.kenney.nl) - UVs and materials modified

mtllib fantasytown.mtl


g roofCornerInner

v -0.500 0.000 0.500
v -0.500 0.056 0.500
v -0.446 0.083 0.500
v 0.400 0.506 0.500
v 0.500 0.000 0.500
v 0.500 0.626 0.500
v 0.400 0.576 0.500
v 0.500 0.626 0.500
v 0.500 0.626 -0.500
v 0.500 0.000 -0.500
v 0.500 0.000 0.500
v 0.500 0.000 0.500
v 0.500 0.000 -0.500
v -0.500 0.000 -0.500
v -0.500 0.000 0.500
v -0.500 0.626 -0.500
v -0.500 0.576 -0.400
v -0.500 0.506 -0.400
v -0.500 0.000 -0.500
v -0.500 0.000 0.500
v -0.500 0.083 0.446
v -0.500 0.056 0.500
v -0.500 0.626 -0.500
v -0.500 0.000 -0.500
v 0.500 0.000 -0.500
v 0.500 0.626 -0.500
v -0.500 0.056 0.500
v -0.446 0.083 0.446
v -0.446 0.083 0.500
v -0.500 0.083 0.446
v -0.446 0.083 0.446
v -0.500 0.056 0.500
v -0.500 0.626 -0.500
v 0.500 0.626 -0.500
v 0.400 0.576 -0.400
v -0.500 0.576 -0.400
v 0.400 0.506 0.500
v 0.400 0.506 -0.400
v 0.400 0.576 -0.400
v 0.400 0.576 0.500
v 0.400 0.506 -0.400
v 0.400 0.506 0.500
v 0.400 0.506 -0.400
v -0.500 0.506 -0.400
v -0.500 0.576 -0.400
v 0.400 0.576 -0.400
v 0.400 0.576 -0.400
v 0.500 0.626 -0.500
v 0.500 0.626 0.500
v 0.400 0.576 0.500
v -0.500 0.506 -0.400
v 0.400 0.506 -0.400

vt 0.500 0.000
vt 0.500 0.056
vt 0.446 0.083
vt -0.400 0.506
vt -0.500 0.000
vt -0.500 0.626
vt -0.400 0.576
vt 0.500 0.626
vt -0.500 0.626
vt -0.500 0.000
vt 0.500 0.000
vt -0.500 -0.500
vt 0.500 -0.500
vt 0.500 0.500
vt -0.500 0.500
vt 0.500 0.626
vt 0.400 0.576
vt 0.400 0.506
vt 0.500 0.000
vt -0.500 0.000
vt -0.446 0.083
vt -0.500 0.056
vt -0.500 0.626
vt -0.500 0.000
vt 0.500 0.000
vt 0.500 0.626
vt -0.500 -0.422
vt -0.446 -0.362
vt -0.500 -0.362
vt 0.500 -0.362
vt 0.446 -0.362
vt 0.500 -0.422
vt 0.500 0.727
vt -0.500 0.727
vt -0.400 0.615
vt 0.500 0.615
vt -0.500 0.506
vt 0.400 0.506
vt 0.400 0.576
vt -0.500 0.576
vt 0.400 0.584
vt -0.500 0.584
vt -0.400 0.506
vt 0.500 0.506
vt 0.500 0.576
vt -0.400 0.576
vt 0.400 0.615
vt 0.500 0.727
vt -0.500 0.727
vt -0.500 0.615
vt 0.500 0.584
vt -0.400 0.584

vn 0.000 0.000 1.000
vn 0.000 0.000 1.000
vn 0.000 0.000 1.000
vn 0.000 0.000 1.000
vn 0.000 0.000 1.000
vn 0.000 0.000 1.000
vn 0.000 0.000 1.000
vn 1.000 0.000 0.000
vn 1.000 0.000 0.000
vn 1.000 0.000 0.000
vn 1.000 0.000 0.000
vn 0.000 -1.000 0.000
vn 0.000 -1.000 0.000
vn 0.000 -1.000 0.000
vn 0.000 -1.000 0.000
vn -1.000 0.000 0.000
vn -1.000 0.000 0.000
vn -1.000 0.000 0.000
vn -1.000 0.000 0.000
vn -1.000 0.000 0.000
vn -1.000 0.000 0.000
vn -1.000 0.000 0.000
vn 0.000 0.000 -1.000
vn 0.000 0.000 -1.000
vn 0.000 0.000 -1.000
vn 0.000 0.000 -1.000
vn -0.447 0.894 0.000
vn -0.447 0.894 0.000
vn -0.447 0.894 0.000
vn 0.000 0.894 0.447
vn 0.000 0.894 0.447
vn 0.000 0.894 0.447
vn 0.000 0.894 0.447
vn 0.000 0.894 0.447
vn 0.000 0.894 0.447
vn 0.000 0.894 0.447
vn -1.000 0.000 0.000
vn -1.000 0.000 0.000
vn -1.000 0.000 0.000
vn -1.000 0.000 0.000
vn -0.447 0.894 0.000
vn -0.447 0.894 0.000
vn 0.000 0.000 1.000
vn 0.000 0.000 1.000
vn 0.000 0.000 1.000
vn 0.000 0.000 1.000
vn -0.447 0.894 0.000
vn -0.447 0.894 0.000
vn -0.447 0.894 0.000
vn -0.447 0.894 0.000
vn 0.000 0.894 0.447
vn 0.000 0.894 0.447


usemtl stone

f 1/1/1 3/3/3 2/2/2
f 1/1/1 4/4/4 3/3/3
f 5/5/5 4/4/4 1/1/1
f 4/4/4 5/5/5 6/6/6
f 4/4/4 6/6/6 7/7/7
f 8/8/8 10/10/10 9/9/9
f 10/10/10 8/8/8 11/11/11
f 12/12/12 14/14/14 13/13/13
f 14/14/14 12/12/12 15/15/15
f 16/16/16 18/18/18 17/17/17
f 19/19/19 18/18/18 16/16/16
f 18/18/18 19/19/19 20/20/20
f 18/18/18 20/20/20 21/21/21
f 21/21/21 20/20/20 22/22/22
f 23/23/23 25/25/25 24/24/24
f 25/25/25 23/23/23 26/26/26

usemtl roofLight

f 27/27/27 29/29/29 28/28/28
f 30/30/30 32/32/32 31/31/31

usemtl roof

f 33/33/33 35/35/35 34/34/34
f 35/35/35 33/33/33 36/36/36
f 37/37/37 39/39/39 38/38/38
f 39/39/39 37/37/37 40/40/40
f 28/28/28 42/42/42 41/41/41
f 42/42/42 28/28/28 29/29/29
f 43/43/43 45/45/45 44/44/44
f 45/45/45 43/43/43 46/46/46
f 47/47/47 49/49/49 48/48/48
f 49/49/49 47/47/47 50/50/50
f 51/51/51 31/31/31 52/52/52
f 31/31/31 51/51/51 30/30/30
