# Created by Kenney (www.kenney.nl) - UVs and materials modified

mtllib fantasytown.mtl


g roofGableDetail

v -0.500 0.571 0.000
v -0.500 0.102 -0.468
v 0.500 0.102 -0.468
v 0.500 0.571 0.000
v 0.500 0.571 0.000
v 0.500 0.102 0.468
v -0.500 0.102 0.468
v -0.500 0.571 0.000
v -0.500 0.035 0.535
v 0.500 0.035 0.535
v 0.500 0.000 0.500
v -0.500 0.000 0.500
v -0.500 0.000 -0.500
v 0.500 0.000 -0.500
v 0.500 0.035 -0.535
v -0.500 0.035 -0.535
v 0.500 0.000 0.500
v 0.500 0.100 0.400
v 0.500 0.000 0.400
v -0.500 0.100 -0.400
v -0.500 0.000 -0.400
v -0.500 0.000 -0.500
v 0.500 0.000 -0.400
v 0.500 0.100 -0.400
v 0.500 0.000 -0.500
v -0.500 0.000 0.500
v -0.500 0.000 0.400
v -0.500 0.100 0.400
v -0.475 0.500 0.000
v -0.475 0.100 -0.400
v -0.500 0.100 -0.400
v -0.550 0.500 0.000
v -0.500 0.000 -0.500
v -0.550 -0.035 -0.535
v -0.500 -0.035 -0.535
v -0.550 0.500 0.000
v -0.550 -0.035 0.535
v -0.500 -0.035 0.535
v -0.500 0.000 0.500
v -0.500 0.100 0.400
v -0.475 0.100 0.400
v -0.475 0.500 0.000
v -0.475 0.100 -0.400
v -0.475 0.000 -0.400
v -0.500 0.000 -0.400
v -0.500 0.100 -0.400
v -0.500 0.100 0.400
v -0.500 0.000 0.400
v -0.475 0.000 0.400
v -0.475 0.100 0.400
v 0.550 0.500 0.000
v 0.550 -0.035 -0.535
v 0.500 -0.035 -0.535
v 0.500 0.000 -0.500
v 0.500 0.100 -0.400
v 0.475 0.100 -0.400
v 0.475 0.500 0.000
v 0.500 0.000 0.500
v 0.500 -0.035 0.535
v 0.550 -0.035 0.535
v 0.550 0.500 0.000
v 0.500 0.100 0.400
v 0.475 0.100 0.400
v 0.475 0.500 0.000
v 0.475 0.000 0.400
v 0.500 0.000 0.400
v 0.500 0.100 0.400
v 0.475 0.100 0.400
v 0.500 0.100 -0.400
v 0.500 0.000 -0.400
v 0.475 0.000 -0.400
v 0.475 0.100 -0.400
v 0.550 0.641 0.071
v 0.550 0.641 -0.071
v 0.550 0.571 -0.071
v 0.550 0.500 0.000
v 0.550 0.571 0.071
v 0.550 -0.035 -0.535
v 0.550 0.035 -0.606
v 0.550 -0.035 0.535
v 0.550 0.035 0.606
v 0.550 0.571 0.071
v 0.550 0.035 0.606
v 0.500 0.035 0.606
v 0.500 0.571 0.071
v 0.500 0.035 0.606
v 0.550 0.035 0.606
v 0.550 -0.035 0.535
v 0.500 -0.035 0.535
v 0.500 -0.035 -0.535
v 0.550 -0.035 -0.535
v 0.550 0.035 -0.606
v 0.500 0.035 -0.606
v 0.500 0.035 -0.606
v 0.550 0.035 -0.606
v 0.550 0.571 -0.071
v 0.500 0.571 -0.071
v 0.500 0.035 -0.535
v 0.500 0.000 -0.500
v 0.500 -0.035 -0.535
v 0.500 0.035 -0.606
v 0.500 0.571 -0.071
v 0.500 0.102 -0.468
v 0.500 0.571 0.000
v 0.500 0.641 -0.071
v 0.500 0.641 0.071
v 0.500 0.571 0.071
v 0.500 0.102 0.468
v 0.500 0.035 0.606
v 0.500 0.035 0.535
v 0.500 -0.035 0.535
v 0.500 0.000 0.500
v -0.550 0.571 0.071
v -0.550 0.035 0.606
v -0.550 -0.035 0.535
v -0.550 0.500 0.000
v -0.550 0.641 0.071
v -0.550 0.641 -0.071
v -0.550 0.571 -0.071
v -0.550 -0.035 -0.535
v -0.550 0.035 -0.606
v -0.550 0.571 -0.071
v -0.550 0.035 -0.606
v -0.500 0.035 -0.606
v -0.500 0.571 -0.071
v -0.550 -0.035 -0.535
v -0.500 -0.035 -0.535
v -0.500 0.035 -0.606
v -0.550 0.035 -0.606
v -0.500 0.035 0.606
v -0.500 -0.035 0.535
v -0.550 -0.035 0.535
v -0.550 0.035 0.606
v -0.500 0.571 0.071
v -0.500 0.035 0.606
v -0.550 0.035 0.606
v -0.550 0.571 0.071
v -0.500 0.641 0.071
v -0.500 0.641 -0.071
v -0.500 0.571 -0.071
v -0.500 0.571 0.000
v -0.500 0.571 0.071
v -0.500 0.102 -0.468
v -0.500 0.102 0.468
v -0.500 0.035 0.606
v -0.500 0.035 0.535
v -0.500 -0.035 0.535
v -0.500 0.000 0.500
v -0.500 0.035 -0.535
v -0.500 0.035 -0.606
v -0.500 -0.035 -0.535
v -0.500 0.000 -0.500
v -0.500 0.641 0.071
v -0.500 0.571 0.071
v -0.550 0.571 0.071
v -0.550 0.641 0.071
v -0.500 0.641 -0.071
v -0.500 0.641 0.071
v -0.550 0.641 0.071
v -0.550 0.641 -0.071
v -0.550 0.641 -0.071
v -0.550 0.571 -0.071
v -0.500 0.571 -0.071
v -0.500 0.641 -0.071
v 0.500 0.641 -0.071
v 0.500 0.571 -0.071
v 0.550 0.571 -0.071
v 0.550 0.641 -0.071
v 0.500 0.641 -0.071
v 0.550 0.641 -0.071
v 0.550 0.641 0.071
v 0.500 0.641 0.071
v 0.550 0.641 0.071
v 0.550 0.571 0.071
v 0.500 0.571 0.071
v 0.500 0.641 0.071
v -0.500 0.000 0.500
v 0.500 0.000 0.500
v 0.500 0.000 0.400
v 0.475 0.000 0.400
v 0.475 0.000 -0.400
v -0.475 0.000 0.400
v -0.500 0.000 0.400
v -0.475 0.000 -0.400
v -0.500 0.000 -0.500
v -0.500 0.000 -0.400
v 0.500 0.000 -0.500
v 0.500 0.000 -0.400
v -0.475 0.000 0.400
v -0.475 0.000 -0.400
v -0.475 0.100 -0.400
v -0.475 0.500 0.000
v -0.475 0.100 0.400
v 0.475 0.500 0.000
v 0.475 0.100 -0.400
v 0.475 0.000 -0.400
v 0.475 0.000 0.400
v 0.475 0.100 0.400
v 0.500 0.035 0.535
v -0.500 0.035 0.535
v -0.500 0.035 -0.535
v 0.500 0.035 -0.535

vt -0.500 0.404
vt -0.500 -0.259
vt 0.500 -0.259
vt 0.500 0.404
vt -0.500 0.404
vt -0.500 -0.259
vt 0.500 -0.259
vt 0.500 0.404
vt 0.500 0.404
vt -0.500 0.404
vt -0.500 0.354
vt 0.500 0.354
vt -0.500 0.354
vt 0.500 0.354
vt 0.500 0.404
vt -0.500 0.404
vt 0.500 0.000
vt 0.400 0.100
vt 0.400 0.000
vt 0.400 0.100
vt 0.400 0.000
vt 0.500 0.000
vt -0.400 0.000
vt -0.400 0.100
vt -0.500 0.000
vt -0.500 0.000
vt -0.400 0.000
vt -0.400 0.100
vt 0.475 0.354
vt 0.475 -0.212
vt 0.500 -0.212
vt 0.550 0.354
vt 0.500 -0.354
vt 0.550 -0.404
vt 0.500 -0.404
vt -0.550 0.354
vt -0.550 -0.404
vt -0.500 -0.404
vt -0.500 -0.354
vt -0.500 -0.212
vt -0.475 -0.212
vt -0.475 0.354
vt 0.475 0.100
vt 0.475 0.000
vt 0.500 0.000
vt 0.500 0.100
vt -0.500 0.100
vt -0.500 0.000
vt -0.475 0.000
vt -0.475 0.100
vt -0.550 0.354
vt -0.550 -0.404
vt -0.500 -0.404
vt -0.500 -0.354
vt -0.500 -0.212
vt -0.475 -0.212
vt -0.475 0.354
vt 0.500 -0.354
vt 0.500 -0.404
vt 0.550 -0.404
vt 0.550 0.354
vt 0.500 -0.212
vt 0.475 -0.212
vt 0.475 0.354
vt 0.475 0.000
vt 0.500 0.000
vt 0.500 0.100
vt 0.475 0.100
vt -0.500 0.100
vt -0.500 0.000
vt -0.475 0.000
vt -0.475 0.100
vt 0.071 0.641
vt -0.071 0.641
vt -0.071 0.571
vt 0.000 0.500
vt 0.071 0.571
vt -0.535 -0.035
vt -0.606 0.035
vt 0.535 -0.035
vt 0.606 0.035
vt -0.550 0.354
vt -0.550 -0.404
vt -0.500 -0.404
vt -0.500 0.354
vt -0.500 0.454
vt -0.550 0.454
vt -0.550 0.354
vt -0.500 0.354
vt 0.500 0.354
vt 0.550 0.354
vt 0.550 0.454
vt 0.500 0.454
vt 0.500 -0.404
vt 0.550 -0.404
vt 0.550 0.354
vt 0.500 0.354
vt 0.535 0.035
vt 0.500 0.000
vt 0.535 -0.035
vt 0.606 0.035
vt 0.071 0.571
vt 0.468 0.102
vt 0.000 0.571
vt 0.071 0.641
vt -0.071 0.641
vt -0.071 0.571
vt -0.468 0.102
vt -0.606 0.035
vt -0.535 0.035
vt -0.535 -0.035
vt -0.500 0.000
vt -0.071 0.571
vt -0.606 0.035
vt -0.535 -0.035
vt 0.000 0.500
vt -0.071 0.641
vt 0.071 0.641
vt 0.071 0.571
vt 0.535 -0.035
vt 0.606 0.035
vt -0.550 0.354
vt -0.550 -0.404
vt -0.500 -0.404
vt -0.500 0.354
vt -0.550 0.354
vt -0.500 0.354
vt -0.500 0.454
vt -0.550 0.454
vt 0.500 0.454
vt 0.500 0.354
vt 0.550 0.354
vt 0.550 0.454
vt 0.500 0.354
vt 0.500 -0.404
vt 0.550 -0.404
vt 0.550 0.354
vt 0.071 0.641
vt -0.071 0.641
vt -0.071 0.571
vt 0.000 0.571
vt 0.071 0.571
vt -0.468 0.102
vt 0.468 0.102
vt 0.606 0.035
vt 0.535 0.035
vt 0.535 -0.035
vt 0.500 0.000
vt -0.535 0.035
vt -0.606 0.035
vt -0.535 -0.035
vt -0.500 0.000
vt 0.500 0.641
vt 0.500 0.571
vt 0.550 0.571
vt 0.550 0.641
vt -0.071 0.500
vt 0.071 0.500
vt 0.071 0.550
vt -0.071 0.550
vt -0.550 0.641
vt -0.550 0.571
vt -0.500 0.571
vt -0.500 0.641
vt 0.500 0.641
vt 0.500 0.571
vt 0.550 0.571
vt 0.550 0.641
vt -0.071 -0.500
vt -0.071 -0.550
vt 0.071 -0.550
vt 0.071 -0.500
vt -0.550 0.641
vt -0.550 0.571
vt -0.500 0.571
vt -0.500 0.641
vt -0.500 0.500
vt -0.500 -0.500
vt -0.400 -0.500
vt -0.400 -0.475
vt 0.400 -0.475
vt -0.400 0.475
vt -0.400 0.500
vt 0.400 0.475
vt 0.500 0.500
vt 0.400 0.500
vt 0.500 -0.500
vt 0.400 -0.500
vt -0.400 0.000
vt 0.400 0.000
vt 0.400 0.100
vt 0.000 0.500
vt -0.400 0.100
vt 0.000 0.500
vt -0.400 0.100
vt -0.400 0.000
vt 0.400 0.000
vt 0.400 0.100
vt -0.500 -0.354
vt 0.500 -0.354
vt -0.500 -0.354
vt 0.500 -0.354

vn 0.000 0.707 -0.707
vn 0.000 0.707 -0.707
vn 0.000 0.707 -0.707
vn 0.000 0.707 -0.707
vn 0.000 0.707 0.707
vn 0.000 0.707 0.707
vn 0.000 0.707 0.707
vn 0.000 0.707 0.707
vn 0.000 -0.707 0.707
vn 0.000 -0.707 0.707
vn 0.000 -0.707 0.707
vn 0.000 -0.707 0.707
vn 0.000 -0.707 -0.707
vn 0.000 -0.707 -0.707
vn 0.000 -0.707 -0.707
vn 0.000 -0.707 -0.707
vn 1.000 0.000 0.000
vn 1.000 0.000 0.000
vn 1.000 0.000 0.000
vn -1.000 0.000 0.000
vn -1.000 0.000 0.000
vn -1.000 0.000 0.000
vn 1.000 0.000 0.000
vn 1.000 0.000 0.000
vn 1.000 0.000 0.000
vn -1.000 0.000 0.000
vn -1.000 0.000 0.000
vn -1.000 0.000 0.000
vn 0.000 -0.707 0.707
vn 0.000 -0.707 0.707
vn 0.000 -0.707 0.707
vn 0.000 -0.707 0.707
vn 0.000 -0.707 0.707
vn 0.000 -0.707 0.707
vn 0.000 -0.707 0.707
vn 0.000 -0.707 -0.707
vn 0.000 -0.707 -0.707
vn 0.000 -0.707 -0.707
vn 0.000 -0.707 -0.707
vn 0.000 -0.707 -0.707
vn 0.000 -0.707 -0.707
vn 0.000 -0.707 -0.707
vn 0.000 0.000 1.000
vn 0.000 0.000 1.000
vn 0.000 0.000 1.000
vn 0.000 0.000 1.000
vn 0.000 0.000 -1.000
vn 0.000 0.000 -1.000
vn 0.000 0.000 -1.000
vn 0.000 0.000 -1.000
vn 0.000 -0.707 0.707
vn 0.000 -0.707 0.707
vn 0.000 -0.707 0.707
vn 0.000 -0.707 0.707
vn 0.000 -0.707 0.707
vn 0.000 -0.707 0.707
vn 0.000 -0.707 0.707
vn 0.000 -0.707 -0.707
vn 0.000 -0.707 -0.707
vn 0.000 -0.707 -0.707
vn 0.000 -0.707 -0.707
vn 0.000 -0.707 -0.707
vn 0.000 -0.707 -0.707
vn 0.000 -0.707 -0.707
vn 0.000 0.000 -1.000
vn 0.000 0.000 -1.000
vn 0.000 0.000 -1.000
vn 0.000 0.000 -1.000
vn 0.000 0.000 1.000
vn 0.000 0.000 1.000
vn 0.000 0.000 1.000
vn 0.000 0.000 1.000
vn 1.000 0.000 0.000
vn 1.000 0.000 0.000
vn 1.000 0.000 0.000
vn 1.000 0.000 0.000
vn 1.000 0.000 0.000
vn 1.000 0.000 0.000
vn 1.000 0.000 0.000
vn 1.000 0.000 0.000
vn 1.000 0.000 0.000
vn 0.000 0.707 0.707
vn 0.000 0.707 0.707
vn 0.000 0.707 0.707
vn 0.000 0.707 0.707
vn 0.000 -0.707 0.707
vn 0.000 -0.707 0.707
vn 0.000 -0.707 0.707
vn 0.000 -0.707 0.707
vn 0.000 -0.707 -0.707
vn 0.000 -0.707 -0.707
vn 0.000 -0.707 -0.707
vn 0.000 -0.707 -0.707
vn 0.000 0.707 -0.707
vn 0.000 0.707 -0.707
vn 0.000 0.707 -0.707
vn 0.000 0.707 -0.707
vn -1.000 0.000 0.000
vn -1.000 0.000 0.000
vn -1.000 0.000 0.000
vn -1.000 0.000 0.000
vn -1.000 0.000 0.000
vn -1.000 0.000 0.000
vn -1.000 0.000 0.000
vn -1.000 0.000 0.000
vn -1.000 0.000 0.000
vn -1.000 0.000 0.000
vn -1.000 0.000 0.000
vn -1.000 0.000 0.000
vn -1.000 0.000 0.000
vn -1.000 0.000 0.000
vn -1.000 0.000 0.000
vn -1.000 0.000 0.000
vn -1.000 0.000 0.000
vn -1.000 0.000 0.000
vn -1.000 0.000 0.000
vn -1.000 0.000 0.000
vn -1.000 0.000 0.000
vn -1.000 0.000 0.000
vn -1.000 0.000 0.000
vn -1.000 0.000 0.000
vn 0.000 0.707 -0.707
vn 0.000 0.707 -0.707
vn 0.000 0.707 -0.707
vn 0.000 0.707 -0.707
vn 0.000 -0.707 -0.707
vn 0.000 -0.707 -0.707
vn 0.000 -0.707 -0.707
vn 0.000 -0.707 -0.707
vn 0.000 -0.707 0.707
vn 0.000 -0.707 0.707
vn 0.000 -0.707 0.707
vn 0.000 -0.707 0.707
vn 0.000 0.707 0.707
vn 0.000 0.707 0.707
vn 0.000 0.707 0.707
vn 0.000 0.707 0.707
vn 1.000 0.000 0.000
vn 1.000 0.000 0.000
vn 1.000 0.000 0.000
vn 1.000 0.000 0.000
vn 1.000 0.000 0.000
vn 1.000 0.000 0.000
vn 1.000 0.000 0.000
vn 1.000 0.000 0.000
vn 1.000 0.000 0.000
vn 1.000 0.000 0.000
vn 1.000 0.000 0.000
vn 1.000 0.000 0.000
vn 1.000 0.000 0.000
vn 1.000 0.000 0.000
vn 1.000 0.000 0.000
vn 0.000 0.000 1.000
vn 0.000 0.000 1.000
vn 0.000 0.000 1.000
vn 0.000 0.000 1.000
vn 0.000 1.000 0.000
vn 0.000 1.000 0.000
vn 0.000 1.000 0.000
vn 0.000 1.000 0.000
vn 0.000 0.000 -1.000
vn 0.000 0.000 -1.000
vn 0.000 0.000 -1.000
vn 0.000 0.000 -1.000
vn 0.000 0.000 -1.000
vn 0.000 0.000 -1.000
vn 0.000 0.000 -1.000
vn 0.000 0.000 -1.000
vn 0.000 1.000 0.000
vn 0.000 1.000 0.000
vn 0.000 1.000 0.000
vn 0.000 1.000 0.000
vn 0.000 0.000 1.000
vn 0.000 0.000 1.000
vn 0.000 0.000 1.000
vn 0.000 0.000 1.000
vn 0.000 -1.000 0.000
vn 0.000 -1.000 0.000
vn 0.000 -1.000 0.000
vn 0.000 -1.000 0.000
vn 0.000 -1.000 0.000
vn 0.000 -1.000 0.000
vn 0.000 -1.000 0.000
vn 0.000 -1.000 0.000
vn 0.000 -1.000 0.000
vn 0.000 -1.000 0.000
vn 0.000 -1.000 0.000
vn 0.000 -1.000 0.000
vn -1.000 0.000 0.000
vn -1.000 0.000 0.000
vn -1.000 0.000 0.000
vn -1.000 0.000 0.000
vn -1.000 0.000 0.000
vn 1.000 0.000 0.000
vn 1.000 0.000 0.000
vn 1.000 0.000 0.000
vn 1.000 0.000 0.000
vn 1.000 0.000 0.000
vn 0.000 0.707 0.707
vn 0.000 0.707 0.707
vn 0.000 0.707 -0.707
vn 0.000 0.707 -0.707


usemtl roof

f 1/1/1 3/3/3 2/2/2
f 3/3/3 1/1/1 4/4/4
f 5/5/5 7/7/7 6/6/6
f 7/7/7 5/5/5 8/8/8
f 9/9/9 11/11/11 10/10/10
f 11/11/11 9/9/9 12/12/12
f 13/13/13 15/15/15 14/14/14
f 15/15/15 13/13/13 16/16/16

usemtl wood

f 17/17/17 19/19/19 18/18/18
f 20/20/20 22/22/22 21/21/21
f 23/23/23 25/25/25 24/24/24
f 26/26/26 28/28/28 27/27/27
f 29/29/29 31/31/31 30/30/30
f 31/31/31 29/29/29 32/32/32
f 32/32/32 33/33/33 31/31/31
f 34/34/34 33/33/33 32/32/32
f 33/33/33 34/34/34 35/35/35
f 36/36/36 38/38/38 37/37/37
f 38/38/38 36/36/36 39/39/39
f 39/39/39 36/36/36 40/40/40
f 40/40/40 36/36/36 41/41/41
f 41/41/41 36/36/36 42/42/42
f 43/43/43 45/45/45 44/44/44
f 45/45/45 43/43/43 46/46/46
f 47/47/47 49/49/49 48/48/48
f 49/49/49 47/47/47 50/50/50
f 51/51/51 53/53/53 52/52/52
f 53/53/53 51/51/51 54/54/54
f 54/54/54 51/51/51 55/55/55
f 55/55/55 51/51/51 56/56/56
f 56/56/56 51/51/51 57/57/57
f 58/58/58 60/60/60 59/59/59
f 60/60/60 58/58/58 61/61/61
f 61/61/61 58/58/58 62/62/62
f 61/61/61 62/62/62 63/63/63
f 61/61/61 63/63/63 64/64/64
f 65/65/65 67/67/67 66/66/66
f 67/67/67 65/65/65 68/68/68
f 69/69/69 71/71/71 70/70/70
f 71/71/71 69/69/69 72/72/72
f 73/73/73 75/75/75 74/74/74
f 75/75/75 73/73/73 76/76/76
f 76/76/76 73/73/73 77/77/77
f 78/78/78 75/75/75 76/76/76
f 75/75/75 78/78/78 79/79/79
f 76/76/76 77/77/77 80/80/80
f 80/80/80 77/77/77 81/81/81
f 82/82/82 84/84/84 83/83/83
f 84/84/84 82/82/82 85/85/85
f 86/86/86 88/88/88 87/87/87
f 88/88/88 86/86/86 89/89/89
f 90/90/90 92/92/92 91/91/91
f 92/92/92 90/90/90 93/93/93
f 94/94/94 96/96/96 95/95/95
f 96/96/96 94/94/94 97/97/97
f 98/98/98 100/100/100 99/99/99
f 100/100/100 98/98/98 101/101/101
f 98/98/98 102/102/102 101/101/101
f 102/102/102 98/98/98 103/103/103
f 102/102/102 103/103/103 104/104/104
f 102/102/102 104/104/104 105/105/105
f 105/105/105 104/104/104 106/106/106
f 106/106/106 104/104/104 107/107/107
f 108/108/108 107/107/107 104/104/104
f 107/107/107 108/108/108 109/109/109
f 109/109/109 108/108/108 110/110/110
f 110/110/110 111/111/111 109/109/109
f 111/111/111 110/110/110 112/112/112
f 113/113/113 115/115/115 114/114/114
f 115/115/115 113/113/113 116/116/116
f 117/117/117 116/116/116 113/113/113
f 118/118/118 116/116/116 117/117/117
f 119/119/119 116/116/116 118/118/118
f 119/119/119 120/120/120 116/116/116
f 120/120/120 119/119/119 121/121/121
f 122/122/122 124/124/124 123/123/123
f 124/124/124 122/122/122 125/125/125
f 126/126/126 128/128/128 127/127/127
f 128/128/128 126/126/126 129/129/129
f 130/130/130 132/132/132 131/131/131
f 132/132/132 130/130/130 133/133/133
f 134/134/134 136/136/136 135/135/135
f 136/136/136 134/134/134 137/137/137
f 138/138/138 140/140/140 139/139/139
f 140/140/140 138/138/138 141/141/141
f 141/141/141 138/138/138 142/142/142
f 143/143/143 140/140/140 141/141/141
f 141/141/141 142/142/142 144/144/144
f 144/144/144 142/142/142 145/145/145
f 144/144/144 145/145/145 146/146/146
f 147/147/147 146/146/146 145/145/145
f 146/146/146 147/147/147 148/148/148
f 149/149/149 140/140/140 143/143/143
f 140/140/140 149/149/149 150/150/150
f 149/149/149 151/151/151 150/150/150
f 151/151/151 149/149/149 152/152/152
f 153/153/153 155/155/155 154/154/154
f 155/155/155 153/153/153 156/156/156
f 157/157/157 159/159/159 158/158/158
f 159/159/159 157/157/157 160/160/160
f 161/161/161 163/163/163 162/162/162
f 163/163/163 161/161/161 164/164/164
f 165/165/165 167/167/167 166/166/166
f 167/167/167 165/165/165 168/168/168
f 169/169/169 171/171/171 170/170/170
f 171/171/171 169/169/169 172/172/172
f 173/173/173 175/175/175 174/174/174
f 175/175/175 173/173/173 176/176/176

usemtl stone

f 177/177/177 179/179/179 178/178/178
f 179/179/179 177/177/177 180/180/180
f 180/180/180 177/177/177 181/181/181
f 181/181/181 177/177/177 182/182/182
f 182/182/182 177/177/177 183/183/183
f 184/184/184 181/181/181 182/182/182
f 185/185/185 181/181/181 184/184/184
f 185/185/185 184/184/184 186/186/186
f 187/187/187 181/181/181 185/185/185
f 181/181/181 187/187/187 188/188/188
f 189/189/189 191/191/191 190/190/190
f 191/191/191 189/189/189 192/192/192
f 192/192/192 189/189/189 193/193/193
f 194/194/194 196/196/196 195/195/195
f 196/196/196 194/194/194 197/197/197
f 197/197/197 194/194/194 198/198/198

usemtl roofLight

f 199/199/199 7/7/7 200/200/200
f 7/7/7 199/199/199 6/6/6
f 201/201/201 3/3/3 202/202/202
f 3/3/3 201/201/201 2/2/2
