# Created by Kenney (www.kenney.nl) - UVs and materials modified

mtllib fantasytown.mtl


g roofRight

v -0.400 0.050 -0.500
v -0.500 0.000 -0.500
v -0.400 0.000 -0.500
v -0.400 0.050 0.500
v -0.400 0.050 0.475
v -0.400 0.000 0.475
v -0.400 0.000 0.500
v -0.634 0.045 0.400
v -0.589 -0.045 0.400
v -0.545 -0.022 0.400
v -0.567 0.022 0.400
v -0.446 0.083 0.400
v 0.400 0.562 0.400
v 0.400 0.506 0.400
v 0.400 0.562 0.400
v 0.400 0.562 0.500
v -0.634 0.045 0.500
v -0.634 0.045 0.400
v 0.400 0.000 0.500
v 0.400 0.000 0.475
v 0.400 0.450 0.475
v 0.400 0.450 0.500
v 0.400 0.000 -0.475
v 0.400 0.000 -0.500
v 0.400 0.450 -0.500
v 0.400 0.450 -0.475
v -0.400 0.050 0.500
v 0.400 0.450 0.500
v 0.400 0.450 0.475
v -0.400 0.050 0.475
v -0.589 -0.045 0.400
v -0.634 0.045 0.400
v -0.634 0.045 0.500
v -0.589 -0.045 0.500
v 0.400 0.562 0.400
v 0.400 0.576 0.400
v 0.400 0.626 0.400
v 0.400 0.626 0.500
v 0.400 0.562 0.500
v -0.400 0.050 -0.475
v -0.400 0.050 -0.500
v -0.400 0.000 -0.500
v -0.400 0.000 -0.475
v -0.545 -0.022 0.500
v -0.545 -0.022 0.400
v -0.589 -0.045 0.400
v -0.589 -0.045 0.500
v 0.400 0.626 0.400
v 0.400 0.576 0.400
v 0.500 0.626 0.400
v 0.500 0.676 0.400
v 0.400 0.000 -0.500
v 0.500 0.000 -0.500
v 0.500 0.500 -0.500
v 0.400 0.450 -0.500
v 0.500 0.676 0.400
v 0.500 0.676 0.500
v 0.400 0.626 0.500
v 0.400 0.626 0.400
v 0.500 0.676 0.500
v 0.500 0.000 0.500
v 0.400 0.000 0.500
v 0.400 0.450 0.500
v 0.400 0.562 0.500
v 0.400 0.626 0.500
v -0.400 0.050 0.500
v -0.634 0.045 0.500
v -0.400 0.000 0.500
v -0.500 0.000 0.500
v -0.545 -0.022 0.500
v -0.589 -0.045 0.500
v -0.500 0.000 0.500
v -0.400 0.000 0.500
v -0.400 0.000 0.475
v -0.400 0.000 -0.475
v -0.400 0.000 -0.500
v -0.500 0.000 -0.500
v 0.400 0.000 -0.475
v 0.400 0.000 0.475
v 0.400 0.000 -0.500
v 0.400 0.000 0.500
v 0.500 0.000 -0.500
v 0.500 0.000 0.500
v -0.400 0.050 -0.475
v -0.400 0.000 -0.475
v 0.400 0.000 -0.475
v 0.400 0.450 -0.475
v 0.500 0.676 0.500
v 0.500 0.676 0.400
v 0.500 0.626 0.400
v 0.500 0.000 0.500
v 0.500 0.000 -0.500
v 0.500 0.500 -0.500
v 0.500 0.626 -0.500
v 0.400 0.450 0.475
v 0.400 0.000 0.475
v -0.400 0.000 0.475
v -0.400 0.050 0.475
v -0.567 0.022 -0.500
v -0.545 -0.022 -0.500
v -0.446 0.083 -0.500
v 0.400 0.506 -0.500
v 0.500 0.626 -0.500
v 0.400 0.576 -0.500
v -0.545 -0.022 0.400
v -0.545 -0.022 -0.500
v -0.567 0.022 -0.500
v -0.567 0.022 0.400
v -0.400 0.050 -0.475
v 0.400 0.450 -0.475
v 0.400 0.450 -0.500
v -0.400 0.050 -0.500
v -0.500 0.000 0.500
v -0.500 0.000 -0.500
v -0.545 -0.022 -0.500
v 0.400 0.576 -0.500
v 0.500 0.626 -0.500
v 0.500 0.626 0.400
v 0.400 0.576 0.400
v 0.400 0.506 0.400
v 0.400 0.506 -0.500
v 0.400 0.576 -0.500
v 0.400 0.506 -0.500
v 0.400 0.506 0.400
v -0.446 0.083 0.400
v -0.446 0.083 -0.500
v -0.567 0.022 0.400
v -0.567 0.022 -0.500

vt -0.400 0.050
vt -0.500 0.000
vt -0.400 0.000
vt 0.500 0.050
vt 0.475 0.050
vt 0.475 0.000
vt 0.500 0.000
vt -0.634 0.045
vt -0.589 -0.045
vt -0.545 -0.022
vt -0.567 0.022
vt -0.446 0.083
vt 0.400 0.562
vt 0.400 0.506
vt -0.400 0.609
vt -0.500 0.609
vt -0.500 -0.547
vt -0.400 -0.547
vt -0.500 0.000
vt -0.475 0.000
vt -0.475 0.450
vt -0.500 0.450
vt 0.475 0.000
vt 0.500 0.000
vt 0.500 0.450
vt 0.475 0.450
vt 0.500 -0.335
vt 0.500 0.559
vt 0.475 0.559
vt 0.475 -0.335
vt -0.400 0.224
vt -0.400 0.324
vt -0.500 0.324
vt -0.500 0.224
vt -0.400 0.562
vt -0.400 0.576
vt -0.400 0.626
vt -0.500 0.626
vt -0.500 0.562
vt -0.475 0.050
vt -0.500 0.050
vt -0.500 0.000
vt -0.475 0.000
vt 0.500 -0.497
vt 0.400 -0.497
vt 0.400 -0.547
vt 0.500 -0.547
vt 0.400 0.626
vt 0.400 0.576
vt 0.500 0.626
vt 0.500 0.676
vt 0.400 0.000
vt 0.500 0.000
vt 0.500 0.500
vt 0.400 0.450
vt -0.400 0.749
vt -0.500 0.749
vt -0.500 0.638
vt -0.400 0.638
vt -0.500 0.676
vt -0.500 0.000
vt -0.400 0.000
vt -0.400 0.450
vt -0.400 0.562
vt -0.400 0.626
vt 0.400 0.050
vt 0.634 0.045
vt 0.400 0.000
vt 0.500 0.000
vt 0.545 -0.022
vt 0.589 -0.045
vt -0.500 0.500
vt -0.500 0.400
vt -0.475 0.400
vt 0.475 0.400
vt 0.500 0.400
vt 0.500 0.500
vt 0.475 -0.400
vt -0.475 -0.400
vt 0.500 -0.400
vt -0.500 -0.400
vt 0.500 -0.500
vt -0.500 -0.500
vt -0.400 0.050
vt -0.400 0.000
vt 0.400 0.000
vt 0.400 0.450
vt 0.500 0.676
vt 0.400 0.676
vt 0.400 0.626
vt 0.500 0.000
vt -0.500 0.000
vt -0.500 0.500
vt -0.500 0.626
vt -0.400 0.450
vt -0.400 0.000
vt 0.400 0.000
vt 0.400 0.050
vt -0.567 0.022
vt -0.545 -0.022
vt -0.446 0.083
vt 0.400 0.506
vt 0.500 0.626
vt 0.400 0.576
vt -0.400 0.224
vt 0.500 0.224
vt 0.500 0.274
vt -0.400 0.274
vt -0.475 -0.335
vt -0.475 0.559
vt -0.500 0.559
vt -0.500 -0.335
vt 0.500 -0.447
vt -0.500 -0.447
vt -0.500 -0.497
vt 0.500 0.615
vt 0.500 0.727
vt -0.400 0.727
vt -0.400 0.615
vt -0.400 0.506
vt 0.500 0.506
vt 0.500 0.576
vt 0.500 0.584
vt -0.400 0.584
vt -0.400 -0.362
vt 0.500 -0.362
vt -0.400 -0.497
vt 0.500 -0.497

vn 0.000 0.000 -1.000
vn 0.000 0.000 -1.000
vn 0.000 0.000 -1.000
vn 1.000 0.000 0.000
vn 1.000 0.000 0.000
vn 1.000 0.000 0.000
vn 1.000 0.000 0.000
vn 0.000 0.000 -1.000
vn 0.000 0.000 -1.000
vn 0.000 0.000 -1.000
vn 0.000 0.000 -1.000
vn 0.000 0.000 -1.000
vn 0.000 0.000 -1.000
vn 0.000 0.000 -1.000
vn -0.447 0.894 0.000
vn -0.447 0.894 0.000
vn -0.447 0.894 0.000
vn -0.447 0.894 0.000
vn -1.000 0.000 0.000
vn -1.000 0.000 0.000
vn -1.000 0.000 0.000
vn -1.000 0.000 0.000
vn -1.000 0.000 0.000
vn -1.000 0.000 0.000
vn -1.000 0.000 0.000
vn -1.000 0.000 0.000
vn 0.447 -0.894 0.000
vn 0.447 -0.894 0.000
vn 0.447 -0.894 0.000
vn 0.447 -0.894 0.000
vn -0.894 -0.447 0.000
vn -0.894 -0.447 0.000
vn -0.894 -0.447 0.000
vn -0.894 -0.447 0.000
vn -1.000 0.000 0.000
vn -1.000 0.000 0.000
vn -1.000 0.000 0.000
vn -1.000 0.000 0.000
vn -1.000 0.000 0.000
vn 1.000 0.000 0.000
vn 1.000 0.000 0.000
vn 1.000 0.000 0.000
vn 1.000 0.000 0.000
vn 0.447 -0.894 0.000
vn 0.447 -0.894 0.000
vn 0.447 -0.894 0.000
vn 0.447 -0.894 0.000
vn 0.000 0.000 -1.000
vn 0.000 0.000 -1.000
vn 0.000 0.000 -1.000
vn 0.000 0.000 -1.000
vn 0.000 0.000 -1.000
vn 0.000 0.000 -1.000
vn 0.000 0.000 -1.000
vn 0.000 0.000 -1.000
vn -0.447 0.894 0.000
vn -0.447 0.894 0.000
vn -0.447 0.894 0.000
vn -0.447 0.894 0.000
vn 0.000 0.000 1.000
vn 0.000 0.000 1.000
vn 0.000 0.000 1.000
vn 0.000 0.000 1.000
vn 0.000 0.000 1.000
vn 0.000 0.000 1.000
vn 0.000 0.000 1.000
vn 0.000 0.000 1.000
vn 0.000 0.000 1.000
vn 0.000 0.000 1.000
vn 0.000 0.000 1.000
vn 0.000 0.000 1.000
vn 0.000 -1.000 0.000
vn 0.000 -1.000 0.000
vn 0.000 -1.000 0.000
vn 0.000 -1.000 0.000
vn 0.000 -1.000 0.000
vn 0.000 -1.000 0.000
vn 0.000 -1.000 0.000
vn 0.000 -1.000 0.000
vn 0.000 -1.000 0.000
vn 0.000 -1.000 0.000
vn 0.000 -1.000 0.000
vn 0.000 -1.000 0.000
vn 0.000 0.000 -1.000
vn 0.000 0.000 -1.000
vn 0.000 0.000 -1.000
vn 0.000 0.000 -1.000
vn 1.000 0.000 0.000
vn 1.000 0.000 0.000
vn 1.000 0.000 0.000
vn 1.000 0.000 0.000
vn 1.000 0.000 0.000
vn 1.000 0.000 0.000
vn 1.000 0.000 0.000
vn 0.000 0.000 1.000
vn 0.000 0.000 1.000
vn 0.000 0.000 1.000
vn 0.000 0.000 1.000
vn 0.000 0.000 -1.000
vn 0.000 0.000 -1.000
vn 0.000 0.000 -1.000
vn 0.000 0.000 -1.000
vn 0.000 0.000 -1.000
vn 0.000 0.000 -1.000
vn -0.894 -0.447 0.000
vn -0.894 -0.447 0.000
vn -0.894 -0.447 0.000
vn -0.894 -0.447 0.000
vn 0.447 -0.894 0.000
vn 0.447 -0.894 0.000
vn 0.447 -0.894 0.000
vn 0.447 -0.894 0.000
vn 0.447 -0.894 0.000
vn 0.447 -0.894 0.000
vn 0.447 -0.894 0.000
vn -0.447 0.894 0.000
vn -0.447 0.894 0.000
vn -0.447 0.894 0.000
vn -0.447 0.894 0.000
vn -1.000 0.000 0.000
vn -1.000 0.000 0.000
vn -1.000 0.000 0.000
vn -0.447 0.894 0.000
vn -0.447 0.894 0.000
vn -0.447 0.894 0.000
vn -0.447 0.894 0.000
vn -0.447 0.894 0.000
vn -0.447 0.894 0.000


usemtl wood

f 1/1/1 3/3/3 2/2/2
f 4/4/4 6/6/6 5/5/5
f 6/6/6 4/4/4 7/7/7
f 8/8/8 10/10/10 9/9/9
f 10/10/10 8/8/8 11/11/11
f 11/11/11 8/8/8 12/12/12
f 12/12/12 8/8/8 13/13/13
f 12/12/12 13/13/13 14/14/14
f 15/15/15 17/17/17 16/16/16
f 17/17/17 15/15/15 18/18/18
f 19/19/19 21/21/21 20/20/20
f 21/21/21 19/19/19 22/22/22
f 23/23/23 25/25/25 24/24/24
f 25/25/25 23/23/23 26/26/26
f 27/27/27 29/29/29 28/28/28
f 29/29/29 27/27/27 30/30/30
f 31/31/31 33/33/33 32/32/32
f 33/33/33 31/31/31 34/34/34
f 35/35/35 37/37/37 36/36/36
f 37/37/37 35/35/35 38/38/38
f 38/38/38 35/35/35 39/39/39
f 40/40/40 42/42/42 41/41/41
f 42/42/42 40/40/40 43/43/43
f 44/44/44 46/46/46 45/45/45
f 46/46/46 44/44/44 47/47/47
f 48/48/48 50/50/50 49/49/49
f 50/50/50 48/48/48 51/51/51
f 52/52/52 54/54/54 53/53/53
f 54/54/54 52/52/52 55/55/55
f 56/56/56 58/58/58 57/57/57
f 58/58/58 56/56/56 59/59/59
f 60/60/60 62/62/62 61/61/61
f 62/62/62 60/60/60 63/63/63
f 63/63/63 60/60/60 64/64/64
f 64/64/64 60/60/60 65/65/65
f 64/64/64 66/66/66 63/63/63
f 67/67/67 66/66/66 64/64/64
f 67/67/67 68/68/68 66/66/66
f 67/67/67 69/69/69 68/68/68
f 67/67/67 70/70/70 69/69/69
f 70/70/70 67/67/67 71/71/71

usemtl stone

f 72/72/72 74/74/74 73/73/73
f 74/74/74 72/72/72 75/75/75
f 75/75/75 72/72/72 76/76/76
f 76/76/76 72/72/72 77/77/77
f 78/78/78 74/74/74 75/75/75
f 74/74/74 78/78/78 79/79/79
f 80/80/80 79/79/79 78/78/78
f 80/80/80 81/81/81 79/79/79
f 82/82/82 81/81/81 80/80/80
f 81/81/81 82/82/82 83/83/83
f 84/84/84 86/86/86 85/85/85
f 86/86/86 84/84/84 87/87/87
f 88/88/88 90/90/90 89/89/89
f 90/90/90 88/88/88 91/91/91
f 92/92/92 90/90/90 91/91/91
f 93/93/93 90/90/90 92/92/92
f 90/90/90 93/93/93 94/94/94
f 95/95/95 97/97/97 96/96/96
f 97/97/97 95/95/95 98/98/98

usemtl roof

f 99/99/99 2/2/2 100/100/100
f 2/2/2 99/99/99 1/1/1
f 1/1/1 99/99/99 101/101/101
f 1/1/1 101/101/101 55/55/55
f 55/55/55 101/101/101 102/102/102
f 55/55/55 102/102/102 54/54/54
f 54/54/54 102/102/102 103/103/103
f 103/103/103 102/102/102 104/104/104
f 105/105/105 107/107/107 106/106/106
f 107/107/107 105/105/105 108/108/108
f 109/109/109 111/111/111 110/110/110
f 111/111/111 109/109/109 112/112/112
f 44/44/44 114/114/114 113/113/113
f 114/114/114 44/44/44 45/45/45
f 114/114/114 45/45/45 115/115/115
f 116/116/116 118/118/118 117/117/117
f 118/118/118 116/116/116 119/119/119
f 120/120/120 122/122/122 121/121/121
f 122/122/122 120/120/120 36/36/36
f 36/36/36 120/120/120 35/35/35
f 123/123/123 125/125/125 124/124/124
f 125/125/125 123/123/123 126/126/126

usemtl roofLight

f 126/126/126 127/127/127 125/125/125
f 127/127/127 126/126/126 128/128/128
