# Created by Kenney (www.kenney.nl) - UVs and materials modified

mtllib fantasytown.mtl


g roofGableEnd

v 0.500 0.000 0.500
v 0.500 0.100 0.400
v 0.500 0.000 0.400
v 0.500 0.000 -0.400
v 0.500 0.100 -0.400
v 0.500 0.000 -0.500
v 0.500 0.100 -0.400
v 0.500 0.000 -0.400
v 0.475 0.000 -0.400
v 0.475 0.100 -0.400
v 0.475 0.000 0.400
v 0.500 0.000 0.400
v 0.500 0.100 0.400
v 0.475 0.100 0.400
v 0.475 0.500 0.000
v 0.475 0.100 -0.400
v 0.475 0.000 -0.400
v 0.475 0.000 0.400
v 0.475 0.100 0.400
v -0.500 0.000 0.500
v 0.500 0.000 0.500
v 0.500 0.000 0.400
v 0.475 0.000 0.400
v 0.475 0.000 -0.400
v -0.500 0.000 -0.500
v 0.500 0.000 -0.500
v 0.500 0.000 -0.400
v -0.468 0.102 0.468
v -0.468 0.102 -0.468
v 0.000 0.571 0.000
v -0.500 0.000 -0.500
v 0.500 0.000 -0.500
v 0.550 0.000 -0.500
v 0.550 0.035 -0.535
v -0.535 0.035 -0.535
v 0.550 0.102 0.468
v -0.468 0.102 0.468
v 0.000 0.571 0.000
v 0.550 0.571 0.000
v 0.550 0.500 0.000
v 0.550 0.000 -0.500
v 0.500 0.000 -0.500
v 0.500 0.100 -0.400
v 0.475 0.100 -0.400
v 0.475 0.500 0.000
v 0.550 0.102 -0.468
v 0.550 0.035 -0.535
v 0.550 0.000 -0.500
v 0.550 0.500 0.000
v 0.550 0.571 0.000
v 0.550 0.102 0.468
v 0.550 0.000 0.500
v 0.550 0.035 0.535
v -0.535 0.035 0.535
v 0.550 0.035 0.535
v 0.550 0.000 0.500
v 0.500 0.000 0.500
v -0.500 0.000 0.500
v -0.500 0.000 -0.500
v -0.535 0.035 -0.535
v -0.535 0.035 -0.450
v -0.500 0.000 0.500
v -0.535 0.035 0.535
v 0.500 0.100 0.400
v 0.500 0.000 0.500
v 0.550 0.000 0.500
v 0.550 0.500 0.000
v 0.475 0.100 0.400
v 0.475 0.500 0.000
v 0.000 0.571 0.000
v -0.468 0.102 -0.468
v 0.550 0.102 -0.468
v 0.550 0.571 0.000
v -0.535 0.035 -0.450
v -0.535 0.035 -0.535
v -0.535 0.035 0.535
v 0.550 0.035 0.535
v -0.535 0.035 0.535
v -0.535 0.035 -0.535
v 0.550 0.035 -0.535

vt 0.500 0.000
vt 0.400 0.100
vt 0.400 0.000
vt -0.400 0.000
vt -0.400 0.100
vt -0.500 0.000
vt -0.500 0.100
vt -0.500 0.000
vt -0.475 0.000
vt -0.475 0.100
vt 0.475 0.000
vt 0.500 0.000
vt 0.500 0.100
vt 0.475 0.100
vt 0.000 0.500
vt -0.400 0.100
vt -0.400 0.000
vt 0.400 0.000
vt 0.400 0.100
vt -0.500 0.500
vt -0.500 -0.500
vt -0.400 -0.500
vt -0.400 -0.475
vt 0.400 -0.475
vt 0.500 0.500
vt 0.500 -0.500
vt 0.400 -0.500
vt -0.468 -0.259
vt 0.468 -0.259
vt 0.000 0.404
vt -0.500 0.354
vt -19.685 13.919
vt 0.550 0.354
vt 0.550 0.404
vt -0.535 0.404
vt -0.550 -0.259
vt 0.468 -0.259
vt 0.000 0.404
vt -0.550 0.404
vt -0.550 0.354
vt -0.550 -0.354
vt -0.500 -0.354
vt -0.500 -0.212
vt -0.475 -0.212
vt -0.475 0.354
vt -0.468 0.102
vt -0.535 0.035
vt -0.500 0.000
vt 0.000 0.500
vt 0.000 0.571
vt 0.468 0.102
vt 0.500 0.000
vt 0.535 0.035
vt 0.535 0.404
vt -0.550 0.404
vt -0.550 0.354
vt -0.500 0.354
vt 0.500 0.354
vt 0.500 0.354
vt 0.535 0.404
vt 0.450 0.404
vt -0.500 0.354
vt -0.535 0.404
vt 0.500 -0.212
vt 0.500 -0.354
vt 0.550 -0.354
vt 0.550 0.354
vt 0.475 -0.212
vt 0.475 0.354
vt 0.000 0.404
vt -0.468 -0.259
vt 0.550 -0.259
vt 0.550 0.404
vt 0.450 -0.354
vt 0.535 -0.354
vt -0.535 -0.354
vt -0.550 -0.354
vt 0.535 -0.354
vt -0.535 -0.354
vt 0.550 -0.354

vn 1.000 0.000 0.000
vn 1.000 0.000 0.000
vn 1.000 0.000 0.000
vn 1.000 0.000 0.000
vn 1.000 0.000 0.000
vn 1.000 0.000 0.000
vn 0.000 0.000 1.000
vn 0.000 0.000 1.000
vn 0.000 0.000 1.000
vn 0.000 0.000 1.000
vn 0.000 0.000 -1.000
vn 0.000 0.000 -1.000
vn 0.000 0.000 -1.000
vn 0.000 0.000 -1.000
vn 1.000 0.000 0.000
vn 1.000 0.000 0.000
vn 1.000 0.000 0.000
vn 1.000 0.000 0.000
vn 1.000 0.000 0.000
vn 0.000 -1.000 0.000
vn 0.000 -1.000 0.000
vn 0.000 -1.000 0.000
vn 0.000 -1.000 0.000
vn 0.000 -1.000 0.000
vn 0.000 -1.000 0.000
vn 0.000 -1.000 0.000
vn 0.000 -1.000 0.000
vn -0.707 0.707 0.000
vn -0.707 0.707 0.000
vn -0.707 0.707 0.000
vn 0.000 -0.707 -0.707
vn 0.000 -0.707 -0.707
vn 0.000 -0.707 -0.707
vn 0.000 -0.707 -0.707
vn 0.000 -0.707 -0.707
vn 0.000 0.707 0.707
vn 0.000 0.707 0.707
vn 0.000 0.707 0.707
vn 0.000 0.707 0.707
vn 0.000 -0.707 0.707
vn 0.000 -0.707 0.707
vn 0.000 -0.707 0.707
vn 0.000 -0.707 0.707
vn 0.000 -0.707 0.707
vn 0.000 -0.707 0.707
vn 1.000 0.000 0.000
vn 1.000 0.000 0.000
vn 1.000 0.000 0.000
vn 1.000 0.000 0.000
vn 1.000 0.000 0.000
vn 1.000 0.000 0.000
vn 1.000 0.000 0.000
vn 1.000 0.000 0.000
vn 0.000 -0.707 0.707
vn 0.000 -0.707 0.707
vn 0.000 -0.707 0.707
vn 0.000 -0.707 0.707
vn 0.000 -0.707 0.707
vn -0.707 -0.707 0.000
vn -0.707 -0.707 0.000
vn -0.707 -0.707 0.000
vn -0.707 -0.707 0.000
vn -0.707 -0.707 0.000
vn 0.000 -0.707 -0.707
vn 0.000 -0.707 -0.707
vn 0.000 -0.707 -0.707
vn 0.000 -0.707 -0.707
vn 0.000 -0.707 -0.707
vn 0.000 -0.707 -0.707
vn 0.000 0.707 -0.707
vn 0.000 0.707 -0.707
vn 0.000 0.707 -0.707
vn 0.000 0.707 -0.707
vn -0.707 0.707 0.000
vn -0.707 0.707 0.000
vn -0.707 0.707 0.000
vn 0.000 0.707 0.707
vn 0.000 0.707 0.707
vn 0.000 0.707 -0.707
vn 0.000 0.707 -0.707


usemtl wood

f 1/1/1 3/3/3 2/2/2
f 4/4/4 6/6/6 5/5/5
f 7/7/7 9/9/9 8/8/8
f 9/9/9 7/7/7 10/10/10
f 11/11/11 13/13/13 12/12/12
f 13/13/13 11/11/11 14/14/14

usemtl stone

f 15/15/15 17/17/17 16/16/16
f 17/17/17 15/15/15 18/18/18
f 18/18/18 15/15/15 19/19/19
f 20/20/20 22/22/22 21/21/21
f 22/22/22 20/20/20 23/23/23
f 23/23/23 20/20/20 24/24/24
f 25/25/25 24/24/24 20/20/20
f 26/26/26 24/24/24 25/25/25
f 24/24/24 26/26/26 27/27/27

usemtl roof

f 28/28/28 30/30/30 29/29/29
f 31/31/31 33/33/33 32/32/32
f 33/33/33 31/31/31 34/34/34
f 34/34/34 31/31/31 35/35/35
f 36/36/36 38/38/38 37/37/37
f 38/38/38 36/36/36 39/39/39
f 40/40/40 42/42/42 41/41/41
f 42/42/42 40/40/40 43/43/43
f 43/43/43 40/40/40 44/44/44
f 44/44/44 40/40/40 45/45/45
f 46/46/46 48/48/48 47/47/47
f 48/48/48 46/46/46 49/49/49
f 49/49/49 46/46/46 50/50/50
f 49/49/49 50/50/50 51/51/51
f 49/49/49 51/51/51 52/52/52
f 52/52/52 51/51/51 53/53/53
f 54/54/54 56/56/56 55/55/55
f 56/56/56 54/54/54 57/57/57
f 57/57/57 54/54/54 58/58/58
f 59/59/59 61/61/61 60/60/60
f 61/61/61 59/59/59 62/62/62
f 61/61/61 62/62/62 63/63/63
f 64/64/64 66/66/66 65/65/65
f 66/66/66 64/64/64 67/67/67
f 67/67/67 64/64/64 68/68/68
f 67/67/67 68/68/68 69/69/69
f 70/70/70 72/72/72 71/71/71
f 72/72/72 70/70/70 73/73/73

usemtl roofLight

f 74/74/74 29/29/29 75/75/75
f 29/29/29 74/74/74 28/28/28
f 28/28/28 74/74/74 76/76/76
f 77/77/77 37/37/37 78/78/78
f 37/37/37 77/77/77 36/36/36
f 79/79/79 72/72/72 80/80/80
f 72/72/72 79/79/79 71/71/71
