# Created by Kenney (www.kenney.nl) - UVs and materials modified

mtllib fantasytown.mtl


g roofHighGableDetail

v -0.500 0.000 0.500
v 0.400 0.000 0.500
v 0.400 0.000 0.400
v 0.375 0.000 0.400
v 0.375 0.000 -0.400
v -0.475 0.000 0.400
v -0.500 0.000 0.400
v -0.475 0.000 -0.400
v -0.500 0.000 -0.500
v -0.500 0.000 -0.400
v 0.400 0.000 -0.500
v 0.400 0.000 -0.400
v 0.375 1.000 0.000
v 0.375 0.200 -0.400
v 0.375 0.000 -0.400
v 0.375 0.000 0.400
v 0.375 0.200 0.400
v -0.475 0.000 0.400
v -0.475 0.000 -0.400
v -0.475 0.200 -0.400
v -0.475 1.000 0.000
v -0.475 0.200 0.400
v 0.400 0.000 0.500
v 0.400 0.200 0.400
v 0.400 0.000 0.400
v -0.500 0.200 -0.400
v -0.500 0.000 -0.400
v -0.500 0.000 -0.500
v 0.400 0.000 -0.400
v 0.400 0.200 -0.400
v 0.400 0.000 -0.500
v -0.500 0.000 0.500
v -0.500 0.000 0.400
v -0.500 0.200 0.400
v 0.400 0.200 -0.400
v 0.400 0.000 -0.400
v 0.375 0.000 -0.400
v 0.375 0.200 -0.400
v -0.500 0.200 0.400
v -0.500 0.000 0.400
v -0.475 0.000 0.400
v -0.475 0.200 0.400
v 0.375 0.200 0.400
v 0.375 0.000 0.400
v 0.400 0.000 0.400
v 0.400 0.200 0.400
v -0.475 0.200 -0.400
v -0.475 0.000 -0.400
v -0.500 0.000 -0.400
v -0.500 0.200 -0.400
v -0.600 1.112 -0.056
v -0.600 -0.045 -0.634
v -0.550 -0.045 -0.634
v -0.550 1.112 -0.056
v -0.550 -0.045 -0.522
v -0.550 -0.089 -0.545
v -0.600 -0.089 -0.545
v -0.600 1.000 0.000
v -0.550 1.000 0.000
v 0.450 1.112 -0.056
v 0.450 -0.045 -0.634
v 0.500 -0.045 -0.634
v 0.500 1.112 -0.056
v 0.500 1.224 0.056
v 0.500 1.224 -0.056
v 0.500 1.112 -0.056
v 0.500 1.000 0.000
v 0.500 1.112 0.056
v 0.500 -0.089 -0.545
v 0.500 -0.045 -0.634
v 0.500 -0.089 0.545
v 0.500 -0.045 0.634
v -0.600 1.000 0.000
v -0.600 -0.089 0.545
v -0.550 -0.089 0.545
v -0.550 -0.045 0.522
v -0.550 1.000 0.000
v 0.450 -0.022 -0.567
v 0.450 -0.045 -0.522
v 0.450 -0.089 -0.545
v 0.450 -0.045 -0.634
v 0.450 1.112 -0.056
v 0.450 0.119 -0.496
v 0.450 1.112 0.000
v 0.450 1.224 -0.056
v 0.450 1.224 0.056
v 0.450 1.112 0.056
v 0.450 0.119 0.496
v 0.450 -0.045 0.634
v 0.450 -0.022 0.567
v 0.450 -0.089 0.545
v 0.450 -0.045 0.522
v 0.500 1.000 0.000
v 0.500 -0.089 -0.545
v 0.450 -0.089 -0.545
v 0.450 -0.045 -0.522
v 0.450 1.000 0.000
v -0.550 1.112 0.056
v -0.550 -0.045 0.634
v -0.600 -0.045 0.634
v -0.600 1.112 0.056
v -0.600 1.224 -0.056
v -0.550 1.224 -0.056
v -0.550 1.224 0.056
v -0.600 1.224 0.056
v 0.450 1.224 -0.056
v 0.500 1.224 -0.056
v 0.500 1.224 0.056
v 0.450 1.224 0.056
v 0.450 1.224 -0.056
v 0.450 1.112 -0.056
v 0.500 1.112 -0.056
v 0.500 1.224 -0.056
v -0.600 -0.045 0.634
v -0.550 -0.045 0.634
v -0.550 -0.089 0.545
v -0.600 -0.089 0.545
v 0.450 -0.045 0.522
v 0.450 -0.089 0.545
v 0.500 -0.089 0.545
v 0.500 1.000 0.000
v 0.450 1.000 0.000
v -0.600 1.224 -0.056
v -0.600 1.112 -0.056
v -0.550 1.112 -0.056
v -0.550 1.224 -0.056
v -0.600 -0.089 -0.545
v -0.550 -0.089 -0.545
v -0.550 -0.045 -0.634
v -0.600 -0.045 -0.634
v 0.450 -0.089 -0.545
v 0.500 -0.089 -0.545
v 0.500 -0.045 -0.634
v 0.450 -0.045 -0.634
v 0.500 1.112 0.056
v 0.500 -0.045 0.634
v 0.450 -0.045 0.634
v 0.450 1.112 0.056
v -0.550 1.224 0.056
v -0.550 1.112 0.056
v -0.600 1.112 0.056
v -0.600 1.224 0.056
v 0.500 1.224 0.056
v 0.500 1.112 0.056
v 0.450 1.112 0.056
v 0.450 1.224 0.056
v -0.550 1.224 0.056
v -0.550 1.224 -0.056
v -0.550 1.112 -0.056
v -0.550 1.112 0.000
v -0.550 1.112 0.056
v -0.550 0.119 -0.496
v -0.550 0.119 0.496
v -0.550 -0.045 0.634
v -0.550 -0.022 0.567
v -0.550 -0.089 0.545
v -0.550 -0.045 0.522
v -0.550 -0.022 -0.567
v -0.550 -0.045 -0.634
v -0.550 -0.089 -0.545
v -0.550 -0.045 -0.522
v 0.450 -0.045 0.634
v 0.500 -0.045 0.634
v 0.500 -0.089 0.545
v 0.450 -0.089 0.545
v -0.600 1.112 0.056
v -0.600 -0.045 0.634
v -0.600 -0.089 0.545
v -0.600 1.000 0.000
v -0.600 1.224 0.056
v -0.600 1.224 -0.056
v -0.600 1.112 -0.056
v -0.600 -0.089 -0.545
v -0.600 -0.045 -0.634
v -0.550 0.119 -0.496
v -0.550 -0.022 -0.567
v 0.450 -0.022 -0.567
v 0.450 0.119 -0.496
v 0.450 0.119 0.496
v 0.450 -0.022 0.567
v -0.550 -0.022 0.567
v -0.550 0.119 0.496
v 0.375 0.200 -0.400
v 0.375 1.000 0.000
v 0.400 0.200 -0.400
v 0.400 0.000 -0.500
v -0.500 0.000 -0.500
v -0.500 0.200 -0.400
v -0.475 1.000 0.000
v -0.475 0.200 -0.400
v -0.475 0.200 0.400
v -0.475 1.000 0.000
v -0.500 0.200 0.400
v -0.500 0.000 0.500
v 0.400 0.000 0.500
v 0.400 0.200 0.400
v 0.375 1.000 0.000
v 0.375 0.200 0.400
v 0.450 1.112 0.000
v -0.550 1.112 0.000
v -0.550 -0.022 0.567
v 0.450 -0.022 0.567
v 0.450 -0.045 0.522
v -0.550 -0.045 0.522
v -0.550 1.112 0.000
v 0.450 1.112 0.000
v -0.550 -0.045 -0.522
v 0.450 -0.045 -0.522
v 0.450 -0.022 -0.567
v -0.550 -0.022 -0.567

vt -0.500 0.500
vt -0.500 -0.400
vt -0.400 -0.400
vt -0.400 -0.375
vt 0.400 -0.375
vt -0.400 0.475
vt -0.400 0.500
vt 0.400 0.475
vt 0.500 0.500
vt 0.400 0.500
vt 0.500 -0.400
vt 0.400 -0.400
vt 0.000 1.000
vt -0.400 0.200
vt -0.400 0.000
vt 0.400 0.000
vt 0.400 0.200
vt -0.400 0.000
vt 0.400 0.000
vt 0.400 0.200
vt 0.000 1.000
vt -0.400 0.200
vt 0.500 0.000
vt 0.400 0.200
vt 0.400 0.000
vt 0.400 0.200
vt 0.400 0.000
vt 0.500 0.000
vt -0.400 0.000
vt -0.400 0.200
vt -0.500 0.000
vt -0.500 0.000
vt -0.400 0.000
vt -0.400 0.200
vt -0.400 0.200
vt -0.400 0.000
vt -0.375 0.000
vt -0.375 0.200
vt -0.500 0.200
vt -0.500 0.000
vt -0.475 0.000
vt -0.475 0.200
vt 0.375 0.200
vt 0.375 0.000
vt 0.400 0.000
vt 0.400 0.200
vt 0.475 0.200
vt 0.475 0.000
vt 0.500 0.000
vt 0.500 0.200
vt -0.600 0.969
vt -0.600 -0.324
vt -0.550 -0.324
vt -0.550 0.969
vt 0.550 -0.274
vt 0.550 -0.324
vt 0.600 -0.324
vt 0.600 0.894
vt 0.550 0.894
vt 0.450 0.969
vt 0.450 -0.324
vt 0.500 -0.324
vt 0.500 0.969
vt 0.056 1.224
vt -0.056 1.224
vt -0.056 1.112
vt 0.000 1.000
vt 0.056 1.112
vt -0.545 -0.089
vt -0.634 -0.045
vt 0.545 -0.089
vt 0.634 -0.045
vt -0.600 0.894
vt -0.600 -0.324
vt -0.550 -0.324
vt -0.550 -0.274
vt -0.550 0.894
vt 0.567 -0.022
vt 0.522 -0.045
vt 0.545 -0.089
vt 0.634 -0.045
vt 0.056 1.112
vt 0.496 0.119
vt 0.000 1.112
vt 0.056 1.224
vt -0.056 1.224
vt -0.056 1.112
vt -0.496 0.119
vt -0.634 -0.045
vt -0.567 -0.022
vt -0.545 -0.089
vt -0.522 -0.045
vt -0.500 0.894
vt -0.500 -0.324
vt -0.450 -0.324
vt -0.450 -0.274
vt -0.450 0.894
vt 0.550 0.969
vt 0.550 -0.324
vt 0.600 -0.324
vt 0.600 0.969
vt -0.056 0.600
vt -0.056 0.550
vt 0.056 0.550
vt 0.056 0.600
vt -0.056 -0.450
vt -0.056 -0.500
vt 0.056 -0.500
vt 0.056 -0.450
vt 0.450 1.224
vt 0.450 1.112
vt 0.500 1.112
vt 0.500 1.224
vt 0.600 0.547
vt 0.550 0.547
vt 0.550 0.447
vt 0.600 0.447
vt 0.450 -0.274
vt 0.450 -0.324
vt 0.500 -0.324
vt 0.500 0.894
vt 0.450 0.894
vt -0.600 1.224
vt -0.600 1.112
vt -0.550 1.112
vt -0.550 1.224
vt -0.600 0.447
vt -0.550 0.447
vt -0.550 0.547
vt -0.600 0.547
vt 0.450 0.447
vt 0.500 0.447
vt 0.500 0.547
vt 0.450 0.547
vt -0.500 0.969
vt -0.500 -0.324
vt -0.450 -0.324
vt -0.450 0.969
vt 0.550 1.224
vt 0.550 1.112
vt 0.600 1.112
vt 0.600 1.224
vt -0.500 1.224
vt -0.500 1.112
vt -0.450 1.112
vt -0.450 1.224
vt 0.056 1.224
vt -0.056 1.224
vt -0.056 1.112
vt 0.000 1.112
vt 0.056 1.112
vt -0.496 0.119
vt 0.496 0.119
vt 0.634 -0.045
vt 0.567 -0.022
vt 0.545 -0.089
vt 0.522 -0.045
vt -0.567 -0.022
vt -0.634 -0.045
vt -0.545 -0.089
vt -0.522 -0.045
vt -0.450 0.547
vt -0.500 0.547
vt -0.500 0.447
vt -0.450 0.447
vt -0.056 1.112
vt -0.634 -0.045
vt -0.545 -0.089
vt 0.000 1.000
vt -0.056 1.224
vt 0.056 1.224
vt 0.056 1.112
vt 0.545 -0.089
vt 0.634 -0.045
vt -0.550 -0.115
vt -0.550 -0.274
vt 0.450 -0.274
vt 0.450 -0.115
vt -0.450 -0.115
vt -0.450 -0.274
vt 0.550 -0.274
vt 0.550 -0.115
vt -0.375 0.000
vt -0.375 0.894
vt -0.400 0.000
vt -0.400 -0.224
vt 0.500 -0.224
vt 0.500 0.000
vt 0.475 0.894
vt 0.475 0.000
vt -0.475 0.000
vt -0.475 0.894
vt -0.500 0.000
vt -0.500 -0.224
vt 0.400 -0.224
vt 0.400 0.000
vt 0.375 0.894
vt 0.375 0.000
vt -0.450 0.994
vt 0.550 0.994
vt 0.550 0.497
vt -0.450 0.497
vt -0.450 0.447
vt 0.550 0.447
vt -0.550 0.994
vt 0.450 0.994
vt -0.550 0.447
vt 0.450 0.447
vt 0.450 0.497
vt -0.550 0.497

vn 0.000 -1.000 0.000
vn 0.000 -1.000 0.000
vn 0.000 -1.000 0.000
vn 0.000 -1.000 0.000
vn 0.000 -1.000 0.000
vn 0.000 -1.000 0.000
vn 0.000 -1.000 0.000
vn 0.000 -1.000 0.000
vn 0.000 -1.000 0.000
vn 0.000 -1.000 0.000
vn 0.000 -1.000 0.000
vn 0.000 -1.000 0.000
vn 1.000 0.000 0.000
vn 1.000 0.000 0.000
vn 1.000 0.000 0.000
vn 1.000 0.000 0.000
vn 1.000 0.000 0.000
vn -1.000 0.000 0.000
vn -1.000 0.000 0.000
vn -1.000 0.000 0.000
vn -1.000 0.000 0.000
vn -1.000 0.000 0.000
vn 1.000 0.000 0.000
vn 1.000 0.000 0.000
vn 1.000 0.000 0.000
vn -1.000 0.000 0.000
vn -1.000 0.000 0.000
vn -1.000 0.000 0.000
vn 1.000 0.000 0.000
vn 1.000 0.000 0.000
vn 1.000 0.000 0.000
vn -1.000 0.000 0.000
vn -1.000 0.000 0.000
vn -1.000 0.000 0.000
vn 0.000 0.000 1.000
vn 0.000 0.000 1.000
vn 0.000 0.000 1.000
vn 0.000 0.000 1.000
vn 0.000 0.000 -1.000
vn 0.000 0.000 -1.000
vn 0.000 0.000 -1.000
vn 0.000 0.000 -1.000
vn 0.000 0.000 -1.000
vn 0.000 0.000 -1.000
vn 0.000 0.000 -1.000
vn 0.000 0.000 -1.000
vn 0.000 0.000 1.000
vn 0.000 0.000 1.000
vn 0.000 0.000 1.000
vn 0.000 0.000 1.000
vn 0.000 0.447 -0.894
vn 0.000 0.447 -0.894
vn 0.000 0.447 -0.894
vn 0.000 0.447 -0.894
vn 0.000 -0.447 0.894
vn 0.000 -0.447 0.894
vn 0.000 -0.447 0.894
vn 0.000 -0.447 0.894
vn 0.000 -0.447 0.894
vn 0.000 0.447 -0.894
vn 0.000 0.447 -0.894
vn 0.000 0.447 -0.894
vn 0.000 0.447 -0.894
vn 1.000 0.000 0.000
vn 1.000 0.000 0.000
vn 1.000 0.000 0.000
vn 1.000 0.000 0.000
vn 1.000 0.000 0.000
vn 1.000 0.000 0.000
vn 1.000 0.000 0.000
vn 1.000 0.000 0.000
vn 1.000 0.000 0.000
vn 0.000 -0.447 -0.894
vn 0.000 -0.447 -0.894
vn 0.000 -0.447 -0.894
vn 0.000 -0.447 -0.894
vn 0.000 -0.447 -0.894
vn -1.000 0.000 0.000
vn -1.000 0.000 0.000
vn -1.000 0.000 0.000
vn -1.000 0.000 0.000
vn -1.000 0.000 0.000
vn -1.000 0.000 0.000
vn -1.000 0.000 0.000
vn -1.000 0.000 0.000
vn -1.000 0.000 0.000
vn -1.000 0.000 0.000
vn -1.000 0.000 0.000
vn -1.000 0.000 0.000
vn -1.000 0.000 0.000
vn -1.000 0.000 0.000
vn -1.000 0.000 0.000
vn 0.000 -0.447 0.894
vn 0.000 -0.447 0.894
vn 0.000 -0.447 0.894
vn 0.000 -0.447 0.894
vn 0.000 -0.447 0.894
vn 0.000 0.447 0.894
vn 0.000 0.447 0.894
vn 0.000 0.447 0.894
vn 0.000 0.447 0.894
vn 0.000 1.000 0.000
vn 0.000 1.000 0.000
vn 0.000 1.000 0.000
vn 0.000 1.000 0.000
vn 0.000 1.000 0.000
vn 0.000 1.000 0.000
vn 0.000 1.000 0.000
vn 0.000 1.000 0.000
vn 0.000 0.000 -1.000
vn 0.000 0.000 -1.000
vn 0.000 0.000 -1.000
vn 0.000 0.000 -1.000
vn 0.000 -0.894 0.447
vn 0.000 -0.894 0.447
vn 0.000 -0.894 0.447
vn 0.000 -0.894 0.447
vn 0.000 -0.447 -0.894
vn 0.000 -0.447 -0.894
vn 0.000 -0.447 -0.894
vn 0.000 -0.447 -0.894
vn 0.000 -0.447 -0.894
vn 0.000 0.000 -1.000
vn 0.000 0.000 -1.000
vn 0.000 0.000 -1.000
vn 0.000 0.000 -1.000
vn 0.000 -0.894 -0.447
vn 0.000 -0.894 -0.447
vn 0.000 -0.894 -0.447
vn 0.000 -0.894 -0.447
vn 0.000 -0.894 -0.447
vn 0.000 -0.894 -0.447
vn 0.000 -0.894 -0.447
vn 0.000 -0.894 -0.447
vn 0.000 0.447 0.894
vn 0.000 0.447 0.894
vn 0.000 0.447 0.894
vn 0.000 0.447 0.894
vn 0.000 0.000 1.000
vn 0.000 0.000 1.000
vn 0.000 0.000 1.000
vn 0.000 0.000 1.000
vn 0.000 0.000 1.000
vn 0.000 0.000 1.000
vn 0.000 0.000 1.000
vn 0.000 0.000 1.000
vn 1.000 0.000 0.000
vn 1.000 0.000 0.000
vn 1.000 0.000 0.000
vn 1.000 0.000 0.000
vn 1.000 0.000 0.000
vn 1.000 0.000 0.000
vn 1.000 0.000 0.000
vn 1.000 0.000 0.000
vn 1.000 0.000 0.000
vn 1.000 0.000 0.000
vn 1.000 0.000 0.000
vn 1.000 0.000 0.000
vn 1.000 0.000 0.000
vn 1.000 0.000 0.000
vn 1.000 0.000 0.000
vn 0.000 -0.894 0.447
vn 0.000 -0.894 0.447
vn 0.000 -0.894 0.447
vn 0.000 -0.894 0.447
vn -1.000 0.000 0.000
vn -1.000 0.000 0.000
vn -1.000 0.000 0.000
vn -1.000 0.000 0.000
vn -1.000 0.000 0.000
vn -1.000 0.000 0.000
vn -1.000 0.000 0.000
vn -1.000 0.000 0.000
vn -1.000 0.000 0.000
vn 0.000 0.447 -0.894
vn 0.000 0.447 -0.894
vn 0.000 0.447 -0.894
vn 0.000 0.447 -0.894
vn 0.000 0.447 0.894
vn 0.000 0.447 0.894
vn 0.000 0.447 0.894
vn 0.000 0.447 0.894
vn 0.000 -0.447 0.894
vn 0.000 -0.447 0.894
vn 0.000 -0.447 0.894
vn 0.000 -0.447 0.894
vn 0.000 -0.447 0.894
vn 0.000 -0.447 0.894
vn 0.000 -0.447 0.894
vn 0.000 -0.447 0.894
vn 0.000 -0.447 -0.894
vn 0.000 -0.447 -0.894
vn 0.000 -0.447 -0.894
vn 0.000 -0.447 -0.894
vn 0.000 -0.447 -0.894
vn 0.000 -0.447 -0.894
vn 0.000 -0.447 -0.894
vn 0.000 -0.447 -0.894
vn 0.000 0.447 0.894
vn 0.000 0.447 0.894
vn 0.000 -0.894 0.447
vn 0.000 -0.894 0.447
vn 0.000 -0.894 0.447
vn 0.000 -0.894 0.447
vn 0.000 0.447 -0.894
vn 0.000 0.447 -0.894
vn 0.000 -0.894 -0.447
vn 0.000 -0.894 -0.447
vn 0.000 -0.894 -0.447
vn 0.000 -0.894 -0.447


usemtl woodDark

f 1/1/1 3/3/3 2/2/2
f 3/3/3 1/1/1 4/4/4
f 4/4/4 1/1/1 5/5/5
f 5/5/5 1/1/1 6/6/6
f 6/6/6 1/1/1 7/7/7
f 8/8/8 5/5/5 6/6/6
f 9/9/9 5/5/5 8/8/8
f 9/9/9 8/8/8 10/10/10
f 11/11/11 5/5/5 9/9/9
f 5/5/5 11/11/11 12/12/12
f 13/13/13 15/15/15 14/14/14
f 15/15/15 13/13/13 16/16/16
f 16/16/16 13/13/13 17/17/17
f 18/18/18 20/20/20 19/19/19
f 20/20/20 18/18/18 21/21/21
f 21/21/21 18/18/18 22/22/22

usemtl wood

f 23/23/23 25/25/25 24/24/24
f 26/26/26 28/28/28 27/27/27
f 29/29/29 31/31/31 30/30/30
f 32/32/32 34/34/34 33/33/33
f 35/35/35 37/37/37 36/36/36
f 37/37/37 35/35/35 38/38/38
f 39/39/39 41/41/41 40/40/40
f 41/41/41 39/39/39 42/42/42
f 43/43/43 45/45/45 44/44/44
f 45/45/45 43/43/43 46/46/46
f 47/47/47 49/49/49 48/48/48
f 49/49/49 47/47/47 50/50/50
f 51/51/51 53/53/53 52/52/52
f 53/53/53 51/51/51 54/54/54
f 55/55/55 57/57/57 56/56/56
f 57/57/57 55/55/55 58/58/58
f 58/58/58 55/55/55 59/59/59
f 60/60/60 62/62/62 61/61/61
f 62/62/62 60/60/60 63/63/63
f 64/64/64 66/66/66 65/65/65
f 66/66/66 64/64/64 67/67/67
f 67/67/67 64/64/64 68/68/68
f 69/69/69 66/66/66 67/67/67
f 66/66/66 69/69/69 70/70/70
f 67/67/67 68/68/68 71/71/71
f 71/71/71 68/68/68 72/72/72
f 73/73/73 75/75/75 74/74/74
f 75/75/75 73/73/73 76/76/76
f 76/76/76 73/73/73 77/77/77
f 78/78/78 80/80/80 79/79/79
f 80/80/80 78/78/78 81/81/81
f 78/78/78 82/82/82 81/81/81
f 82/82/82 78/78/78 83/83/83
f 82/82/82 83/83/83 84/84/84
f 82/82/82 84/84/84 85/85/85
f 85/85/85 84/84/84 86/86/86
f 86/86/86 84/84/84 87/87/87
f 88/88/88 87/87/87 84/84/84
f 87/87/87 88/88/88 89/89/89
f 89/89/89 88/88/88 90/90/90
f 90/90/90 91/91/91 89/89/89
f 91/91/91 90/90/90 92/92/92
f 93/93/93 95/95/95 94/94/94
f 95/95/95 93/93/93 96/96/96
f 96/96/96 93/93/93 97/97/97
f 98/98/98 100/100/100 99/99/99
f 100/100/100 98/98/98 101/101/101
f 102/102/102 104/104/104 103/103/103
f 104/104/104 102/102/102 105/105/105
f 106/106/106 108/108/108 107/107/107
f 108/108/108 106/106/106 109/109/109
f 110/110/110 112/112/112 111/111/111
f 112/112/112 110/110/110 113/113/113
f 114/114/114 116/116/116 115/115/115
f 116/116/116 114/114/114 117/117/117
f 118/118/118 120/120/120 119/119/119
f 120/120/120 118/118/118 121/121/121
f 121/121/121 118/118/118 122/122/122
f 123/123/123 125/125/125 124/124/124
f 125/125/125 123/123/123 126/126/126
f 127/127/127 129/129/129 128/128/128
f 129/129/129 127/127/127 130/130/130
f 131/131/131 133/133/133 132/132/132
f 133/133/133 131/131/131 134/134/134
f 135/135/135 137/137/137 136/136/136
f 137/137/137 135/135/135 138/138/138
f 139/139/139 141/141/141 140/140/140
f 141/141/141 139/139/139 142/142/142
f 143/143/143 145/145/145 144/144/144
f 145/145/145 143/143/143 146/146/146
f 147/147/147 149/149/149 148/148/148
f 149/149/149 147/147/147 150/150/150
f 150/150/150 147/147/147 151/151/151
f 152/152/152 149/149/149 150/150/150
f 150/150/150 151/151/151 153/153/153
f 153/153/153 151/151/151 154/154/154
f 153/153/153 154/154/154 155/155/155
f 156/156/156 155/155/155 154/154/154
f 155/155/155 156/156/156 157/157/157
f 158/158/158 149/149/149 152/152/152
f 149/149/149 158/158/158 159/159/159
f 158/158/158 160/160/160 159/159/159
f 160/160/160 158/158/158 161/161/161
f 162/162/162 164/164/164 163/163/163
f 164/164/164 162/162/162 165/165/165
f 166/166/166 168/168/168 167/167/167
f 168/168/168 166/166/166 169/169/169
f 170/170/170 169/169/169 166/166/166
f 171/171/171 169/169/169 170/170/170
f 172/172/172 169/169/169 171/171/171
f 172/172/172 173/173/173 169/169/169
f 173/173/173 172/172/172 174/174/174

usemtl roofRedLight

f 175/175/175 177/177/177 176/176/176
f 177/177/177 175/175/175 178/178/178
f 179/179/179 181/181/181 180/180/180
f 181/181/181 179/179/179 182/182/182

usemtl roofRed

f 183/183/183 97/97/97 184/184/184
f 185/185/185 97/97/97 183/183/183
f 186/186/186 97/97/97 185/185/185
f 186/186/186 96/96/96 97/97/97
f 96/96/96 186/186/186 55/55/55
f 187/187/187 55/55/55 186/186/186
f 55/55/55 187/187/187 59/59/59
f 59/59/59 187/187/187 188/188/188
f 59/59/59 188/188/188 189/189/189
f 189/189/189 188/188/188 190/190/190
f 191/191/191 77/77/77 192/192/192
f 193/193/193 77/77/77 191/191/191
f 194/194/194 77/77/77 193/193/193
f 194/194/194 76/76/76 77/77/77
f 76/76/76 194/194/194 118/118/118
f 195/195/195 118/118/118 194/194/194
f 118/118/118 195/195/195 122/122/122
f 122/122/122 195/195/195 196/196/196
f 122/122/122 196/196/196 197/197/197
f 197/197/197 196/196/196 198/198/198
f 199/199/199 182/182/182 179/179/179
f 182/182/182 199/199/199 200/200/200
f 201/201/201 203/203/203 202/202/202
f 203/203/203 201/201/201 204/204/204
f 205/205/205 178/178/178 175/175/175
f 178/178/178 205/205/205 206/206/206
f 207/207/207 209/209/209 208/208/208
f 209/209/209 207/207/207 210/210/210
