# Created by Kenney (www.kenney.nl) - UVs and materials modified

mtllib fantasytown.mtl


g wallWoodDoorwaySquare

v 0.425 1.000 -0.400
v 0.425 0.000 -0.400
v 0.400 0.000 -0.400
v 0.400 1.000 -0.400
v 0.400 1.000 -0.500
v 0.400 0.000 -0.500
v 0.500 0.000 -0.500
v 0.500 1.000 -0.500
v 0.400 0.000 -0.400
v 0.400 0.000 -0.500
v 0.400 1.000 -0.500
v 0.400 1.000 -0.400
v 0.475 0.000 -0.400
v 0.500 0.000 -0.400
v 0.500 0.000 -0.500
v 0.400 0.000 -0.500
v 0.425 0.000 -0.400
v 0.400 0.000 -0.400
v 0.475 1.000 0.400
v 0.475 0.000 0.400
v 0.500 0.000 0.400
v 0.500 1.000 0.400
v 0.475 0.850 -0.250
v 0.500 0.850 -0.250
v 0.500 0.850 0.250
v 0.475 0.850 0.250
v 0.400 0.000 0.200
v 0.500 0.000 0.200
v 0.500 0.750 0.200
v 0.400 0.750 0.200
v 0.400 1.000 -0.500
v 0.500 1.000 -0.500
v 0.500 1.000 -0.400
v 0.475 1.000 -0.400
v 0.425 1.000 -0.400
v 0.400 1.000 -0.400
v 0.500 1.000 -0.400
v 0.500 0.000 -0.400
v 0.475 0.000 -0.400
v 0.475 1.000 -0.400
v 0.400 0.750 0.200
v 0.500 0.750 0.200
v 0.500 0.750 -0.200
v 0.400 0.750 -0.200
v 0.400 1.000 0.400
v 0.400 0.000 0.400
v 0.425 0.000 0.400
v 0.425 1.000 0.400
v 0.475 0.850 -0.250
v 0.475 0.800 -0.300
v 0.500 0.800 -0.300
v 0.500 0.850 -0.250
v 0.500 0.750 -0.200
v 0.500 0.000 -0.200
v 0.400 0.000 -0.200
v 0.400 0.750 -0.200
v 0.475 1.000 0.400
v 0.500 1.000 0.400
v 0.500 1.000 0.500
v 0.400 1.000 0.500
v 0.425 1.000 0.400
v 0.400 1.000 0.400
v 0.400 0.850 -0.250
v 0.425 0.850 -0.250
v 0.425 0.850 0.250
v 0.400 0.850 0.250
v 0.425 0.850 0.250
v 0.425 0.800 0.300
v 0.400 0.800 0.300
v 0.400 0.850 0.250
v 0.400 0.800 -0.300
v 0.400 0.000 -0.300
v 0.425 0.000 -0.300
v 0.425 0.800 -0.300
v 0.500 1.000 0.500
v 0.500 1.000 0.400
v 0.500 0.000 0.400
v 0.500 0.000 0.500
v 0.475 0.000 0.300
v 0.500 0.000 0.300
v 0.500 0.000 0.200
v 0.400 0.000 0.200
v 0.425 0.000 0.300
v 0.400 0.000 0.300
v 0.400 0.000 0.500
v 0.400 0.000 0.400
v 0.400 1.000 0.400
v 0.400 1.000 0.500
v 0.500 1.000 -0.400
v 0.500 1.000 -0.500
v 0.500 0.000 -0.500
v 0.500 0.000 -0.400
v 0.400 0.000 -0.200
v 0.500 0.000 -0.200
v 0.500 0.000 -0.300
v 0.475 0.000 -0.300
v 0.425 0.000 -0.300
v 0.400 0.000 -0.300
v 0.475 0.850 0.250
v 0.500 0.850 0.250
v 0.500 0.800 0.300
v 0.475 0.800 0.300
v 0.425 0.800 0.300
v 0.425 0.000 0.300
v 0.400 0.000 0.300
v 0.400 0.800 0.300
v 0.500 0.000 0.300
v 0.500 0.800 0.300
v 0.500 0.850 0.250
v 0.500 0.000 0.200
v 0.500 0.750 0.200
v 0.500 0.750 -0.200
v 0.500 0.850 -0.250
v 0.500 0.000 -0.200
v 0.500 0.000 -0.300
v 0.500 0.800 -0.300
v 0.400 0.000 0.500
v 0.500 0.000 0.500
v 0.500 0.000 0.400
v 0.475 0.000 0.400
v 0.425 0.000 0.400
v 0.400 0.000 0.400
v 0.500 1.000 0.500
v 0.500 0.000 0.500
v 0.400 0.000 0.500
v 0.400 1.000 0.500
v 0.400 0.000 0.300
v 0.400 0.000 0.200
v 0.400 0.750 0.200
v 0.400 0.850 0.250
v 0.400 0.800 0.300
v 0.400 0.750 -0.200
v 0.400 0.850 -0.250
v 0.400 0.000 -0.200
v 0.400 0.800 -0.300
v 0.400 0.000 -0.300
v 0.500 0.800 0.300
v 0.500 0.000 0.300
v 0.475 0.000 0.300
v 0.475 0.800 0.300
v 0.475 0.000 -0.300
v 0.500 0.000 -0.300
v 0.500 0.800 -0.300
v 0.475 0.800 -0.300
v 0.400 0.800 -0.300
v 0.425 0.800 -0.300
v 0.425 0.850 -0.250
v 0.400 0.850 -0.250
v 0.425 0.000 0.400
v 0.425 0.000 0.300
v 0.425 0.800 0.300
v 0.425 1.000 0.400
v 0.425 0.850 0.250
v 0.425 0.850 -0.250
v 0.425 1.000 -0.400
v 0.425 0.800 -0.300
v 0.425 0.000 -0.300
v 0.425 0.000 -0.400
v 0.475 0.000 0.300
v 0.475 0.000 0.400
v 0.475 1.000 0.400
v 0.475 0.800 0.300
v 0.475 0.850 0.250
v 0.475 0.850 -0.250
v 0.475 1.000 -0.400
v 0.475 0.800 -0.300
v 0.475 0.000 -0.400
v 0.475 0.000 -0.300

vt -0.425 1.000
vt -0.425 0.000
vt -0.400 0.000
vt -0.400 1.000
vt 0.400 1.000
vt 0.400 0.000
vt 0.500 0.000
vt 0.500 1.000
vt 0.400 0.000
vt 0.500 0.000
vt 0.500 1.000
vt 0.400 1.000
vt 0.400 -0.475
vt 0.400 -0.500
vt 0.500 -0.500
vt 0.500 -0.400
vt 0.400 -0.425
vt 0.400 -0.400
vt 0.475 1.000
vt 0.475 0.000
vt 0.500 0.000
vt 0.500 1.000
vt -0.250 -0.475
vt -0.250 -0.500
vt 0.250 -0.500
vt 0.250 -0.475
vt 0.400 0.000
vt 0.500 0.000
vt 0.500 0.750
vt 0.400 0.750
vt -0.500 -0.400
vt -0.500 -0.500
vt -0.400 -0.500
vt -0.400 -0.475
vt -0.400 -0.425
vt -0.400 -0.400
vt -0.500 1.000
vt -0.500 0.000
vt -0.475 0.000
vt -0.475 1.000
vt -0.200 -0.400
vt -0.200 -0.500
vt 0.200 -0.500
vt 0.200 -0.400
vt 0.400 1.000
vt 0.400 0.000
vt 0.425 0.000
vt 0.425 1.000
vt 0.475 0.424
vt 0.475 0.354
vt 0.500 0.354
vt 0.500 0.424
vt -0.500 0.750
vt -0.500 0.000
vt -0.400 0.000
vt -0.400 0.750
vt 0.400 -0.475
vt 0.400 -0.500
vt 0.500 -0.500
vt 0.500 -0.400
vt 0.400 -0.425
vt 0.400 -0.400
vt -0.250 -0.400
vt -0.250 -0.425
vt 0.250 -0.425
vt 0.250 -0.400
vt -0.425 0.424
vt -0.425 0.354
vt -0.400 0.354
vt -0.400 0.424
vt 0.400 0.800
vt 0.400 0.000
vt 0.425 0.000
vt 0.425 0.800
vt 0.500 1.000
vt 0.400 1.000
vt 0.400 0.000
vt 0.500 0.000
vt -0.300 -0.475
vt -0.300 -0.500
vt -0.200 -0.500
vt -0.200 -0.400
vt -0.300 -0.425
vt -0.300 -0.400
vt -0.500 0.000
vt -0.400 0.000
vt -0.400 1.000
vt -0.500 1.000
vt -0.400 1.000
vt -0.500 1.000
vt -0.500 0.000
vt -0.400 0.000
vt 0.200 -0.400
vt 0.200 -0.500
vt 0.300 -0.500
vt 0.300 -0.475
vt 0.300 -0.425
vt 0.300 -0.400
vt -0.475 0.424
vt -0.500 0.424
vt -0.500 0.354
vt -0.475 0.354
vt -0.425 0.800
vt -0.425 0.000
vt -0.400 0.000
vt -0.400 0.800
vt 0.300 0.000
vt 0.300 0.800
vt 0.250 0.850
vt 0.200 0.000
vt 0.200 0.750
vt -0.200 0.750
vt -0.250 0.850
vt -0.200 0.000
vt -0.300 0.000
vt -0.300 0.800
vt -0.500 -0.400
vt -0.500 -0.500
vt -0.400 -0.500
vt -0.400 -0.475
vt -0.400 -0.425
vt -0.400 -0.400
vt -0.500 1.000
vt -0.500 0.000
vt -0.400 0.000
vt -0.400 1.000
vt -0.300 0.000
vt -0.200 0.000
vt -0.200 0.750
vt -0.250 0.850
vt -0.300 0.800
vt 0.200 0.750
vt 0.250 0.850
vt 0.200 0.000
vt 0.300 0.800
vt 0.300 0.000
vt -0.500 0.800
vt -0.500 0.000
vt -0.475 0.000
vt -0.475 0.800
vt 0.475 0.000
vt 0.500 0.000
vt 0.500 0.800
vt 0.475 0.800
vt 0.400 0.354
vt 0.425 0.354
vt 0.425 0.424
vt 0.400 0.424
vt -0.400 0.000
vt -0.300 0.000
vt -0.300 0.800
vt -0.400 1.000
vt -0.250 0.850
vt 0.250 0.850
vt 0.400 1.000
vt 0.300 0.800
vt 0.300 0.000
vt 0.400 0.000
vt 0.300 0.000
vt 0.400 0.000
vt 0.400 1.000
vt 0.300 0.800
vt 0.250 0.850
vt -0.250 0.850
vt -0.400 1.000
vt -0.300 0.800
vt -0.400 0.000
vt -0.300 0.000

vn 0.000 0.000 1.000
vn 0.000 0.000 1.000
vn 0.000 0.000 1.000
vn 0.000 0.000 1.000
vn 0.000 0.000 -1.000
vn 0.000 0.000 -1.000
vn 0.000 0.000 -1.000
vn 0.000 0.000 -1.000
vn -1.000 0.000 0.000
vn -1.000 0.000 0.000
vn -1.000 0.000 0.000
vn -1.000 0.000 0.000
vn 0.000 -1.000 0.000
vn 0.000 -1.000 0.000
vn 0.000 -1.000 0.000
vn 0.000 -1.000 0.000
vn 0.000 -1.000 0.000
vn 0.000 -1.000 0.000
vn 0.000 0.000 -1.000
vn 0.000 0.000 -1.000
vn 0.000 0.000 -1.000
vn 0.000 0.000 -1.000
vn 0.000 1.000 0.000
vn 0.000 1.000 0.000
vn 0.000 1.000 0.000
vn 0.000 1.000 0.000
vn 0.000 0.000 -1.000
vn 0.000 0.000 -1.000
vn 0.000 0.000 -1.000
vn 0.000 0.000 -1.000
vn 0.000 1.000 0.000
vn 0.000 1.000 0.000
vn 0.000 1.000 0.000
vn 0.000 1.000 0.000
vn 0.000 1.000 0.000
vn 0.000 1.000 0.000
vn 0.000 0.000 1.000
vn 0.000 0.000 1.000
vn 0.000 0.000 1.000
vn 0.000 0.000 1.000
vn 0.000 -1.000 0.000
vn 0.000 -1.000 0.000
vn 0.000 -1.000 0.000
vn 0.000 -1.000 0.000
vn 0.000 0.000 -1.000
vn 0.000 0.000 -1.000
vn 0.000 0.000 -1.000
vn 0.000 0.000 -1.000
vn 0.000 0.707 -0.707
vn 0.000 0.707 -0.707
vn 0.000 0.707 -0.707
vn 0.000 0.707 -0.707
vn 0.000 0.000 1.000
vn 0.000 0.000 1.000
vn 0.000 0.000 1.000
vn 0.000 0.000 1.000
vn 0.000 1.000 0.000
vn 0.000 1.000 0.000
vn 0.000 1.000 0.000
vn 0.000 1.000 0.000
vn 0.000 1.000 0.000
vn 0.000 1.000 0.000
vn 0.000 1.000 0.000
vn 0.000 1.000 0.000
vn 0.000 1.000 0.000
vn 0.000 1.000 0.000
vn 0.000 0.707 0.707
vn 0.000 0.707 0.707
vn 0.000 0.707 0.707
vn 0.000 0.707 0.707
vn 0.000 0.000 -1.000
vn 0.000 0.000 -1.000
vn 0.000 0.000 -1.000
vn 0.000 0.000 -1.000
vn 1.000 0.000 0.000
vn 1.000 0.000 0.000
vn 1.000 0.000 0.000
vn 1.000 0.000 0.000
vn 0.000 -1.000 0.000
vn 0.000 -1.000 0.000
vn 0.000 -1.000 0.000
vn 0.000 -1.000 0.000
vn 0.000 -1.000 0.000
vn 0.000 -1.000 0.000
vn -1.000 0.000 0.000
vn -1.000 0.000 0.000
vn -1.000 0.000 0.000
vn -1.000 0.000 0.000
vn 1.000 0.000 0.000
vn 1.000 0.000 0.000
vn 1.000 0.000 0.000
vn 1.000 0.000 0.000
vn 0.000 -1.000 0.000
vn 0.000 -1.000 0.000
vn 0.000 -1.000 0.000
vn 0.000 -1.000 0.000
vn 0.000 -1.000 0.000
vn 0.000 -1.000 0.000
vn 0.000 0.707 0.707
vn 0.000 0.707 0.707
vn 0.000 0.707 0.707
vn 0.000 0.707 0.707
vn 0.000 0.000 1.000
vn 0.000 0.000 1.000
vn 0.000 0.000 1.000
vn 0.000 0.000 1.000
vn 1.000 0.000 0.000
vn 1.000 0.000 0.000
vn 1.000 0.000 0.000
vn 1.000 0.000 0.000
vn 1.000 0.000 0.000
vn 1.000 0.000 0.000
vn 1.000 0.000 0.000
vn 1.000 0.000 0.000
vn 1.000 0.000 0.000
vn 1.000 0.000 0.000
vn 0.000 -1.000 0.000
vn 0.000 -1.000 0.000
vn 0.000 -1.000 0.000
vn 0.000 -1.000 0.000
vn 0.000 -1.000 0.000
vn 0.000 -1.000 0.000
vn 0.000 0.000 1.000
vn 0.000 0.000 1.000
vn 0.000 0.000 1.000
vn 0.000 0.000 1.000
vn -1.000 0.000 0.000
vn -1.000 0.000 0.000
vn -1.000 0.000 0.000
vn -1.000 0.000 0.000
vn -1.000 0.000 0.000
vn -1.000 0.000 0.000
vn -1.000 0.000 0.000
vn -1.000 0.000 0.000
vn -1.000 0.000 0.000
vn -1.000 0.000 0.000
vn 0.000 0.000 1.000
vn 0.000 0.000 1.000
vn 0.000 0.000 1.000
vn 0.000 0.000 1.000
vn 0.000 0.000 -1.000
vn 0.000 0.000 -1.000
vn 0.000 0.000 -1.000
vn 0.000 0.000 -1.000
vn 0.000 0.707 -0.707
vn 0.000 0.707 -0.707
vn 0.000 0.707 -0.707
vn 0.000 0.707 -0.707
vn -1.000 0.000 0.000
vn -1.000 0.000 0.000
vn -1.000 0.000 0.000
vn -1.000 0.000 0.000
vn -1.000 0.000 0.000
vn -1.000 0.000 0.000
vn -1.000 0.000 0.000
vn -1.000 0.000 0.000
vn -1.000 0.000 0.000
vn -1.000 0.000 0.000
vn 1.000 0.000 0.000
vn 1.000 0.000 0.000
vn 1.000 0.000 0.000
vn 1.000 0.000 0.000
vn 1.000 0.000 0.000
vn 1.000 0.000 0.000
vn 1.000 0.000 0.000
vn 1.000 0.000 0.000
vn 1.000 0.000 0.000
vn 1.000 0.000 0.000


usemtl wood

f 1/1/1 3/3/3 2/2/2
f 3/3/3 1/1/1 4/4/4
f 5/5/5 7/7/7 6/6/6
f 7/7/7 5/5/5 8/8/8
f 9/9/9 11/11/11 10/10/10
f 11/11/11 9/9/9 12/12/12
f 13/13/13 15/15/15 14/14/14
f 15/15/15 13/13/13 16/16/16
f 16/16/16 13/13/13 17/17/17
f 16/16/16 17/17/17 18/18/18
f 19/19/19 21/21/21 20/20/20
f 21/21/21 19/19/19 22/22/22
f 23/23/23 25/25/25 24/24/24
f 25/25/25 23/23/23 26/26/26
f 27/27/27 29/29/29 28/28/28
f 29/29/29 27/27/27 30/30/30
f 31/31/31 33/33/33 32/32/32
f 33/33/33 31/31/31 34/34/34
f 34/34/34 31/31/31 35/35/35
f 35/35/35 31/31/31 36/36/36
f 37/37/37 39/39/39 38/38/38
f 39/39/39 37/37/37 40/40/40
f 41/41/41 43/43/43 42/42/42
f 43/43/43 41/41/41 44/44/44
f 45/45/45 47/47/47 46/46/46
f 47/47/47 45/45/45 48/48/48
f 49/49/49 51/51/51 50/50/50
f 51/51/51 49/49/49 52/52/52
f 53/53/53 55/55/55 54/54/54
f 55/55/55 53/53/53 56/56/56
f 57/57/57 59/59/59 58/58/58
f 59/59/59 57/57/57 60/60/60
f 60/60/60 57/57/57 61/61/61
f 60/60/60 61/61/61 62/62/62
f 63/63/63 65/65/65 64/64/64
f 65/65/65 63/63/63 66/66/66
f 67/67/67 69/69/69 68/68/68
f 69/69/69 67/67/67 70/70/70
f 71/71/71 73/73/73 72/72/72
f 73/73/73 71/71/71 74/74/74
f 75/75/75 77/77/77 76/76/76
f 77/77/77 75/75/75 78/78/78
f 79/79/79 81/81/81 80/80/80
f 81/81/81 79/79/79 82/82/82
f 82/82/82 79/79/79 83/83/83
f 82/82/82 83/83/83 84/84/84
f 85/85/85 87/87/87 86/86/86
f 87/87/87 85/85/85 88/88/88
f 89/89/89 91/91/91 90/90/90
f 91/91/91 89/89/89 92/92/92
f 93/93/93 95/95/95 94/94/94
f 95/95/95 93/93/93 96/96/96
f 96/96/96 93/93/93 97/97/97
f 97/97/97 93/93/93 98/98/98
f 99/99/99 101/101/101 100/100/100
f 101/101/101 99/99/99 102/102/102
f 103/103/103 105/105/105 104/104/104
f 105/105/105 103/103/103 106/106/106
f 107/107/107 109/109/109 108/108/108
f 110/110/110 109/109/109 107/107/107
f 111/111/111 109/109/109 110/110/110
f 112/112/112 109/109/109 111/111/111
f 109/109/109 112/112/112 113/113/113
f 114/114/114 113/113/113 112/112/112
f 115/115/115 113/113/113 114/114/114
f 113/113/113 115/115/115 116/116/116
f 117/117/117 119/119/119 118/118/118
f 119/119/119 117/117/117 120/120/120
f 120/120/120 117/117/117 121/121/121
f 121/121/121 117/117/117 122/122/122
f 123/123/123 125/125/125 124/124/124
f 125/125/125 123/123/123 126/126/126
f 127/127/127 129/129/129 128/128/128
f 129/129/129 127/127/127 130/130/130
f 130/130/130 127/127/127 131/131/131
f 130/130/130 132/132/132 129/129/129
f 133/133/133 132/132/132 130/130/130
f 133/133/133 134/134/134 132/132/132
f 135/135/135 134/134/134 133/133/133
f 134/134/134 135/135/135 136/136/136
f 137/137/137 139/139/139 138/138/138
f 139/139/139 137/137/137 140/140/140
f 141/141/141 143/143/143 142/142/142
f 143/143/143 141/141/141 144/144/144
f 145/145/145 147/147/147 146/146/146
f 147/147/147 145/145/145 148/148/148

usemtl woodDark

f 35/35/35 57/57/57 34/34/34
f 57/57/57 35/35/35 61/61/61
f 121/121/121 79/79/79 120/120/120
f 79/79/79 121/121/121 83/83/83
f 97/97/97 13/13/13 96/96/96
f 13/13/13 97/97/97 17/17/17
f 149/149/149 151/151/151 150/150/150
f 152/152/152 151/151/151 149/149/149
f 152/152/152 153/153/153 151/151/151
f 152/152/152 154/154/154 153/153/153
f 155/155/155 154/154/154 152/152/152
f 155/155/155 156/156/156 154/154/154
f 155/155/155 157/157/157 156/156/156
f 157/157/157 155/155/155 158/158/158
f 159/159/159 161/161/161 160/160/160
f 162/162/162 161/161/161 159/159/159
f 163/163/163 161/161/161 162/162/162
f 164/164/164 161/161/161 163/163/163
f 164/164/164 165/165/165 161/161/161
f 166/166/166 165/165/165 164/164/164
f 165/165/165 166/166/166 167/167/167
f 168/168/168 167/167/167 166/166/166
