# Created by Kenney (www.kenney.nl) - UVs and materials modified

mtllib fantasytown.mtl


g wallCornerDetail

v 0.370 0.800 0.500
v 0.370 0.800 0.400
v 0.370 1.000 0.400
v 0.370 1.000 0.500
v 0.530 0.000 0.500
v 0.530 0.000 0.475
v 0.500 0.000 0.475
v 0.500 0.000 0.530
v 0.500 0.000 0.500
v 0.400 0.000 0.530
v 0.400 0.000 0.500
v 0.370 0.000 0.500
v 0.370 0.000 0.400
v 0.400 0.000 0.400
v 0.400 0.000 0.370
v 0.425 0.000 0.400
v 0.425 0.000 0.370
v 0.515 0.800 0.500
v 0.515 0.600 0.500
v 0.500 0.600 0.515
v 0.500 0.800 0.515
v 0.500 0.800 0.515
v 0.500 0.600 0.515
v 0.400 0.600 0.515
v 0.400 0.800 0.515
v 0.425 1.000 0.400
v 0.425 1.000 0.370
v 0.425 0.800 0.370
v 0.425 0.800 0.385
v 0.425 0.600 0.385
v 0.425 0.400 0.385
v 0.425 0.400 0.370
v 0.425 0.600 0.370
v 0.425 0.200 0.385
v 0.425 0.000 0.400
v 0.425 0.000 0.370
v 0.425 0.200 0.370
v 0.400 0.400 0.530
v 0.370 0.400 0.500
v 0.370 0.600 0.500
v 0.400 0.600 0.530
v 0.425 1.000 0.400
v 0.425 0.000 0.400
v 0.400 0.000 0.400
v 0.400 1.000 0.400
v 0.530 0.600 0.500
v 0.530 0.400 0.500
v 0.500 0.400 0.530
v 0.500 0.600 0.530
v 0.400 1.000 0.370
v 0.425 1.000 0.370
v 0.425 1.000 0.400
v 0.400 1.000 0.400
v 0.370 1.000 0.400
v 0.400 1.000 0.500
v 0.370 1.000 0.500
v 0.400 1.000 0.530
v 0.500 1.000 0.530
v 0.500 1.000 0.500
v 0.500 1.000 0.475
v 0.530 1.000 0.500
v 0.530 1.000 0.475
v 0.500 1.000 0.530
v 0.500 0.800 0.530
v 0.400 0.800 0.530
v 0.400 1.000 0.530
v 0.530 0.200 0.500
v 0.530 0.200 0.475
v 0.530 0.000 0.475
v 0.530 0.000 0.500
v 0.530 0.600 0.500
v 0.530 0.600 0.475
v 0.530 0.400 0.475
v 0.530 0.400 0.500
v 0.400 0.000 0.530
v 0.370 0.000 0.500
v 0.370 0.200 0.500
v 0.400 0.200 0.530
v 0.400 0.000 0.500
v 0.500 0.000 0.500
v 0.500 1.000 0.500
v 0.400 1.000 0.500
v 0.515 0.200 0.475
v 0.530 0.200 0.475
v 0.530 0.200 0.500
v 0.515 0.200 0.500
v 0.500 0.200 0.530
v 0.500 0.200 0.515
v 0.400 0.200 0.515
v 0.400 0.200 0.530
v 0.385 0.200 0.500
v 0.370 0.200 0.500
v 0.370 0.200 0.400
v 0.385 0.200 0.400
v 0.400 0.200 0.385
v 0.400 0.200 0.370
v 0.425 0.200 0.385
v 0.425 0.200 0.370
v 0.370 0.000 0.500
v 0.370 0.000 0.400
v 0.370 0.200 0.400
v 0.370 0.200 0.500
v 0.530 1.000 0.500
v 0.530 0.800 0.500
v 0.500 0.800 0.530
v 0.500 1.000 0.530
v 0.400 1.000 0.370
v 0.400 0.800 0.370
v 0.425 0.800 0.370
v 0.425 1.000 0.370
v 0.385 0.800 0.400
v 0.385 0.600 0.400
v 0.400 0.600 0.385
v 0.400 0.800 0.385
v 0.400 1.000 0.500
v 0.400 1.000 0.400
v 0.400 0.000 0.400
v 0.400 0.000 0.500
v 0.400 0.800 0.385
v 0.400 0.600 0.385
v 0.425 0.600 0.385
v 0.425 0.800 0.385
v 0.370 1.000 0.400
v 0.370 0.800 0.400
v 0.400 0.800 0.370
v 0.400 1.000 0.370
v 0.400 0.600 0.515
v 0.385 0.600 0.500
v 0.385 0.800 0.500
v 0.400 0.800 0.515
v 0.400 0.800 0.530
v 0.370 0.800 0.500
v 0.370 1.000 0.500
v 0.400 1.000 0.530
v 0.500 0.400 0.515
v 0.500 0.200 0.515
v 0.400 0.200 0.515
v 0.400 0.400 0.515
v 0.400 0.200 0.370
v 0.400 0.000 0.370
v 0.425 0.000 0.370
v 0.425 0.200 0.370
v 0.425 0.400 0.385
v 0.425 0.400 0.370
v 0.400 0.400 0.370
v 0.400 0.400 0.385
v 0.385 0.400 0.400
v 0.370 0.400 0.400
v 0.370 0.400 0.500
v 0.385 0.400 0.500
v 0.400 0.400 0.515
v 0.400 0.400 0.530
v 0.500 0.400 0.515
v 0.500 0.400 0.530
v 0.515 0.400 0.500
v 0.530 0.400 0.500
v 0.515 0.400 0.475
v 0.530 0.400 0.475
v 0.385 0.200 0.500
v 0.385 0.200 0.400
v 0.385 0.400 0.400
v 0.385 0.400 0.500
v 0.515 0.600 0.475
v 0.530 0.600 0.475
v 0.530 0.600 0.500
v 0.515 0.600 0.500
v 0.500 0.600 0.530
v 0.500 0.600 0.515
v 0.400 0.600 0.515
v 0.400 0.600 0.530
v 0.385 0.600 0.500
v 0.370 0.600 0.500
v 0.370 0.600 0.400
v 0.385 0.600 0.400
v 0.400 0.600 0.385
v 0.400 0.600 0.370
v 0.425 0.600 0.385
v 0.425 0.600 0.370
v 0.425 0.800 0.385
v 0.425 0.800 0.370
v 0.400 0.800 0.370
v 0.400 0.800 0.385
v 0.385 0.800 0.400
v 0.370 0.800 0.400
v 0.370 0.800 0.500
v 0.385 0.800 0.500
v 0.400 0.800 0.515
v 0.400 0.800 0.530
v 0.500 0.800 0.515
v 0.500 0.800 0.530
v 0.515 0.800 0.500
v 0.530 0.800 0.500
v 0.515 0.800 0.475
v 0.530 0.800 0.475
v 0.370 0.400 0.500
v 0.370 0.400 0.400
v 0.370 0.600 0.400
v 0.370 0.600 0.500
v 0.515 0.400 0.500
v 0.515 0.200 0.500
v 0.500 0.200 0.515
v 0.500 0.400 0.515
v 0.515 0.400 0.500
v 0.515 0.400 0.475
v 0.515 0.200 0.475
v 0.515 0.200 0.500
v 0.500 0.600 0.530
v 0.500 0.400 0.530
v 0.400 0.400 0.530
v 0.400 0.600 0.530
v 0.370 0.200 0.400
v 0.370 0.000 0.400
v 0.400 0.000 0.370
v 0.400 0.200 0.370
v 0.515 0.800 0.475
v 0.530 0.800 0.475
v 0.530 1.000 0.475
v 0.500 1.000 0.475
v 0.515 0.600 0.475
v 0.515 0.400 0.475
v 0.530 0.600 0.475
v 0.530 0.400 0.475
v 0.515 0.200 0.475
v 0.500 0.000 0.475
v 0.530 0.000 0.475
v 0.530 0.200 0.475
v 0.500 0.200 0.530
v 0.500 0.000 0.530
v 0.400 0.000 0.530
v 0.400 0.200 0.530
v 0.500 0.000 0.500
v 0.500 0.000 0.475
v 0.500 1.000 0.475
v 0.500 1.000 0.500
v 0.400 0.400 0.385
v 0.400 0.200 0.385
v 0.425 0.200 0.385
v 0.425 0.400 0.385
v 0.385 0.400 0.400
v 0.385 0.200 0.400
v 0.400 0.200 0.385
v 0.400 0.400 0.385
v 0.530 0.200 0.500
v 0.530 0.000 0.500
v 0.500 0.000 0.530
v 0.500 0.200 0.530
v 0.400 0.600 0.370
v 0.400 0.400 0.370
v 0.425 0.400 0.370
v 0.425 0.600 0.370
v 0.370 0.600 0.400
v 0.370 0.400 0.400
v 0.400 0.400 0.370
v 0.400 0.600 0.370
v 0.385 0.600 0.500
v 0.385 0.600 0.400
v 0.385 0.800 0.400
v 0.385 0.800 0.500
v 0.400 0.200 0.515
v 0.385 0.200 0.500
v 0.385 0.400 0.500
v 0.400 0.400 0.515
v 0.515 0.800 0.500
v 0.515 0.800 0.475
v 0.515 0.600 0.475
v 0.515 0.600 0.500
v 0.530 1.000 0.500
v 0.530 1.000 0.475
v 0.530 0.800 0.475
v 0.530 0.800 0.500

vt -0.500 0.800
vt -0.400 0.800
vt -0.400 1.000
vt -0.500 1.000
vt -0.500 -0.530
vt -0.475 -0.530
vt -0.475 -0.500
vt -0.530 -0.500
vt -0.500 -0.500
vt -0.530 -0.400
vt -0.500 -0.400
vt -0.500 -0.370
vt -0.400 -0.370
vt -0.400 -0.400
vt -0.370 -0.400
vt -0.400 -0.425
vt -0.370 -0.425
vt -0.011 0.800
vt -0.011 0.600
vt 0.011 0.600
vt 0.011 0.800
vt -0.500 0.800
vt -0.500 0.600
vt -0.400 0.600
vt -0.400 0.800
vt 0.400 1.000
vt 0.370 1.000
vt 0.370 0.800
vt 0.385 0.800
vt 0.385 0.600
vt 0.385 0.400
vt 0.370 0.400
vt 0.370 0.600
vt 0.385 0.200
vt 0.400 0.000
vt 0.370 0.000
vt 0.370 0.200
vt -0.658 0.400
vt -0.615 0.400
vt -0.615 0.600
vt -0.658 0.600
vt -0.425 1.000
vt -0.425 0.000
vt -0.400 0.000
vt -0.400 1.000
vt -0.021 0.600
vt -0.021 0.400
vt 0.021 0.400
vt 0.021 0.600
vt 0.370 -0.400
vt 0.370 -0.425
vt 0.400 -0.425
vt 0.400 -0.400
vt 0.400 -0.370
vt 0.500 -0.400
vt 0.500 -0.370
vt 0.530 -0.400
vt 0.530 -0.500
vt 0.500 -0.500
vt 0.475 -0.500
vt 0.500 -0.530
vt 0.475 -0.530
vt -0.500 1.000
vt -0.500 0.800
vt -0.400 0.800
vt -0.400 1.000
vt 0.500 0.200
vt 0.475 0.200
vt 0.475 0.000
vt 0.500 0.000
vt 0.500 0.600
vt 0.475 0.600
vt 0.475 0.400
vt 0.500 0.400
vt -0.658 0.000
vt -0.615 0.000
vt -0.615 0.200
vt -0.658 0.200
vt 0.400 0.000
vt 0.500 0.000
vt 0.500 1.000
vt 0.400 1.000
vt 0.475 -0.515
vt 0.475 -0.530
vt 0.500 -0.530
vt 0.500 -0.515
vt 0.530 -0.500
vt 0.515 -0.500
vt 0.515 -0.400
vt 0.530 -0.400
vt 0.500 -0.385
vt 0.500 -0.370
vt 0.400 -0.370
vt 0.400 -0.385
vt 0.385 -0.400
vt 0.370 -0.400
vt 0.385 -0.425
vt 0.370 -0.425
vt -0.500 0.000
vt -0.400 0.000
vt -0.400 0.200
vt -0.500 0.200
vt -0.021 1.000
vt -0.021 0.800
vt 0.021 0.800
vt 0.021 1.000
vt 0.400 1.000
vt 0.400 0.800
vt 0.425 0.800
vt 0.425 1.000
vt -0.011 0.800
vt -0.011 0.600
vt 0.011 0.600
vt 0.011 0.800
vt 0.500 1.000
vt 0.400 1.000
vt 0.400 0.000
vt 0.500 0.000
vt 0.400 0.800
vt 0.400 0.600
vt 0.425 0.600
vt 0.425 0.800
vt -0.021 1.000
vt -0.021 0.800
vt 0.021 0.800
vt 0.021 1.000
vt -0.647 0.600
vt -0.626 0.600
vt -0.626 0.800
vt -0.647 0.800
vt -0.658 0.800
vt -0.615 0.800
vt -0.615 1.000
vt -0.658 1.000
vt -0.500 0.400
vt -0.500 0.200
vt -0.400 0.200
vt -0.400 0.400
vt 0.400 0.200
vt 0.400 0.000
vt 0.425 0.000
vt 0.425 0.200
vt -0.385 -0.425
vt -0.370 -0.425
vt -0.370 -0.400
vt -0.385 -0.400
vt -0.400 -0.385
vt -0.400 -0.370
vt -0.500 -0.370
vt -0.500 -0.385
vt -0.515 -0.400
vt -0.530 -0.400
vt -0.515 -0.500
vt -0.530 -0.500
vt -0.500 -0.515
vt -0.500 -0.530
vt -0.475 -0.515
vt -0.475 -0.530
vt -0.500 0.200
vt -0.400 0.200
vt -0.400 0.400
vt -0.500 0.400
vt 0.475 -0.515
vt 0.475 -0.530
vt 0.500 -0.530
vt 0.500 -0.515
vt 0.530 -0.500
vt 0.515 -0.500
vt 0.515 -0.400
vt 0.530 -0.400
vt 0.500 -0.385
vt 0.500 -0.370
vt 0.400 -0.370
vt 0.400 -0.385
vt 0.385 -0.400
vt 0.370 -0.400
vt 0.385 -0.425
vt 0.370 -0.425
vt -0.385 -0.425
vt -0.370 -0.425
vt -0.370 -0.400
vt -0.385 -0.400
vt -0.400 -0.385
vt -0.400 -0.370
vt -0.500 -0.370
vt -0.500 -0.385
vt -0.515 -0.400
vt -0.530 -0.400
vt -0.515 -0.500
vt -0.530 -0.500
vt -0.500 -0.515
vt -0.500 -0.530
vt -0.475 -0.515
vt -0.475 -0.530
vt -0.500 0.400
vt -0.400 0.400
vt -0.400 0.600
vt -0.500 0.600
vt -0.011 0.400
vt -0.011 0.200
vt 0.011 0.200
vt 0.011 0.400
vt 0.500 0.400
vt 0.475 0.400
vt 0.475 0.200
vt 0.500 0.200
vt -0.500 0.600
vt -0.500 0.400
vt -0.400 0.400
vt -0.400 0.600
vt -0.021 0.200
vt -0.021 0.000
vt 0.021 0.000
vt 0.021 0.200
vt 0.515 0.800
vt 0.530 0.800
vt 0.530 1.000
vt 0.500 1.000
vt 0.515 0.600
vt 0.515 0.400
vt 0.530 0.600
vt 0.530 0.400
vt 0.515 0.200
vt 0.500 0.000
vt 0.530 0.000
vt 0.530 0.200
vt -0.500 0.200
vt -0.500 0.000
vt -0.400 0.000
vt -0.400 0.200
vt -0.500 0.000
vt -0.475 0.000
vt -0.475 1.000
vt -0.500 1.000
vt 0.400 0.400
vt 0.400 0.200
vt 0.425 0.200
vt 0.425 0.400
vt -0.011 0.400
vt -0.011 0.200
vt 0.011 0.200
vt 0.011 0.400
vt -0.021 0.200
vt -0.021 0.000
vt 0.021 0.000
vt 0.021 0.200
vt 0.400 0.600
vt 0.400 0.400
vt 0.425 0.400
vt 0.425 0.600
vt -0.021 0.600
vt -0.021 0.400
vt 0.021 0.400
vt 0.021 0.600
vt -0.500 0.600
vt -0.400 0.600
vt -0.400 0.800
vt -0.500 0.800
vt -0.647 0.200
vt -0.626 0.200
vt -0.626 0.400
vt -0.647 0.400
vt 0.500 0.800
vt 0.475 0.800
vt 0.475 0.600
vt 0.500 0.600
vt 0.500 1.000
vt 0.475 1.000
vt 0.475 0.800
vt 0.500 0.800

vn -1.000 0.000 0.000
vn -1.000 0.000 0.000
vn -1.000 0.000 0.000
vn -1.000 0.000 0.000
vn 0.000 -1.000 0.000
vn 0.000 -1.000 0.000
vn 0.000 -1.000 0.000
vn 0.000 -1.000 0.000
vn 0.000 -1.000 0.000
vn 0.000 -1.000 0.000
vn 0.000 -1.000 0.000
vn 0.000 -1.000 0.000
vn 0.000 -1.000 0.000
vn 0.000 -1.000 0.000
vn 0.000 -1.000 0.000
vn 0.000 -1.000 0.000
vn 0.000 -1.000 0.000
vn 0.707 0.000 0.707
vn 0.707 0.000 0.707
vn 0.707 0.000 0.707
vn 0.707 0.000 0.707
vn 0.000 0.000 1.000
vn 0.000 0.000 1.000
vn 0.000 0.000 1.000
vn 0.000 0.000 1.000
vn 1.000 0.000 0.000
vn 1.000 0.000 0.000
vn 1.000 0.000 0.000
vn 1.000 0.000 0.000
vn 1.000 0.000 0.000
vn 1.000 0.000 0.000
vn 1.000 0.000 0.000
vn 1.000 0.000 0.000
vn 1.000 0.000 0.000
vn 1.000 0.000 0.000
vn 1.000 0.000 0.000
vn 1.000 0.000 0.000
vn -0.707 0.000 0.707
vn -0.707 0.000 0.707
vn -0.707 0.000 0.707
vn -0.707 0.000 0.707
vn 0.000 0.000 1.000
vn 0.000 0.000 1.000
vn 0.000 0.000 1.000
vn 0.000 0.000 1.000
vn 0.707 0.000 0.707
vn 0.707 0.000 0.707
vn 0.707 0.000 0.707
vn 0.707 0.000 0.707
vn 0.000 1.000 0.000
vn 0.000 1.000 0.000
vn 0.000 1.000 0.000
vn 0.000 1.000 0.000
vn 0.000 1.000 0.000
vn 0.000 1.000 0.000
vn 0.000 1.000 0.000
vn 0.000 1.000 0.000
vn 0.000 1.000 0.000
vn 0.000 1.000 0.000
vn 0.000 1.000 0.000
vn 0.000 1.000 0.000
vn 0.000 1.000 0.000
vn 0.000 0.000 1.000
vn 0.000 0.000 1.000
vn 0.000 0.000 1.000
vn 0.000 0.000 1.000
vn 1.000 0.000 0.000
vn 1.000 0.000 0.000
vn 1.000 0.000 0.000
vn 1.000 0.000 0.000
vn 1.000 0.000 0.000
vn 1.000 0.000 0.000
vn 1.000 0.000 0.000
vn 1.000 0.000 0.000
vn -0.707 0.000 0.707
vn -0.707 0.000 0.707
vn -0.707 0.000 0.707
vn -0.707 0.000 0.707
vn 0.000 0.000 -1.000
vn 0.000 0.000 -1.000
vn 0.000 0.000 -1.000
vn 0.000 0.000 -1.000
vn 0.000 1.000 0.000
vn 0.000 1.000 0.000
vn 0.000 1.000 0.000
vn 0.000 1.000 0.000
vn 0.000 1.000 0.000
vn 0.000 1.000 0.000
vn 0.000 1.000 0.000
vn 0.000 1.000 0.000
vn 0.000 1.000 0.000
vn 0.000 1.000 0.000
vn 0.000 1.000 0.000
vn 0.000 1.000 0.000
vn 0.000 1.000 0.000
vn 0.000 1.000 0.000
vn 0.000 1.000 0.000
vn 0.000 1.000 0.000
vn -1.000 0.000 0.000
vn -1.000 0.000 0.000
vn -1.000 0.000 0.000
vn -1.000 0.000 0.000
vn 0.707 0.000 0.707
vn 0.707 0.000 0.707
vn 0.707 0.000 0.707
vn 0.707 0.000 0.707
vn 0.000 0.000 -1.000
vn 0.000 0.000 -1.000
vn 0.000 0.000 -1.000
vn 0.000 0.000 -1.000
vn -0.707 0.000 -0.707
vn -0.707 0.000 -0.707
vn -0.707 0.000 -0.707
vn -0.707 0.000 -0.707
vn 1.000 0.000 0.000
vn 1.000 0.000 0.000
vn 1.000 0.000 0.000
vn 1.000 0.000 0.000
vn 0.000 0.000 -1.000
vn 0.000 0.000 -1.000
vn 0.000 0.000 -1.000
vn 0.000 0.000 -1.000
vn -0.707 0.000 -0.707
vn -0.707 0.000 -0.707
vn -0.707 0.000 -0.707
vn -0.707 0.000 -0.707
vn -0.707 0.000 0.707
vn -0.707 0.000 0.707
vn -0.707 0.000 0.707
vn -0.707 0.000 0.707
vn -0.707 0.000 0.707
vn -0.707 0.000 0.707
vn -0.707 0.000 0.707
vn -0.707 0.000 0.707
vn 0.000 0.000 1.000
vn 0.000 0.000 1.000
vn 0.000 0.000 1.000
vn 0.000 0.000 1.000
vn 0.000 0.000 -1.000
vn 0.000 0.000 -1.000
vn 0.000 0.000 -1.000
vn 0.000 0.000 -1.000
vn 0.000 -1.000 0.000
vn 0.000 -1.000 0.000
vn 0.000 -1.000 0.000
vn 0.000 -1.000 0.000
vn 0.000 -1.000 0.000
vn 0.000 -1.000 0.000
vn 0.000 -1.000 0.000
vn 0.000 -1.000 0.000
vn 0.000 -1.000 0.000
vn 0.000 -1.000 0.000
vn 0.000 -1.000 0.000
vn 0.000 -1.000 0.000
vn 0.000 -1.000 0.000
vn 0.000 -1.000 0.000
vn 0.000 -1.000 0.000
vn 0.000 -1.000 0.000
vn -1.000 0.000 0.000
vn -1.000 0.000 0.000
vn -1.000 0.000 0.000
vn -1.000 0.000 0.000
vn 0.000 1.000 0.000
vn 0.000 1.000 0.000
vn 0.000 1.000 0.000
vn 0.000 1.000 0.000
vn 0.000 1.000 0.000
vn 0.000 1.000 0.000
vn 0.000 1.000 0.000
vn 0.000 1.000 0.000
vn 0.000 1.000 0.000
vn 0.000 1.000 0.000
vn 0.000 1.000 0.000
vn 0.000 1.000 0.000
vn 0.000 1.000 0.000
vn 0.000 1.000 0.000
vn 0.000 1.000 0.000
vn 0.000 1.000 0.000
vn 0.000 -1.000 0.000
vn 0.000 -1.000 0.000
vn 0.000 -1.000 0.000
vn 0.000 -1.000 0.000
vn 0.000 -1.000 0.000
vn 0.000 -1.000 0.000
vn 0.000 -1.000 0.000
vn 0.000 -1.000 0.000
vn 0.000 -1.000 0.000
vn 0.000 -1.000 0.000
vn 0.000 -1.000 0.000
vn 0.000 -1.000 0.000
vn 0.000 -1.000 0.000
vn 0.000 -1.000 0.000
vn 0.000 -1.000 0.000
vn 0.000 -1.000 0.000
vn -1.000 0.000 0.000
vn -1.000 0.000 0.000
vn -1.000 0.000 0.000
vn -1.000 0.000 0.000
vn 0.707 0.000 0.707
vn 0.707 0.000 0.707
vn 0.707 0.000 0.707
vn 0.707 0.000 0.707
vn 1.000 0.000 0.000
vn 1.000 0.000 0.000
vn 1.000 0.000 0.000
vn 1.000 0.000 0.000
vn 0.000 0.000 1.000
vn 0.000 0.000 1.000
vn 0.000 0.000 1.000
vn 0.000 0.000 1.000
vn -0.707 0.000 -0.707
vn -0.707 0.000 -0.707
vn -0.707 0.000 -0.707
vn -0.707 0.000 -0.707
vn 0.000 0.000 -1.000
vn 0.000 0.000 -1.000
vn 0.000 0.000 -1.000
vn 0.000 0.000 -1.000
vn 0.000 0.000 -1.000
vn 0.000 0.000 -1.000
vn 0.000 0.000 -1.000
vn 0.000 0.000 -1.000
vn 0.000 0.000 -1.000
vn 0.000 0.000 -1.000
vn 0.000 0.000 -1.000
vn 0.000 0.000 -1.000
vn 0.000 0.000 1.000
vn 0.000 0.000 1.000
vn 0.000 0.000 1.000
vn 0.000 0.000 1.000
vn -1.000 0.000 0.000
vn -1.000 0.000 0.000
vn -1.000 0.000 0.000
vn -1.000 0.000 0.000
vn 0.000 0.000 -1.000
vn 0.000 0.000 -1.000
vn 0.000 0.000 -1.000
vn 0.000 0.000 -1.000
vn -0.707 0.000 -0.707
vn -0.707 0.000 -0.707
vn -0.707 0.000 -0.707
vn -0.707 0.000 -0.707
vn 0.707 0.000 0.707
vn 0.707 0.000 0.707
vn 0.707 0.000 0.707
vn 0.707 0.000 0.707
vn 0.000 0.000 -1.000
vn 0.000 0.000 -1.000
vn 0.000 0.000 -1.000
vn 0.000 0.000 -1.000
vn -0.707 0.000 -0.707
vn -0.707 0.000 -0.707
vn -0.707 0.000 -0.707
vn -0.707 0.000 -0.707
vn -1.000 0.000 0.000
vn -1.000 0.000 0.000
vn -1.000 0.000 0.000
vn -1.000 0.000 0.000
vn -0.707 0.000 0.707
vn -0.707 0.000 0.707
vn -0.707 0.000 0.707
vn -0.707 0.000 0.707
vn 1.000 0.000 0.000
vn 1.000 0.000 0.000
vn 1.000 0.000 0.000
vn 1.000 0.000 0.000
vn 1.000 0.000 0.000
vn 1.000 0.000 0.000
vn 1.000 0.000 0.000
vn 1.000 0.000 0.000


usemtl stoneDark

f 1/1/1 3/3/3 2/2/2
f 3/3/3 1/1/1 4/4/4
f 5/5/5 7/7/7 6/6/6
f 7/7/7 5/5/5 8/8/8
f 7/7/7 8/8/8 9/9/9
f 9/9/9 8/8/8 10/10/10
f 9/9/9 10/10/10 11/11/11
f 11/11/11 10/10/10 12/12/12
f 13/13/13 11/11/11 12/12/12
f 13/13/13 14/14/14 11/11/11
f 15/15/15 14/14/14 13/13/13
f 15/15/15 16/16/16 14/14/14
f 16/16/16 15/15/15 17/17/17
f 18/18/18 20/20/20 19/19/19
f 20/20/20 18/18/18 21/21/21
f 22/22/22 24/24/24 23/23/23
f 24/24/24 22/22/22 25/25/25
f 26/26/26 28/28/28 27/27/27
f 28/28/28 26/26/26 29/29/29
f 29/29/29 26/26/26 30/30/30
f 30/30/30 26/26/26 31/31/31
f 32/32/32 30/30/30 31/31/31
f 30/30/30 32/32/32 33/33/33
f 31/31/31 26/26/26 34/34/34
f 35/35/35 34/34/34 26/26/26
f 36/36/36 34/34/34 35/35/35
f 34/34/34 36/36/36 37/37/37
f 38/38/38 40/40/40 39/39/39
f 40/40/40 38/38/38 41/41/41
f 42/42/42 44/44/44 43/43/43
f 44/44/44 42/42/42 45/45/45
f 46/46/46 48/48/48 47/47/47
f 48/48/48 46/46/46 49/49/49
f 50/50/50 52/52/52 51/51/51
f 52/52/52 50/50/50 53/53/53
f 53/53/53 50/50/50 54/54/54
f 53/53/53 54/54/54 55/55/55
f 56/56/56 55/55/55 54/54/54
f 57/57/57 55/55/55 56/56/56
f 58/58/58 55/55/55 57/57/57
f 58/58/58 59/59/59 55/55/55
f 58/58/58 60/60/60 59/59/59
f 61/61/61 60/60/60 58/58/58
f 60/60/60 61/61/61 62/62/62
f 63/63/63 65/65/65 64/64/64
f 65/65/65 63/63/63 66/66/66
f 67/67/67 69/69/69 68/68/68
f 69/69/69 67/67/67 70/70/70
f 71/71/71 73/73/73 72/72/72
f 73/73/73 71/71/71 74/74/74
f 75/75/75 77/77/77 76/76/76
f 77/77/77 75/75/75 78/78/78
f 79/79/79 81/81/81 80/80/80
f 81/81/81 79/79/79 82/82/82
f 83/83/83 85/85/85 84/84/84
f 85/85/85 83/83/83 86/86/86
f 85/85/85 86/86/86 87/87/87
f 87/87/87 86/86/86 88/88/88
f 87/87/87 88/88/88 89/89/89
f 87/87/87 89/89/89 90/90/90
f 90/90/90 89/89/89 91/91/91
f 90/90/90 91/91/91 92/92/92
f 92/92/92 91/91/91 93/93/93
f 93/93/93 91/91/91 94/94/94
f 95/95/95 93/93/93 94/94/94
f 95/95/95 96/96/96 93/93/93
f 97/97/97 96/96/96 95/95/95
f 96/96/96 97/97/97 98/98/98
f 99/99/99 101/101/101 100/100/100
f 101/101/101 99/99/99 102/102/102
f 103/103/103 105/105/105 104/104/104
f 105/105/105 103/103/103 106/106/106
f 107/107/107 109/109/109 108/108/108
f 109/109/109 107/107/107 110/110/110
f 111/111/111 113/113/113 112/112/112
f 113/113/113 111/111/111 114/114/114
f 115/115/115 117/117/117 116/116/116
f 117/117/117 115/115/115 118/118/118
f 119/119/119 121/121/121 120/120/120
f 121/121/121 119/119/119 122/122/122
f 123/123/123 125/125/125 124/124/124
f 125/125/125 123/123/123 126/126/126
f 127/127/127 129/129/129 128/128/128
f 129/129/129 127/127/127 130/130/130
f 131/131/131 133/133/133 132/132/132
f 133/133/133 131/131/131 134/134/134
f 135/135/135 137/137/137 136/136/136
f 137/137/137 135/135/135 138/138/138
f 139/139/139 141/141/141 140/140/140
f 141/141/141 139/139/139 142/142/142
f 143/143/143 145/145/145 144/144/144
f 145/145/145 143/143/143 146/146/146
f 145/145/145 146/146/146 147/147/147
f 145/145/145 147/147/147 148/148/148
f 147/147/147 149/149/149 148/148/148
f 150/150/150 149/149/149 147/147/147
f 151/151/151 149/149/149 150/150/150
f 151/151/151 152/152/152 149/149/149
f 153/153/153 152/152/152 151/151/151
f 153/153/153 154/154/154 152/152/152
f 155/155/155 154/154/154 153/153/153
f 155/155/155 156/156/156 154/154/154
f 157/157/157 156/156/156 155/155/155
f 156/156/156 157/157/157 158/158/158
f 159/159/159 161/161/161 160/160/160
f 161/161/161 159/159/159 162/162/162
f 163/163/163 165/165/165 164/164/164
f 165/165/165 163/163/163 166/166/166
f 165/165/165 166/166/166 167/167/167
f 167/167/167 166/166/166 168/168/168
f 167/167/167 168/168/168 169/169/169
f 167/167/167 169/169/169 170/170/170
f 170/170/170 169/169/169 171/171/171
f 170/170/170 171/171/171 172/172/172
f 172/172/172 171/171/171 173/173/173
f 173/173/173 171/171/171 174/174/174
f 175/175/175 173/173/173 174/174/174
f 175/175/175 176/176/176 173/173/173
f 177/177/177 176/176/176 175/175/175
f 176/176/176 177/177/177 178/178/178
f 179/179/179 181/181/181 180/180/180
f 181/181/181 179/179/179 182/182/182
f 181/181/181 182/182/182 183/183/183
f 181/181/181 183/183/183 184/184/184
f 183/183/183 185/185/185 184/184/184
f 186/186/186 185/185/185 183/183/183
f 187/187/187 185/185/185 186/186/186
f 187/187/187 188/188/188 185/185/185
f 189/189/189 188/188/188 187/187/187
f 189/189/189 190/190/190 188/188/188
f 191/191/191 190/190/190 189/189/189
f 191/191/191 192/192/192 190/190/190
f 193/193/193 192/192/192 191/191/191
f 192/192/192 193/193/193 194/194/194
f 195/195/195 197/197/197 196/196/196
f 197/197/197 195/195/195 198/198/198
f 199/199/199 201/201/201 200/200/200
f 201/201/201 199/199/199 202/202/202
f 203/203/203 205/205/205 204/204/204
f 205/205/205 203/203/203 206/206/206
f 207/207/207 209/209/209 208/208/208
f 209/209/209 207/207/207 210/210/210
f 211/211/211 213/213/213 212/212/212
f 213/213/213 211/211/211 214/214/214
f 215/215/215 217/217/217 216/216/216
f 217/217/217 215/215/215 218/218/218
f 219/219/219 218/218/218 215/215/215
f 220/220/220 218/218/218 219/219/219
f 220/220/220 219/219/219 221/221/221
f 221/221/221 222/222/222 220/220/220
f 223/223/223 218/218/218 220/220/220
f 223/223/223 224/224/224 218/218/218
f 224/224/224 223/223/223 225/225/225
f 226/226/226 225/225/225 223/223/223
f 227/227/227 229/229/229 228/228/228
f 229/229/229 227/227/227 230/230/230
f 231/231/231 233/233/233 232/232/232
f 233/233/233 231/231/231 234/234/234
f 235/235/235 237/237/237 236/236/236
f 237/237/237 235/235/235 238/238/238
f 239/239/239 241/241/241 240/240/240
f 241/241/241 239/239/239 242/242/242
f 243/243/243 245/245/245 244/244/244
f 245/245/245 243/243/243 246/246/246
f 247/247/247 249/249/249 248/248/248
f 249/249/249 247/247/247 250/250/250
f 251/251/251 253/253/253 252/252/252
f 253/253/253 251/251/251 254/254/254
f 255/255/255 257/257/257 256/256/256
f 257/257/257 255/255/255 258/258/258
f 259/259/259 261/261/261 260/260/260
f 261/261/261 259/259/259 262/262/262
f 263/263/263 265/265/265 264/264/264
f 265/265/265 263/263/263 266/266/266
f 267/267/267 269/269/269 268/268/268
f 269/269/269 267/267/267 270/270/270
