# Created by Kenney (www.kenney.nl) - UVs and materials modified

mtllib fantasytown.mtl


g wallWindowSmall

v 0.500 1.000 0.500
v 0.500 0.000 0.500
v 0.400 0.000 0.500
v 0.400 1.000 0.500
v 0.475 0.750 -0.110
v 0.500 0.750 -0.110
v 0.500 0.750 0.110
v 0.475 0.750 0.110
v 0.400 0.250 0.110
v 0.425 0.250 0.110
v 0.425 0.250 -0.110
v 0.400 0.250 -0.110
v 0.475 0.200 0.160
v 0.475 0.250 0.160
v 0.475 0.800 0.160
v 0.475 0.250 0.110
v 0.475 0.250 -0.110
v 0.475 0.750 0.110
v 0.475 0.200 -0.160
v 0.475 0.750 -0.110
v 0.475 0.800 -0.160
v 0.400 0.750 -0.110
v 0.425 0.750 -0.110
v 0.425 0.750 0.110
v 0.400 0.750 0.110
v 0.400 0.000 0.500
v 0.500 0.000 0.500
v 0.500 0.000 0.400
v 0.475 0.000 0.400
v 0.425 0.000 0.400
v 0.400 0.000 0.400
v 0.400 1.000 -0.500
v 0.500 1.000 -0.500
v 0.500 1.000 -0.400
v 0.475 1.000 -0.400
v 0.425 1.000 -0.400
v 0.400 1.000 -0.400
v 0.400 0.250 -0.110
v 0.425 0.250 -0.110
v 0.425 0.750 -0.110
v 0.400 0.750 -0.110
v 0.400 0.000 -0.400
v 0.400 0.000 -0.500
v 0.400 1.000 -0.500
v 0.400 1.000 -0.400
v 0.475 1.000 0.400
v 0.475 0.000 0.400
v 0.500 0.000 0.400
v 0.500 1.000 0.400
v 0.500 1.000 -0.400
v 0.500 0.000 -0.400
v 0.475 0.000 -0.400
v 0.475 1.000 -0.400
v 0.400 1.000 0.400
v 0.400 0.000 0.400
v 0.425 0.000 0.400
v 0.425 1.000 0.400
v 0.425 0.800 0.160
v 0.425 0.250 0.160
v 0.425 0.200 0.160
v 0.425 0.750 0.110
v 0.425 0.750 -0.110
v 0.425 0.250 0.110
v 0.425 0.800 -0.160
v 0.425 0.250 -0.110
v 0.425 0.200 -0.160
v 0.475 0.000 -0.400
v 0.500 0.000 -0.400
v 0.500 0.000 -0.500
v 0.400 0.000 -0.500
v 0.425 0.000 -0.400
v 0.400 0.000 -0.400
v 0.500 1.000 0.500
v 0.500 1.000 0.400
v 0.500 0.000 0.400
v 0.500 0.000 0.500
v 0.400 0.700 0.060
v 0.400 0.300 0.060
v 0.500 0.300 0.060
v 0.500 0.700 0.060
v 0.475 1.000 0.400
v 0.500 1.000 0.400
v 0.500 1.000 0.500
v 0.400 1.000 0.500
v 0.425 1.000 0.400
v 0.400 1.000 0.400
v 0.500 0.300 -0.060
v 0.400 0.300 -0.060
v 0.400 0.700 -0.060
v 0.500 0.700 -0.060
v 0.400 0.300 -0.060
v 0.500 0.300 -0.060
v 0.500 0.300 0.060
v 0.400 0.300 0.060
v 0.425 1.000 -0.400
v 0.425 0.000 -0.400
v 0.400 0.000 -0.400
v 0.400 1.000 -0.400
v 0.475 0.750 -0.110
v 0.475 0.250 -0.110
v 0.500 0.250 -0.110
v 0.500 0.750 -0.110
v 0.500 0.250 0.110
v 0.475 0.250 0.110
v 0.475 0.750 0.110
v 0.500 0.750 0.110
v 0.400 0.000 0.500
v 0.400 0.000 0.400
v 0.400 1.000 0.400
v 0.400 1.000 0.500
v 0.475 0.250 0.110
v 0.500 0.250 0.110
v 0.500 0.250 -0.110
v 0.475 0.250 -0.110
v 0.425 0.750 0.110
v 0.425 0.250 0.110
v 0.400 0.250 0.110
v 0.400 0.750 0.110
v 0.400 1.000 -0.500
v 0.400 0.000 -0.500
v 0.500 0.000 -0.500
v 0.500 1.000 -0.500
v 0.500 1.000 -0.400
v 0.500 1.000 -0.500
v 0.500 0.000 -0.500
v 0.500 0.000 -0.400
v 0.400 0.700 0.060
v 0.500 0.700 0.060
v 0.500 0.700 -0.060
v 0.400 0.700 -0.060
v 0.400 0.300 -0.060
v 0.400 0.300 0.060
v 0.400 0.250 0.110
v 0.400 0.700 0.060
v 0.400 0.250 -0.110
v 0.400 0.750 0.110
v 0.400 0.750 -0.110
v 0.400 0.700 -0.060
v 0.500 0.750 -0.110
v 0.500 0.250 -0.110
v 0.500 0.700 -0.060
v 0.500 0.750 0.110
v 0.500 0.300 -0.060
v 0.500 0.700 0.060
v 0.500 0.250 0.110
v 0.500 0.300 0.060
v 0.475 1.000 0.400
v 0.475 1.000 -0.400
v 0.475 0.000 0.400
v 0.475 0.000 -0.400
v 0.425 0.000 0.400
v 0.425 0.000 -0.400
v 0.425 1.000 0.400
v 0.425 1.000 -0.400

vt -0.500 1.000
vt -0.500 0.000
vt -0.400 0.000
vt -0.400 1.000
vt -0.110 -0.475
vt -0.110 -0.500
vt 0.110 -0.500
vt 0.110 -0.475
vt -0.110 -0.400
vt -0.110 -0.425
vt 0.110 -0.425
vt 0.110 -0.400
vt 0.160 0.200
vt 0.160 0.250
vt 0.160 0.800
vt 0.110 0.250
vt -0.110 0.250
vt 0.110 0.750
vt -0.160 0.200
vt -0.110 0.750
vt -0.160 0.800
vt -0.110 -0.400
vt -0.110 -0.425
vt 0.110 -0.425
vt 0.110 -0.400
vt -0.500 -0.400
vt -0.500 -0.500
vt -0.400 -0.500
vt -0.400 -0.475
vt -0.400 -0.425
vt -0.400 -0.400
vt -0.500 -0.400
vt -0.500 -0.500
vt -0.400 -0.500
vt -0.400 -0.475
vt -0.400 -0.425
vt -0.400 -0.400
vt 0.400 0.250
vt 0.425 0.250
vt 0.425 0.750
vt 0.400 0.750
vt 0.400 0.000
vt 0.500 0.000
vt 0.500 1.000
vt 0.400 1.000
vt 0.475 1.000
vt 0.475 0.000
vt 0.500 0.000
vt 0.500 1.000
vt -0.500 1.000
vt -0.500 0.000
vt -0.475 0.000
vt -0.475 1.000
vt 0.400 1.000
vt 0.400 0.000
vt 0.425 0.000
vt 0.425 1.000
vt -0.160 0.800
vt -0.160 0.250
vt -0.160 0.200
vt -0.110 0.750
vt 0.110 0.750
vt -0.110 0.250
vt 0.160 0.800
vt 0.110 0.250
vt 0.160 0.200
vt 0.400 -0.475
vt 0.400 -0.500
vt 0.500 -0.500
vt 0.500 -0.400
vt 0.400 -0.425
vt 0.400 -0.400
vt 0.500 1.000
vt 0.400 1.000
vt 0.400 0.000
vt 0.500 0.000
vt 0.400 0.700
vt 0.400 0.300
vt 0.500 0.300
vt 0.500 0.700
vt 0.400 -0.475
vt 0.400 -0.500
vt 0.500 -0.500
vt 0.500 -0.400
vt 0.400 -0.425
vt 0.400 -0.400
vt -0.500 0.300
vt -0.400 0.300
vt -0.400 0.700
vt -0.500 0.700
vt -0.060 -0.400
vt -0.060 -0.500
vt 0.060 -0.500
vt 0.060 -0.400
vt -0.425 1.000
vt -0.425 0.000
vt -0.400 0.000
vt -0.400 1.000
vt 0.475 0.750
vt 0.475 0.250
vt 0.500 0.250
vt 0.500 0.750
vt -0.500 0.250
vt -0.475 0.250
vt -0.475 0.750
vt -0.500 0.750
vt -0.500 0.000
vt -0.400 0.000
vt -0.400 1.000
vt -0.500 1.000
vt -0.110 -0.475
vt -0.110 -0.500
vt 0.110 -0.500
vt 0.110 -0.475
vt -0.425 0.750
vt -0.425 0.250
vt -0.400 0.250
vt -0.400 0.750
vt 0.400 1.000
vt 0.400 0.000
vt 0.500 0.000
vt 0.500 1.000
vt -0.400 1.000
vt -0.500 1.000
vt -0.500 0.000
vt -0.400 0.000
vt -0.060 -0.400
vt -0.060 -0.500
vt 0.060 -0.500
vt 0.060 -0.400
vt 0.060 0.300
vt -0.060 0.300
vt -0.110 0.250
vt -0.060 0.700
vt 0.110 0.250
vt -0.110 0.750
vt 0.110 0.750
vt 0.060 0.700
vt -0.110 0.750
vt -0.110 0.250
vt -0.060 0.700
vt 0.110 0.750
vt -0.060 0.300
vt 0.060 0.700
vt 0.110 0.250
vt 0.060 0.300
vt 0.400 1.000
vt -0.400 1.000
vt 0.400 0.000
vt -0.400 0.000
vt -0.400 0.000
vt 0.400 0.000
vt -0.400 1.000
vt 0.400 1.000

vn 0.000 0.000 1.000
vn 0.000 0.000 1.000
vn 0.000 0.000 1.000
vn 0.000 0.000 1.000
vn 0.000 1.000 0.000
vn 0.000 1.000 0.000
vn 0.000 1.000 0.000
vn 0.000 1.000 0.000
vn 0.000 -1.000 0.000
vn 0.000 -1.000 0.000
vn 0.000 -1.000 0.000
vn 0.000 -1.000 0.000
vn 1.000 0.000 0.000
vn 1.000 0.000 0.000
vn 1.000 0.000 0.000
vn 1.000 0.000 0.000
vn 1.000 0.000 0.000
vn 1.000 0.000 0.000
vn 1.000 0.000 0.000
vn 1.000 0.000 0.000
vn 1.000 0.000 0.000
vn 0.000 1.000 0.000
vn 0.000 1.000 0.000
vn 0.000 1.000 0.000
vn 0.000 1.000 0.000
vn 0.000 -1.000 0.000
vn 0.000 -1.000 0.000
vn 0.000 -1.000 0.000
vn 0.000 -1.000 0.000
vn 0.000 -1.000 0.000
vn 0.000 -1.000 0.000
vn 0.000 1.000 0.000
vn 0.000 1.000 0.000
vn 0.000 1.000 0.000
vn 0.000 1.000 0.000
vn 0.000 1.000 0.000
vn 0.000 1.000 0.000
vn 0.000 0.000 -1.000
vn 0.000 0.000 -1.000
vn 0.000 0.000 -1.000
vn 0.000 0.000 -1.000
vn -1.000 0.000 0.000
vn -1.000 0.000 0.000
vn -1.000 0.000 0.000
vn -1.000 0.000 0.000
vn 0.000 0.000 -1.000
vn 0.000 0.000 -1.000
vn 0.000 0.000 -1.000
vn 0.000 0.000 -1.000
vn 0.000 0.000 1.000
vn 0.000 0.000 1.000
vn 0.000 0.000 1.000
vn 0.000 0.000 1.000
vn 0.000 0.000 -1.000
vn 0.000 0.000 -1.000
vn 0.000 0.000 -1.000
vn 0.000 0.000 -1.000
vn -1.000 0.000 0.000
vn -1.000 0.000 0.000
vn -1.000 0.000 0.000
vn -1.000 0.000 0.000
vn -1.000 0.000 0.000
vn -1.000 0.000 0.000
vn -1.000 0.000 0.000
vn -1.000 0.000 0.000
vn -1.000 0.000 0.000
vn 0.000 -1.000 0.000
vn 0.000 -1.000 0.000
vn 0.000 -1.000 0.000
vn 0.000 -1.000 0.000
vn 0.000 -1.000 0.000
vn 0.000 -1.000 0.000
vn 1.000 0.000 0.000
vn 1.000 0.000 0.000
vn 1.000 0.000 0.000
vn 1.000 0.000 0.000
vn 0.000 0.000 -1.000
vn 0.000 0.000 -1.000
vn 0.000 0.000 -1.000
vn 0.000 0.000 -1.000
vn 0.000 1.000 0.000
vn 0.000 1.000 0.000
vn 0.000 1.000 0.000
vn 0.000 1.000 0.000
vn 0.000 1.000 0.000
vn 0.000 1.000 0.000
vn 0.000 0.000 1.000
vn 0.000 0.000 1.000
vn 0.000 0.000 1.000
vn 0.000 0.000 1.000
vn 0.000 1.000 0.000
vn 0.000 1.000 0.000
vn 0.000 1.000 0.000
vn 0.000 1.000 0.000
vn 0.000 0.000 1.000
vn 0.000 0.000 1.000
vn 0.000 0.000 1.000
vn 0.000 0.000 1.000
vn 0.000 0.000 -1.000
vn 0.000 0.000 -1.000
vn 0.000 0.000 -1.000
vn 0.000 0.000 -1.000
vn 0.000 0.000 1.000
vn 0.000 0.000 1.000
vn 0.000 0.000 1.000
vn 0.000 0.000 1.000
vn -1.000 0.000 0.000
vn -1.000 0.000 0.000
vn -1.000 0.000 0.000
vn -1.000 0.000 0.000
vn 0.000 -1.000 0.000
vn 0.000 -1.000 0.000
vn 0.000 -1.000 0.000
vn 0.000 -1.000 0.000
vn 0.000 0.000 1.000
vn 0.000 0.000 1.000
vn 0.000 0.000 1.000
vn 0.000 0.000 1.000
vn 0.000 0.000 -1.000
vn 0.000 0.000 -1.000
vn 0.000 0.000 -1.000
vn 0.000 0.000 -1.000
vn 1.000 0.000 0.000
vn 1.000 0.000 0.000
vn 1.000 0.000 0.000
vn 1.000 0.000 0.000
vn 0.000 -1.000 0.000
vn 0.000 -1.000 0.000
vn 0.000 -1.000 0.000
vn 0.000 -1.000 0.000
vn -1.000 0.000 0.000
vn -1.000 0.000 0.000
vn -1.000 0.000 0.000
vn -1.000 0.000 0.000
vn -1.000 0.000 0.000
vn -1.000 0.000 0.000
vn -1.000 0.000 0.000
vn -1.000 0.000 0.000
vn 1.000 0.000 0.000
vn 1.000 0.000 0.000
vn 1.000 0.000 0.000
vn 1.000 0.000 0.000
vn 1.000 0.000 0.000
vn 1.000 0.000 0.000
vn 1.000 0.000 0.000
vn 1.000 0.000 0.000
vn 1.000 0.000 0.000
vn 1.000 0.000 0.000
vn 1.000 0.000 0.000
vn 1.000 0.000 0.000
vn -1.000 0.000 0.000
vn -1.000 0.000 0.000
vn -1.000 0.000 0.000
vn -1.000 0.000 0.000


usemtl wood

f 1/1/1 3/3/3 2/2/2
f 3/3/3 1/1/1 4/4/4
f 5/5/5 7/7/7 6/6/6
f 7/7/7 5/5/5 8/8/8
f 9/9/9 11/11/11 10/10/10
f 11/11/11 9/9/9 12/12/12
f 13/13/13 15/15/15 14/14/14
f 13/13/13 16/16/16 15/15/15
f 13/13/13 17/17/17 16/16/16
f 18/18/18 15/15/15 16/16/16
f 19/19/19 17/17/17 13/13/13
f 20/20/20 15/15/15 18/18/18
f 17/17/17 19/19/19 20/20/20
f 20/20/20 21/21/21 15/15/15
f 21/21/21 20/20/20 19/19/19
f 22/22/22 24/24/24 23/23/23
f 24/24/24 22/22/22 25/25/25
f 26/26/26 28/28/28 27/27/27
f 28/28/28 26/26/26 29/29/29
f 29/29/29 26/26/26 30/30/30
f 30/30/30 26/26/26 31/31/31
f 32/32/32 34/34/34 33/33/33
f 34/34/34 32/32/32 35/35/35
f 35/35/35 32/32/32 36/36/36
f 36/36/36 32/32/32 37/37/37
f 38/38/38 40/40/40 39/39/39
f 40/40/40 38/38/38 41/41/41
f 42/42/42 44/44/44 43/43/43
f 44/44/44 42/42/42 45/45/45
f 46/46/46 48/48/48 47/47/47
f 48/48/48 46/46/46 49/49/49
f 50/50/50 52/52/52 51/51/51
f 52/52/52 50/50/50 53/53/53
f 54/54/54 56/56/56 55/55/55
f 56/56/56 54/54/54 57/57/57
f 58/58/58 60/60/60 59/59/59
f 58/58/58 61/61/61 60/60/60
f 58/58/58 62/62/62 61/61/61
f 63/63/63 60/60/60 61/61/61
f 64/64/64 62/62/62 58/58/58
f 65/65/65 60/60/60 63/63/63
f 62/62/62 64/64/64 65/65/65
f 65/65/65 66/66/66 60/60/60
f 66/66/66 65/65/65 64/64/64
f 67/67/67 69/69/69 68/68/68
f 69/69/69 67/67/67 70/70/70
f 70/70/70 67/67/67 71/71/71
f 70/70/70 71/71/71 72/72/72
f 73/73/73 75/75/75 74/74/74
f 75/75/75 73/73/73 76/76/76
f 77/77/77 79/79/79 78/78/78
f 79/79/79 77/77/77 80/80/80
f 81/81/81 83/83/83 82/82/82
f 83/83/83 81/81/81 84/84/84
f 84/84/84 81/81/81 85/85/85
f 84/84/84 85/85/85 86/86/86
f 87/87/87 89/89/89 88/88/88
f 89/89/89 87/87/87 90/90/90
f 91/91/91 93/93/93 92/92/92
f 93/93/93 91/91/91 94/94/94
f 95/95/95 97/97/97 96/96/96
f 97/97/97 95/95/95 98/98/98
f 99/99/99 101/101/101 100/100/100
f 101/101/101 99/99/99 102/102/102
f 103/103/103 105/105/105 104/104/104
f 105/105/105 103/103/103 106/106/106
f 107/107/107 109/109/109 108/108/108
f 109/109/109 107/107/107 110/110/110
f 111/111/111 113/113/113 112/112/112
f 113/113/113 111/111/111 114/114/114
f 115/115/115 117/117/117 116/116/116
f 117/117/117 115/115/115 118/118/118
f 119/119/119 121/121/121 120/120/120
f 121/121/121 119/119/119 122/122/122
f 123/123/123 125/125/125 124/124/124
f 125/125/125 123/123/123 126/126/126
f 127/127/127 129/129/129 128/128/128
f 129/129/129 127/127/127 130/130/130
f 131/131/131 133/133/133 132/132/132
f 132/132/132 133/133/133 134/134/134
f 131/131/131 135/135/135 133/133/133
f 136/136/136 134/134/134 133/133/133
f 135/135/135 131/131/131 137/137/137
f 136/136/136 138/138/138 134/134/134
f 138/138/138 137/137/137 131/131/131
f 137/137/137 138/138/138 136/136/136
f 139/139/139 141/141/141 140/140/140
f 141/141/141 139/139/139 142/142/142
f 143/143/143 140/140/140 141/141/141
f 141/141/141 142/142/142 144/144/144
f 140/140/140 143/143/143 145/145/145
f 144/144/144 142/142/142 146/146/146
f 145/145/145 143/143/143 146/146/146
f 145/145/145 146/146/146 142/142/142

usemtl stone

f 36/36/36 81/81/81 35/35/35
f 81/81/81 36/36/36 85/85/85
f 30/30/30 67/67/67 29/29/29
f 67/67/67 30/30/30 71/71/71
f 21/21/21 147/147/147 15/15/15
f 15/15/15 147/147/147 14/14/14
f 14/14/14 147/147/147 13/13/13
f 21/21/21 148/148/148 147/147/147
f 149/149/149 13/13/13 147/147/147
f 148/148/148 21/21/21 150/150/150
f 149/149/149 19/19/19 13/13/13
f 19/19/19 150/150/150 21/21/21
f 150/150/150 19/19/19 149/149/149
f 66/66/66 151/151/151 60/60/60
f 60/60/60 151/151/151 59/59/59
f 59/59/59 151/151/151 58/58/58
f 66/66/66 152/152/152 151/151/151
f 153/153/153 58/58/58 151/151/151
f 152/152/152 66/66/66 154/154/154
f 153/153/153 64/64/64 58/58/58
f 64/64/64 154/154/154 66/66/66
f 154/154/154 64/64/64 153/153/153
