# Created by Kenney (www.kenney.nl) - UVs and materials modified

mtllib fantasytown.mtl


g wallWoodSlope

v 0.475 0.000 -0.400
v 0.500 0.000 -0.400
v 0.500 0.000 -0.500
v 0.400 0.000 -0.500
v 0.425 0.000 -0.400
v 0.400 0.000 -0.400
v 0.500 0.500 -0.400
v 0.500 0.000 -0.400
v 0.475 0.000 -0.400
v 0.475 0.500 -0.400
v 0.400 0.500 -0.500
v 0.400 0.000 -0.500
v 0.500 0.000 -0.500
v 0.500 0.500 -0.500
v 0.425 0.500 -0.400
v 0.425 0.000 -0.400
v 0.400 0.000 -0.400
v 0.400 0.500 -0.400
v 0.500 0.500 -0.400
v 0.500 0.500 -0.500
v 0.500 0.000 -0.500
v 0.500 0.000 -0.400
v 0.475 1.000 0.400
v 0.475 0.000 0.400
v 0.500 0.000 0.400
v 0.500 1.000 0.400
v 0.400 0.500 -0.500
v 0.500 0.500 -0.500
v 0.500 0.500 -0.400
v 0.475 0.500 -0.400
v 0.425 0.500 -0.400
v 0.400 0.500 -0.400
v 0.500 1.000 0.500
v 0.500 0.000 0.500
v 0.400 0.000 0.500
v 0.400 1.000 0.500
v 0.400 0.000 -0.400
v 0.400 0.000 -0.500
v 0.400 0.500 -0.500
v 0.400 0.500 -0.400
v 0.475 1.000 0.400
v 0.500 1.000 0.400
v 0.500 1.000 0.500
v 0.400 1.000 0.500
v 0.425 1.000 0.400
v 0.400 1.000 0.400
v 0.400 0.000 0.500
v 0.400 0.000 0.400
v 0.400 1.000 0.400
v 0.400 1.000 0.500
v 0.500 1.000 0.500
v 0.500 1.000 0.400
v 0.500 0.000 0.400
v 0.500 0.000 0.500
v 0.400 0.000 0.500
v 0.500 0.000 0.500
v 0.500 0.000 0.400
v 0.475 0.000 0.400
v 0.425 0.000 0.400
v 0.400 0.000 0.400
v 0.400 1.000 0.400
v 0.400 0.000 0.400
v 0.425 0.000 0.400
v 0.425 1.000 0.400
v 0.425 0.875 0.306
v 0.425 0.870 0.303
v 0.475 0.870 0.303
v 0.475 0.875 0.306
v 0.425 0.933 0.354
v 0.475 0.933 0.354
v 0.425 1.000 0.400
v 0.425 0.933 0.354
v 0.475 0.933 0.354
v 0.475 1.000 0.400
v 0.425 0.000 0.400
v 0.425 0.000 -0.400
v 0.425 0.500 -0.400
v 0.425 0.512 -0.320
v 0.425 0.531 -0.241
v 0.425 0.555 -0.163
v 0.425 0.584 -0.087
v 0.425 0.620 -0.014
v 0.425 0.660 0.056
v 0.425 0.706 0.123
v 0.425 0.750 0.179
v 0.425 0.756 0.187
v 0.425 0.811 0.247
v 0.425 0.870 0.303
v 0.425 0.875 0.306
v 0.425 0.933 0.354
v 0.425 1.000 0.400
v 0.425 0.500 -0.400
v 0.475 0.500 -0.400
v 0.475 0.512 -0.320
v 0.425 0.512 -0.320
v 0.425 0.531 -0.241
v 0.475 0.531 -0.241
v 0.475 0.555 -0.163
v 0.425 0.555 -0.163
v 0.425 0.555 -0.163
v 0.475 0.555 -0.163
v 0.475 0.584 -0.087
v 0.425 0.584 -0.087
v 0.425 0.512 -0.320
v 0.475 0.512 -0.320
v 0.475 0.531 -0.241
v 0.425 0.531 -0.241
v 0.425 0.584 -0.087
v 0.475 0.584 -0.087
v 0.475 0.620 -0.014
v 0.425 0.620 -0.014
v 0.475 0.512 -0.320
v 0.475 0.500 -0.400
v 0.475 0.000 -0.400
v 0.475 0.000 0.400
v 0.475 0.531 -0.241
v 0.475 0.555 -0.163
v 0.475 0.584 -0.087
v 0.475 0.620 -0.014
v 0.475 0.660 0.056
v 0.475 0.706 0.123
v 0.475 0.750 0.179
v 0.475 0.756 0.187
v 0.475 0.811 0.247
v 0.475 0.870 0.303
v 0.475 0.875 0.306
v 0.475 0.933 0.354
v 0.475 1.000 0.400
v 0.425 0.870 0.303
v 0.425 0.811 0.247
v 0.475 0.811 0.247
v 0.475 0.870 0.303
v 0.475 0.756 0.187
v 0.425 0.756 0.187
v 0.425 0.750 0.179
v 0.475 0.750 0.179
v 0.425 0.706 0.123
v 0.475 0.706 0.123
v 0.425 0.620 -0.014
v 0.475 0.620 -0.014
v 0.475 0.660 0.056
v 0.425 0.660 0.056
v 0.425 0.756 0.187
v 0.475 0.756 0.187
v 0.475 0.811 0.247
v 0.425 0.811 0.247
v 0.425 0.660 0.056
v 0.475 0.660 0.056
v 0.475 0.706 0.123
v 0.425 0.706 0.123

vt 0.400 -0.475
vt 0.400 -0.500
vt 0.500 -0.500
vt 0.500 -0.400
vt 0.400 -0.425
vt 0.400 -0.400
vt -0.500 0.500
vt -0.500 0.000
vt -0.475 0.000
vt -0.475 0.500
vt 0.400 0.500
vt 0.400 0.000
vt 0.500 0.000
vt 0.500 0.500
vt -0.425 0.500
vt -0.425 0.000
vt -0.400 0.000
vt -0.400 0.500
vt -0.400 0.500
vt -0.500 0.500
vt -0.500 0.000
vt -0.400 0.000
vt 0.475 1.000
vt 0.475 0.000
vt 0.500 0.000
vt 0.500 1.000
vt -0.500 -0.400
vt -0.500 -0.500
vt -0.400 -0.500
vt -0.400 -0.475
vt -0.400 -0.425
vt -0.400 -0.400
vt -0.500 1.000
vt -0.500 0.000
vt -0.400 0.000
vt -0.400 1.000
vt 0.400 0.000
vt 0.500 0.000
vt 0.500 0.500
vt 0.400 0.500
vt 0.400 -0.475
vt 0.400 -0.500
vt 0.500 -0.500
vt 0.500 -0.400
vt 0.400 -0.425
vt 0.400 -0.400
vt -0.500 0.000
vt -0.400 0.000
vt -0.400 1.000
vt -0.500 1.000
vt 0.500 1.000
vt 0.400 1.000
vt 0.400 0.000
vt 0.500 0.000
vt -0.500 -0.400
vt -0.500 -0.500
vt -0.400 -0.500
vt -0.400 -0.475
vt -0.400 -0.425
vt -0.400 -0.400
vt 0.400 1.000
vt 0.400 0.000
vt 0.425 0.000
vt 0.425 1.000
vt 0.418 -0.425
vt 0.412 -0.425
vt 0.412 -0.475
vt 0.418 -0.475
vt 0.493 -0.425
vt 0.493 -0.475
vt 0.575 -0.425
vt 0.493 -0.425
vt 0.493 -0.475
vt 0.575 -0.475
vt -0.400 0.000
vt 0.400 0.000
vt 0.400 0.500
vt 0.320 0.512
vt 0.241 0.531
vt 0.163 0.555
vt 0.087 0.584
vt 0.014 0.620
vt -0.056 0.660
vt -0.123 0.706
vt -0.179 0.750
vt -0.187 0.756
vt -0.247 0.811
vt -0.303 0.870
vt -0.306 0.875
vt -0.354 0.933
vt -0.400 1.000
vt -0.400 -0.425
vt -0.400 -0.475
vt -0.319 -0.475
vt -0.319 -0.425
vt -0.238 -0.425
vt -0.238 -0.475
vt -0.156 -0.475
vt -0.156 -0.425
vt -0.156 -0.425
vt -0.156 -0.475
vt -0.075 -0.475
vt -0.075 -0.425
vt -0.319 -0.425
vt -0.319 -0.475
vt -0.238 -0.475
vt -0.238 -0.425
vt -0.075 -0.425
vt -0.075 -0.475
vt 0.006 -0.475
vt 0.006 -0.425
vt -0.320 0.512
vt -0.400 0.500
vt -0.400 0.000
vt 0.400 0.000
vt -0.241 0.531
vt -0.163 0.555
vt -0.087 0.584
vt -0.014 0.620
vt 0.056 0.660
vt 0.123 0.706
vt 0.179 0.750
vt 0.187 0.756
vt 0.247 0.811
vt 0.303 0.870
vt 0.306 0.875
vt 0.354 0.933
vt 0.400 1.000
vt 0.412 -0.425
vt 0.331 -0.425
vt 0.331 -0.475
vt 0.412 -0.475
vt 0.250 -0.475
vt 0.250 -0.425
vt 0.240 -0.425
vt 0.240 -0.475
vt 0.169 -0.425
vt 0.169 -0.475
vt 0.006 -0.425
vt 0.006 -0.475
vt 0.087 -0.475
vt 0.087 -0.425
vt 0.250 -0.425
vt 0.250 -0.475
vt 0.331 -0.475
vt 0.331 -0.425
vt 0.087 -0.425
vt 0.087 -0.475
vt 0.169 -0.475
vt 0.169 -0.425

vn 0.000 -1.000 0.000
vn 0.000 -1.000 0.000
vn 0.000 -1.000 0.000
vn 0.000 -1.000 0.000
vn 0.000 -1.000 0.000
vn 0.000 -1.000 0.000
vn 0.000 0.000 1.000
vn 0.000 0.000 1.000
vn 0.000 0.000 1.000
vn 0.000 0.000 1.000
vn 0.000 0.000 -1.000
vn 0.000 0.000 -1.000
vn 0.000 0.000 -1.000
vn 0.000 0.000 -1.000
vn 0.000 0.000 1.000
vn 0.000 0.000 1.000
vn 0.000 0.000 1.000
vn 0.000 0.000 1.000
vn 1.000 0.000 0.000
vn 1.000 0.000 0.000
vn 1.000 0.000 0.000
vn 1.000 0.000 0.000
vn 0.000 0.000 -1.000
vn 0.000 0.000 -1.000
vn 0.000 0.000 -1.000
vn 0.000 0.000 -1.000
vn 0.000 1.000 0.000
vn 0.000 1.000 0.000
vn 0.000 1.000 0.000
vn 0.000 0.999 -0.051
vn 0.000 0.999 -0.051
vn 0.000 1.000 0.000
vn 0.000 0.000 1.000
vn 0.000 0.000 1.000
vn 0.000 0.000 1.000
vn 0.000 0.000 1.000
vn -1.000 0.000 0.000
vn -1.000 0.000 0.000
vn -1.000 0.000 0.000
vn -1.000 0.000 0.000
vn 0.000 1.000 0.000
vn 0.000 1.000 0.000
vn 0.000 1.000 0.000
vn 0.000 1.000 0.000
vn 0.000 1.000 0.000
vn 0.000 1.000 0.000
vn -1.000 0.000 0.000
vn -1.000 0.000 0.000
vn -1.000 0.000 0.000
vn -1.000 0.000 0.000
vn 1.000 0.000 0.000
vn 1.000 0.000 0.000
vn 1.000 0.000 0.000
vn 1.000 0.000 0.000
vn 0.000 -1.000 0.000
vn 0.000 -1.000 0.000
vn 0.000 -1.000 0.000
vn 0.000 -1.000 0.000
vn 0.000 -1.000 0.000
vn 0.000 -1.000 0.000
vn 0.000 0.000 -1.000
vn 0.000 0.000 -1.000
vn 0.000 0.000 -1.000
vn 0.000 0.000 -1.000
vn 0.000 0.629 -0.777
vn 0.000 0.657 -0.753
vn 0.000 0.657 -0.753
vn 0.000 0.629 -0.777
vn 0.000 0.600 -0.800
vn 0.000 0.600 -0.800
vn 0.000 0.570 -0.821
vn 0.000 0.600 -0.800
vn 0.000 0.600 -0.800
vn 0.000 0.570 -0.821
vn -1.000 0.000 0.000
vn -1.000 0.000 0.000
vn -1.000 0.000 0.000
vn -1.000 0.000 0.000
vn -1.000 0.000 0.000
vn -1.000 0.000 0.000
vn -1.000 0.000 0.000
vn -1.000 0.000 0.000
vn -1.000 0.000 0.000
vn -1.000 0.000 0.000
vn -1.000 0.000 0.000
vn -1.000 0.000 0.000
vn -1.000 0.000 0.000
vn -1.000 0.000 0.000
vn -1.000 0.000 0.000
vn -1.000 0.000 0.000
vn -1.000 0.000 0.000
vn 0.000 0.999 -0.051
vn 0.000 0.999 -0.051
vn 0.000 0.982 -0.189
vn 0.000 0.982 -0.189
vn 0.000 0.965 -0.261
vn 0.000 0.965 -0.261
vn 0.000 0.944 -0.331
vn 0.000 0.944 -0.331
vn 0.000 0.944 -0.331
vn 0.000 0.944 -0.331
vn 0.000 0.917 -0.400
vn 0.000 0.917 -0.400
vn 0.000 0.982 -0.189
vn 0.000 0.982 -0.189
vn 0.000 0.965 -0.261
vn 0.000 0.965 -0.261
vn 0.000 0.917 -0.400
vn 0.000 0.917 -0.400
vn 0.000 0.885 -0.466
vn 0.000 0.885 -0.466
vn 1.000 0.000 0.000
vn 1.000 0.000 0.000
vn 1.000 0.000 0.000
vn 1.000 0.000 0.000
vn 1.000 0.000 0.000
vn 1.000 0.000 0.000
vn 1.000 0.000 0.000
vn 1.000 0.000 0.000
vn 1.000 0.000 0.000
vn 1.000 0.000 0.000
vn 1.000 0.000 0.000
vn 1.000 0.000 0.000
vn 1.000 0.000 0.000
vn 1.000 0.000 0.000
vn 1.000 0.000 0.000
vn 1.000 0.000 0.000
vn 1.000 0.000 0.000
vn 0.000 0.657 -0.753
vn 0.000 0.711 -0.703
vn 0.000 0.711 -0.703
vn 0.000 0.657 -0.753
vn 0.000 0.761 -0.649
vn 0.000 0.761 -0.649
vn 0.000 0.784 -0.620
vn 0.000 0.784 -0.620
vn 0.000 0.807 -0.591
vn 0.000 0.807 -0.591
vn 0.000 0.885 -0.466
vn 0.000 0.885 -0.466
vn 0.000 0.848 -0.530
vn 0.000 0.848 -0.530
vn 0.000 0.761 -0.649
vn 0.000 0.761 -0.649
vn 0.000 0.711 -0.703
vn 0.000 0.711 -0.703
vn 0.000 0.848 -0.530
vn 0.000 0.848 -0.530
vn 0.000 0.807 -0.591
vn 0.000 0.807 -0.591


usemtl wood

f 1/1/1 3/3/3 2/2/2
f 3/3/3 1/1/1 4/4/4
f 4/4/4 1/1/1 5/5/5
f 4/4/4 5/5/5 6/6/6
f 7/7/7 9/9/9 8/8/8
f 9/9/9 7/7/7 10/10/10
f 11/11/11 13/13/13 12/12/12
f 13/13/13 11/11/11 14/14/14
f 15/15/15 17/17/17 16/16/16
f 17/17/17 15/15/15 18/18/18
f 19/19/19 21/21/21 20/20/20
f 21/21/21 19/19/19 22/22/22
f 23/23/23 25/25/25 24/24/24
f 25/25/25 23/23/23 26/26/26
f 27/27/27 29/29/29 28/28/28
f 29/29/29 27/27/27 30/30/30
f 30/30/30 27/27/27 31/31/31
f 31/31/31 27/27/27 32/32/32
f 33/33/33 35/35/35 34/34/34
f 35/35/35 33/33/33 36/36/36
f 37/37/37 39/39/39 38/38/38
f 39/39/39 37/37/37 40/40/40
f 41/41/41 43/43/43 42/42/42
f 43/43/43 41/41/41 44/44/44
f 44/44/44 41/41/41 45/45/45
f 44/44/44 45/45/45 46/46/46
f 47/47/47 49/49/49 48/48/48
f 49/49/49 47/47/47 50/50/50
f 51/51/51 53/53/53 52/52/52
f 53/53/53 51/51/51 54/54/54
f 55/55/55 57/57/57 56/56/56
f 57/57/57 55/55/55 58/58/58
f 58/58/58 55/55/55 59/59/59
f 59/59/59 55/55/55 60/60/60
f 61/61/61 63/63/63 62/62/62
f 63/63/63 61/61/61 64/64/64

usemtl woodDark

f 65/65/65 67/67/67 66/66/66
f 67/67/67 65/65/65 68/68/68
f 69/69/69 68/68/68 65/65/65
f 68/68/68 69/69/69 70/70/70
f 71/71/71 73/73/73 72/72/72
f 73/73/73 71/71/71 74/74/74
f 75/75/75 77/77/77 76/76/76
f 77/77/77 75/75/75 78/78/78
f 78/78/78 75/75/75 79/79/79
f 79/79/79 75/75/75 80/80/80
f 80/80/80 75/75/75 81/81/81
f 81/81/81 75/75/75 82/82/82
f 82/82/82 75/75/75 83/83/83
f 83/83/83 75/75/75 84/84/84
f 84/84/84 75/75/75 85/85/85
f 85/85/85 75/75/75 86/86/86
f 86/86/86 75/75/75 87/87/87
f 87/87/87 75/75/75 88/88/88
f 88/88/88 75/75/75 89/89/89
f 89/89/89 75/75/75 90/90/90
f 90/90/90 75/75/75 91/91/91
f 92/92/92 94/94/94 93/93/93
f 94/94/94 92/92/92 95/95/95
f 59/59/59 1/1/1 58/58/58
f 1/1/1 59/59/59 5/5/5
f 96/96/96 98/98/98 97/97/97
f 98/98/98 96/96/96 99/99/99
f 100/100/100 102/102/102 101/101/101
f 102/102/102 100/100/100 103/103/103
f 104/104/104 106/106/106 105/105/105
f 106/106/106 104/104/104 107/107/107
f 108/108/108 110/110/110 109/109/109
f 110/110/110 108/108/108 111/111/111
f 112/112/112 114/114/114 113/113/113
f 114/114/114 112/112/112 115/115/115
f 115/115/115 112/112/112 116/116/116
f 115/115/115 116/116/116 117/117/117
f 115/115/115 117/117/117 118/118/118
f 115/115/115 118/118/118 119/119/119
f 115/115/115 119/119/119 120/120/120
f 115/115/115 120/120/120 121/121/121
f 115/115/115 121/121/121 122/122/122
f 115/115/115 122/122/122 123/123/123
f 115/115/115 123/123/123 124/124/124
f 115/115/115 124/124/124 125/125/125
f 115/115/115 125/125/125 126/126/126
f 115/115/115 126/126/126 127/127/127
f 115/115/115 127/127/127 128/128/128
f 129/129/129 131/131/131 130/130/130
f 131/131/131 129/129/129 132/132/132
f 133/133/133 135/135/135 134/134/134
f 135/135/135 133/133/133 136/136/136
f 136/136/136 137/137/137 135/135/135
f 137/137/137 136/136/136 138/138/138
f 139/139/139 141/141/141 140/140/140
f 141/141/141 139/139/139 142/142/142
f 143/143/143 145/145/145 144/144/144
f 145/145/145 143/143/143 146/146/146
f 147/147/147 149/149/149 148/148/148
f 149/149/149 147/147/147 150/150/150
