# Created by Kenney (www.kenney.nl) - UVs and materials modified

mtllib fantasytown.mtl


g wallCornerDiagonal

v -0.500 0.000 0.500
v -0.400 0.000 0.500
v -0.400 0.000 0.475
v -0.400 0.000 0.425
v -0.400 0.000 0.400
v -0.500 0.000 0.400
v 0.400 1.000 -0.500
v 0.500 1.000 -0.500
v 0.500 1.000 -0.400
v 0.475 1.000 -0.400
v 0.425 1.000 -0.400
v 0.400 1.000 -0.400
v -0.500 1.000 0.400
v -0.500 0.000 0.400
v -0.400 0.000 0.400
v -0.400 1.000 0.400
v -0.400 1.000 0.475
v -0.400 1.000 0.500
v -0.500 1.000 0.500
v -0.400 1.000 0.425
v -0.400 1.000 0.400
v -0.500 1.000 0.400
v -0.400 1.000 0.500
v -0.400 0.000 0.500
v -0.500 0.000 0.500
v -0.500 1.000 0.500
v 0.500 1.000 -0.400
v 0.500 0.000 -0.400
v 0.475 0.000 -0.400
v 0.475 1.000 -0.400
v 0.500 1.000 -0.400
v 0.500 1.000 -0.500
v 0.500 0.000 -0.500
v 0.500 0.000 -0.400
v 0.400 1.000 -0.500
v 0.400 0.000 -0.500
v 0.500 0.000 -0.500
v 0.500 1.000 -0.500
v -0.400 1.000 0.500
v -0.400 1.000 0.475
v -0.400 0.000 0.475
v -0.400 0.000 0.500
v -0.500 0.000 0.500
v -0.500 0.000 0.400
v -0.500 1.000 0.400
v -0.500 1.000 0.500
v 0.475 0.000 -0.400
v 0.500 0.000 -0.400
v 0.500 0.000 -0.500
v 0.400 0.000 -0.500
v 0.425 0.000 -0.400
v 0.400 0.000 -0.400
v 0.425 1.000 -0.400
v 0.425 0.000 -0.400
v 0.400 0.000 -0.400
v 0.400 1.000 -0.400
v -0.400 1.000 0.425
v -0.400 1.000 0.400
v -0.400 0.000 0.400
v -0.400 0.000 0.425
v 0.400 0.000 -0.400
v 0.400 0.000 -0.500
v 0.400 1.000 -0.500
v 0.400 1.000 -0.400
v 0.475 1.000 0.000
v 0.425 1.000 -0.050
v 0.000 1.000 0.475
v -0.050 1.000 0.425
v 0.000 1.000 0.475
v 0.000 0.000 0.475
v -0.400 0.000 0.475
v -0.400 1.000 0.475
v -0.400 1.000 0.425
v -0.400 0.000 0.425
v -0.050 0.000 0.425
v -0.050 1.000 0.425
v 0.475 1.000 0.000
v 0.475 1.000 -0.400
v 0.475 0.000 -0.400
v 0.475 0.000 0.000
v 0.425 0.000 -0.050
v 0.425 0.000 -0.400
v 0.425 1.000 -0.400
v 0.425 1.000 -0.050
v -0.050 0.000 0.425
v 0.000 0.000 0.475
v 0.425 0.000 -0.050
v 0.475 0.000 0.000
v -0.050 0.000 0.425
v 0.425 0.000 -0.050
v 0.425 1.000 -0.050
v -0.050 1.000 0.425
v 0.000 1.000 0.475
v 0.475 1.000 0.000
v 0.475 0.000 0.000
v 0.000 0.000 0.475

vt -0.500 0.500
vt -0.500 0.400
vt -0.475 0.400
vt -0.425 0.400
vt -0.400 0.400
vt -0.400 0.500
vt -0.500 -0.400
vt -0.500 -0.500
vt -0.400 -0.500
vt -0.400 -0.475
vt -0.400 -0.425
vt -0.400 -0.400
vt -0.500 1.000
vt -0.500 0.000
vt -0.400 0.000
vt -0.400 1.000
vt 0.475 0.400
vt 0.500 0.400
vt 0.500 0.500
vt 0.425 0.400
vt 0.400 0.400
vt 0.400 0.500
vt 0.400 1.000
vt 0.400 0.000
vt 0.500 0.000
vt 0.500 1.000
vt -0.500 1.000
vt -0.500 0.000
vt -0.475 0.000
vt -0.475 1.000
vt -0.400 1.000
vt -0.500 1.000
vt -0.500 0.000
vt -0.400 0.000
vt 0.400 1.000
vt 0.400 0.000
vt 0.500 0.000
vt 0.500 1.000
vt 0.500 1.000
vt 0.475 1.000
vt 0.475 0.000
vt 0.500 0.000
vt -0.500 0.000
vt -0.400 0.000
vt -0.400 1.000
vt -0.500 1.000
vt 0.400 -0.475
vt 0.400 -0.500
vt 0.500 -0.500
vt 0.500 -0.400
vt 0.400 -0.425
vt 0.400 -0.400
vt -0.425 1.000
vt -0.425 0.000
vt -0.400 0.000
vt -0.400 1.000
vt 0.425 1.000
vt 0.400 1.000
vt 0.400 0.000
vt 0.425 0.000
vt 0.400 0.000
vt 0.500 0.000
vt 0.500 1.000
vt 0.400 1.000
vt 0.000 -0.475
vt -0.050 -0.425
vt 0.475 0.000
vt 0.425 0.050
vt 0.000 1.000
vt 0.000 0.000
vt 0.400 0.000
vt 0.400 1.000
vt -0.400 1.000
vt -0.400 0.000
vt -0.050 0.000
vt -0.050 1.000
vt 0.000 1.000
vt -0.400 1.000
vt -0.400 0.000
vt 0.000 0.000
vt 0.050 0.000
vt 0.400 0.000
vt 0.400 1.000
vt 0.050 1.000
vt -0.425 0.050
vt -0.475 0.000
vt 0.050 -0.425
vt 0.000 -0.475
vt -0.336 0.000
vt 0.336 0.000
vt 0.336 1.000
vt -0.336 1.000
vt 0.336 1.000
vt -0.336 1.000
vt -0.336 0.000
vt 0.336 0.000

vn 0.000 -1.000 0.000
vn 0.000 -1.000 0.000
vn 0.000 -1.000 0.000
vn 0.000 -1.000 0.000
vn 0.000 -1.000 0.000
vn 0.000 -1.000 0.000
vn 0.000 1.000 0.000
vn 0.000 1.000 0.000
vn 0.000 1.000 0.000
vn 0.000 1.000 0.000
vn 0.000 1.000 0.000
vn 0.000 1.000 0.000
vn 0.000 0.000 -1.000
vn 0.000 0.000 -1.000
vn 0.000 0.000 -1.000
vn 0.000 0.000 -1.000
vn 0.000 1.000 0.000
vn 0.000 1.000 0.000
vn 0.000 1.000 0.000
vn 0.000 1.000 0.000
vn 0.000 1.000 0.000
vn 0.000 1.000 0.000
vn 0.000 0.000 1.000
vn 0.000 0.000 1.000
vn 0.000 0.000 1.000
vn 0.000 0.000 1.000
vn 0.000 0.000 1.000
vn 0.000 0.000 1.000
vn 0.000 0.000 1.000
vn 0.000 0.000 1.000
vn 1.000 0.000 0.000
vn 1.000 0.000 0.000
vn 1.000 0.000 0.000
vn 1.000 0.000 0.000
vn 0.000 0.000 -1.000
vn 0.000 0.000 -1.000
vn 0.000 0.000 -1.000
vn 0.000 0.000 -1.000
vn 1.000 0.000 0.000
vn 1.000 0.000 0.000
vn 1.000 0.000 0.000
vn 1.000 0.000 0.000
vn -1.000 0.000 0.000
vn -1.000 0.000 0.000
vn -1.000 0.000 0.000
vn -1.000 0.000 0.000
vn 0.000 -1.000 0.000
vn 0.000 -1.000 0.000
vn 0.000 -1.000 0.000
vn 0.000 -1.000 0.000
vn 0.000 -1.000 0.000
vn 0.000 -1.000 0.000
vn 0.000 0.000 1.000
vn 0.000 0.000 1.000
vn 0.000 0.000 1.000
vn 0.000 0.000 1.000
vn 1.000 0.000 0.000
vn 1.000 0.000 0.000
vn 1.000 0.000 0.000
vn 1.000 0.000 0.000
vn -1.000 0.000 0.000
vn -1.000 0.000 0.000
vn -1.000 0.000 0.000
vn -1.000 0.000 0.000
vn 0.000 1.000 0.000
vn 0.000 1.000 0.000
vn 0.000 1.000 0.000
vn 0.000 1.000 0.000
vn 0.000 0.000 1.000
vn 0.000 0.000 1.000
vn 0.000 0.000 1.000
vn 0.000 0.000 1.000
vn 0.000 0.000 -1.000
vn 0.000 0.000 -1.000
vn 0.000 0.000 -1.000
vn 0.000 0.000 -1.000
vn 1.000 0.000 0.000
vn 1.000 0.000 0.000
vn 1.000 0.000 0.000
vn 1.000 0.000 0.000
vn -1.000 0.000 0.000
vn -1.000 0.000 0.000
vn -1.000 0.000 0.000
vn -1.000 0.000 0.000
vn 0.000 -1.000 0.000
vn 0.000 -1.000 0.000
vn 0.000 -1.000 0.000
vn 0.000 -1.000 0.000
vn -0.707 0.000 -0.707
vn -0.707 0.000 -0.707
vn -0.707 0.000 -0.707
vn -0.707 0.000 -0.707
vn 0.707 0.000 0.707
vn 0.707 0.000 0.707
vn 0.707 0.000 0.707
vn 0.707 0.000 0.707


usemtl wood

f 1/1/1 3/3/3 2/2/2
f 3/3/3 1/1/1 4/4/4
f 4/4/4 1/1/1 5/5/5
f 5/5/5 1/1/1 6/6/6
f 7/7/7 9/9/9 8/8/8
f 9/9/9 7/7/7 10/10/10
f 10/10/10 7/7/7 11/11/11
f 11/11/11 7/7/7 12/12/12
f 13/13/13 15/15/15 14/14/14
f 15/15/15 13/13/13 16/16/16
f 17/17/17 19/19/19 18/18/18
f 19/19/19 17/17/17 20/20/20
f 19/19/19 20/20/20 21/21/21
f 19/19/19 21/21/21 22/22/22
f 23/23/23 25/25/25 24/24/24
f 25/25/25 23/23/23 26/26/26
f 27/27/27 29/29/29 28/28/28
f 29/29/29 27/27/27 30/30/30
f 31/31/31 33/33/33 32/32/32
f 33/33/33 31/31/31 34/34/34
f 35/35/35 37/37/37 36/36/36
f 37/37/37 35/35/35 38/38/38
f 39/39/39 41/41/41 40/40/40
f 41/41/41 39/39/39 42/42/42
f 43/43/43 45/45/45 44/44/44
f 45/45/45 43/43/43 46/46/46
f 47/47/47 49/49/49 48/48/48
f 49/49/49 47/47/47 50/50/50
f 50/50/50 47/47/47 51/51/51
f 50/50/50 51/51/51 52/52/52
f 53/53/53 55/55/55 54/54/54
f 55/55/55 53/53/53 56/56/56
f 57/57/57 59/59/59 58/58/58
f 59/59/59 57/57/57 60/60/60
f 61/61/61 63/63/63 62/62/62
f 63/63/63 61/61/61 64/64/64

usemtl stone

f 11/11/11 65/65/65 10/10/10
f 65/65/65 11/11/11 66/66/66
f 65/65/65 66/66/66 67/67/67
f 67/67/67 66/66/66 68/68/68
f 67/67/67 68/68/68 17/17/17
f 17/17/17 68/68/68 20/20/20
f 69/69/69 71/71/71 70/70/70
f 71/71/71 69/69/69 72/72/72
f 73/73/73 75/75/75 74/74/74
f 75/75/75 73/73/73 76/76/76
f 77/77/77 79/79/79 78/78/78
f 79/79/79 77/77/77 80/80/80
f 81/81/81 83/83/83 82/82/82
f 83/83/83 81/81/81 84/84/84
f 85/85/85 3/3/3 4/4/4
f 85/85/85 86/86/86 3/3/3
f 87/87/87 86/86/86 85/85/85
f 87/87/87 88/88/88 86/86/86
f 88/88/88 87/87/87 47/47/47
f 51/51/51 47/47/47 87/87/87
f 89/89/89 91/91/91 90/90/90
f 91/91/91 89/89/89 92/92/92
f 93/93/93 95/95/95 94/94/94
f 95/95/95 93/93/93 96/96/96
