# Created by Kenney (www.kenney.nl) - UVs and materials modified

mtllib fantasytown.mtl


g wallCornerEdge

v -0.500 1.000 0.400
v -0.500 0.000 0.400
v -0.400 0.000 0.400
v -0.400 1.000 0.400
v -0.400 1.000 0.500
v -0.400 1.000 0.475
v -0.400 0.000 0.475
v -0.400 0.000 0.500
v -0.500 0.000 0.500
v -0.400 0.000 0.500
v -0.400 0.000 0.475
v -0.400 0.000 0.425
v -0.400 0.000 0.400
v -0.500 0.000 0.400
v -0.400 1.000 0.500
v -0.400 0.000 0.500
v -0.500 0.000 0.500
v -0.500 1.000 0.500
v -0.400 1.000 0.475
v -0.400 1.000 0.500
v -0.500 1.000 0.500
v -0.400 1.000 0.425
v -0.400 1.000 0.400
v -0.500 1.000 0.400
v -0.500 0.000 0.500
v -0.500 0.000 0.400
v -0.500 1.000 0.400
v -0.500 1.000 0.500
v 0.500 1.000 -0.400
v 0.500 1.000 -0.500
v 0.500 0.000 -0.500
v 0.500 0.000 -0.400
v 0.400 1.000 -0.500
v 0.400 0.000 -0.500
v 0.500 0.000 -0.500
v 0.500 1.000 -0.500
v -0.400 1.000 0.425
v -0.400 1.000 0.400
v -0.400 0.000 0.400
v -0.400 0.000 0.425
v 0.400 1.000 -0.500
v 0.500 1.000 -0.500
v 0.500 1.000 -0.400
v 0.475 1.000 -0.400
v 0.425 1.000 -0.400
v 0.400 1.000 -0.400
v 0.425 1.000 -0.400
v 0.425 0.000 -0.400
v 0.400 0.000 -0.400
v 0.400 1.000 -0.400
v 0.400 0.000 -0.400
v 0.400 0.000 -0.500
v 0.400 1.000 -0.500
v 0.400 1.000 -0.400
v 0.475 0.000 -0.400
v 0.500 0.000 -0.400
v 0.500 0.000 -0.500
v 0.400 0.000 -0.500
v 0.425 0.000 -0.400
v 0.400 0.000 -0.400
v 0.500 1.000 -0.400
v 0.500 0.000 -0.400
v 0.475 0.000 -0.400
v 0.475 1.000 -0.400
v 0.219 1.000 0.219
v 0.183 1.000 0.183
v -0.400 1.000 0.425
v -0.400 0.000 0.425
v 0.183 0.000 0.183
v 0.183 1.000 0.183
v 0.183 0.000 0.183
v 0.425 0.000 -0.400
v 0.425 1.000 -0.400
v 0.183 1.000 0.183
v 0.219 1.000 0.219
v 0.475 1.000 -0.400
v 0.475 0.000 -0.400
v 0.219 0.000 0.219
v 0.219 1.000 0.219
v 0.219 0.000 0.219
v -0.400 0.000 0.475
v -0.400 1.000 0.475
v 0.219 0.000 0.219
v 0.183 0.000 0.183

vt -0.500 1.000
vt -0.500 0.000
vt -0.400 0.000
vt -0.400 1.000
vt 0.500 1.000
vt 0.475 1.000
vt 0.475 0.000
vt 0.500 0.000
vt -0.500 0.500
vt -0.500 0.400
vt -0.475 0.400
vt -0.425 0.400
vt -0.400 0.400
vt -0.400 0.500
vt 0.400 1.000
vt 0.400 0.000
vt 0.500 0.000
vt 0.500 1.000
vt 0.475 0.400
vt 0.500 0.400
vt 0.500 0.500
vt 0.425 0.400
vt 0.400 0.400
vt 0.400 0.500
vt -0.500 0.000
vt -0.400 0.000
vt -0.400 1.000
vt -0.500 1.000
vt -0.400 1.000
vt -0.500 1.000
vt -0.500 0.000
vt -0.400 0.000
vt 0.400 1.000
vt 0.400 0.000
vt 0.500 0.000
vt 0.500 1.000
vt 0.425 1.000
vt 0.400 1.000
vt 0.400 0.000
vt 0.425 0.000
vt -0.500 -0.400
vt -0.500 -0.500
vt -0.400 -0.500
vt -0.400 -0.475
vt -0.400 -0.425
vt -0.400 -0.400
vt -0.425 1.000
vt -0.425 0.000
vt -0.400 0.000
vt -0.400 1.000
vt 0.400 0.000
vt 0.500 0.000
vt 0.500 1.000
vt 0.400 1.000
vt 0.400 -0.475
vt 0.400 -0.500
vt 0.500 -0.500
vt 0.500 -0.400
vt 0.400 -0.425
vt 0.400 -0.400
vt -0.500 1.000
vt -0.500 0.000
vt -0.475 0.000
vt -0.475 1.000
vt 0.219 -0.219
vt 0.183 -0.183
vt -0.532 1.000
vt -0.532 0.000
vt 0.099 0.000
vt 0.099 1.000
vt -0.099 0.000
vt 0.532 0.000
vt 0.532 1.000
vt -0.099 1.000
vt 0.118 1.000
vt -0.551 1.000
vt -0.551 0.000
vt 0.118 0.000
vt -0.118 1.000
vt -0.118 0.000
vt 0.551 0.000
vt 0.551 1.000
vt -0.219 -0.219
vt -0.183 -0.183

vn 0.000 0.000 -1.000
vn 0.000 0.000 -1.000
vn 0.000 0.000 -1.000
vn 0.000 0.000 -1.000
vn 1.000 0.000 0.000
vn 1.000 0.000 0.000
vn 1.000 0.000 0.000
vn 1.000 0.000 0.000
vn 0.000 -1.000 0.000
vn 0.000 -1.000 0.000
vn 0.000 -1.000 0.000
vn 0.000 -1.000 0.000
vn 0.000 -1.000 0.000
vn 0.000 -1.000 0.000
vn 0.000 0.000 1.000
vn 0.000 0.000 1.000
vn 0.000 0.000 1.000
vn 0.000 0.000 1.000
vn 0.000 1.000 0.000
vn 0.000 1.000 0.000
vn 0.000 1.000 0.000
vn 0.000 1.000 0.000
vn 0.000 1.000 0.000
vn 0.000 1.000 0.000
vn -1.000 0.000 0.000
vn -1.000 0.000 0.000
vn -1.000 0.000 0.000
vn -1.000 0.000 0.000
vn 1.000 0.000 0.000
vn 1.000 0.000 0.000
vn 1.000 0.000 0.000
vn 1.000 0.000 0.000
vn 0.000 0.000 -1.000
vn 0.000 0.000 -1.000
vn 0.000 0.000 -1.000
vn 0.000 0.000 -1.000
vn 1.000 0.000 0.000
vn 1.000 0.000 0.000
vn 1.000 0.000 0.000
vn 1.000 0.000 0.000
vn 0.000 1.000 0.000
vn 0.000 1.000 0.000
vn 0.000 1.000 0.000
vn 0.000 1.000 0.000
vn 0.000 1.000 0.000
vn 0.000 1.000 0.000
vn 0.000 0.000 1.000
vn 0.000 0.000 1.000
vn 0.000 0.000 1.000
vn 0.000 0.000 1.000
vn -1.000 0.000 0.000
vn -1.000 0.000 0.000
vn -1.000 0.000 0.000
vn -1.000 0.000 0.000
vn 0.000 -1.000 0.000
vn 0.000 -1.000 0.000
vn 0.000 -1.000 0.000
vn 0.000 -1.000 0.000
vn 0.000 -1.000 0.000
vn 0.000 -1.000 0.000
vn 0.000 0.000 1.000
vn 0.000 0.000 1.000
vn 0.000 0.000 1.000
vn 0.000 0.000 1.000
vn 0.000 1.000 0.000
vn 0.000 1.000 0.000
vn -0.383 0.000 -0.924
vn -0.383 0.000 -0.924
vn -0.383 0.000 -0.924
vn -0.383 0.000 -0.924
vn -0.924 0.000 -0.383
vn -0.924 0.000 -0.383
vn -0.924 0.000 -0.383
vn -0.924 0.000 -0.383
vn 0.924 0.000 0.383
vn 0.924 0.000 0.383
vn 0.924 0.000 0.383
vn 0.924 0.000 0.383
vn 0.383 0.000 0.924
vn 0.383 0.000 0.924
vn 0.383 0.000 0.924
vn 0.383 0.000 0.924
vn 0.000 -1.000 0.000
vn 0.000 -1.000 0.000


usemtl wood

f 1/1/1 3/3/3 2/2/2
f 3/3/3 1/1/1 4/4/4
f 5/5/5 7/7/7 6/6/6
f 7/7/7 5/5/5 8/8/8
f 9/9/9 11/11/11 10/10/10
f 11/11/11 9/9/9 12/12/12
f 12/12/12 9/9/9 13/13/13
f 13/13/13 9/9/9 14/14/14
f 15/15/15 17/17/17 16/16/16
f 17/17/17 15/15/15 18/18/18
f 19/19/19 21/21/21 20/20/20
f 21/21/21 19/19/19 22/22/22
f 21/21/21 22/22/22 23/23/23
f 21/21/21 23/23/23 24/24/24
f 25/25/25 27/27/27 26/26/26
f 27/27/27 25/25/25 28/28/28
f 29/29/29 31/31/31 30/30/30
f 31/31/31 29/29/29 32/32/32
f 33/33/33 35/35/35 34/34/34
f 35/35/35 33/33/33 36/36/36
f 37/37/37 39/39/39 38/38/38
f 39/39/39 37/37/37 40/40/40
f 41/41/41 43/43/43 42/42/42
f 43/43/43 41/41/41 44/44/44
f 44/44/44 41/41/41 45/45/45
f 45/45/45 41/41/41 46/46/46
f 47/47/47 49/49/49 48/48/48
f 49/49/49 47/47/47 50/50/50
f 51/51/51 53/53/53 52/52/52
f 53/53/53 51/51/51 54/54/54
f 55/55/55 57/57/57 56/56/56
f 57/57/57 55/55/55 58/58/58
f 58/58/58 55/55/55 59/59/59
f 58/58/58 59/59/59 60/60/60
f 61/61/61 63/63/63 62/62/62
f 63/63/63 61/61/61 64/64/64

usemtl stone

f 45/45/45 65/65/65 44/44/44
f 65/65/65 45/45/45 66/66/66
f 65/65/65 66/66/66 19/19/19
f 19/19/19 66/66/66 22/22/22
f 67/67/67 69/69/69 68/68/68
f 69/69/69 67/67/67 70/70/70
f 71/71/71 73/73/73 72/72/72
f 73/73/73 71/71/71 74/74/74
f 75/75/75 77/77/77 76/76/76
f 77/77/77 75/75/75 78/78/78
f 79/79/79 81/81/81 80/80/80
f 81/81/81 79/79/79 82/82/82
f 83/83/83 59/59/59 55/55/55
f 59/59/59 83/83/83 84/84/84
f 84/84/84 83/83/83 11/11/11
f 84/84/84 11/11/11 12/12/12
