# Created by Kenney (www.kenney.nl) - UVs and materials modified

mtllib fantasytown.mtl


g wallDoorwaySquare

v 0.425 0.000 0.400
v 0.425 0.000 0.300
v 0.425 0.850 0.300
v 0.425 1.000 0.400
v 0.425 0.850 -0.300
v 0.425 1.000 -0.400
v 0.425 0.000 -0.300
v 0.425 0.000 -0.400
v 0.425 0.000 -0.300
v 0.475 0.000 -0.300
v 0.475 0.000 -0.400
v 0.425 0.000 -0.400
v 0.475 0.000 0.300
v 0.475 0.000 0.400
v 0.475 1.000 0.400
v 0.475 0.850 0.300
v 0.475 0.850 -0.300
v 0.475 1.000 -0.400
v 0.475 0.000 -0.400
v 0.475 0.000 -0.300
v 0.425 1.000 -0.400
v 0.475 1.000 -0.400
v 0.475 1.000 0.400
v 0.425 1.000 0.400
v 0.425 0.000 0.400
v 0.475 0.000 0.400
v 0.475 0.000 0.300
v 0.425 0.000 0.300
v 0.500 0.750 -0.200
v 0.500 0.000 -0.200
v 0.400 0.000 -0.200
v 0.400 0.750 -0.200
v 0.500 1.000 0.400
v 0.500 1.000 0.500
v 0.400 1.000 0.500
v 0.400 1.000 0.400
v 0.400 0.000 -0.400
v 0.400 0.000 -0.500
v 0.400 1.000 -0.500
v 0.400 1.000 -0.400
v 0.475 0.850 -0.300
v 0.500 0.850 -0.300
v 0.500 0.850 0.300
v 0.475 0.850 0.300
v 0.500 0.000 -0.200
v 0.500 0.000 -0.300
v 0.400 0.000 -0.200
v 0.400 0.000 -0.300
v 0.500 1.000 0.500
v 0.500 1.000 0.400
v 0.500 0.000 0.400
v 0.500 0.000 0.500
v 0.400 0.000 0.300
v 0.400 0.000 0.200
v 0.400 0.750 0.200
v 0.400 0.850 0.300
v 0.400 0.750 -0.200
v 0.400 0.850 -0.300
v 0.400 0.000 -0.200
v 0.400 0.000 -0.300
v 0.500 1.000 -0.400
v 0.500 0.000 -0.400
v 0.475 0.000 -0.400
v 0.475 1.000 -0.400
v 0.475 1.000 0.400
v 0.475 0.000 0.400
v 0.500 0.000 0.400
v 0.500 1.000 0.400
v 0.425 0.850 0.300
v 0.425 0.000 0.300
v 0.400 0.000 0.300
v 0.400 0.850 0.300
v 0.400 0.000 0.500
v 0.500 0.000 0.500
v 0.500 0.000 0.400
v 0.400 0.000 0.400
v 0.400 0.850 -0.300
v 0.400 0.000 -0.300
v 0.425 0.000 -0.300
v 0.425 0.850 -0.300
v 0.400 1.000 0.400
v 0.400 0.000 0.400
v 0.425 0.000 0.400
v 0.425 1.000 0.400
v 0.400 0.000 0.200
v 0.500 0.000 0.200
v 0.500 0.750 0.200
v 0.400 0.750 0.200
v 0.400 0.850 -0.300
v 0.425 0.850 -0.300
v 0.425 0.850 0.300
v 0.400 0.850 0.300
v 0.500 0.000 -0.400
v 0.500 0.000 -0.500
v 0.400 0.000 -0.500
v 0.400 0.000 -0.400
v 0.500 0.000 0.300
v 0.500 0.000 0.200
v 0.400 0.000 0.200
v 0.400 0.000 0.300
v 0.500 1.000 0.500
v 0.500 0.000 0.500
v 0.400 0.000 0.500
v 0.400 1.000 0.500
v 0.400 0.000 0.500
v 0.400 0.000 0.400
v 0.400 1.000 0.400
v 0.400 1.000 0.500
v 0.400 0.750 0.200
v 0.500 0.750 0.200
v 0.500 0.750 -0.200
v 0.400 0.750 -0.200
v 0.400 1.000 -0.500
v 0.500 1.000 -0.500
v 0.500 1.000 -0.400
v 0.400 1.000 -0.400
v 0.500 0.000 0.200
v 0.500 0.000 0.300
v 0.500 0.850 0.300
v 0.500 0.750 0.200
v 0.500 0.750 -0.200
v 0.500 0.850 -0.300
v 0.500 0.000 -0.300
v 0.500 0.000 -0.200
v 0.475 0.000 -0.300
v 0.500 0.000 -0.300
v 0.500 0.850 -0.300
v 0.475 0.850 -0.300
v 0.500 1.000 -0.400
v 0.500 1.000 -0.500
v 0.500 0.000 -0.500
v 0.500 0.000 -0.400
v 0.500 0.850 0.300
v 0.500 0.000 0.300
v 0.475 0.000 0.300
v 0.475 0.850 0.300
v 0.425 1.000 -0.400
v 0.425 0.000 -0.400
v 0.400 0.000 -0.400
v 0.400 1.000 -0.400
v 0.400 1.000 -0.500
v 0.400 0.000 -0.500
v 0.500 0.000 -0.500
v 0.500 1.000 -0.500

vt -0.400 0.000
vt -0.300 0.000
vt -0.300 0.850
vt -0.400 1.000
vt 0.300 0.850
vt 0.400 1.000
vt 0.300 0.000
vt 0.400 0.000
vt 0.300 -0.425
vt 0.300 -0.475
vt 0.400 -0.475
vt 0.400 -0.425
vt 0.300 0.000
vt 0.400 0.000
vt 0.400 1.000
vt 0.300 0.850
vt -0.300 0.850
vt -0.400 1.000
vt -0.400 0.000
vt -0.300 0.000
vt -0.400 -0.425
vt -0.400 -0.475
vt 0.400 -0.475
vt 0.400 -0.425
vt -0.400 -0.425
vt -0.400 -0.475
vt -0.300 -0.475
vt -0.300 -0.425
vt -0.500 0.750
vt -0.500 0.000
vt -0.400 0.000
vt -0.400 0.750
vt 0.400 -0.500
vt 0.500 -0.500
vt 0.500 -0.400
vt 0.400 -0.400
vt 0.400 0.000
vt 0.500 0.000
vt 0.500 1.000
vt 0.400 1.000
vt -0.300 -0.475
vt -0.300 -0.500
vt 0.300 -0.500
vt 0.300 -0.475
vt 0.200 -0.500
vt 0.300 -0.500
vt 0.200 -0.400
vt 0.300 -0.400
vt 0.500 1.000
vt 0.400 1.000
vt 0.400 0.000
vt 0.500 0.000
vt -0.300 0.000
vt -0.200 0.000
vt -0.200 0.750
vt -0.300 0.850
vt 0.200 0.750
vt 0.300 0.850
vt 0.200 0.000
vt 0.300 0.000
vt -0.500 1.000
vt -0.500 0.000
vt -0.475 0.000
vt -0.475 1.000
vt 0.475 1.000
vt 0.475 0.000
vt 0.500 0.000
vt 0.500 1.000
vt -0.425 0.850
vt -0.425 0.000
vt -0.400 0.000
vt -0.400 0.850
vt -0.500 -0.400
vt -0.500 -0.500
vt -0.400 -0.500
vt -0.400 -0.400
vt 0.400 0.850
vt 0.400 0.000
vt 0.425 0.000
vt 0.425 0.850
vt 0.400 1.000
vt 0.400 0.000
vt 0.425 0.000
vt 0.425 1.000
vt 0.400 0.000
vt 0.500 0.000
vt 0.500 0.750
vt 0.400 0.750
vt -0.300 -0.400
vt -0.300 -0.425
vt 0.300 -0.425
vt 0.300 -0.400
vt 0.400 -0.500
vt 0.500 -0.500
vt 0.500 -0.400
vt 0.400 -0.400
vt -0.300 -0.500
vt -0.200 -0.500
vt -0.200 -0.400
vt -0.300 -0.400
vt -0.500 1.000
vt -0.500 0.000
vt -0.400 0.000
vt -0.400 1.000
vt -0.500 0.000
vt -0.400 0.000
vt -0.400 1.000
vt -0.500 1.000
vt -0.200 -0.400
vt -0.200 -0.500
vt 0.200 -0.500
vt 0.200 -0.400
vt -0.500 -0.400
vt -0.500 -0.500
vt -0.400 -0.500
vt -0.400 -0.400
vt 0.200 0.000
vt 0.300 0.000
vt 0.300 0.850
vt 0.200 0.750
vt -0.200 0.750
vt -0.300 0.850
vt -0.300 0.000
vt -0.200 0.000
vt 0.475 0.000
vt 0.500 0.000
vt 0.500 0.850
vt 0.475 0.850
vt -0.400 1.000
vt -0.500 1.000
vt -0.500 0.000
vt -0.400 0.000
vt -0.500 0.850
vt -0.500 0.000
vt -0.475 0.000
vt -0.475 0.850
vt -0.425 1.000
vt -0.425 0.000
vt -0.400 0.000
vt -0.400 1.000
vt 0.400 1.000
vt 0.400 0.000
vt 0.500 0.000
vt 0.500 1.000

vn -1.000 0.000 0.000
vn -1.000 0.000 0.000
vn -1.000 0.000 0.000
vn -1.000 0.000 0.000
vn -1.000 0.000 0.000
vn -1.000 0.000 0.000
vn -1.000 0.000 0.000
vn -1.000 0.000 0.000
vn 0.000 -1.000 0.000
vn 0.000 -1.000 0.000
vn 0.000 -1.000 0.000
vn 0.000 -1.000 0.000
vn 1.000 0.000 0.000
vn 1.000 0.000 0.000
vn 1.000 0.000 0.000
vn 1.000 0.000 0.000
vn 1.000 0.000 0.000
vn 1.000 0.000 0.000
vn 1.000 0.000 0.000
vn 1.000 0.000 0.000
vn 0.000 1.000 0.000
vn 0.000 1.000 0.000
vn 0.000 1.000 0.000
vn 0.000 1.000 0.000
vn 0.000 -1.000 0.000
vn 0.000 -1.000 0.000
vn 0.000 -1.000 0.000
vn 0.000 -1.000 0.000
vn 0.000 0.000 1.000
vn 0.000 0.000 1.000
vn 0.000 0.000 1.000
vn 0.000 0.000 1.000
vn 0.000 1.000 0.000
vn 0.000 1.000 0.000
vn 0.000 1.000 0.000
vn 0.000 1.000 0.000
vn -1.000 0.000 0.000
vn -1.000 0.000 0.000
vn -1.000 0.000 0.000
vn -1.000 0.000 0.000
vn 0.000 1.000 0.000
vn 0.000 1.000 0.000
vn 0.000 1.000 0.000
vn 0.000 1.000 0.000
vn 0.000 -1.000 0.000
vn 0.000 -1.000 0.000
vn 0.000 -1.000 0.000
vn 0.000 -1.000 0.000
vn 1.000 0.000 0.000
vn 1.000 0.000 0.000
vn 1.000 0.000 0.000
vn 1.000 0.000 0.000
vn -1.000 0.000 0.000
vn -1.000 0.000 0.000
vn -1.000 0.000 0.000
vn -1.000 0.000 0.000
vn -1.000 0.000 0.000
vn -1.000 0.000 0.000
vn -1.000 0.000 0.000
vn -1.000 0.000 0.000
vn 0.000 0.000 1.000
vn 0.000 0.000 1.000
vn 0.000 0.000 1.000
vn 0.000 0.000 1.000
vn 0.000 0.000 -1.000
vn 0.000 0.000 -1.000
vn 0.000 0.000 -1.000
vn 0.000 0.000 -1.000
vn 0.000 0.000 1.000
vn 0.000 0.000 1.000
vn 0.000 0.000 1.000
vn 0.000 0.000 1.000
vn 0.000 -1.000 0.000
vn 0.000 -1.000 0.000
vn 0.000 -1.000 0.000
vn 0.000 -1.000 0.000
vn 0.000 0.000 -1.000
vn 0.000 0.000 -1.000
vn 0.000 0.000 -1.000
vn 0.000 0.000 -1.000
vn 0.000 0.000 -1.000
vn 0.000 0.000 -1.000
vn 0.000 0.000 -1.000
vn 0.000 0.000 -1.000
vn 0.000 0.000 -1.000
vn 0.000 0.000 -1.000
vn 0.000 0.000 -1.000
vn 0.000 0.000 -1.000
vn 0.000 1.000 0.000
vn 0.000 1.000 0.000
vn 0.000 1.000 0.000
vn 0.000 1.000 0.000
vn 0.000 -1.000 0.000
vn 0.000 -1.000 0.000
vn 0.000 -1.000 0.000
vn 0.000 -1.000 0.000
vn 0.000 -1.000 0.000
vn 0.000 -1.000 0.000
vn 0.000 -1.000 0.000
vn 0.000 -1.000 0.000
vn 0.000 0.000 1.000
vn 0.000 0.000 1.000
vn 0.000 0.000 1.000
vn 0.000 0.000 1.000
vn -1.000 0.000 0.000
vn -1.000 0.000 0.000
vn -1.000 0.000 0.000
vn -1.000 0.000 0.000
vn 0.000 -1.000 0.000
vn 0.000 -1.000 0.000
vn 0.000 -1.000 0.000
vn 0.000 -1.000 0.000
vn 0.000 1.000 0.000
vn 0.000 1.000 0.000
vn 0.000 1.000 0.000
vn 0.000 1.000 0.000
vn 1.000 0.000 0.000
vn 1.000 0.000 0.000
vn 1.000 0.000 0.000
vn 1.000 0.000 0.000
vn 1.000 0.000 0.000
vn 1.000 0.000 0.000
vn 1.000 0.000 0.000
vn 1.000 0.000 0.000
vn 0.000 0.000 -1.000
vn 0.000 0.000 -1.000
vn 0.000 0.000 -1.000
vn 0.000 0.000 -1.000
vn 1.000 0.000 0.000
vn 1.000 0.000 0.000
vn 1.000 0.000 0.000
vn 1.000 0.000 0.000
vn 0.000 0.000 1.000
vn 0.000 0.000 1.000
vn 0.000 0.000 1.000
vn 0.000 0.000 1.000
vn 0.000 0.000 1.000
vn 0.000 0.000 1.000
vn 0.000 0.000 1.000
vn 0.000 0.000 1.000
vn 0.000 0.000 -1.000
vn 0.000 0.000 -1.000
vn 0.000 0.000 -1.000
vn 0.000 0.000 -1.000


usemtl stone

f 1/1/1 3/3/3 2/2/2
f 4/4/4 3/3/3 1/1/1
f 4/4/4 5/5/5 3/3/3
f 6/6/6 5/5/5 4/4/4
f 6/6/6 7/7/7 5/5/5
f 7/7/7 6/6/6 8/8/8
f 9/9/9 11/11/11 10/10/10
f 11/11/11 9/9/9 12/12/12
f 13/13/13 15/15/15 14/14/14
f 16/16/16 15/15/15 13/13/13
f 17/17/17 15/15/15 16/16/16
f 17/17/17 18/18/18 15/15/15
f 18/18/18 17/17/17 19/19/19
f 20/20/20 19/19/19 17/17/17
f 21/21/21 23/23/23 22/22/22
f 23/23/23 21/21/21 24/24/24
f 25/25/25 27/27/27 26/26/26
f 27/27/27 25/25/25 28/28/28

usemtl wood

f 29/29/29 31/31/31 30/30/30
f 31/31/31 29/29/29 32/32/32
f 23/23/23 34/34/34 33/33/33
f 34/34/34 23/23/23 35/35/35
f 35/35/35 23/23/23 24/24/24
f 35/35/35 24/24/24 36/36/36
f 37/37/37 39/39/39 38/38/38
f 39/39/39 37/37/37 40/40/40
f 41/41/41 43/43/43 42/42/42
f 43/43/43 41/41/41 44/44/44
f 45/45/45 10/10/10 46/46/46
f 10/10/10 45/45/45 47/47/47
f 10/10/10 47/47/47 9/9/9
f 9/9/9 47/47/47 48/48/48
f 49/49/49 51/51/51 50/50/50
f 51/51/51 49/49/49 52/52/52
f 53/53/53 55/55/55 54/54/54
f 56/56/56 55/55/55 53/53/53
f 56/56/56 57/57/57 55/55/55
f 58/58/58 57/57/57 56/56/56
f 58/58/58 59/59/59 57/57/57
f 59/59/59 58/58/58 60/60/60
f 61/61/61 63/63/63 62/62/62
f 63/63/63 61/61/61 64/64/64
f 65/65/65 67/67/67 66/66/66
f 67/67/67 65/65/65 68/68/68
f 69/69/69 71/71/71 70/70/70
f 71/71/71 69/69/69 72/72/72
f 73/73/73 75/75/75 74/74/74
f 75/75/75 73/73/73 26/26/26
f 26/26/26 73/73/73 25/25/25
f 25/25/25 73/73/73 76/76/76
f 77/77/77 79/79/79 78/78/78
f 79/79/79 77/77/77 80/80/80
f 81/81/81 83/83/83 82/82/82
f 83/83/83 81/81/81 84/84/84
f 85/85/85 87/87/87 86/86/86
f 87/87/87 85/85/85 88/88/88
f 89/89/89 91/91/91 90/90/90
f 91/91/91 89/89/89 92/92/92
f 11/11/11 94/94/94 93/93/93
f 94/94/94 11/11/11 95/95/95
f 95/95/95 11/11/11 12/12/12
f 95/95/95 12/12/12 96/96/96
f 27/27/27 98/98/98 97/97/97
f 98/98/98 27/27/27 99/99/99
f 99/99/99 27/27/27 28/28/28
f 99/99/99 28/28/28 100/100/100
f 101/101/101 103/103/103 102/102/102
f 103/103/103 101/101/101 104/104/104
f 105/105/105 107/107/107 106/106/106
f 107/107/107 105/105/105 108/108/108
f 109/109/109 111/111/111 110/110/110
f 111/111/111 109/109/109 112/112/112
f 113/113/113 115/115/115 114/114/114
f 115/115/115 113/113/113 22/22/22
f 22/22/22 113/113/113 21/21/21
f 21/21/21 113/113/113 116/116/116
f 117/117/117 119/119/119 118/118/118
f 120/120/120 119/119/119 117/117/117
f 121/121/121 119/119/119 120/120/120
f 121/121/121 122/122/122 119/119/119
f 122/122/122 121/121/121 123/123/123
f 124/124/124 123/123/123 121/121/121
f 125/125/125 127/127/127 126/126/126
f 127/127/127 125/125/125 128/128/128
f 129/129/129 131/131/131 130/130/130
f 131/131/131 129/129/129 132/132/132
f 133/133/133 135/135/135 134/134/134
f 135/135/135 133/133/133 136/136/136
f 137/137/137 139/139/139 138/138/138
f 139/139/139 137/137/137 140/140/140
f 141/141/141 143/143/143 142/142/142
f 143/143/143 141/141/141 144/144/144
