# Created by Kenney (www.kenney.nl) - UVs and materials modified

mtllib fantasytown.mtl


g wallWoodDetailDiagonal

v 0.488 0.928 0.400
v 0.488 1.000 0.400
v 0.488 1.000 0.336
v 0.488 0.100 -0.336
v 0.488 0.172 -0.400
v 0.488 0.000 -0.400
v 0.488 0.000 0.400
v 0.488 0.100 0.400
v 0.500 1.000 -0.400
v 0.500 1.000 -0.500
v 0.500 0.000 -0.500
v 0.500 0.000 -0.400
v 0.400 0.000 0.500
v 0.500 0.000 0.500
v 0.500 0.000 0.400
v 0.488 0.000 0.400
v 0.413 0.000 0.400
v 0.400 0.000 0.400
v 0.400 1.000 -0.500
v 0.400 0.000 -0.500
v 0.500 0.000 -0.500
v 0.500 1.000 -0.500
v 0.475 0.100 -0.336
v 0.488 0.100 -0.336
v 0.488 0.100 0.400
v 0.475 0.100 0.400
v 0.500 1.000 0.500
v 0.500 0.000 0.500
v 0.400 0.000 0.500
v 0.400 1.000 0.500
v 0.425 1.000 -0.400
v 0.425 0.172 -0.400
v 0.413 0.172 -0.400
v 0.400 1.000 -0.400
v 0.400 0.000 -0.400
v 0.413 0.000 -0.400
v 0.400 0.000 0.500
v 0.400 0.000 0.400
v 0.400 1.000 0.400
v 0.400 1.000 0.500
v 0.413 0.100 -0.336
v 0.425 0.100 -0.336
v 0.425 0.100 0.400
v 0.413 0.100 0.400
v 0.488 0.928 0.400
v 0.488 0.100 -0.336
v 0.475 0.100 -0.336
v 0.475 0.928 0.400
v 0.475 1.000 0.336
v 0.475 0.172 -0.400
v 0.488 0.172 -0.400
v 0.488 1.000 0.336
v 0.425 0.928 0.400
v 0.425 0.100 -0.336
v 0.413 0.100 -0.336
v 0.413 0.928 0.400
v 0.500 1.000 -0.400
v 0.500 0.000 -0.400
v 0.488 0.000 -0.400
v 0.488 0.172 -0.400
v 0.475 0.172 -0.400
v 0.475 1.000 -0.400
v 0.500 1.000 0.500
v 0.500 1.000 0.400
v 0.500 0.000 0.400
v 0.500 0.000 0.500
v 0.400 1.000 0.400
v 0.400 0.000 0.400
v 0.413 0.000 0.400
v 0.413 0.100 0.400
v 0.425 0.100 0.400
v 0.413 0.928 0.400
v 0.425 0.928 0.400
v 0.413 1.000 0.400
v 0.488 0.000 -0.400
v 0.500 0.000 -0.400
v 0.500 0.000 -0.500
v 0.400 0.000 -0.500
v 0.413 0.000 -0.400
v 0.400 0.000 -0.400
v 0.400 0.000 -0.400
v 0.400 0.000 -0.500
v 0.400 1.000 -0.500
v 0.400 1.000 -0.400
v 0.475 1.000 0.336
v 0.488 1.000 0.336
v 0.488 1.000 0.400
v 0.400 1.000 0.500
v 0.425 1.000 0.336
v 0.500 1.000 0.500
v 0.500 1.000 0.400
v 0.413 1.000 0.400
v 0.400 1.000 0.400
v 0.413 1.000 0.336
v 0.475 0.928 0.400
v 0.475 0.100 0.400
v 0.488 0.100 0.400
v 0.488 0.928 0.400
v 0.500 1.000 0.400
v 0.488 1.000 0.400
v 0.500 0.000 0.400
v 0.488 0.000 0.400
v 0.413 0.100 -0.336
v 0.413 0.100 0.400
v 0.413 0.000 0.400
v 0.413 0.000 -0.400
v 0.413 0.172 -0.400
v 0.413 1.000 0.336
v 0.413 0.928 0.400
v 0.413 1.000 0.400
v 0.413 1.000 0.336
v 0.413 0.172 -0.400
v 0.425 0.172 -0.400
v 0.425 1.000 0.336
v 0.400 1.000 -0.500
v 0.500 1.000 -0.500
v 0.500 1.000 -0.400
v 0.475 1.000 -0.400
v 0.425 1.000 -0.400
v 0.400 1.000 -0.400
v 0.425 1.000 0.336
v 0.425 0.172 -0.400
v 0.425 1.000 -0.400
v 0.475 0.100 0.400
v 0.475 0.928 0.400
v 0.475 0.100 -0.336
v 0.425 0.100 0.400
v 0.425 0.100 -0.336
v 0.425 0.928 0.400
v 0.475 1.000 0.336
v 0.475 1.000 -0.400
v 0.475 0.172 -0.400

vt 0.400 0.928
vt 0.400 1.000
vt 0.336 1.000
vt -0.336 0.100
vt -0.400 0.172
vt -0.400 0.000
vt 0.400 0.000
vt 0.400 0.100
vt -0.400 1.000
vt -0.500 1.000
vt -0.500 0.000
vt -0.400 0.000
vt -0.500 -0.400
vt -0.500 -0.500
vt -0.400 -0.500
vt -0.400 -0.488
vt -0.400 -0.413
vt -0.400 -0.400
vt 0.400 1.000
vt 0.400 0.000
vt 0.500 0.000
vt 0.500 1.000
vt -0.336 -0.475
vt -0.336 -0.488
vt 0.400 -0.488
vt 0.400 -0.475
vt -0.500 1.000
vt -0.500 0.000
vt -0.400 0.000
vt -0.400 1.000
vt -0.425 1.000
vt -0.425 0.172
vt -0.413 0.172
vt -0.400 1.000
vt -0.400 0.000
vt -0.413 0.000
vt -0.500 0.000
vt -0.400 0.000
vt -0.400 1.000
vt -0.500 1.000
vt -0.336 -0.413
vt -0.336 -0.425
vt 0.400 -0.425
vt 0.400 -0.413
vt -0.488 0.959
vt -0.488 -0.148
vt -0.475 -0.148
vt -0.475 0.959
vt 0.475 0.971
vt 0.475 -0.137
vt 0.488 -0.137
vt 0.488 0.971
vt -0.425 0.959
vt -0.425 -0.148
vt -0.413 -0.148
vt -0.413 0.959
vt -0.500 1.000
vt -0.500 0.000
vt -0.488 0.000
vt -0.488 0.172
vt -0.475 0.172
vt -0.475 1.000
vt 0.500 1.000
vt 0.400 1.000
vt 0.400 0.000
vt 0.500 0.000
vt 0.400 1.000
vt 0.400 0.000
vt 0.413 0.000
vt 0.413 0.100
vt 0.425 0.100
vt 0.413 0.928
vt 0.425 0.928
vt 0.413 1.000
vt 0.400 -0.488
vt 0.400 -0.500
vt 0.500 -0.500
vt 0.500 -0.400
vt 0.400 -0.413
vt 0.400 -0.400
vt 0.400 0.000
vt 0.500 0.000
vt 0.500 1.000
vt 0.400 1.000
vt 0.336 -0.475
vt 0.336 -0.488
vt 0.400 -0.488
vt 0.500 -0.400
vt 0.336 -0.425
vt 0.500 -0.500
vt 0.400 -0.500
vt 0.400 -0.413
vt 0.400 -0.400
vt 0.336 -0.413
vt 0.475 0.928
vt 0.475 0.100
vt 0.488 0.100
vt 0.488 0.928
vt 0.500 1.000
vt 0.488 1.000
vt 0.500 0.000
vt 0.488 0.000
vt 0.336 0.100
vt -0.400 0.100
vt -0.400 0.000
vt 0.400 0.000
vt 0.400 0.172
vt -0.336 1.000
vt -0.400 0.928
vt -0.400 1.000
vt 0.413 0.971
vt 0.413 -0.137
vt 0.425 -0.137
vt 0.425 0.971
vt -0.500 -0.400
vt -0.500 -0.500
vt -0.400 -0.500
vt -0.400 -0.475
vt -0.400 -0.425
vt -0.400 -0.400
vt -0.336 1.000
vt 0.400 0.172
vt 0.400 1.000
vt 0.400 0.100
vt 0.400 0.928
vt -0.336 0.100
vt -0.400 0.100
vt 0.336 0.100
vt -0.400 0.928
vt 0.336 1.000
vt -0.400 1.000
vt -0.400 0.172

vn 1.000 0.000 0.000
vn 1.000 0.000 0.000
vn 1.000 0.000 0.000
vn 1.000 0.000 0.000
vn 1.000 0.000 0.000
vn 1.000 0.000 0.000
vn 1.000 0.000 0.000
vn 1.000 0.000 0.000
vn 1.000 0.000 0.000
vn 1.000 0.000 0.000
vn 1.000 0.000 0.000
vn 1.000 0.000 0.000
vn 0.000 -1.000 0.000
vn 0.000 -1.000 0.000
vn 0.000 -1.000 0.000
vn 0.000 -1.000 0.000
vn 0.000 -1.000 0.000
vn 0.000 -1.000 0.000
vn 0.000 0.000 -1.000
vn 0.000 0.000 -1.000
vn 0.000 0.000 -1.000
vn 0.000 0.000 -1.000
vn 0.000 1.000 0.000
vn 0.000 1.000 0.000
vn 0.000 1.000 0.000
vn 0.000 1.000 0.000
vn 0.000 0.000 1.000
vn 0.000 0.000 1.000
vn 0.000 0.000 1.000
vn 0.000 0.000 1.000
vn 0.000 0.000 1.000
vn 0.000 0.000 1.000
vn 0.000 0.000 1.000
vn 0.000 0.000 1.000
vn 0.000 0.000 1.000
vn 0.000 0.000 1.000
vn -1.000 0.000 0.000
vn -1.000 0.000 0.000
vn -1.000 0.000 0.000
vn -1.000 0.000 0.000
vn 0.000 1.000 0.000
vn 0.000 1.000 0.000
vn 0.000 1.000 0.000
vn 0.000 1.000 0.000
vn 0.000 -0.664 0.747
vn 0.000 -0.664 0.747
vn 0.000 -0.664 0.747
vn 0.000 -0.664 0.747
vn 0.000 0.664 -0.747
vn 0.000 0.664 -0.747
vn 0.000 0.664 -0.747
vn 0.000 0.664 -0.747
vn 0.000 -0.664 0.747
vn 0.000 -0.664 0.747
vn 0.000 -0.664 0.747
vn 0.000 -0.664 0.747
vn 0.000 0.000 1.000
vn 0.000 0.000 1.000
vn 0.000 0.000 1.000
vn 0.000 0.000 1.000
vn 0.000 0.000 1.000
vn 0.000 0.000 1.000
vn 1.000 0.000 0.000
vn 1.000 0.000 0.000
vn 1.000 0.000 0.000
vn 1.000 0.000 0.000
vn 0.000 0.000 -1.000
vn 0.000 0.000 -1.000
vn 0.000 0.000 -1.000
vn 0.000 0.000 -1.000
vn 0.000 0.000 -1.000
vn 0.000 0.000 -1.000
vn 0.000 0.000 -1.000
vn 0.000 0.000 -1.000
vn 0.000 -1.000 0.000
vn 0.000 -1.000 0.000
vn 0.000 -1.000 0.000
vn 0.000 -1.000 0.000
vn 0.000 -1.000 0.000
vn 0.000 -1.000 0.000
vn -1.000 0.000 0.000
vn -1.000 0.000 0.000
vn -1.000 0.000 0.000
vn -1.000 0.000 0.000
vn 0.000 1.000 0.000
vn 0.000 1.000 0.000
vn 0.000 1.000 0.000
vn 0.000 1.000 0.000
vn 0.000 1.000 0.000
vn 0.000 1.000 0.000
vn 0.000 1.000 0.000
vn 0.000 1.000 0.000
vn 0.000 1.000 0.000
vn 0.000 1.000 0.000
vn 0.000 0.000 -1.000
vn 0.000 0.000 -1.000
vn 0.000 0.000 -1.000
vn 0.000 0.000 -1.000
vn 0.000 0.000 -1.000
vn 0.000 0.000 -1.000
vn 0.000 0.000 -1.000
vn 0.000 0.000 -1.000
vn -1.000 0.000 0.000
vn -1.000 0.000 0.000
vn -1.000 0.000 0.000
vn -1.000 0.000 0.000
vn -1.000 0.000 0.000
vn -1.000 0.000 0.000
vn -1.000 0.000 0.000
vn -1.000 0.000 0.000
vn 0.000 0.664 -0.747
vn 0.000 0.664 -0.747
vn 0.000 0.664 -0.747
vn 0.000 0.664 -0.747
vn 0.000 1.000 0.000
vn 0.000 1.000 0.000
vn 0.000 1.000 0.000
vn 0.000 1.000 0.000
vn 0.000 1.000 0.000
vn 0.000 1.000 0.000
vn -1.000 0.000 0.000
vn -1.000 0.000 0.000
vn -1.000 0.000 0.000
vn 1.000 0.000 0.000
vn 1.000 0.000 0.000
vn 1.000 0.000 0.000
vn -1.000 0.000 0.000
vn -1.000 0.000 0.000
vn -1.000 0.000 0.000
vn 1.000 0.000 0.000
vn 1.000 0.000 0.000
vn 1.000 0.000 0.000


usemtl wood

f 1/1/1 3/3/3 2/2/2
f 4/4/4 3/3/3 1/1/1
f 4/4/4 5/5/5 3/3/3
f 5/5/5 4/4/4 6/6/6
f 4/4/4 7/7/7 6/6/6
f 7/7/7 4/4/4 8/8/8
f 9/9/9 11/11/11 10/10/10
f 11/11/11 9/9/9 12/12/12
f 13/13/13 15/15/15 14/14/14
f 15/15/15 13/13/13 16/16/16
f 16/16/16 13/13/13 17/17/17
f 17/17/17 13/13/13 18/18/18
f 19/19/19 21/21/21 20/20/20
f 21/21/21 19/19/19 22/22/22
f 23/23/23 25/25/25 24/24/24
f 25/25/25 23/23/23 26/26/26
f 27/27/27 29/29/29 28/28/28
f 29/29/29 27/27/27 30/30/30
f 31/31/31 33/33/33 32/32/32
f 34/34/34 33/33/33 31/31/31
f 35/35/35 33/33/33 34/34/34
f 33/33/33 35/35/35 36/36/36
f 37/37/37 39/39/39 38/38/38
f 39/39/39 37/37/37 40/40/40
f 41/41/41 43/43/43 42/42/42
f 43/43/43 41/41/41 44/44/44
f 45/45/45 47/47/47 46/46/46
f 47/47/47 45/45/45 48/48/48
f 49/49/49 51/51/51 50/50/50
f 51/51/51 49/49/49 52/52/52
f 53/53/53 55/55/55 54/54/54
f 55/55/55 53/53/53 56/56/56
f 57/57/57 59/59/59 58/58/58
f 59/59/59 57/57/57 60/60/60
f 60/60/60 57/57/57 61/61/61
f 61/61/61 57/57/57 62/62/62
f 63/63/63 65/65/65 64/64/64
f 65/65/65 63/63/63 66/66/66
f 67/67/67 69/69/69 68/68/68
f 69/69/69 67/67/67 70/70/70
f 70/70/70 67/67/67 71/71/71
f 71/71/71 67/67/67 72/72/72
f 73/73/73 71/71/71 72/72/72
f 72/72/72 67/67/67 74/74/74
f 75/75/75 77/77/77 76/76/76
f 77/77/77 75/75/75 78/78/78
f 78/78/78 75/75/75 79/79/79
f 78/78/78 79/79/79 80/80/80
f 81/81/81 83/83/83 82/82/82
f 83/83/83 81/81/81 84/84/84
f 85/85/85 87/87/87 86/86/86
f 88/88/88 87/87/87 85/85/85
f 88/88/88 85/85/85 89/89/89
f 90/90/90 87/87/87 88/88/88
f 87/87/87 90/90/90 91/91/91
f 88/88/88 89/89/89 92/92/92
f 88/88/88 92/92/92 93/93/93
f 92/92/92 89/89/89 94/94/94
f 95/95/95 97/97/97 96/96/96
f 98/98/98 97/97/97 95/95/95
f 99/99/99 97/97/97 98/98/98
f 99/99/99 98/98/98 100/100/100
f 101/101/101 97/97/97 99/99/99
f 97/97/97 101/101/101 102/102/102
f 103/103/103 105/105/105 104/104/104
f 105/105/105 103/103/103 106/106/106
f 103/103/103 107/107/107 106/106/106
f 107/107/107 103/103/103 108/108/108
f 108/108/108 103/103/103 109/109/109
f 108/108/108 109/109/109 110/110/110
f 111/111/111 113/113/113 112/112/112
f 113/113/113 111/111/111 114/114/114
f 115/115/115 117/117/117 116/116/116
f 117/117/117 115/115/115 118/118/118
f 118/118/118 115/115/115 119/119/119
f 119/119/119 115/115/115 120/120/120

usemtl woodDark

f 121/121/121 123/123/123 122/122/122
f 124/124/124 126/126/126 125/125/125
f 127/127/127 129/129/129 128/128/128
f 130/130/130 132/132/132 131/131/131
f 119/119/119 85/85/85 118/118/118
f 85/85/85 119/119/119 89/89/89
f 17/17/17 75/75/75 16/16/16
f 75/75/75 17/17/17 79/79/79
