# Created by Kenney (www.kenney.nl) - UVs and materials modified

mtllib fantasytown.mtl


g wallWoodCornerEdge

v 0.219 0.000 0.219
v 0.475 0.000 -0.400
v 0.425 0.000 -0.400
v 0.183 0.000 0.183
v -0.400 0.000 0.475
v -0.400 0.000 0.425
v 0.219 1.000 0.219
v 0.219 0.000 0.219
v -0.400 0.000 0.475
v -0.400 1.000 0.475
v 0.425 1.000 -0.400
v 0.475 1.000 -0.400
v 0.219 1.000 0.219
v 0.183 1.000 0.183
v -0.400 1.000 0.475
v -0.400 1.000 0.425
v 0.219 1.000 0.219
v 0.475 1.000 -0.400
v 0.475 0.000 -0.400
v 0.219 0.000 0.219
v -0.400 1.000 0.425
v -0.400 0.000 0.425
v 0.183 0.000 0.183
v 0.183 1.000 0.183
v 0.183 0.000 0.183
v 0.425 0.000 -0.400
v 0.425 1.000 -0.400
v 0.183 1.000 0.183
v -0.400 1.000 0.500
v -0.500 1.000 0.500
v -0.400 1.000 0.400
v -0.500 1.000 0.400
v -0.400 1.000 0.425
v -0.400 1.000 0.400
v -0.400 0.000 0.400
v -0.400 0.000 0.425
v 0.500 1.000 -0.400
v 0.500 0.000 -0.400
v 0.475 0.000 -0.400
v 0.475 1.000 -0.400
v 0.425 1.000 -0.400
v 0.425 0.000 -0.400
v 0.400 0.000 -0.400
v 0.400 1.000 -0.400
v 0.400 1.000 -0.500
v 0.500 1.000 -0.500
v 0.500 1.000 -0.400
v 0.400 1.000 -0.400
v -0.400 1.000 0.500
v -0.400 0.000 0.500
v -0.500 0.000 0.500
v -0.500 1.000 0.500
v -0.500 1.000 0.400
v -0.500 0.000 0.400
v -0.400 0.000 0.400
v -0.400 1.000 0.400
v 0.400 1.000 -0.500
v 0.400 0.000 -0.500
v 0.500 0.000 -0.500
v 0.500 1.000 -0.500
v -0.500 0.000 0.500
v -0.400 0.000 0.500
v -0.400 0.000 0.400
v -0.500 0.000 0.400
v -0.400 1.000 0.500
v -0.400 1.000 0.475
v -0.400 0.000 0.475
v -0.400 0.000 0.500
v -0.500 0.000 0.500
v -0.500 0.000 0.400
v -0.500 1.000 0.400
v -0.500 1.000 0.500
v 0.500 1.000 -0.400
v 0.500 1.000 -0.500
v 0.500 0.000 -0.500
v 0.500 0.000 -0.400
v 0.500 0.000 -0.400
v 0.500 0.000 -0.500
v 0.400 0.000 -0.500
v 0.400 0.000 -0.400
v 0.400 0.000 -0.400
v 0.400 0.000 -0.500
v 0.400 1.000 -0.500
v 0.400 1.000 -0.400

vt -0.219 -0.219
vt 0.400 -0.475
vt 0.400 -0.425
vt -0.183 -0.183
vt -0.475 0.400
vt -0.425 0.400
vt -0.118 1.000
vt -0.118 0.000
vt 0.551 0.000
vt 0.551 1.000
vt -0.400 -0.425
vt -0.400 -0.475
vt 0.219 -0.219
vt 0.183 -0.183
vt 0.475 0.400
vt 0.425 0.400
vt 0.118 1.000
vt -0.551 1.000
vt -0.551 0.000
vt 0.118 0.000
vt -0.532 1.000
vt -0.532 0.000
vt 0.099 0.000
vt 0.099 1.000
vt -0.099 0.000
vt 0.532 0.000
vt 0.532 1.000
vt -0.099 1.000
vt 0.500 0.400
vt 0.500 0.500
vt 0.400 0.400
vt 0.400 0.500
vt 0.425 1.000
vt 0.400 1.000
vt 0.400 0.000
vt 0.425 0.000
vt -0.500 1.000
vt -0.500 0.000
vt -0.475 0.000
vt -0.475 1.000
vt -0.425 1.000
vt -0.425 0.000
vt -0.400 0.000
vt -0.400 1.000
vt -0.500 -0.400
vt -0.500 -0.500
vt -0.400 -0.500
vt -0.400 -0.400
vt 0.400 1.000
vt 0.400 0.000
vt 0.500 0.000
vt 0.500 1.000
vt -0.500 1.000
vt -0.500 0.000
vt -0.400 0.000
vt -0.400 1.000
vt 0.400 1.000
vt 0.400 0.000
vt 0.500 0.000
vt 0.500 1.000
vt -0.500 0.500
vt -0.500 0.400
vt -0.400 0.400
vt -0.400 0.500
vt 0.500 1.000
vt 0.475 1.000
vt 0.475 0.000
vt 0.500 0.000
vt -0.500 0.000
vt -0.400 0.000
vt -0.400 1.000
vt -0.500 1.000
vt -0.400 1.000
vt -0.500 1.000
vt -0.500 0.000
vt -0.400 0.000
vt 0.400 -0.500
vt 0.500 -0.500
vt 0.500 -0.400
vt 0.400 -0.400
vt 0.400 0.000
vt 0.500 0.000
vt 0.500 1.000
vt 0.400 1.000

vn 0.000 -1.000 0.000
vn 0.000 -1.000 0.000
vn 0.000 -1.000 0.000
vn 0.000 -1.000 0.000
vn 0.000 -1.000 0.000
vn 0.000 -1.000 0.000
vn 0.383 0.000 0.924
vn 0.383 0.000 0.924
vn 0.383 0.000 0.924
vn 0.383 0.000 0.924
vn 0.000 1.000 0.000
vn 0.000 1.000 0.000
vn 0.000 1.000 0.000
vn 0.000 1.000 0.000
vn 0.000 1.000 0.000
vn 0.000 1.000 0.000
vn 0.924 0.000 0.383
vn 0.924 0.000 0.383
vn 0.924 0.000 0.383
vn 0.924 0.000 0.383
vn -0.383 0.000 -0.924
vn -0.383 0.000 -0.924
vn -0.383 0.000 -0.924
vn -0.383 0.000 -0.924
vn -0.924 0.000 -0.383
vn -0.924 0.000 -0.383
vn -0.924 0.000 -0.383
vn -0.924 0.000 -0.383
vn 0.000 1.000 0.000
vn 0.000 1.000 0.000
vn 0.000 1.000 0.000
vn 0.000 1.000 0.000
vn 1.000 0.000 0.000
vn 1.000 0.000 0.000
vn 1.000 0.000 0.000
vn 1.000 0.000 0.000
vn 0.000 0.000 1.000
vn 0.000 0.000 1.000
vn 0.000 0.000 1.000
vn 0.000 0.000 1.000
vn 0.000 0.000 1.000
vn 0.000 0.000 1.000
vn 0.000 0.000 1.000
vn 0.000 0.000 1.000
vn 0.000 1.000 0.000
vn 0.000 1.000 0.000
vn 0.000 1.000 0.000
vn 0.000 1.000 0.000
vn 0.000 0.000 1.000
vn 0.000 0.000 1.000
vn 0.000 0.000 1.000
vn 0.000 0.000 1.000
vn 0.000 0.000 -1.000
vn 0.000 0.000 -1.000
vn 0.000 0.000 -1.000
vn 0.000 0.000 -1.000
vn 0.000 0.000 -1.000
vn 0.000 0.000 -1.000
vn 0.000 0.000 -1.000
vn 0.000 0.000 -1.000
vn 0.000 -1.000 0.000
vn 0.000 -1.000 0.000
vn 0.000 -1.000 0.000
vn 0.000 -1.000 0.000
vn 1.000 0.000 0.000
vn 1.000 0.000 0.000
vn 1.000 0.000 0.000
vn 1.000 0.000 0.000
vn -1.000 0.000 0.000
vn -1.000 0.000 0.000
vn -1.000 0.000 0.000
vn -1.000 0.000 0.000
vn 1.000 0.000 0.000
vn 1.000 0.000 0.000
vn 1.000 0.000 0.000
vn 1.000 0.000 0.000
vn 0.000 -1.000 0.000
vn 0.000 -1.000 0.000
vn 0.000 -1.000 0.000
vn 0.000 -1.000 0.000
vn -1.000 0.000 0.000
vn -1.000 0.000 0.000
vn -1.000 0.000 0.000
vn -1.000 0.000 0.000


usemtl woodDark

f 1/1/1 3/3/3 2/2/2
f 3/3/3 1/1/1 4/4/4
f 4/4/4 1/1/1 5/5/5
f 4/4/4 5/5/5 6/6/6
f 7/7/7 9/9/9 8/8/8
f 9/9/9 7/7/7 10/10/10
f 11/11/11 13/13/13 12/12/12
f 13/13/13 11/11/11 14/14/14
f 13/13/13 14/14/14 15/15/15
f 15/15/15 14/14/14 16/16/16
f 17/17/17 19/19/19 18/18/18
f 19/19/19 17/17/17 20/20/20
f 21/21/21 23/23/23 22/22/22
f 23/23/23 21/21/21 24/24/24
f 25/25/25 27/27/27 26/26/26
f 27/27/27 25/25/25 28/28/28

usemtl wood

f 15/15/15 30/30/30 29/29/29
f 30/30/30 15/15/15 16/16/16
f 30/30/30 16/16/16 31/31/31
f 30/30/30 31/31/31 32/32/32
f 33/33/33 35/35/35 34/34/34
f 35/35/35 33/33/33 36/36/36
f 37/37/37 39/39/39 38/38/38
f 39/39/39 37/37/37 40/40/40
f 41/41/41 43/43/43 42/42/42
f 43/43/43 41/41/41 44/44/44
f 45/45/45 47/47/47 46/46/46
f 47/47/47 45/45/45 12/12/12
f 12/12/12 45/45/45 11/11/11
f 11/11/11 45/45/45 48/48/48
f 49/49/49 51/51/51 50/50/50
f 51/51/51 49/49/49 52/52/52
f 53/53/53 55/55/55 54/54/54
f 55/55/55 53/53/53 56/56/56
f 57/57/57 59/59/59 58/58/58
f 59/59/59 57/57/57 60/60/60
f 61/61/61 5/5/5 62/62/62
f 5/5/5 61/61/61 6/6/6
f 6/6/6 61/61/61 63/63/63
f 63/63/63 61/61/61 64/64/64
f 65/65/65 67/67/67 66/66/66
f 67/67/67 65/65/65 68/68/68
f 69/69/69 71/71/71 70/70/70
f 71/71/71 69/69/69 72/72/72
f 73/73/73 75/75/75 74/74/74
f 75/75/75 73/73/73 76/76/76
f 2/2/2 78/78/78 77/77/77
f 78/78/78 2/2/2 79/79/79
f 79/79/79 2/2/2 3/3/3
f 79/79/79 3/3/3 80/80/80
f 81/81/81 83/83/83 82/82/82
f 83/83/83 81/81/81 84/84/84
