# Created by Kenney (www.kenney.nl) - UVs and materials modified

mtllib fantasytown.mtl


g chimney

v 0.425 1.000 0.130
v 0.425 0.625 0.130
v 0.253 0.625 0.130
v 0.253 1.000 0.130
v 0.253 0.625 0.130
v 0.253 0.625 -0.130
v 0.253 1.000 -0.130
v 0.253 1.000 0.130
v 0.253 0.375 -0.130
v 0.253 0.000 -0.130
v 0.425 0.000 -0.130
v 0.425 0.375 -0.130
v 0.253 1.000 -0.130
v 0.425 1.000 -0.130
v 0.425 1.000 0.130
v 0.253 1.000 0.130
v 0.425 0.375 0.130
v 0.425 0.375 0.170
v 0.425 0.625 0.170
v 0.425 0.625 0.130
v 0.425 0.000 0.130
v 0.425 1.000 0.130
v 0.425 0.000 -0.130
v 0.425 0.375 -0.130
v 0.425 0.625 -0.130
v 0.425 1.000 -0.130
v 0.425 0.375 -0.170
v 0.425 0.625 -0.170
v 0.253 0.000 0.130
v 0.425 0.000 0.130
v 0.425 0.000 -0.130
v 0.253 0.000 -0.130
v 0.253 0.000 0.130
v 0.253 0.000 -0.130
v 0.253 0.375 -0.130
v 0.253 0.375 0.130
v 0.253 0.625 -0.130
v 0.425 0.625 -0.130
v 0.425 1.000 -0.130
v 0.253 1.000 -0.130
v 0.425 0.375 0.130
v 0.425 0.000 0.130
v 0.253 0.000 0.130
v 0.253 0.375 0.130
v 0.213 0.625 -0.170
v 0.425 0.625 -0.170
v 0.425 0.625 -0.130
v 0.253 0.625 -0.130
v 0.253 0.625 0.130
v 0.213 0.625 0.170
v 0.425 0.625 0.170
v 0.425 0.625 0.130
v 0.213 0.375 0.170
v 0.425 0.375 0.170
v 0.425 0.375 0.130
v 0.253 0.375 0.130
v 0.253 0.375 -0.130
v 0.213 0.375 -0.170
v 0.425 0.375 -0.170
v 0.425 0.375 -0.130
v 0.425 0.625 0.170
v 0.425 0.375 0.170
v 0.213 0.375 0.170
v 0.213 0.625 0.170
v 0.213 0.375 0.170
v 0.213 0.375 -0.170
v 0.213 0.625 -0.170
v 0.213 0.625 0.170
v 0.213 0.625 -0.170
v 0.213 0.375 -0.170
v 0.425 0.375 -0.170
v 0.425 0.625 -0.170

vt -0.425 1.000
vt -0.425 0.625
vt -0.253 0.625
vt -0.253 1.000
vt -0.130 0.625
vt 0.130 0.625
vt 0.130 1.000
vt -0.130 1.000
vt 0.253 0.375
vt 0.253 0.000
vt 0.425 0.000
vt 0.425 0.375
vt -0.130 -0.253
vt -0.130 -0.425
vt 0.130 -0.425
vt 0.130 -0.253
vt 0.130 0.375
vt 0.170 0.375
vt 0.170 0.625
vt 0.130 0.625
vt 0.130 0.000
vt 0.130 1.000
vt -0.130 0.000
vt -0.130 0.375
vt -0.130 0.625
vt -0.130 1.000
vt -0.170 0.375
vt -0.170 0.625
vt -0.130 -0.253
vt -0.130 -0.425
vt 0.130 -0.425
vt 0.130 -0.253
vt -0.130 0.000
vt 0.130 0.000
vt 0.130 0.375
vt -0.130 0.375
vt 0.253 0.625
vt 0.425 0.625
vt 0.425 1.000
vt 0.253 1.000
vt -0.425 0.375
vt -0.425 0.000
vt -0.253 0.000
vt -0.253 0.375
vt -0.170 -0.213
vt -0.170 -0.425
vt -0.130 -0.425
vt -0.130 -0.253
vt 0.130 -0.253
vt 0.170 -0.213
vt 0.170 -0.425
vt 0.130 -0.425
vt -0.170 -0.213
vt -0.170 -0.425
vt -0.130 -0.425
vt -0.130 -0.253
vt 0.130 -0.253
vt 0.170 -0.213
vt 0.170 -0.425
vt 0.130 -0.425
vt -0.425 0.625
vt -0.425 0.375
vt -0.213 0.375
vt -0.213 0.625
vt -0.170 0.375
vt 0.170 0.375
vt 0.170 0.625
vt -0.170 0.625
vt 0.213 0.625
vt 0.213 0.375
vt 0.425 0.375
vt 0.425 0.625

vn 0.000 0.000 1.000
vn 0.000 0.000 1.000
vn 0.000 0.000 1.000
vn 0.000 0.000 1.000
vn -1.000 0.000 0.000
vn -1.000 0.000 0.000
vn -1.000 0.000 0.000
vn -1.000 0.000 0.000
vn 0.000 0.000 -1.000
vn 0.000 0.000 -1.000
vn 0.000 0.000 -1.000
vn 0.000 0.000 -1.000
vn 0.000 1.000 0.000
vn 0.000 1.000 0.000
vn 0.000 1.000 0.000
vn 0.000 1.000 0.000
vn 1.000 0.000 0.000
vn 1.000 0.000 0.000
vn 1.000 0.000 0.000
vn 1.000 0.000 0.000
vn 1.000 0.000 0.000
vn 1.000 0.000 0.000
vn 1.000 0.000 0.000
vn 1.000 0.000 0.000
vn 1.000 0.000 0.000
vn 1.000 0.000 0.000
vn 1.000 0.000 0.000
vn 1.000 0.000 0.000
vn 0.000 -1.000 0.000
vn 0.000 -1.000 0.000
vn 0.000 -1.000 0.000
vn 0.000 -1.000 0.000
vn -1.000 0.000 0.000
vn -1.000 0.000 0.000
vn -1.000 0.000 0.000
vn -1.000 0.000 0.000
vn 0.000 0.000 -1.000
vn 0.000 0.000 -1.000
vn 0.000 0.000 -1.000
vn 0.000 0.000 -1.000
vn 0.000 0.000 1.000
vn 0.000 0.000 1.000
vn 0.000 0.000 1.000
vn 0.000 0.000 1.000
vn 0.000 1.000 0.000
vn 0.000 1.000 0.000
vn 0.000 1.000 0.000
vn 0.000 1.000 0.000
vn 0.000 1.000 0.000
vn 0.000 1.000 0.000
vn 0.000 1.000 0.000
vn 0.000 1.000 0.000
vn 0.000 -1.000 0.000
vn 0.000 -1.000 0.000
vn 0.000 -1.000 0.000
vn 0.000 -1.000 0.000
vn 0.000 -1.000 0.000
vn 0.000 -1.000 0.000
vn 0.000 -1.000 0.000
vn 0.000 -1.000 0.000
vn 0.000 0.000 1.000
vn 0.000 0.000 1.000
vn 0.000 0.000 1.000
vn 0.000 0.000 1.000
vn -1.000 0.000 0.000
vn -1.000 0.000 0.000
vn -1.000 0.000 0.000
vn -1.000 0.000 0.000
vn 0.000 0.000 -1.000
vn 0.000 0.000 -1.000
vn 0.000 0.000 -1.000
vn 0.000 0.000 -1.000


usemtl stoneDark

f 1/1/1 3/3/3 2/2/2
f 3/3/3 1/1/1 4/4/4
f 5/5/5 7/7/7 6/6/6
f 7/7/7 5/5/5 8/8/8
f 9/9/9 11/11/11 10/10/10
f 11/11/11 9/9/9 12/12/12
f 13/13/13 15/15/15 14/14/14
f 15/15/15 13/13/13 16/16/16
f 17/17/17 19/19/19 18/18/18
f 19/19/19 17/17/17 20/20/20
f 21/21/21 20/20/20 17/17/17
f 21/21/21 22/22/22 20/20/20
f 23/23/23 22/22/22 21/21/21
f 24/24/24 22/22/22 23/23/23
f 25/25/25 22/22/22 24/24/24
f 22/22/22 25/25/25 26/26/26
f 27/27/27 25/25/25 24/24/24
f 25/25/25 27/27/27 28/28/28
f 29/29/29 31/31/31 30/30/30
f 31/31/31 29/29/29 32/32/32
f 33/33/33 35/35/35 34/34/34
f 35/35/35 33/33/33 36/36/36
f 37/37/37 39/39/39 38/38/38
f 39/39/39 37/37/37 40/40/40
f 41/41/41 43/43/43 42/42/42
f 43/43/43 41/41/41 44/44/44
f 45/45/45 47/47/47 46/46/46
f 47/47/47 45/45/45 48/48/48
f 48/48/48 45/45/45 49/49/49
f 50/50/50 49/49/49 45/45/45
f 51/51/51 49/49/49 50/50/50
f 49/49/49 51/51/51 52/52/52
f 53/53/53 55/55/55 54/54/54
f 55/55/55 53/53/53 56/56/56
f 56/56/56 53/53/53 57/57/57
f 58/58/58 57/57/57 53/53/53
f 59/59/59 57/57/57 58/58/58
f 57/57/57 59/59/59 60/60/60

usemtl stone

f 61/61/61 63/63/63 62/62/62
f 63/63/63 61/61/61 64/64/64
f 65/65/65 67/67/67 66/66/66
f 67/67/67 65/65/65 68/68/68
f 69/69/69 71/71/71 70/70/70
f 71/71/71 69/69/69 72/72/72
