# Created by Kenney (www.kenney.nl) - UVs and materials modified

mtllib fantasytown.mtl


g fenceBroken

v 0.444 0.305 0.335
v 0.444 0.230 0.355
v 0.481 0.230 0.355
v 0.481 0.305 0.335
v 0.425 0.000 -0.425
v 0.500 0.000 -0.425
v 0.500 0.000 -0.500
v 0.425 0.000 -0.500
v 0.444 0.305 -0.425
v 0.481 0.305 -0.425
v 0.481 0.305 -0.251
v 0.444 0.305 -0.251
v 0.425 0.000 0.500
v 0.425 0.000 0.425
v 0.425 0.380 0.425
v 0.425 0.380 0.500
v 0.481 0.305 -0.251
v 0.481 0.230 -0.231
v 0.444 0.230 -0.231
v 0.444 0.305 -0.251
v 0.444 0.058 -0.185
v 0.481 0.058 -0.185
v 0.481 0.255 0.287
v 0.444 0.255 0.287
v 0.444 0.305 0.335
v 0.481 0.305 0.335
v 0.481 0.305 0.425
v 0.444 0.305 0.425
v 0.425 0.000 -0.425
v 0.425 0.000 -0.500
v 0.425 0.380 -0.500
v 0.425 0.380 -0.425
v 0.444 0.075 0.425
v 0.481 0.075 0.425
v 0.481 0.075 0.249
v 0.444 0.075 0.249
v 0.444 0.230 -0.231
v 0.481 0.230 -0.231
v 0.481 0.230 -0.425
v 0.444 0.230 -0.425
v 0.444 0.150 0.425
v 0.444 0.075 0.425
v 0.444 0.075 0.249
v 0.444 0.150 0.231
v 0.444 0.255 0.287
v 0.444 0.178 0.298
v 0.444 0.000 -0.128
v 0.444 0.058 -0.185
v 0.444 0.000 -0.195
v 0.481 0.075 0.249
v 0.481 0.075 0.425
v 0.481 0.150 0.425
v 0.481 0.150 0.231
v 0.481 0.178 0.298
v 0.481 0.255 0.287
v 0.481 0.000 -0.128
v 0.481 0.058 -0.185
v 0.481 0.000 -0.195
v 0.444 0.150 -0.425
v 0.481 0.150 -0.425
v 0.481 0.150 -0.357
v 0.444 0.150 -0.357
v 0.423 0.000 0.157
v 0.500 0.000 0.147
v 0.303 0.000 -0.325
v 0.245 0.000 -0.268
v 0.245 0.000 -0.335
v 0.500 0.038 0.147
v 0.500 0.000 0.147
v 0.423 0.000 0.157
v 0.423 0.038 0.157
v 0.500 0.038 0.147
v 0.303 0.038 -0.325
v 0.303 0.000 -0.325
v 0.500 0.000 0.147
v 0.444 0.075 -0.377
v 0.481 0.075 -0.377
v 0.481 0.075 -0.425
v 0.444 0.075 -0.425
v 0.425 0.380 0.425
v 0.500 0.380 0.425
v 0.500 0.380 0.500
v 0.425 0.380 0.500
v 0.423 0.000 0.157
v 0.245 0.000 -0.268
v 0.245 0.038 -0.268
v 0.423 0.038 0.157
v 0.481 0.305 -0.251
v 0.481 0.305 -0.425
v 0.481 0.230 -0.425
v 0.481 0.230 -0.231
v 0.444 0.150 0.231
v 0.444 0.178 0.298
v 0.481 0.178 0.298
v 0.481 0.150 0.231
v 0.481 0.000 -0.128
v 0.444 0.000 -0.128
v 0.245 0.000 -0.268
v 0.245 0.000 -0.335
v 0.245 0.038 -0.335
v 0.245 0.038 -0.268
v 0.425 0.380 -0.500
v 0.500 0.380 -0.500
v 0.500 0.380 -0.425
v 0.425 0.380 -0.425
v 0.444 0.230 -0.425
v 0.444 0.305 -0.425
v 0.444 0.305 -0.251
v 0.444 0.230 -0.231
v 0.444 0.230 0.425
v 0.481 0.230 0.425
v 0.481 0.230 0.355
v 0.444 0.230 0.355
v 0.500 0.380 0.500
v 0.500 0.000 0.500
v 0.425 0.000 0.500
v 0.425 0.380 0.500
v 0.481 0.305 0.425
v 0.481 0.305 0.335
v 0.481 0.230 0.355
v 0.481 0.230 0.425
v 0.444 0.230 0.355
v 0.444 0.305 0.335
v 0.444 0.305 0.425
v 0.444 0.230 0.425
v 0.481 0.150 -0.357
v 0.481 0.075 -0.377
v 0.444 0.075 -0.377
v 0.444 0.150 -0.357
v 0.303 0.038 -0.325
v 0.500 0.038 0.147
v 0.423 0.038 0.157
v 0.245 0.038 -0.268
v 0.245 0.038 -0.335
v 0.481 0.150 -0.357
v 0.481 0.150 -0.425
v 0.481 0.075 -0.425
v 0.481 0.075 -0.377
v 0.481 0.255 0.287
v 0.481 0.178 0.298
v 0.444 0.178 0.298
v 0.444 0.255 0.287
v 0.500 0.380 -0.425
v 0.500 0.380 -0.500
v 0.500 0.000 -0.500
v 0.500 0.000 -0.425
v 0.444 0.075 -0.425
v 0.444 0.150 -0.425
v 0.444 0.150 -0.357
v 0.444 0.075 -0.377
v 0.245 0.038 -0.335
v 0.245 0.000 -0.335
v 0.303 0.000 -0.325
v 0.303 0.038 -0.325
v 0.425 0.380 -0.500
v 0.425 0.000 -0.500
v 0.500 0.000 -0.500
v 0.500 0.380 -0.500
v 0.500 0.380 0.500
v 0.500 0.380 0.425
v 0.500 0.000 0.425
v 0.500 0.000 0.500
v 0.444 0.150 0.231
v 0.481 0.150 0.231
v 0.481 0.150 0.425
v 0.444 0.150 0.425
v 0.444 0.150 0.231
v 0.444 0.075 0.249
v 0.481 0.075 0.249
v 0.481 0.150 0.231
v 0.425 0.000 0.500
v 0.500 0.000 0.500
v 0.500 0.000 0.425
v 0.425 0.000 0.425
v 0.444 0.058 -0.185
v 0.444 0.000 -0.195
v 0.481 0.000 -0.195
v 0.481 0.058 -0.185
v 0.481 0.230 -0.425
v 0.481 0.305 -0.425
v 0.500 0.380 -0.425
v 0.444 0.305 -0.425
v 0.425 0.380 -0.425
v 0.444 0.230 -0.425
v 0.444 0.150 -0.425
v 0.481 0.150 -0.425
v 0.444 0.075 -0.425
v 0.425 0.000 -0.425
v 0.481 0.075 -0.425
v 0.500 0.000 -0.425
v 0.425 0.000 0.425
v 0.500 0.000 0.425
v 0.444 0.075 0.425
v 0.425 0.380 0.425
v 0.481 0.075 0.425
v 0.500 0.380 0.425
v 0.444 0.150 0.425
v 0.481 0.150 0.425
v 0.444 0.230 0.425
v 0.481 0.230 0.425
v 0.444 0.305 0.425
v 0.481 0.305 0.425
v 0.444 0.000 -0.128
v 0.481 0.000 -0.128
v 0.481 0.000 -0.195
v 0.481 0.000 -0.195
v 0.444 0.000 -0.195
v 0.444 0.000 -0.128

vt 0.444 0.208
vt 0.444 0.131
vt 0.481 0.131
vt 0.481 0.208
vt 0.425 -0.425
vt 0.425 -0.500
vt 0.500 -0.500
vt 0.500 -0.425
vt -0.425 -0.444
vt -0.425 -0.481
vt -0.251 -0.481
vt -0.251 -0.444
vt -0.500 0.000
vt -0.425 0.000
vt -0.425 0.380
vt -0.500 0.380
vt -0.481 0.359
vt -0.481 0.282
vt -0.444 0.282
vt -0.444 0.359
vt 0.444 -0.148
vt 0.481 -0.148
vt 0.481 0.363
vt 0.444 0.363
vt 0.335 -0.444
vt 0.335 -0.481
vt 0.425 -0.481
vt 0.425 -0.444
vt 0.425 0.000
vt 0.500 0.000
vt 0.500 0.380
vt 0.425 0.380
vt -0.425 -0.444
vt -0.425 -0.481
vt -0.249 -0.481
vt -0.249 -0.444
vt 0.231 -0.444
vt 0.231 -0.481
vt 0.425 -0.481
vt 0.425 -0.444
vt -0.425 0.150
vt -0.425 0.075
vt -0.249 0.075
vt -0.231 0.150
vt -0.287 0.255
vt -0.298 0.178
vt 0.128 0.000
vt 0.185 0.058
vt 0.195 0.000
vt 0.249 0.075
vt 0.425 0.075
vt 0.425 0.150
vt 0.231 0.150
vt 0.298 0.178
vt 0.287 0.255
vt -0.128 0.000
vt -0.185 0.058
vt -0.195 0.000
vt -0.425 -0.444
vt -0.425 -0.481
vt -0.357 -0.481
vt -0.357 -0.444
vt -0.157 -0.423
vt -0.147 -0.500
vt 0.325 -0.303
vt 0.268 -0.245
vt 0.335 -0.245
vt -0.476 0.038
vt -0.476 0.000
vt -0.398 0.000
vt -0.398 0.038
vt 0.328 0.038
vt -0.183 0.038
vt -0.183 0.000
vt 0.328 0.000
vt 0.377 -0.444
vt 0.377 -0.481
vt 0.425 -0.481
vt 0.425 -0.444
vt 0.425 -0.425
vt 0.425 -0.500
vt 0.500 -0.500
vt 0.500 -0.425
vt -0.308 0.000
vt 0.153 0.000
vt 0.153 0.038
vt -0.308 0.038
vt -0.251 0.305
vt -0.425 0.305
vt -0.425 0.230
vt -0.231 0.230
vt -0.444 0.271
vt -0.444 0.343
vt -0.481 0.343
vt -0.481 0.271
vt -0.481 -0.118
vt -0.444 -0.118
vt 0.268 0.000
vt 0.335 0.000
vt 0.335 0.038
vt 0.268 0.038
vt -0.500 -0.425
vt -0.500 -0.500
vt -0.425 -0.500
vt -0.425 -0.425
vt 0.425 0.230
vt 0.425 0.305
vt 0.251 0.305
vt 0.231 0.230
vt -0.425 -0.444
vt -0.425 -0.481
vt -0.355 -0.481
vt -0.355 -0.444
vt -0.500 0.380
vt -0.500 0.000
vt -0.425 0.000
vt -0.425 0.380
vt 0.425 0.305
vt 0.335 0.305
vt 0.355 0.230
vt 0.425 0.230
vt -0.355 0.230
vt -0.335 0.305
vt -0.425 0.305
vt -0.425 0.230
vt -0.481 0.053
vt -0.481 -0.025
vt -0.444 -0.025
vt -0.444 0.053
vt -0.325 -0.303
vt 0.147 -0.500
vt 0.157 -0.423
vt -0.268 -0.245
vt -0.335 -0.245
vt -0.357 0.150
vt -0.425 0.150
vt -0.425 0.075
vt -0.377 0.075
vt -0.481 0.214
vt -0.481 0.137
vt -0.444 0.137
vt -0.444 0.214
vt -0.425 0.380
vt -0.500 0.380
vt -0.500 0.000
vt -0.425 0.000
vt 0.425 0.075
vt 0.425 0.150
vt 0.357 0.150
vt 0.377 0.075
vt 0.185 0.038
vt 0.185 0.000
vt 0.243 0.000
vt 0.243 0.038
vt 0.425 0.380
vt 0.425 0.000
vt 0.500 0.000
vt 0.500 0.380
vt 0.500 0.380
vt 0.425 0.380
vt 0.425 0.000
vt 0.500 0.000
vt 0.231 -0.444
vt 0.231 -0.481
vt 0.425 -0.481
vt 0.425 -0.444
vt 0.444 0.091
vt 0.444 0.014
vt 0.481 0.014
vt 0.481 0.091
vt -0.500 -0.425
vt -0.500 -0.500
vt -0.425 -0.500
vt -0.425 -0.425
vt 0.444 0.025
vt 0.444 -0.033
vt 0.481 -0.033
vt 0.481 0.025
vt -0.481 0.230
vt -0.481 0.305
vt -0.500 0.380
vt -0.444 0.305
vt -0.425 0.380
vt -0.444 0.230
vt -0.444 0.150
vt -0.481 0.150
vt -0.444 0.075
vt -0.425 0.000
vt -0.481 0.075
vt -0.500 0.000
vt 0.425 0.000
vt 0.500 0.000
vt 0.444 0.075
vt 0.425 0.380
vt 0.481 0.075
vt 0.500 0.380
vt 0.444 0.150
vt 0.481 0.150
vt 0.444 0.230
vt 0.481 0.230
vt 0.444 0.305
vt 0.481 0.305
vt 0.128 -0.444
vt 0.128 -0.481
vt 0.195 -0.481
vt 0.195 -0.481
vt 0.195 -0.444
vt 0.128 -0.444

vn 0.000 -0.258 -0.966
vn 0.000 -0.258 -0.966
vn 0.000 -0.258 -0.966
vn 0.000 -0.258 -0.966
vn 0.000 -1.000 0.000
vn 0.000 -1.000 0.000
vn 0.000 -1.000 0.000
vn 0.000 -1.000 0.000
vn 0.000 1.000 0.000
vn 0.000 1.000 0.000
vn 0.000 1.000 0.000
vn 0.000 1.000 0.000
vn -1.000 0.000 0.000
vn -1.000 0.000 0.000
vn -1.000 0.000 0.000
vn -1.000 0.000 0.000
vn 0.000 0.258 0.966
vn 0.000 0.258 0.966
vn 0.000 0.258 0.966
vn 0.000 0.258 0.966
vn 0.000 0.923 -0.385
vn 0.000 0.923 -0.385
vn 0.000 0.923 -0.385
vn 0.000 0.923 -0.385
vn 0.000 1.000 0.000
vn 0.000 1.000 0.000
vn 0.000 1.000 0.000
vn 0.000 1.000 0.000
vn -1.000 0.000 0.000
vn -1.000 0.000 0.000
vn -1.000 0.000 0.000
vn -1.000 0.000 0.000
vn 0.000 -1.000 0.000
vn 0.000 -1.000 0.000
vn 0.000 -1.000 0.000
vn 0.000 -1.000 0.000
vn 0.000 -1.000 0.000
vn 0.000 -1.000 0.000
vn 0.000 -1.000 0.000
vn 0.000 -1.000 0.000
vn -1.000 0.000 0.000
vn -1.000 0.000 0.000
vn -1.000 0.000 0.000
vn -1.000 0.000 0.000
vn -1.000 0.000 0.000
vn -1.000 0.000 0.000
vn -1.000 0.000 0.000
vn -1.000 0.000 0.000
vn -1.000 0.000 0.000
vn 1.000 0.000 0.000
vn 1.000 0.000 0.000
vn 1.000 0.000 0.000
vn 1.000 0.000 0.000
vn 1.000 0.000 0.000
vn 1.000 0.000 0.000
vn 1.000 0.000 0.000
vn 1.000 0.000 0.000
vn 1.000 0.000 0.000
vn 0.000 1.000 0.000
vn 0.000 1.000 0.000
vn 0.000 1.000 0.000
vn 0.000 1.000 0.000
vn 0.000 -1.000 0.000
vn 0.000 -1.000 0.000
vn 0.000 -1.000 0.000
vn 0.000 -1.000 0.000
vn 0.000 -1.000 0.000
vn 0.133 0.000 0.991
vn 0.133 0.000 0.991
vn 0.133 0.000 0.991
vn 0.133 0.000 0.991
vn 0.923 0.000 -0.385
vn 0.923 0.000 -0.385
vn 0.923 0.000 -0.385
vn 0.923 0.000 -0.385
vn 0.000 -1.000 0.000
vn 0.000 -1.000 0.000
vn 0.000 -1.000 0.000
vn 0.000 -1.000 0.000
vn 0.000 1.000 0.000
vn 0.000 1.000 0.000
vn 0.000 1.000 0.000
vn 0.000 1.000 0.000
vn -0.923 0.000 0.385
vn -0.923 0.000 0.385
vn -0.923 0.000 0.385
vn -0.923 0.000 0.385
vn 1.000 0.000 0.000
vn 1.000 0.000 0.000
vn 1.000 0.000 0.000
vn 1.000 0.000 0.000
vn 0.000 -0.923 0.385
vn 0.000 -0.923 0.385
vn 0.000 -0.923 0.385
vn 0.000 -0.923 0.385
vn 0.000 -0.923 0.386
vn 0.000 -0.923 0.386
vn -1.000 0.000 0.000
vn -1.000 0.000 0.000
vn -1.000 0.000 0.000
vn -1.000 0.000 0.000
vn 0.000 1.000 0.000
vn 0.000 1.000 0.000
vn 0.000 1.000 0.000
vn 0.000 1.000 0.000
vn -1.000 0.000 0.000
vn -1.000 0.000 0.000
vn -1.000 0.000 0.000
vn -1.000 0.000 0.000
vn 0.000 -1.000 0.000
vn 0.000 -1.000 0.000
vn 0.000 -1.000 0.000
vn 0.000 -1.000 0.000
vn 0.000 0.000 1.000
vn 0.000 0.000 1.000
vn 0.000 0.000 1.000
vn 0.000 0.000 1.000
vn 1.000 0.000 0.000
vn 1.000 0.000 0.000
vn 1.000 0.000 0.000
vn 1.000 0.000 0.000
vn -1.000 0.000 0.000
vn -1.000 0.000 0.000
vn -1.000 0.000 0.000
vn -1.000 0.000 0.000
vn 0.000 -0.258 0.966
vn 0.000 -0.258 0.966
vn 0.000 -0.258 0.966
vn 0.000 -0.258 0.966
vn 0.000 1.000 0.000
vn 0.000 1.000 0.000
vn 0.000 1.000 0.000
vn 0.000 1.000 0.000
vn 0.000 1.000 0.000
vn 1.000 0.000 0.000
vn 1.000 0.000 0.000
vn 1.000 0.000 0.000
vn 1.000 0.000 0.000
vn 0.000 0.133 0.991
vn 0.000 0.133 0.991
vn 0.000 0.133 0.991
vn 0.000 0.133 0.991
vn 1.000 0.000 0.000
vn 1.000 0.000 0.000
vn 1.000 0.000 0.000
vn 1.000 0.000 0.000
vn -1.000 0.000 0.000
vn -1.000 0.000 0.000
vn -1.000 0.000 0.000
vn -1.000 0.000 0.000
vn 0.171 0.000 -0.985
vn 0.171 0.000 -0.985
vn 0.171 0.000 -0.985
vn 0.171 0.000 -0.985
vn 0.000 0.000 -1.000
vn 0.000 0.000 -1.000
vn 0.000 0.000 -1.000
vn 0.000 0.000 -1.000
vn 1.000 0.000 0.000
vn 1.000 0.000 0.000
vn 1.000 0.000 0.000
vn 1.000 0.000 0.000
vn 0.000 1.000 0.000
vn 0.000 1.000 0.000
vn 0.000 1.000 0.000
vn 0.000 1.000 0.000
vn 0.000 -0.236 -0.972
vn 0.000 -0.236 -0.972
vn 0.000 -0.236 -0.972
vn 0.000 -0.236 -0.972
vn 0.000 -1.000 0.000
vn 0.000 -1.000 0.000
vn 0.000 -1.000 0.000
vn 0.000 -1.000 0.000
vn 0.000 0.171 -0.985
vn 0.000 0.171 -0.985
vn 0.000 0.171 -0.985
vn 0.000 0.171 -0.985
vn 0.000 0.000 1.000
vn 0.000 0.000 1.000
vn 0.000 0.000 1.000
vn 0.000 0.000 1.000
vn 0.000 0.000 1.000
vn 0.000 0.000 1.000
vn 0.000 0.000 1.000
vn 0.000 0.000 1.000
vn 0.000 0.000 1.000
vn 0.000 0.000 1.000
vn 0.000 0.000 1.000
vn 0.000 0.000 1.000
vn 0.000 0.000 -1.000
vn 0.000 0.000 -1.000
vn 0.000 0.000 -1.000
vn 0.000 0.000 -1.000
vn 0.000 0.000 -1.000
vn 0.000 0.000 -1.000
vn 0.000 0.000 -1.000
vn 0.000 0.000 -1.000
vn 0.000 0.000 -1.000
vn 0.000 0.000 -1.000
vn 0.000 0.000 -1.000
vn 0.000 0.000 -1.000
vn 0.000 -1.000 0.000
vn 0.000 -1.000 0.000
vn 0.000 -1.000 0.000
vn 0.000 -1.000 0.000
vn 0.000 -1.000 0.000
vn 0.000 -1.000 0.000


usemtl wood

f 1/1/1 3/3/3 2/2/2
f 3/3/3 1/1/1 4/4/4
f 5/5/5 7/7/7 6/6/6
f 7/7/7 5/5/5 8/8/8
f 9/9/9 11/11/11 10/10/10
f 11/11/11 9/9/9 12/12/12
f 13/13/13 15/15/15 14/14/14
f 15/15/15 13/13/13 16/16/16
f 17/17/17 19/19/19 18/18/18
f 19/19/19 17/17/17 20/20/20
f 21/21/21 23/23/23 22/22/22
f 23/23/23 21/21/21 24/24/24
f 25/25/25 27/27/27 26/26/26
f 27/27/27 25/25/25 28/28/28
f 29/29/29 31/31/31 30/30/30
f 31/31/31 29/29/29 32/32/32
f 33/33/33 35/35/35 34/34/34
f 35/35/35 33/33/33 36/36/36
f 37/37/37 39/39/39 38/38/38
f 39/39/39 37/37/37 40/40/40
f 41/41/41 43/43/43 42/42/42
f 43/43/43 41/41/41 44/44/44
f 45/45/45 44/44/44 46/46/46
f 45/45/45 47/47/47 44/44/44
f 48/48/48 47/47/47 45/45/45
f 47/47/47 48/48/48 49/49/49
f 50/50/50 52/52/52 51/51/51
f 52/52/52 50/50/50 53/53/53
f 53/53/53 55/55/55 54/54/54
f 56/56/56 55/55/55 53/53/53
f 56/56/56 57/57/57 55/55/55
f 57/57/57 56/56/56 58/58/58
f 59/59/59 61/61/61 60/60/60
f 61/61/61 59/59/59 62/62/62
f 63/63/63 65/65/65 64/64/64
f 65/65/65 63/63/63 66/66/66
f 65/65/65 66/66/66 67/67/67
f 68/68/68 70/70/70 69/69/69
f 70/70/70 68/68/68 71/71/71
f 72/72/72 74/74/74 73/73/73
f 74/74/74 72/72/72 75/75/75
f 76/76/76 78/78/78 77/77/77
f 78/78/78 76/76/76 79/79/79
f 80/80/80 82/82/82 81/81/81
f 82/82/82 80/80/80 83/83/83
f 84/84/84 86/86/86 85/85/85
f 86/86/86 84/84/84 87/87/87
f 88/88/88 90/90/90 89/89/89
f 90/90/90 88/88/88 91/91/91
f 92/92/92 94/94/94 93/93/93
f 94/94/94 92/92/92 95/95/95
f 92/92/92 96/96/96 95/95/95
f 96/96/96 92/92/92 97/97/97
f 98/98/98 100/100/100 99/99/99
f 100/100/100 98/98/98 101/101/101
f 102/102/102 104/104/104 103/103/103
f 104/104/104 102/102/102 105/105/105
f 106/106/106 108/108/108 107/107/107
f 108/108/108 106/106/106 109/109/109
f 110/110/110 112/112/112 111/111/111
f 112/112/112 110/110/110 113/113/113
f 114/114/114 116/116/116 115/115/115
f 116/116/116 114/114/114 117/117/117
f 118/118/118 120/120/120 119/119/119
f 120/120/120 118/118/118 121/121/121
f 122/122/122 124/124/124 123/123/123
f 124/124/124 122/122/122 125/125/125
f 126/126/126 128/128/128 127/127/127
f 128/128/128 126/126/126 129/129/129
f 130/130/130 132/132/132 131/131/131
f 132/132/132 130/130/130 133/133/133
f 133/133/133 130/130/130 134/134/134
f 135/135/135 137/137/137 136/136/136
f 137/137/137 135/135/135 138/138/138
f 139/139/139 141/141/141 140/140/140
f 141/141/141 139/139/139 142/142/142
f 143/143/143 145/145/145 144/144/144
f 145/145/145 143/143/143 146/146/146
f 147/147/147 149/149/149 148/148/148
f 149/149/149 147/147/147 150/150/150
f 151/151/151 153/153/153 152/152/152
f 153/153/153 151/151/151 154/154/154
f 155/155/155 157/157/157 156/156/156
f 157/157/157 155/155/155 158/158/158
f 159/159/159 161/161/161 160/160/160
f 161/161/161 159/159/159 162/162/162
f 163/163/163 165/165/165 164/164/164
f 165/165/165 163/163/163 166/166/166
f 167/167/167 169/169/169 168/168/168
f 169/169/169 167/167/167 170/170/170
f 171/171/171 173/173/173 172/172/172
f 173/173/173 171/171/171 174/174/174
f 175/175/175 177/177/177 176/176/176
f 177/177/177 175/175/175 178/178/178
f 179/179/179 181/181/181 180/180/180
f 180/180/180 181/181/181 182/182/182
f 183/183/183 182/182/182 181/181/181
f 183/183/183 184/184/184 182/182/182
f 184/184/184 185/185/185 179/179/179
f 183/183/183 185/185/185 184/184/184
f 186/186/186 179/179/179 185/185/185
f 186/186/186 181/181/181 179/179/179
f 183/183/183 187/187/187 185/185/185
f 188/188/188 187/187/187 183/183/183
f 189/189/189 181/181/181 186/186/186
f 187/187/187 188/188/188 189/189/189
f 189/189/189 190/190/190 181/181/181
f 190/190/190 189/189/189 188/188/188
f 191/191/191 193/193/193 192/192/192
f 193/193/193 191/191/191 194/194/194
f 195/195/195 192/192/192 193/193/193
f 192/192/192 195/195/195 196/196/196
f 193/193/193 194/194/194 197/197/197
f 196/196/196 195/195/195 198/198/198
f 197/197/197 199/199/199 198/198/198
f 197/197/197 194/194/194 199/199/199
f 200/200/200 198/198/198 199/199/199
f 196/196/196 198/198/198 200/200/200
f 199/199/199 194/194/194 201/201/201
f 196/196/196 200/200/200 202/202/202
f 201/201/201 194/194/194 202/202/202
f 196/196/196 202/202/202 194/194/194

usemtl _defaultMat

f 203/203/203 205/205/205 204/204/204
f 206/206/206 208/208/208 207/207/207
