# Created by Kenney (www.kenney.nl) - UVs and materials modified

mtllib fantasytown.mtl


g fountainCornerInnerSquare

v -0.500 0.112 -0.470
v -0.470 0.112 -0.470
v -0.500 0.140 -0.500
v -0.500 0.140 -0.500
v -0.470 0.112 -0.470
v -0.470 0.112 -0.500
v -0.500 0.000 -0.200
v -0.500 0.000 -0.500
v -0.500 0.056 -0.500
v -0.500 0.056 -0.470
v -0.500 0.112 -0.470
v -0.500 0.280 -0.425
v -0.500 0.140 -0.500
v -0.500 0.280 -0.500
v -0.500 0.280 -0.200
v -0.500 0.140 -0.200
v -0.200 0.140 -0.200
v -0.200 0.000 -0.200
v -0.500 0.000 -0.200
v -0.500 0.140 -0.200
v -0.200 0.280 -0.200
v -0.500 0.280 -0.200
v -0.200 0.000 -0.500
v -0.200 0.000 -0.200
v -0.200 0.140 -0.200
v -0.200 0.140 -0.500
v -0.200 0.280 -0.200
v -0.200 0.280 -0.500
v -0.200 0.280 -0.500
v -0.425 0.280 -0.500
v -0.500 0.280 -0.500
v -0.200 0.140 -0.500
v -0.500 0.140 -0.500
v -0.470 0.112 -0.500
v -0.470 0.056 -0.500
v -0.200 0.000 -0.500
v -0.500 0.056 -0.500
v -0.500 0.000 -0.500
v -0.500 0.112 -0.470
v -0.500 0.056 -0.470
v -0.470 0.056 -0.470
v -0.470 0.112 -0.470
v -0.425 0.280 -0.500
v -0.200 0.280 -0.500
v -0.200 0.280 -0.200
v -0.425 0.280 -0.425
v -0.500 0.280 -0.200
v -0.500 0.280 -0.425
v -0.470 0.056 -0.470
v -0.470 0.056 -0.500
v -0.470 0.112 -0.500
v -0.470 0.112 -0.470
v -0.200 0.000 -0.500
v 0.500 0.000 -0.500
v 0.500 0.000 0.500
v -0.200 0.000 -0.200
v -0.500 0.000 0.500
v -0.500 0.000 -0.200
v -0.500 0.000 -0.200
v -0.200 0.000 -0.200
v -0.200 0.000 -0.500
v -0.500 0.000 -0.500
v -0.500 0.056 -0.500
v -0.470 0.056 -0.500
v -0.470 0.056 -0.470
v -0.500 0.056 -0.470
v -0.500 0.280 -0.500
v -0.200 0.140 -0.500
v 0.500 0.140 -0.500
v 0.500 0.140 0.500
v -0.200 0.140 -0.200
v -0.500 0.140 0.500
v -0.500 0.140 -0.200
v 0.500 0.140 -0.500
v -0.200 0.140 -0.500
v 0.500 0.140 0.500
v -0.200 0.140 -0.200
v -0.500 0.140 0.500
v -0.500 0.140 -0.200

vt -0.500 0.420
vt -0.470 0.420
vt -0.500 0.461
vt 0.500 0.461
vt 0.470 0.420
vt 0.500 0.420
vt 0.200 0.000
vt 0.500 0.000
vt 0.500 0.056
vt 0.470 0.056
vt 0.470 0.112
vt 0.425 0.280
vt 0.500 0.140
vt 0.500 0.280
vt 0.200 0.280
vt -7.874 5.512
vt 0.200 0.140
vt 0.200 0.000
vt 0.500 0.000
vt 0.500 0.140
vt 0.200 0.280
vt 0.500 0.280
vt -0.500 0.000
vt -0.200 0.000
vt -0.200 0.140
vt -0.500 0.140
vt -0.200 0.280
vt -0.500 0.280
vt -0.200 0.280
vt 16.732 11.024
vt -0.500 0.280
vt -0.200 0.140
vt -0.500 0.140
vt -0.470 0.112
vt -0.470 0.056
vt -0.200 0.000
vt -0.500 0.056
vt -0.500 0.000
vt -0.500 0.112
vt -0.500 0.056
vt -0.470 0.056
vt -0.470 0.112
vt -0.500 0.425
vt -0.500 0.200
vt -0.200 0.200
vt -0.425 0.425
vt -0.200 0.500
vt -0.425 0.500
vt 0.470 0.056
vt 0.500 0.056
vt 0.500 0.112
vt 0.470 0.112
vt -0.500 0.200
vt -0.500 -0.500
vt 0.500 -0.500
vt -0.200 0.200
vt 0.500 0.500
vt -0.200 0.500
vt 0.200 0.500
vt 0.200 0.200
vt 0.500 0.200
vt 0.500 0.500
vt -0.500 0.500
vt -0.500 0.470
vt -0.470 0.470
vt -0.470 0.500
vt -0.500 0.500
vt -0.500 0.200
vt -0.500 -0.500
vt 0.500 -0.500
vt -0.200 0.200
vt 0.500 0.500
vt -0.200 0.500
vt 0.500 -0.500
vt 0.500 0.200
vt -0.500 -0.500
vt 0.200 0.200
vt -0.500 0.500
vt 0.200 0.500

vn 0.000 -0.731 -0.682
vn 0.000 -0.731 -0.682
vn 0.000 -0.731 -0.682
vn -0.682 -0.731 0.000
vn -0.682 -0.731 0.000
vn -0.682 -0.731 0.000
vn -1.000 0.000 0.000
vn -1.000 0.000 0.000
vn -1.000 0.000 0.000
vn -1.000 0.000 0.000
vn -1.000 0.000 0.000
vn -1.000 0.000 0.000
vn -1.000 0.000 0.000
vn -1.000 0.000 0.000
vn -1.000 0.000 0.000
vn -1.000 0.000 0.000
vn 0.000 0.000 1.000
vn 0.000 0.000 1.000
vn 0.000 0.000 1.000
vn 0.000 0.000 1.000
vn 0.000 0.000 1.000
vn 0.000 0.000 1.000
vn 1.000 0.000 0.000
vn 1.000 0.000 0.000
vn 1.000 0.000 0.000
vn 1.000 0.000 0.000
vn 1.000 0.000 0.000
vn 1.000 0.000 0.000
vn 0.000 0.000 -1.000
vn 0.000 0.000 -1.000
vn 0.000 0.000 -1.000
vn 0.000 0.000 -1.000
vn 0.000 0.000 -1.000
vn 0.000 0.000 -1.000
vn 0.000 0.000 -1.000
vn 0.000 0.000 -1.000
vn 0.000 0.000 -1.000
vn 0.000 0.000 -1.000
vn 0.000 0.000 -1.000
vn 0.000 0.000 -1.000
vn 0.000 0.000 -1.000
vn 0.000 0.000 -1.000
vn 0.000 1.000 0.000
vn 0.000 1.000 0.000
vn 0.000 1.000 0.000
vn 0.000 1.000 0.000
vn 0.000 1.000 0.000
vn 0.000 1.000 0.000
vn -1.000 0.000 0.000
vn -1.000 0.000 0.000
vn -1.000 0.000 0.000
vn -1.000 0.000 0.000
vn 0.000 1.000 0.000
vn 0.000 1.000 0.000
vn 0.000 1.000 0.000
vn 0.000 1.000 0.000
vn 0.000 1.000 0.000
vn 0.000 1.000 0.000
vn 0.000 -1.000 0.000
vn 0.000 -1.000 0.000
vn 0.000 -1.000 0.000
vn 0.000 -1.000 0.000
vn 0.000 1.000 0.000
vn 0.000 1.000 0.000
vn 0.000 1.000 0.000
vn 0.000 1.000 0.000
vn 0.000 1.000 0.000
vn 0.000 1.000 0.000
vn 0.000 1.000 0.000
vn 0.000 1.000 0.000
vn 0.000 1.000 0.000
vn 0.000 1.000 0.000
vn 0.000 1.000 0.000
vn 0.000 -1.000 0.000
vn 0.000 -1.000 0.000
vn 0.000 -1.000 0.000
vn 0.000 -1.000 0.000
vn 0.000 -1.000 0.000
vn 0.000 -1.000 0.000


usemtl stone

f 1/1/1 3/3/3 2/2/2
f 4/4/4 6/6/6 5/5/5
f 7/7/7 9/9/9 8/8/8
f 9/9/9 7/7/7 10/10/10
f 10/10/10 7/7/7 11/11/11
f 11/11/11 7/7/7 12/12/12
f 12/12/12 13/13/13 11/11/11
f 13/13/13 12/12/12 14/14/14
f 12/12/12 7/7/7 15/15/15
f 15/15/15 7/7/7 16/16/16
f 17/17/17 19/19/19 18/18/18
f 19/19/19 17/17/17 20/20/20
f 21/21/21 20/20/20 17/17/17
f 20/20/20 21/21/21 22/22/22
f 23/23/23 25/25/25 24/24/24
f 25/25/25 23/23/23 26/26/26
f 26/26/26 27/27/27 25/25/25
f 27/27/27 26/26/26 28/28/28
f 29/29/29 31/31/31 30/30/30
f 32/32/32 31/31/31 29/29/29
f 32/32/32 33/33/33 31/31/31
f 32/32/32 34/34/34 33/33/33
f 32/32/32 35/35/35 34/34/34
f 35/35/35 32/32/32 36/36/36
f 36/36/36 37/37/37 35/35/35
f 37/37/37 36/36/36 38/38/38
f 39/39/39 41/41/41 40/40/40
f 41/41/41 39/39/39 42/42/42
f 43/43/43 45/45/45 44/44/44
f 45/45/45 43/43/43 46/46/46
f 45/45/45 46/46/46 47/47/47
f 47/47/47 46/46/46 48/48/48
f 49/49/49 51/51/51 50/50/50
f 51/51/51 49/49/49 52/52/52
f 53/53/53 55/55/55 54/54/54
f 55/55/55 53/53/53 56/56/56
f 55/55/55 56/56/56 57/57/57
f 57/57/57 56/56/56 58/58/58
f 59/59/59 61/61/61 60/60/60
f 61/61/61 59/59/59 62/62/62

usemtl stoneDark

f 63/63/63 65/65/65 64/64/64
f 65/65/65 63/63/63 66/66/66
f 67/67/67 46/46/46 43/43/43
f 46/46/46 67/67/67 48/48/48

usemtl water

f 68/68/68 70/70/70 69/69/69
f 70/70/70 68/68/68 71/71/71
f 70/70/70 71/71/71 72/72/72
f 72/72/72 71/71/71 73/73/73
f 74/74/74 76/76/76 75/75/75
f 77/77/77 75/75/75 76/76/76
f 78/78/78 77/77/77 76/76/76
f 79/79/79 77/77/77 78/78/78
