# Created by Kenney (www.kenney.nl) - UVs and materials modified

mtllib fantasytown.mtl


g planks

v 0.203 0.000 -0.500
v 0.351 0.000 -0.500
v 0.351 0.030 -0.500
v 0.203 0.030 -0.500
v 0.000 0.060 -0.500
v 0.000 0.030 -0.500
v 0.500 0.060 -0.500
v 0.500 0.030 -0.500
v 0.203 0.000 -0.500
v 0.203 0.000 0.500
v 0.351 0.000 0.500
v 0.351 0.000 -0.500
v 0.351 0.030 -0.500
v 0.351 0.000 -0.500
v 0.351 0.000 0.500
v 0.351 0.030 0.500
v 0.351 0.030 -0.351
v 0.351 0.030 -0.330
v 0.351 0.030 -0.181
v 0.351 0.030 -0.159
v 0.351 0.030 -0.011
v 0.351 0.030 0.011
v 0.351 0.030 0.159
v 0.351 0.030 0.181
v 0.351 0.030 0.330
v 0.351 0.030 0.351
v 0.351 0.000 0.500
v 0.203 0.000 0.500
v 0.203 0.030 0.500
v 0.351 0.030 0.500
v 0.000 0.060 0.500
v 0.000 0.030 0.500
v 0.500 0.030 0.500
v 0.500 0.060 0.500
v 0.351 0.030 -0.159
v 0.203 0.030 -0.159
v 0.203 0.030 -0.181
v 0.351 0.030 -0.181
v 0.203 0.030 0.500
v 0.203 0.000 0.500
v 0.203 0.000 -0.500
v 0.203 0.030 -0.500
v 0.203 0.030 0.351
v 0.203 0.030 0.330
v 0.203 0.030 0.181
v 0.203 0.030 0.159
v 0.203 0.030 0.011
v 0.203 0.030 -0.011
v 0.203 0.030 -0.159
v 0.203 0.030 -0.181
v 0.203 0.030 -0.330
v 0.203 0.030 -0.350
v 0.203 0.030 -0.351
v 0.351 0.030 -0.330
v 0.500 0.030 -0.330
v 0.500 0.060 -0.330
v 0.000 0.060 -0.330
v 0.203 0.030 -0.330
v 0.000 0.030 -0.330
v 0.000 0.060 -0.181
v 0.000 0.030 -0.181
v 0.000 0.030 -0.330
v 0.000 0.060 -0.330
v 0.500 0.060 -0.181
v 0.000 0.060 -0.181
v 0.000 0.060 -0.330
v 0.500 0.060 -0.330
v 0.500 0.060 -0.330
v 0.500 0.030 -0.330
v 0.500 0.030 -0.181
v 0.500 0.060 -0.181
v 0.000 0.060 -0.181
v 0.500 0.060 -0.181
v 0.500 0.030 -0.181
v 0.351 0.030 -0.181
v 0.203 0.030 -0.181
v 0.000 0.030 -0.181
v 0.351 0.030 -0.330
v 0.351 0.030 -0.181
v 0.500 0.030 -0.181
v 0.500 0.030 -0.330
v 0.351 0.030 -0.330
v 0.203 0.030 -0.330
v 0.203 0.030 -0.350
v 0.351 0.030 -0.351
v 0.203 0.030 -0.351
v 0.500 0.060 0.500
v 0.000 0.060 0.500
v 0.000 0.060 0.351
v 0.500 0.060 0.351
v 0.351 0.030 0.351
v 0.500 0.030 0.351
v 0.500 0.060 0.351
v 0.000 0.060 0.351
v 0.203 0.030 0.351
v 0.000 0.030 0.351
v 0.000 0.060 0.500
v 0.000 0.030 0.500
v 0.000 0.030 0.351
v 0.000 0.060 0.351
v 0.500 0.060 0.351
v 0.500 0.030 0.351
v 0.500 0.030 0.500
v 0.500 0.060 0.500
v 0.351 0.030 0.351
v 0.351 0.030 0.500
v 0.500 0.030 0.500
v 0.500 0.030 0.351
v 0.000 0.060 -0.011
v 0.500 0.060 -0.011
v 0.500 0.030 -0.011
v 0.351 0.030 -0.011
v 0.203 0.030 -0.011
v 0.000 0.030 -0.011
v 0.000 0.060 -0.011
v 0.000 0.030 -0.011
v 0.000 0.030 -0.159
v 0.000 0.060 -0.159
v 0.500 0.060 -0.159
v 0.500 0.030 -0.159
v 0.500 0.030 -0.011
v 0.500 0.060 -0.011
v 0.500 0.060 -0.011
v 0.000 0.060 -0.011
v 0.000 0.060 -0.159
v 0.500 0.060 -0.159
v 0.351 0.030 -0.159
v 0.500 0.030 -0.159
v 0.500 0.060 -0.159
v 0.000 0.060 -0.159
v 0.203 0.030 -0.159
v 0.000 0.030 -0.159
v 0.351 0.030 -0.159
v 0.351 0.030 -0.011
v 0.500 0.030 -0.011
v 0.500 0.030 -0.159
v 0.351 0.030 0.181
v 0.203 0.030 0.181
v 0.203 0.030 0.159
v 0.351 0.030 0.159
v 0.000 0.060 -0.351
v 0.000 0.030 -0.351
v 0.000 0.030 -0.500
v 0.000 0.060 -0.500
v 0.500 0.060 -0.500
v 0.500 0.030 -0.500
v 0.500 0.030 -0.351
v 0.500 0.060 -0.351
v 0.000 0.060 -0.351
v 0.500 0.060 -0.351
v 0.500 0.030 -0.351
v 0.351 0.030 -0.351
v 0.203 0.030 -0.351
v 0.000 0.030 -0.351
v 0.500 0.060 -0.351
v 0.000 0.060 -0.351
v 0.000 0.060 -0.500
v 0.500 0.060 -0.500
v 0.351 0.030 -0.500
v 0.351 0.030 -0.351
v 0.500 0.030 -0.351
v 0.500 0.030 -0.500
v 0.500 0.060 0.159
v 0.000 0.060 0.159
v 0.000 0.060 0.011
v 0.500 0.060 0.011
v 0.351 0.030 0.011
v 0.500 0.030 0.011
v 0.500 0.060 0.011
v 0.000 0.060 0.011
v 0.203 0.030 0.011
v 0.000 0.030 0.011
v 0.000 0.060 0.159
v 0.000 0.030 0.159
v 0.000 0.030 0.011
v 0.000 0.060 0.011
v 0.500 0.060 0.011
v 0.500 0.030 0.011
v 0.500 0.030 0.159
v 0.500 0.060 0.159
v 0.000 0.060 0.159
v 0.500 0.060 0.159
v 0.500 0.030 0.159
v 0.351 0.030 0.159
v 0.203 0.030 0.159
v 0.000 0.030 0.159
v 0.351 0.030 0.011
v 0.203 0.030 0.011
v 0.203 0.030 -0.011
v 0.351 0.030 -0.011
v 0.351 0.030 0.011
v 0.351 0.030 0.159
v 0.500 0.030 0.159
v 0.500 0.030 0.011
v 0.351 0.030 0.181
v 0.500 0.030 0.181
v 0.500 0.060 0.181
v 0.000 0.060 0.181
v 0.203 0.030 0.181
v 0.000 0.030 0.181
v 0.000 0.060 0.330
v 0.000 0.030 0.330
v 0.000 0.030 0.181
v 0.000 0.060 0.181
v 0.500 0.060 0.181
v 0.500 0.030 0.181
v 0.500 0.030 0.330
v 0.500 0.060 0.330
v 0.000 0.060 0.330
v 0.500 0.060 0.330
v 0.500 0.030 0.330
v 0.351 0.030 0.330
v 0.203 0.030 0.330
v 0.000 0.030 0.330
v 0.500 0.060 0.330
v 0.000 0.060 0.330
v 0.000 0.060 0.181
v 0.500 0.060 0.181
v 0.351 0.030 0.181
v 0.351 0.030 0.330
v 0.500 0.030 0.330
v 0.500 0.030 0.181
v 0.351 0.030 0.351
v 0.203 0.030 0.351
v 0.203 0.030 0.330
v 0.351 0.030 0.330
v 0.000 0.030 -0.500
v 0.000 0.030 -0.351
v 0.203 0.030 -0.351
v 0.203 0.030 -0.500
v 0.000 0.030 -0.330
v 0.000 0.030 -0.181
v 0.203 0.030 -0.181
v 0.203 0.030 -0.330
v 0.000 0.030 -0.159
v 0.000 0.030 -0.011
v 0.203 0.030 -0.011
v 0.203 0.030 -0.159
v 0.000 0.030 0.011
v 0.000 0.030 0.159
v 0.203 0.030 0.159
v 0.203 0.030 0.011
v 0.000 0.030 0.181
v 0.000 0.030 0.330
v 0.203 0.030 0.330
v 0.203 0.030 0.181
v 0.000 0.030 0.500
v 0.203 0.030 0.500
v 0.203 0.030 0.351
v 0.000 0.030 0.351
v 0.351 0.030 -0.351
v 0.203 0.030 -0.351
v 0.203 0.030 -0.500
v 0.203 0.030 -0.500
v 0.351 0.030 -0.500
v 0.351 0.030 -0.351
v 0.203 0.030 -0.330
v 0.203 0.030 -0.181
v 0.351 0.030 -0.181
v 0.351 0.030 -0.181
v 0.351 0.030 -0.330
v 0.203 0.030 -0.330
v 0.351 0.030 -0.011
v 0.203 0.030 -0.011
v 0.203 0.030 -0.159
v 0.203 0.030 -0.159
v 0.351 0.030 -0.159
v 0.351 0.030 -0.011
v 0.351 0.030 0.159
v 0.203 0.030 0.159
v 0.203 0.030 0.011
v 0.203 0.030 0.011
v 0.351 0.030 0.011
v 0.351 0.030 0.159
v 0.351 0.030 0.330
v 0.203 0.030 0.330
v 0.203 0.030 0.181
v 0.203 0.030 0.181
v 0.351 0.030 0.181
v 0.351 0.030 0.330
v 0.351 0.030 0.500
v 0.203 0.030 0.500
v 0.203 0.030 0.351
v 0.203 0.030 0.351
v 0.351 0.030 0.351
v 0.351 0.030 0.500

vt 0.203 0.000
vt 0.351 0.000
vt 0.351 0.030
vt 0.203 0.030
vt 0.000 0.060
vt 0.000 0.030
vt 0.500 0.060
vt 0.500 0.030
vt 0.500 -0.203
vt -0.500 -0.203
vt -0.500 -0.351
vt 0.500 -0.351
vt -0.500 0.030
vt -0.500 0.000
vt 0.500 0.000
vt 0.500 0.030
vt 13.835 1.181
vt 12.981 1.181
vt 7.131 1.181
vt 6.277 1.181
vt 0.427 1.181
vt -0.427 1.181
vt -6.277 1.181
vt -7.131 1.181
vt -12.981 1.181
vt -13.835 1.181
vt -0.351 0.000
vt -0.203 0.000
vt -0.203 0.030
vt -0.351 0.030
vt 0.000 0.060
vt 0.000 0.030
vt -0.500 0.030
vt -0.500 0.060
vt -0.159 -0.351
vt -0.159 -0.203
vt -0.181 -0.203
vt -0.181 -0.351
vt -0.500 0.030
vt -0.500 0.000
vt 0.500 0.000
vt 0.500 0.030
vt 13.835 1.181
vt 12.981 1.181
vt 7.131 1.181
vt 6.277 1.181
vt 0.427 1.181
vt -0.427 1.181
vt -6.277 1.181
vt -7.131 1.181
vt -12.981 1.181
vt -13.780 1.181
vt -13.835 1.181
vt 0.351 0.030
vt 0.500 0.030
vt 0.500 0.060
vt 0.000 0.060
vt 0.203 0.030
vt 0.000 0.030
vt 0.181 0.060
vt 0.181 0.030
vt 0.330 0.030
vt 0.330 0.060
vt -0.181 -0.500
vt -0.181 0.000
vt -0.330 0.000
vt -0.330 -0.500
vt -0.330 0.060
vt -0.330 0.030
vt -0.181 0.030
vt -0.181 0.060
vt 0.000 0.060
vt -0.500 0.060
vt -0.500 0.030
vt -0.351 0.030
vt -0.203 0.030
vt 0.000 0.030
vt 0.330 -0.351
vt 0.181 -0.351
vt 0.181 -0.500
vt 0.330 -0.500
vt -0.330 -0.351
vt -0.330 -0.203
vt -0.350 -0.203
vt -0.351 -0.351
vt -0.351 -0.203
vt 0.500 -0.500
vt 0.500 0.000
vt 0.351 0.000
vt 0.351 -0.500
vt 0.351 0.030
vt 0.500 0.030
vt 0.500 0.060
vt 0.000 0.060
vt 0.203 0.030
vt 0.000 0.030
vt -0.500 0.060
vt -0.500 0.030
vt -0.351 0.030
vt -0.351 0.060
vt 0.351 0.060
vt 0.351 0.030
vt 0.500 0.030
vt 0.500 0.060
vt -0.351 -0.351
vt -0.500 -0.351
vt -0.500 -0.500
vt -0.351 -0.500
vt 0.000 0.060
vt -0.500 0.060
vt -0.500 0.030
vt -0.351 0.030
vt -0.203 0.030
vt 0.000 0.030
vt 0.011 0.060
vt 0.011 0.030
vt 0.159 0.030
vt 0.159 0.060
vt -0.159 0.060
vt -0.159 0.030
vt -0.011 0.030
vt -0.011 0.060
vt -0.011 -0.500
vt -0.011 0.000
vt -0.159 0.000
vt -0.159 -0.500
vt 0.351 0.030
vt 0.500 0.030
vt 0.500 0.060
vt 0.000 0.060
vt 0.203 0.030
vt 0.000 0.030
vt 0.159 -0.351
vt 0.011 -0.351
vt 0.011 -0.500
vt 0.159 -0.500
vt 0.181 -0.351
vt 0.181 -0.203
vt 0.159 -0.203
vt 0.159 -0.351
vt 0.351 0.060
vt 0.351 0.030
vt 0.500 0.030
vt 0.500 0.060
vt -0.500 0.060
vt -0.500 0.030
vt -0.351 0.030
vt -0.351 0.060
vt 0.000 0.060
vt -0.500 0.060
vt -0.500 0.030
vt -0.351 0.030
vt -0.203 0.030
vt 0.000 0.030
vt -0.351 -0.500
vt -0.351 0.000
vt -0.500 0.000
vt -0.500 -0.500
vt 0.500 -0.351
vt 0.351 -0.351
vt 0.351 -0.500
vt 0.500 -0.500
vt 0.159 -0.500
vt 0.159 0.000
vt 0.011 0.000
vt 0.011 -0.500
vt 0.351 0.030
vt 0.500 0.030
vt 0.500 0.060
vt 0.000 0.060
vt 0.203 0.030
vt 0.000 0.030
vt -0.159 0.060
vt -0.159 0.030
vt -0.011 0.030
vt -0.011 0.060
vt 0.011 0.060
vt 0.011 0.030
vt 0.159 0.030
vt 0.159 0.060
vt 0.000 0.060
vt -0.500 0.060
vt -0.500 0.030
vt -0.351 0.030
vt -0.203 0.030
vt 0.000 0.030
vt 0.011 -0.351
vt 0.011 -0.203
vt -0.011 -0.203
vt -0.011 -0.351
vt -0.011 -0.351
vt -0.159 -0.351
vt -0.159 -0.500
vt -0.011 -0.500
vt 0.351 0.030
vt 0.500 0.030
vt 0.500 0.060
vt 0.000 0.060
vt 0.203 0.030
vt 0.000 0.030
vt -0.330 0.060
vt -0.330 0.030
vt -0.181 0.030
vt -0.181 0.060
vt 0.181 0.060
vt 0.181 0.030
vt 0.330 0.030
vt 0.330 0.060
vt 0.000 0.060
vt -0.500 0.060
vt -0.500 0.030
vt -0.351 0.030
vt -0.203 0.030
vt 0.000 0.030
vt 0.330 -0.500
vt 0.330 0.000
vt 0.181 0.000
vt 0.181 -0.500
vt -0.181 -0.351
vt -0.330 -0.351
vt -0.330 -0.500
vt -0.181 -0.500
vt 0.351 -0.351
vt 0.351 -0.203
vt 0.330 -0.203
vt 0.330 -0.351
vt 0.500 0.000
vt 0.351 0.000
vt 0.351 -0.203
vt 0.500 -0.203
vt 0.330 0.000
vt 0.181 0.000
vt 0.181 -0.203
vt 0.330 -0.203
vt 0.159 0.000
vt 0.011 0.000
vt 0.011 -0.203
vt 0.159 -0.203
vt -0.011 0.000
vt -0.159 0.000
vt -0.159 -0.203
vt -0.011 -0.203
vt -0.181 0.000
vt -0.330 0.000
vt -0.330 -0.203
vt -0.181 -0.203
vt -0.500 0.000
vt -0.500 -0.203
vt -0.351 -0.203
vt -0.351 0.000
vt -0.351 -0.351
vt -0.351 -0.203
vt -0.500 -0.203
vt -0.500 -0.203
vt -0.500 -0.351
vt -0.351 -0.351
vt 0.330 -0.203
vt 0.181 -0.203
vt 0.181 -0.351
vt 0.181 -0.351
vt 0.330 -0.351
vt 0.330 -0.203
vt -0.011 -0.351
vt -0.011 -0.203
vt -0.159 -0.203
vt -0.159 -0.203
vt -0.159 -0.351
vt -0.011 -0.351
vt 0.159 -0.351
vt 0.159 -0.203
vt 0.011 -0.203
vt 0.011 -0.203
vt 0.011 -0.351
vt 0.159 -0.351
vt 0.330 -0.351
vt 0.330 -0.203
vt 0.181 -0.203
vt 0.181 -0.203
vt 0.181 -0.351
vt 0.330 -0.351
vt 0.500 -0.351
vt 0.500 -0.203
vt 0.351 -0.203
vt 0.351 -0.203
vt 0.351 -0.351
vt 0.500 -0.351

vn 0.000 0.000 -1.000
vn 0.000 0.000 -1.000
vn 0.000 0.000 -1.000
vn 0.000 0.000 -1.000
vn 0.000 0.000 -1.000
vn 0.000 0.000 -1.000
vn 0.000 0.000 -1.000
vn 0.000 0.000 -1.000
vn 0.000 -1.000 0.000
vn 0.000 -1.000 0.000
vn 0.000 -1.000 0.000
vn 0.000 -1.000 0.000
vn 1.000 0.000 0.000
vn 1.000 0.000 0.000
vn 1.000 0.000 0.000
vn 1.000 0.000 0.000
vn 1.000 0.000 0.000
vn 1.000 0.000 0.000
vn 1.000 0.000 0.000
vn 1.000 0.000 0.000
vn 1.000 0.000 0.000
vn 1.000 0.000 0.000
vn 1.000 0.000 0.000
vn 1.000 0.000 0.000
vn 1.000 0.000 0.000
vn 1.000 0.000 0.000
vn 0.000 0.000 1.000
vn 0.000 0.000 1.000
vn 0.000 0.000 1.000
vn 0.000 0.000 1.000
vn 0.000 0.000 1.000
vn 0.000 0.000 1.000
vn 0.000 0.000 1.000
vn 0.000 0.000 1.000
vn 0.000 1.000 0.000
vn 0.000 1.000 0.000
vn 0.000 1.000 0.000
vn 0.000 1.000 0.000
vn -1.000 0.000 0.000
vn -1.000 0.000 0.000
vn -1.000 0.000 0.000
vn -1.000 0.000 0.000
vn -1.000 0.000 0.000
vn -1.000 0.000 0.000
vn -1.000 0.000 0.000
vn -1.000 0.000 0.000
vn -1.000 0.000 0.000
vn -1.000 0.000 0.000
vn -1.000 0.000 0.000
vn -1.000 0.000 0.000
vn -1.000 0.000 0.000
vn -1.000 0.000 0.000
vn -1.000 0.000 0.000
vn 0.000 0.000 -1.000
vn 0.000 0.000 -1.000
vn 0.000 0.000 -1.000
vn 0.000 0.000 -1.000
vn 0.000 0.000 -1.000
vn 0.000 0.000 -1.000
vn -1.000 0.000 0.000
vn -1.000 0.000 0.000
vn -1.000 0.000 0.000
vn -1.000 0.000 0.000
vn 0.000 1.000 0.000
vn 0.000 1.000 0.000
vn 0.000 1.000 0.000
vn 0.000 1.000 0.000
vn 1.000 0.000 0.000
vn 1.000 0.000 0.000
vn 1.000 0.000 0.000
vn 1.000 0.000 0.000
vn 0.000 0.000 1.000
vn 0.000 0.000 1.000
vn 0.000 0.000 1.000
vn 0.000 0.000 1.000
vn 0.000 0.000 1.000
vn 0.000 0.000 1.000
vn 0.000 -1.000 0.000
vn 0.000 -1.000 0.000
vn 0.000 -1.000 0.000
vn 0.000 -1.000 0.000
vn 0.000 1.000 0.000
vn 0.000 1.000 0.000
vn 0.000 1.000 0.000
vn 0.000 1.000 0.000
vn 0.000 1.000 0.000
vn 0.000 1.000 0.000
vn 0.000 1.000 0.000
vn 0.000 1.000 0.000
vn 0.000 1.000 0.000
vn 0.000 0.000 -1.000
vn 0.000 0.000 -1.000
vn 0.000 0.000 -1.000
vn 0.000 0.000 -1.000
vn 0.000 0.000 -1.000
vn 0.000 0.000 -1.000
vn -1.000 0.000 0.000
vn -1.000 0.000 0.000
vn -1.000 0.000 0.000
vn -1.000 0.000 0.000
vn 1.000 0.000 0.000
vn 1.000 0.000 0.000
vn 1.000 0.000 0.000
vn 1.000 0.000 0.000
vn 0.000 -1.000 0.000
vn 0.000 -1.000 0.000
vn 0.000 -1.000 0.000
vn 0.000 -1.000 0.000
vn 0.000 0.000 1.000
vn 0.000 0.000 1.000
vn 0.000 0.000 1.000
vn 0.000 0.000 1.000
vn 0.000 0.000 1.000
vn 0.000 0.000 1.000
vn -1.000 0.000 0.000
vn -1.000 0.000 0.000
vn -1.000 0.000 0.000
vn -1.000 0.000 0.000
vn 1.000 0.000 0.000
vn 1.000 0.000 0.000
vn 1.000 0.000 0.000
vn 1.000 0.000 0.000
vn 0.000 1.000 0.000
vn 0.000 1.000 0.000
vn 0.000 1.000 0.000
vn 0.000 1.000 0.000
vn 0.000 0.000 -1.000
vn 0.000 0.000 -1.000
vn 0.000 0.000 -1.000
vn 0.000 0.000 -1.000
vn 0.000 0.000 -1.000
vn 0.000 0.000 -1.000
vn 0.000 -1.000 0.000
vn 0.000 -1.000 0.000
vn 0.000 -1.000 0.000
vn 0.000 -1.000 0.000
vn 0.000 1.000 0.000
vn 0.000 1.000 0.000
vn 0.000 1.000 0.000
vn 0.000 1.000 0.000
vn -1.000 0.000 0.000
vn -1.000 0.000 0.000
vn -1.000 0.000 0.000
vn -1.000 0.000 0.000
vn 1.000 0.000 0.000
vn 1.000 0.000 0.000
vn 1.000 0.000 0.000
vn 1.000 0.000 0.000
vn 0.000 0.000 1.000
vn 0.000 0.000 1.000
vn 0.000 0.000 1.000
vn 0.000 0.000 1.000
vn 0.000 0.000 1.000
vn 0.000 0.000 1.000
vn 0.000 1.000 0.000
vn 0.000 1.000 0.000
vn 0.000 1.000 0.000
vn 0.000 1.000 0.000
vn 0.000 -1.000 0.000
vn 0.000 -1.000 0.000
vn 0.000 -1.000 0.000
vn 0.000 -1.000 0.000
vn 0.000 1.000 0.000
vn 0.000 1.000 0.000
vn 0.000 1.000 0.000
vn 0.000 1.000 0.000
vn 0.000 0.000 -1.000
vn 0.000 0.000 -1.000
vn 0.000 0.000 -1.000
vn 0.000 0.000 -1.000
vn 0.000 0.000 -1.000
vn 0.000 0.000 -1.000
vn -1.000 0.000 0.000
vn -1.000 0.000 0.000
vn -1.000 0.000 0.000
vn -1.000 0.000 0.000
vn 1.000 0.000 0.000
vn 1.000 0.000 0.000
vn 1.000 0.000 0.000
vn 1.000 0.000 0.000
vn 0.000 0.000 1.000
vn 0.000 0.000 1.000
vn 0.000 0.000 1.000
vn 0.000 0.000 1.000
vn 0.000 0.000 1.000
vn 0.000 0.000 1.000
vn 0.000 1.000 0.000
vn 0.000 1.000 0.000
vn 0.000 1.000 0.000
vn 0.000 1.000 0.000
vn 0.000 -1.000 0.000
vn 0.000 -1.000 0.000
vn 0.000 -1.000 0.000
vn 0.000 -1.000 0.000
vn 0.000 0.000 -1.000
vn 0.000 0.000 -1.000
vn 0.000 0.000 -1.000
vn 0.000 0.000 -1.000
vn 0.000 0.000 -1.000
vn 0.000 0.000 -1.000
vn -1.000 0.000 0.000
vn -1.000 0.000 0.000
vn -1.000 0.000 0.000
vn -1.000 0.000 0.000
vn 1.000 0.000 0.000
vn 1.000 0.000 0.000
vn 1.000 0.000 0.000
vn 1.000 0.000 0.000
vn 0.000 0.000 1.000
vn 0.000 0.000 1.000
vn 0.000 0.000 1.000
vn 0.000 0.000 1.000
vn 0.000 0.000 1.000
vn 0.000 0.000 1.000
vn 0.000 1.000 0.000
vn 0.000 1.000 0.000
vn 0.000 1.000 0.000
vn 0.000 1.000 0.000
vn 0.000 -1.000 0.000
vn 0.000 -1.000 0.000
vn 0.000 -1.000 0.000
vn 0.000 -1.000 0.000
vn 0.000 1.000 0.000
vn 0.000 1.000 0.000
vn 0.000 1.000 0.000
vn 0.000 1.000 0.000
vn 0.000 -1.000 0.000
vn 0.000 -1.000 0.000
vn 0.000 -1.000 0.000
vn 0.000 -1.000 0.000
vn 0.000 -1.000 0.000
vn 0.000 -1.000 0.000
vn 0.000 -1.000 0.000
vn 0.000 -1.000 0.000
vn 0.000 -1.000 0.000
vn 0.000 -1.000 0.000
vn 0.000 -1.000 0.000
vn 0.000 -1.000 0.000
vn 0.000 -1.000 0.000
vn 0.000 -1.000 0.000
vn 0.000 -1.000 0.000
vn 0.000 -1.000 0.000
vn 0.000 -1.000 0.000
vn 0.000 -1.000 0.000
vn 0.000 -1.000 0.000
vn 0.000 -1.000 0.000
vn 0.000 -1.000 0.000
vn 0.000 -1.000 0.000
vn 0.000 -1.000 0.000
vn 0.000 -1.000 0.000
vn 0.000 1.000 0.000
vn 0.000 1.000 0.000
vn 0.000 1.000 0.000
vn 0.000 1.000 0.000
vn 0.000 1.000 0.000
vn 0.000 1.000 0.000
vn 0.000 -1.000 0.000
vn 0.000 -1.000 0.000
vn 0.000 -1.000 0.000
vn 0.000 -1.000 0.000
vn 0.000 -1.000 0.000
vn 0.000 -1.000 0.000
vn 0.000 1.000 0.000
vn 0.000 1.000 0.000
vn 0.000 1.000 0.000
vn 0.000 1.000 0.000
vn 0.000 1.000 0.000
vn 0.000 1.000 0.000
vn 0.000 1.000 0.000
vn 0.000 1.000 0.000
vn 0.000 1.000 0.000
vn 0.000 1.000 0.000
vn 0.000 1.000 0.000
vn 0.000 1.000 0.000
vn 0.000 1.000 0.000
vn 0.000 1.000 0.000
vn 0.000 1.000 0.000
vn 0.000 1.000 0.000
vn 0.000 1.000 0.000
vn 0.000 1.000 0.000
vn 0.000 1.000 0.000
vn 0.000 1.000 0.000
vn 0.000 1.000 0.000
vn 0.000 1.000 0.000
vn 0.000 1.000 0.000
vn 0.000 1.000 0.000


usemtl wood

f 1/1/1 3/3/3 2/2/2
f 3/3/3 1/1/1 4/4/4
f 5/5/5 3/3/3 4/4/4
f 5/5/5 4/4/4 6/6/6
f 7/7/7 3/3/3 5/5/5
f 3/3/3 7/7/7 8/8/8
f 9/9/9 11/11/11 10/10/10
f 11/11/11 9/9/9 12/12/12
f 13/13/13 15/15/15 14/14/14
f 15/15/15 13/13/13 16/16/16
f 16/16/16 13/13/13 17/17/17
f 16/16/16 17/17/17 18/18/18
f 16/16/16 18/18/18 19/19/19
f 16/16/16 19/19/19 20/20/20
f 16/16/16 20/20/20 21/21/21
f 16/16/16 21/21/21 22/22/22
f 16/16/16 22/22/22 23/23/23
f 16/16/16 23/23/23 24/24/24
f 16/16/16 24/24/24 25/25/25
f 16/16/16 25/25/25 26/26/26
f 27/27/27 29/29/29 28/28/28
f 29/29/29 27/27/27 30/30/30
f 30/30/30 31/31/31 29/29/29
f 29/29/29 31/31/31 32/32/32
f 33/33/33 31/31/31 30/30/30
f 31/31/31 33/33/33 34/34/34
f 35/35/35 37/37/37 36/36/36
f 37/37/37 35/35/35 38/38/38
f 39/39/39 41/41/41 40/40/40
f 41/41/41 39/39/39 42/42/42
f 42/42/42 39/39/39 43/43/43
f 42/42/42 43/43/43 44/44/44
f 42/42/42 44/44/44 45/45/45
f 42/42/42 45/45/45 46/46/46
f 42/42/42 46/46/46 47/47/47
f 42/42/42 47/47/47 48/48/48
f 42/42/42 48/48/48 49/49/49
f 42/42/42 49/49/49 50/50/50
f 42/42/42 50/50/50 51/51/51
f 42/42/42 51/51/51 52/52/52
f 42/42/42 52/52/52 53/53/53
f 54/54/54 56/56/56 55/55/55
f 56/56/56 54/54/54 57/57/57
f 57/57/57 54/54/54 58/58/58
f 57/57/57 58/58/58 59/59/59
f 60/60/60 62/62/62 61/61/61
f 62/62/62 60/60/60 63/63/63
f 64/64/64 66/66/66 65/65/65
f 66/66/66 64/64/64 67/67/67
f 68/68/68 70/70/70 69/69/69
f 70/70/70 68/68/68 71/71/71
f 72/72/72 74/74/74 73/73/73
f 74/74/74 72/72/72 75/75/75
f 75/75/75 72/72/72 76/76/76
f 76/76/76 72/72/72 77/77/77
f 78/78/78 80/80/80 79/79/79
f 80/80/80 78/78/78 81/81/81
f 82/82/82 84/84/84 83/83/83
f 84/84/84 82/82/82 85/85/85
f 84/84/84 85/85/85 86/86/86
f 87/87/87 89/89/89 88/88/88
f 89/89/89 87/87/87 90/90/90
f 91/91/91 93/93/93 92/92/92
f 93/93/93 91/91/91 94/94/94
f 94/94/94 91/91/91 95/95/95
f 94/94/94 95/95/95 96/96/96
f 97/97/97 99/99/99 98/98/98
f 99/99/99 97/97/97 100/100/100
f 101/101/101 103/103/103 102/102/102
f 103/103/103 101/101/101 104/104/104
f 105/105/105 107/107/107 106/106/106
f 107/107/107 105/105/105 108/108/108
f 109/109/109 111/111/111 110/110/110
f 111/111/111 109/109/109 112/112/112
f 112/112/112 109/109/109 113/113/113
f 113/113/113 109/109/109 114/114/114
f 115/115/115 117/117/117 116/116/116
f 117/117/117 115/115/115 118/118/118
f 119/119/119 121/121/121 120/120/120
f 121/121/121 119/119/119 122/122/122
f 123/123/123 125/125/125 124/124/124
f 125/125/125 123/123/123 126/126/126
f 127/127/127 129/129/129 128/128/128
f 129/129/129 127/127/127 130/130/130
f 130/130/130 127/127/127 131/131/131
f 130/130/130 131/131/131 132/132/132
f 133/133/133 135/135/135 134/134/134
f 135/135/135 133/133/133 136/136/136
f 137/137/137 139/139/139 138/138/138
f 139/139/139 137/137/137 140/140/140
f 141/141/141 143/143/143 142/142/142
f 143/143/143 141/141/141 144/144/144
f 145/145/145 147/147/147 146/146/146
f 147/147/147 145/145/145 148/148/148
f 149/149/149 151/151/151 150/150/150
f 151/151/151 149/149/149 152/152/152
f 152/152/152 149/149/149 153/153/153
f 153/153/153 149/149/149 154/154/154
f 155/155/155 157/157/157 156/156/156
f 157/157/157 155/155/155 158/158/158
f 159/159/159 161/161/161 160/160/160
f 161/161/161 159/159/159 162/162/162
f 163/163/163 165/165/165 164/164/164
f 165/165/165 163/163/163 166/166/166
f 167/167/167 169/169/169 168/168/168
f 169/169/169 167/167/167 170/170/170
f 170/170/170 167/167/167 171/171/171
f 170/170/170 171/171/171 172/172/172
f 173/173/173 175/175/175 174/174/174
f 175/175/175 173/173/173 176/176/176
f 177/177/177 179/179/179 178/178/178
f 179/179/179 177/177/177 180/180/180
f 181/181/181 183/183/183 182/182/182
f 183/183/183 181/181/181 184/184/184
f 184/184/184 181/181/181 185/185/185
f 185/185/185 181/181/181 186/186/186
f 187/187/187 189/189/189 188/188/188
f 189/189/189 187/187/187 190/190/190
f 191/191/191 193/193/193 192/192/192
f 193/193/193 191/191/191 194/194/194
f 195/195/195 197/197/197 196/196/196
f 197/197/197 195/195/195 198/198/198
f 198/198/198 195/195/195 199/199/199
f 198/198/198 199/199/199 200/200/200
f 201/201/201 203/203/203 202/202/202
f 203/203/203 201/201/201 204/204/204
f 205/205/205 207/207/207 206/206/206
f 207/207/207 205/205/205 208/208/208
f 209/209/209 211/211/211 210/210/210
f 211/211/211 209/209/209 212/212/212
f 212/212/212 209/209/209 213/213/213
f 213/213/213 209/209/209 214/214/214
f 215/215/215 217/217/217 216/216/216
f 217/217/217 215/215/215 218/218/218
f 219/219/219 221/221/221 220/220/220
f 221/221/221 219/219/219 222/222/222
f 223/223/223 225/225/225 224/224/224
f 225/225/225 223/223/223 226/226/226
f 227/227/227 229/229/229 228/228/228
f 229/229/229 227/227/227 230/230/230
f 231/231/231 233/233/233 232/232/232
f 233/233/233 231/231/231 234/234/234
f 235/235/235 237/237/237 236/236/236
f 237/237/237 235/235/235 238/238/238
f 239/239/239 241/241/241 240/240/240
f 241/241/241 239/239/239 242/242/242
f 243/243/243 245/245/245 244/244/244
f 245/245/245 243/243/243 246/246/246
f 247/247/247 249/249/249 248/248/248
f 249/249/249 247/247/247 250/250/250

usemtl _defaultMat

f 251/251/251 253/253/253 252/252/252
f 254/254/254 256/256/256 255/255/255
f 257/257/257 259/259/259 258/258/258
f 260/260/260 262/262/262 261/261/261
f 263/263/263 265/265/265 264/264/264
f 266/266/266 268/268/268 267/267/267
f 269/269/269 271/271/271 270/270/270
f 272/272/272 274/274/274 273/273/273
f 275/275/275 277/277/277 276/276/276
f 278/278/278 280/280/280 279/279/279
f 281/281/281 283/283/283 282/282/282
f 284/284/284 286/286/286 285/285/285
