# Created by Kenney (www.kenney.nl) - UVs and materials modified

mtllib fantasytown.mtl


g polesHorizontal

v 0.433 0.425 0.400
v 0.433 0.425 -0.400
v 0.433 0.575 -0.400
v 0.433 0.575 0.400
v 0.400 1.000 -0.500
v 0.500 1.000 -0.500
v 0.500 1.000 -0.400
v 0.400 1.000 -0.400
v 0.433 0.150 -0.400
v 0.468 0.150 -0.400
v 0.468 0.150 0.400
v 0.433 0.150 0.400
v 0.500 1.000 -0.400
v 0.500 1.000 -0.500
v 0.500 0.000 -0.500
v 0.500 0.000 -0.400
v 0.433 0.575 -0.400
v 0.468 0.575 -0.400
v 0.468 0.575 0.400
v 0.433 0.575 0.400
v 0.400 1.000 0.400
v 0.500 1.000 0.400
v 0.500 1.000 0.500
v 0.400 1.000 0.500
v 0.433 0.425 0.400
v 0.468 0.425 0.400
v 0.468 0.425 -0.400
v 0.433 0.425 -0.400
v 0.400 1.000 0.400
v 0.400 0.000 0.400
v 0.433 0.000 0.400
v 0.433 0.150 0.400
v 0.433 0.425 0.400
v 0.468 0.150 0.400
v 0.433 0.575 0.400
v 0.468 0.575 0.400
v 0.500 1.000 0.400
v 0.468 0.425 0.400
v 0.500 0.000 0.400
v 0.468 0.000 0.400
v 0.500 1.000 -0.400
v 0.500 0.000 -0.400
v 0.468 0.000 -0.400
v 0.468 0.150 -0.400
v 0.468 0.425 -0.400
v 0.433 0.150 -0.400
v 0.468 0.575 -0.400
v 0.400 1.000 -0.400
v 0.433 0.575 -0.400
v 0.433 0.425 -0.400
v 0.400 0.000 -0.400
v 0.433 0.000 -0.400
v 0.500 1.000 0.500
v 0.500 1.000 0.400
v 0.500 0.000 0.400
v 0.500 0.000 0.500
v 0.400 1.000 -0.500
v 0.400 0.000 -0.500
v 0.500 0.000 -0.500
v 0.500 1.000 -0.500
v 0.500 1.000 0.500
v 0.500 0.000 0.500
v 0.400 0.000 0.500
v 0.400 1.000 0.500
v 0.400 0.000 0.500
v 0.400 0.000 0.400
v 0.400 1.000 0.400
v 0.400 1.000 0.500
v 0.468 0.150 0.400
v 0.468 0.150 -0.400
v 0.468 0.000 -0.400
v 0.468 0.000 0.400
v 0.400 0.000 -0.400
v 0.400 0.000 -0.500
v 0.400 1.000 -0.500
v 0.400 1.000 -0.400
v 0.400 0.000 0.500
v 0.500 0.000 0.500
v 0.500 0.000 0.400
v 0.468 0.000 0.400
v 0.433 0.000 0.400
v 0.400 0.000 0.400
v 0.468 0.000 -0.400
v 0.433 0.000 -0.400
v 0.400 0.000 -0.500
v 0.400 0.000 -0.400
v 0.500 0.000 -0.500
v 0.500 0.000 -0.400
v 0.468 0.575 0.400
v 0.468 0.575 -0.400
v 0.468 0.425 -0.400
v 0.468 0.425 0.400
v 0.433 0.000 0.400
v 0.433 0.000 -0.400
v 0.433 0.150 -0.400
v 0.433 0.150 0.400

vt -0.400 0.425
vt 0.400 0.425
vt 0.400 0.575
vt -0.400 0.575
vt -0.500 -0.400
vt -0.500 -0.500
vt -0.400 -0.500
vt -0.400 -0.400
vt -0.400 -0.433
vt -0.400 -0.468
vt 0.400 -0.468
vt 0.400 -0.433
vt -0.400 1.000
vt -0.500 1.000
vt -0.500 0.000
vt -0.400 0.000
vt -0.400 -0.433
vt -0.400 -0.468
vt 0.400 -0.468
vt 0.400 -0.433
vt 0.400 -0.400
vt 0.400 -0.500
vt 0.500 -0.500
vt 0.500 -0.400
vt -0.400 -0.433
vt -0.400 -0.468
vt 0.400 -0.468
vt 0.400 -0.433
vt 0.400 1.000
vt 0.400 0.000
vt 0.433 0.000
vt 0.433 0.150
vt 0.433 0.425
vt 0.468 0.150
vt 0.433 0.575
vt 0.468 0.575
vt 0.500 1.000
vt 0.468 0.425
vt 0.500 0.000
vt 0.468 0.000
vt -0.500 1.000
vt -0.500 0.000
vt -0.468 0.000
vt -0.468 0.150
vt -0.468 0.425
vt -0.433 0.150
vt -0.468 0.575
vt -0.400 1.000
vt -0.433 0.575
vt -0.433 0.425
vt -0.400 0.000
vt -0.433 0.000
vt 0.500 1.000
vt 0.400 1.000
vt 0.400 0.000
vt 0.500 0.000
vt 0.400 1.000
vt 0.400 0.000
vt 0.500 0.000
vt 0.500 1.000
vt -0.500 1.000
vt -0.500 0.000
vt -0.400 0.000
vt -0.400 1.000
vt -0.500 0.000
vt -0.400 0.000
vt -0.400 1.000
vt -0.500 1.000
vt 0.400 0.150
vt -0.400 0.150
vt -0.400 0.000
vt 0.400 0.000
vt 0.400 0.000
vt 0.500 0.000
vt 0.500 1.000
vt 0.400 1.000
vt -0.500 -0.400
vt -0.500 -0.500
vt -0.400 -0.500
vt -0.400 -0.468
vt -0.400 -0.433
vt -0.400 -0.400
vt 0.400 -0.468
vt 0.400 -0.433
vt 0.500 -0.400
vt 0.400 -0.400
vt 0.500 -0.500
vt 0.400 -0.500
vt 0.400 0.575
vt -0.400 0.575
vt -0.400 0.425
vt 0.400 0.425
vt -0.400 0.000
vt 0.400 0.000
vt 0.400 0.150
vt -0.400 0.150

vn -1.000 0.000 0.000
vn -1.000 0.000 0.000
vn -1.000 0.000 0.000
vn -1.000 0.000 0.000
vn 0.000 1.000 0.000
vn 0.000 1.000 0.000
vn 0.000 1.000 0.000
vn 0.000 1.000 0.000
vn 0.000 1.000 0.000
vn 0.000 1.000 0.000
vn 0.000 1.000 0.000
vn 0.000 1.000 0.000
vn 1.000 0.000 0.000
vn 1.000 0.000 0.000
vn 1.000 0.000 0.000
vn 1.000 0.000 0.000
vn 0.000 1.000 0.000
vn 0.000 1.000 0.000
vn 0.000 1.000 0.000
vn 0.000 1.000 0.000
vn 0.000 1.000 0.000
vn 0.000 1.000 0.000
vn 0.000 1.000 0.000
vn 0.000 1.000 0.000
vn 0.000 -1.000 0.000
vn 0.000 -1.000 0.000
vn 0.000 -1.000 0.000
vn 0.000 -1.000 0.000
vn 0.000 0.000 -1.000
vn 0.000 0.000 -1.000
vn 0.000 0.000 -1.000
vn 0.000 0.000 -1.000
vn 0.000 0.000 -1.000
vn 0.000 0.000 -1.000
vn 0.000 0.000 -1.000
vn 0.000 0.000 -1.000
vn 0.000 0.000 -1.000
vn 0.000 0.000 -1.000
vn 0.000 0.000 -1.000
vn 0.000 0.000 -1.000
vn 0.000 0.000 1.000
vn 0.000 0.000 1.000
vn 0.000 0.000 1.000
vn 0.000 0.000 1.000
vn 0.000 0.000 1.000
vn 0.000 0.000 1.000
vn 0.000 0.000 1.000
vn 0.000 0.000 1.000
vn 0.000 0.000 1.000
vn 0.000 0.000 1.000
vn 0.000 0.000 1.000
vn 0.000 0.000 1.000
vn 1.000 0.000 0.000
vn 1.000 0.000 0.000
vn 1.000 0.000 0.000
vn 1.000 0.000 0.000
vn 0.000 0.000 -1.000
vn 0.000 0.000 -1.000
vn 0.000 0.000 -1.000
vn 0.000 0.000 -1.000
vn 0.000 0.000 1.000
vn 0.000 0.000 1.000
vn 0.000 0.000 1.000
vn 0.000 0.000 1.000
vn -1.000 0.000 0.000
vn -1.000 0.000 0.000
vn -1.000 0.000 0.000
vn -1.000 0.000 0.000
vn 1.000 0.000 0.000
vn 1.000 0.000 0.000
vn 1.000 0.000 0.000
vn 1.000 0.000 0.000
vn -1.000 0.000 0.000
vn -1.000 0.000 0.000
vn -1.000 0.000 0.000
vn -1.000 0.000 0.000
vn 0.000 -1.000 0.000
vn 0.000 -1.000 0.000
vn 0.000 -1.000 0.000
vn 0.000 -1.000 0.000
vn 0.000 -1.000 0.000
vn 0.000 -1.000 0.000
vn 0.000 -1.000 0.000
vn 0.000 -1.000 0.000
vn 0.000 -1.000 0.000
vn 0.000 -1.000 0.000
vn 0.000 -1.000 0.000
vn 0.000 -1.000 0.000
vn 1.000 0.000 0.000
vn 1.000 0.000 0.000
vn 1.000 0.000 0.000
vn 1.000 0.000 0.000
vn -1.000 0.000 0.000
vn -1.000 0.000 0.000
vn -1.000 0.000 0.000
vn -1.000 0.000 0.000


usemtl wood

f 1/1/1 3/3/3 2/2/2
f 3/3/3 1/1/1 4/4/4
f 5/5/5 7/7/7 6/6/6
f 7/7/7 5/5/5 8/8/8
f 9/9/9 11/11/11 10/10/10
f 11/11/11 9/9/9 12/12/12
f 13/13/13 15/15/15 14/14/14
f 15/15/15 13/13/13 16/16/16
f 17/17/17 19/19/19 18/18/18
f 19/19/19 17/17/17 20/20/20
f 21/21/21 23/23/23 22/22/22
f 23/23/23 21/21/21 24/24/24
f 25/25/25 27/27/27 26/26/26
f 27/27/27 25/25/25 28/28/28
f 29/29/29 31/31/31 30/30/30
f 31/31/31 29/29/29 32/32/32
f 32/32/32 29/29/29 33/33/33
f 32/32/32 33/33/33 34/34/34
f 33/33/33 29/29/29 35/35/35
f 35/35/35 29/29/29 36/36/36
f 37/37/37 36/36/36 29/29/29
f 37/37/37 38/38/38 36/36/36
f 38/38/38 34/34/34 33/33/33
f 37/37/37 34/34/34 38/38/38
f 39/39/39 34/34/34 37/37/37
f 34/34/34 39/39/39 40/40/40
f 41/41/41 43/43/43 42/42/42
f 43/43/43 41/41/41 44/44/44
f 44/44/44 41/41/41 45/45/45
f 44/44/44 45/45/45 46/46/46
f 45/45/45 41/41/41 47/47/47
f 48/48/48 47/47/47 41/41/41
f 48/48/48 49/49/49 47/47/47
f 48/48/48 50/50/50 49/49/49
f 46/46/46 45/45/45 50/50/50
f 48/48/48 46/46/46 50/50/50
f 51/51/51 46/46/46 48/48/48
f 46/46/46 51/51/51 52/52/52
f 53/53/53 55/55/55 54/54/54
f 55/55/55 53/53/53 56/56/56
f 57/57/57 59/59/59 58/58/58
f 59/59/59 57/57/57 60/60/60
f 61/61/61 63/63/63 62/62/62
f 63/63/63 61/61/61 64/64/64
f 65/65/65 67/67/67 66/66/66
f 67/67/67 65/65/65 68/68/68
f 69/69/69 71/71/71 70/70/70
f 71/71/71 69/69/69 72/72/72
f 73/73/73 75/75/75 74/74/74
f 75/75/75 73/73/73 76/76/76
f 77/77/77 79/79/79 78/78/78
f 79/79/79 77/77/77 80/80/80
f 80/80/80 77/77/77 81/81/81
f 81/81/81 77/77/77 82/82/82
f 80/80/80 81/81/81 83/83/83
f 84/84/84 83/83/83 81/81/81
f 85/85/85 83/83/83 84/84/84
f 85/85/85 84/84/84 86/86/86
f 87/87/87 83/83/83 85/85/85
f 83/83/83 87/87/87 88/88/88
f 89/89/89 91/91/91 90/90/90
f 91/91/91 89/89/89 92/92/92
f 93/93/93 95/95/95 94/94/94
f 95/95/95 93/93/93 96/96/96
