# Created by Kenney (www.kenney.nl) - UVs and materials modified

mtllib fantasytown.mtl


g rockLarge

v 0.252 0.762 0.088
v 0.206 0.762 0.088
v 0.270 0.604 0.062
v -0.271 0.526 -0.596
v -0.429 0.526 -0.482
v -0.461 0.087 -0.703
v -0.215 1.163 0.068
v -0.358 0.526 0.042
v -0.215 1.163 -0.165
v -0.711 0.138 0.357
v -0.589 0.275 0.235
v -0.461 0.275 0.454
v 0.537 0.434 -0.248
v 0.388 0.434 -0.439
v 0.558 0.138 -0.567
v 0.279 0.762 0.403
v 0.317 0.762 0.286
v 0.451 0.138 0.384
v -0.507 0.275 -0.017
v -0.368 0.275 -0.017
v -0.390 0.275 0.049
v -0.461 0.275 0.454
v -0.589 0.275 0.235
v -0.321 0.275 0.556
v -0.206 0.275 0.378
v -0.155 0.275 0.219
v -0.141 0.275 0.426
v -0.155 0.275 0.219
v -0.074 0.762 0.219
v -0.120 0.762 0.359
v -0.206 0.275 0.378
v -0.024 1.163 0.207
v -0.024 0.762 0.256
v -0.074 0.762 0.219
v -0.215 1.163 0.068
v -0.358 0.526 0.042
v -0.155 0.275 0.219
v -0.390 0.275 0.049
v 0.229 1.163 0.023
v 0.322 0.434 0.044
v 0.298 0.434 0.062
v 0.270 0.604 0.062
v 0.206 0.762 0.088
v -0.024 0.762 0.256
v -0.024 1.163 0.207
v -0.462 0.000 -0.185
v -0.614 0.000 -0.296
v -0.479 0.526 -0.326
v -0.354 0.092 -0.129
v -0.284 0.526 -0.184
v -0.284 0.526 -0.184
v -0.230 0.526 -0.351
v -0.180 1.163 -0.274
v -0.215 1.163 -0.165
v -0.354 0.092 -0.129
v -0.358 0.526 0.042
v -0.368 0.275 -0.017
v -0.390 0.275 0.049
v -0.028 0.526 -0.351
v 0.006 0.355 -0.372
v 0.037 0.434 -0.362
v 0.190 0.434 -0.362
v 0.133 1.163 -0.274
v -0.230 0.526 -0.351
v -0.180 1.163 -0.274
v -0.107 0.526 -0.596
v -0.024 0.000 -0.725
v 0.008 0.000 -0.626
v -0.009 0.180 -0.548
v -0.028 0.526 -0.351
v 0.006 0.355 -0.372
v 0.133 1.163 -0.274
v 0.190 0.434 -0.362
v 0.322 0.434 0.044
v 0.229 1.163 0.023
v 0.110 0.762 0.526
v 0.110 0.000 0.654
v -0.057 0.000 0.533
v -0.141 0.275 0.426
v -0.120 0.762 0.359
v -0.206 0.275 0.378
v -0.616 0.000 -0.185
v -0.462 0.000 -0.185
v -0.354 0.092 -0.129
v -0.507 0.275 -0.017
v -0.368 0.275 -0.017
v -0.107 0.526 -0.596
v -0.028 0.526 -0.351
v -0.230 0.526 -0.351
v -0.271 0.526 -0.596
v -0.284 0.526 -0.184
v -0.429 0.526 -0.482
v -0.479 0.526 -0.326
v -0.461 0.087 -0.703
v -0.475 0.000 -0.725
v -0.024 0.000 -0.725
v -0.107 0.526 -0.596
v -0.271 0.526 -0.596
v -0.614 0.000 -0.296
v -0.475 0.000 -0.725
v -0.461 0.087 -0.703
v -0.429 0.526 -0.482
v -0.479 0.526 -0.326
v 0.451 0.138 0.384
v 0.475 0.000 0.389
v 0.110 0.000 0.654
v 0.110 0.762 0.526
v 0.279 0.762 0.403
v -0.141 0.275 0.426
v -0.057 0.000 0.533
v -0.321 0.000 0.725
v -0.321 0.275 0.556
v 0.252 0.762 0.088
v 0.317 0.762 0.286
v 0.279 0.762 0.403
v 0.110 0.762 0.526
v 0.206 0.762 0.088
v -0.024 0.762 0.256
v -0.120 0.762 0.359
v -0.074 0.762 0.219
v 0.252 0.762 0.088
v 0.270 0.604 0.062
v 0.298 0.434 0.062
v 0.327 0.434 0.154
v 0.317 0.762 0.286
v 0.434 0.000 0.263
v 0.475 0.000 0.389
v 0.451 0.138 0.384
v -0.321 0.275 0.556
v -0.321 0.000 0.725
v -0.799 0.000 0.377
v -0.711 0.138 0.357
v -0.461 0.275 0.454
v -0.799 0.000 0.377
v -0.616 0.000 -0.185
v -0.507 0.275 -0.017
v -0.589 0.275 0.235
v -0.711 0.138 0.357
v 0.133 1.163 -0.274
v 0.229 1.163 0.023
v -0.024 1.163 0.207
v -0.180 1.163 -0.274
v -0.215 1.163 0.068
v -0.215 1.163 -0.165
v 0.110 0.000 0.654
v 0.475 0.000 0.389
v 0.434 0.000 0.263
v 0.008 0.000 -0.626
v -0.057 0.000 0.533
v 0.596 0.000 -0.626
v 0.799 0.000 -0.002
v -0.024 0.000 -0.725
v -0.475 0.000 -0.725
v -0.321 0.000 0.725
v -0.462 0.000 -0.185
v -0.614 0.000 -0.296
v -0.799 0.000 0.377
v -0.616 0.000 -0.185
v 0.603 0.434 -0.046
v 0.799 0.000 -0.002
v 0.434 0.000 0.263
v 0.327 0.434 0.154
v 0.006 0.355 -0.372
v -0.009 0.180 -0.548
v 0.062 0.434 -0.439
v 0.037 0.434 -0.362
v 0.537 0.434 -0.248
v 0.603 0.434 -0.046
v 0.327 0.434 0.154
v 0.388 0.434 -0.439
v 0.322 0.434 0.044
v 0.298 0.434 0.062
v 0.190 0.434 -0.362
v 0.062 0.434 -0.439
v 0.037 0.434 -0.362
v -0.009 0.180 -0.548
v 0.008 0.000 -0.626
v 0.596 0.000 -0.626
v 0.558 0.138 -0.567
v 0.388 0.434 -0.439
v 0.062 0.434 -0.439
v 0.558 0.138 -0.567
v 0.596 0.000 -0.626
v 0.799 0.000 -0.002
v 0.537 0.434 -0.248
v 0.603 0.434 -0.046

vt 0.252 0.766
vt 0.206 0.766
vt 0.270 0.605
vt 0.131 0.215
vt -0.064 0.215
vt 0.040 -0.267
vt -0.068 1.088
vt -0.042 0.435
vt 0.165 1.088
vt 0.048 -0.525
vt 0.093 -0.308
vt -0.161 -0.308
vt 0.135 0.017
vt -0.107 0.017
vt -0.103 -0.347
vt 0.298 0.643
vt 0.174 0.643
vt 0.226 0.000
vt -0.017 0.507
vt -0.017 0.368
vt 0.049 0.390
vt 0.454 0.461
vt 0.235 0.589
vt 0.556 0.321
vt 0.378 0.206
vt 0.219 0.155
vt 0.426 0.141
vt -0.257 0.260
vt -0.231 0.752
vt -0.378 0.752
vt -0.423 0.260
vt -0.102 1.140
vt -0.131 0.737
vt -0.068 0.737
vt 0.134 1.140
vt 0.265 0.499
vt -0.004 0.248
vt 0.287 0.248
vt -0.172 1.142
vt -0.235 0.410
vt -0.204 0.410
vt -0.182 0.580
vt -0.115 0.739
vt 0.169 0.739
vt 0.141 1.142
vt 0.483 -0.024
vt 0.671 -0.024
vt 0.579 0.512
vt 0.362 0.070
vt 0.338 0.512
vt 0.195 0.447
vt 0.371 0.457
vt 0.279 1.094
vt 0.165 1.088
vt 0.144 0.008
vt -0.042 0.435
vt 0.024 0.186
vt -0.045 0.183
vt -0.028 0.480
vt 0.006 0.307
vt 0.037 0.387
vt 0.190 0.387
vt 0.133 1.121
vt -0.230 0.480
vt -0.180 1.121
vt -0.600 0.495
vt -0.697 -0.044
vt -0.593 -0.044
vt -0.524 0.140
vt -0.343 0.495
vt -0.352 0.319
vt -0.219 1.132
vt -0.286 0.399
vt 0.142 0.399
vt 0.093 1.132
vt -0.398 0.706
vt -0.474 -0.063
vt -0.267 -0.063
vt -0.136 0.215
vt -0.114 0.706
vt -0.056 0.215
vt -0.616 -0.096
vt -0.462 -0.096
vt -0.354 0.012
vt -0.507 0.226
vt -0.368 0.226
vt -0.596 0.107
vt -0.351 0.028
vt -0.351 0.230
vt -0.596 0.271
vt -0.184 0.284
vt -0.482 0.429
vt -0.326 0.479
vt -0.461 -0.082
vt -0.475 -0.172
vt -0.024 -0.172
vt -0.107 0.369
vt -0.271 0.369
vt 0.091 -0.149
vt 0.542 -0.149
vt 0.526 -0.060
vt 0.326 0.390
vt 0.162 0.390
vt -0.139 0.059
vt -0.156 -0.080
vt 0.295 -0.080
vt 0.220 0.689
vt 0.012 0.689
vt 0.364 0.131
vt 0.359 -0.176
vt 0.686 -0.176
vt 0.587 0.131
vt 0.088 -0.252
vt 0.286 -0.317
vt 0.403 -0.279
vt 0.526 -0.110
vt 0.088 -0.206
vt 0.256 0.024
vt 0.359 0.120
vt 0.219 0.074
vt 0.162 0.720
vt 0.142 0.560
vt 0.151 0.388
vt 0.248 0.388
vt 0.370 0.720
vt 0.384 -0.051
vt 0.517 -0.051
vt 0.504 0.088
vt -0.067 -0.036
vt -0.166 -0.343
vt 0.425 -0.343
vt 0.365 -0.190
vt 0.106 -0.036
vt -0.606 -0.317
vt -0.015 -0.317
vt -0.141 0.000
vt -0.405 0.000
vt -0.559 -0.159
vt -0.274 -0.133
vt 0.023 -0.229
vt 0.207 0.024
vt -0.274 0.180
vt 0.068 0.215
vt -0.165 0.215
vt -0.654 -0.110
vt -0.389 -0.475
vt -0.263 -0.434
vt 0.626 -0.008
vt -0.533 0.057
vt 0.626 -0.596
vt 0.002 -0.799
vt 0.725 0.024
vt 0.725 0.475
vt -0.725 0.321
vt 0.185 0.462
vt 0.296 0.614
vt -0.377 0.799
vt 0.185 0.616
vt -0.515 0.306
vt -0.648 -0.154
vt -0.197 -0.154
vt -0.174 0.306
vt 0.356 0.289
vt 0.519 0.101
vt 0.437 0.375
vt 0.356 0.375
vt -0.248 -0.537
vt -0.046 -0.603
vt 0.154 -0.327
vt -0.439 -0.388
vt 0.044 -0.322
vt 0.062 -0.298
vt -0.362 -0.190
vt -0.439 -0.062
vt -0.362 -0.037
vt -0.009 -0.051
vt 0.008 -0.247
vt 0.596 -0.247
vt 0.558 -0.097
vt 0.388 0.225
vt 0.062 0.225
vt -0.367 -0.133
vt -0.411 -0.282
vt 0.245 -0.282
vt -0.070 0.186
vt 0.143 0.186

vn 0.000 0.166 -0.986
vn 0.000 0.166 -0.986
vn 0.000 0.166 -0.986
vn -0.536 0.412 -0.737
vn -0.536 0.412 -0.737
vn -0.536 0.412 -0.737
vn -0.976 0.218 0.000
vn -0.953 0.124 -0.275
vn -0.970 0.156 -0.188
vn -0.550 0.771 0.320
vn -0.550 0.771 0.320
vn -0.550 0.771 0.320
vn 0.640 0.583 -0.501
vn 0.640 0.583 -0.501
vn 0.640 0.583 -0.501
vn 0.922 0.245 0.300
vn 0.922 0.245 0.300
vn 0.922 0.245 0.300
vn 0.000 1.000 0.000
vn 0.000 1.000 0.000
vn 0.000 1.000 0.000
vn 0.000 1.000 0.000
vn 0.000 1.000 0.000
vn 0.000 1.000 0.000
vn 0.000 1.000 0.000
vn 0.000 1.000 0.000
vn 0.000 1.000 0.000
vn -0.940 0.154 -0.305
vn -0.940 0.154 -0.305
vn -0.940 0.154 -0.305
vn -0.940 0.154 -0.305
vn -0.585 0.098 0.805
vn -0.585 0.098 0.805
vn -0.585 0.098 0.805
vn -0.585 0.098 0.805
vn -0.585 0.098 0.805
vn -0.585 0.098 0.805
vn -0.585 0.098 0.805
vn 0.585 0.098 0.805
vn 0.585 0.098 0.805
vn 0.585 0.098 0.805
vn 0.585 0.098 0.805
vn 0.585 0.098 0.805
vn 0.585 0.098 0.805
vn 0.585 0.098 0.805
vn -0.577 0.194 0.794
vn -0.577 0.194 0.794
vn -0.577 0.194 0.794
vn -0.577 0.194 0.794
vn -0.577 0.194 0.794
vn -0.945 0.112 -0.307
vn -0.945 0.112 -0.307
vn -0.945 0.112 -0.307
vn -0.970 0.156 -0.188
vn -0.945 0.112 -0.307
vn -0.953 0.124 -0.275
vn -0.945 0.112 -0.307
vn -0.945 0.112 -0.307
vn 0.000 0.121 -0.993
vn 0.000 0.121 -0.993
vn 0.000 0.121 -0.993
vn 0.000 0.121 -0.993
vn 0.000 0.121 -0.993
vn 0.000 0.121 -0.993
vn 0.000 0.121 -0.993
vn 0.928 0.221 -0.301
vn 0.928 0.221 -0.301
vn 0.928 0.221 -0.301
vn 0.928 0.221 -0.301
vn 0.928 0.221 -0.301
vn 0.928 0.221 -0.301
vn 0.945 0.112 -0.307
vn 0.945 0.112 -0.307
vn 0.945 0.112 -0.307
vn 0.945 0.112 -0.307
vn -0.582 0.135 0.802
vn -0.582 0.135 0.802
vn -0.582 0.135 0.802
vn -0.582 0.135 0.802
vn -0.582 0.135 0.802
vn -0.582 0.135 0.802
vn 0.000 0.521 -0.853
vn 0.000 0.521 -0.853
vn 0.000 0.521 -0.853
vn 0.000 0.521 -0.853
vn 0.000 0.521 -0.853
vn 0.000 1.000 0.000
vn 0.000 1.000 0.000
vn 0.000 1.000 0.000
vn 0.000 1.000 0.000
vn 0.000 1.000 0.000
vn 0.000 1.000 0.000
vn 0.000 1.000 0.000
vn 0.000 0.237 -0.971
vn 0.000 0.237 -0.971
vn 0.000 0.237 -0.971
vn 0.000 0.237 -0.971
vn 0.000 0.237 -0.971
vn -0.928 0.221 -0.301
vn -0.928 0.221 -0.301
vn -0.928 0.221 -0.301
vn -0.928 0.221 -0.301
vn -0.928 0.221 -0.301
vn 0.582 0.135 0.802
vn 0.582 0.135 0.802
vn 0.582 0.135 0.802
vn 0.582 0.135 0.802
vn 0.582 0.135 0.802
vn 0.527 0.443 0.725
vn 0.527 0.443 0.725
vn 0.527 0.443 0.725
vn 0.527 0.443 0.725
vn 0.000 1.000 0.000
vn 0.000 1.000 0.000
vn 0.000 1.000 0.000
vn 0.000 1.000 0.000
vn 0.000 1.000 0.000
vn 0.000 1.000 0.000
vn 0.000 1.000 0.000
vn 0.000 1.000 0.000
vn 0.940 0.154 -0.305
vn 0.940 0.154 -0.305
vn 0.940 0.154 -0.305
vn 0.940 0.154 -0.305
vn 0.940 0.154 -0.305
vn 0.940 0.154 -0.305
vn 0.940 0.154 -0.305
vn 0.940 0.154 -0.305
vn -0.527 0.443 0.725
vn -0.527 0.443 0.725
vn -0.527 0.443 0.725
vn -0.527 0.443 0.725
vn -0.527 0.443 0.725
vn -0.828 0.493 -0.269
vn -0.828 0.493 -0.269
vn -0.828 0.493 -0.269
vn -0.828 0.493 -0.269
vn -0.828 0.493 -0.269
vn 0.000 1.000 0.000
vn 0.000 1.000 0.000
vn 0.000 1.000 0.000
vn 0.000 1.000 0.000
vn 0.000 1.000 0.000
vn 0.000 1.000 0.000
vn 0.000 -1.000 0.000
vn 0.000 -1.000 0.000
vn 0.000 -1.000 0.000
vn 0.000 -1.000 0.000
vn 0.000 -1.000 0.000
vn 0.000 -1.000 0.000
vn 0.000 -1.000 0.000
vn 0.000 -1.000 0.000
vn 0.000 -1.000 0.000
vn 0.000 -1.000 0.000
vn 0.000 -1.000 0.000
vn 0.000 -1.000 0.000
vn 0.000 -1.000 0.000
vn 0.000 -1.000 0.000
vn 0.555 0.329 0.764
vn 0.555 0.329 0.764
vn 0.555 0.329 0.764
vn 0.555 0.329 0.764
vn -0.883 0.370 -0.287
vn -0.883 0.370 -0.287
vn -0.883 0.370 -0.287
vn -0.883 0.370 -0.287
vn 0.000 1.000 0.000
vn 0.000 1.000 0.000
vn 0.000 1.000 0.000
vn 0.000 1.000 0.000
vn 0.000 1.000 0.000
vn 0.000 1.000 0.000
vn 0.000 1.000 0.000
vn 0.000 1.000 0.000
vn 0.000 1.000 0.000
vn 0.000 0.395 -0.919
vn 0.000 0.395 -0.919
vn 0.000 0.395 -0.919
vn 0.000 0.395 -0.919
vn 0.000 0.395 -0.919
vn 0.000 0.395 -0.919
vn 0.883 0.370 -0.287
vn 0.883 0.370 -0.287
vn 0.883 0.370 -0.287
vn 0.883 0.370 -0.287
vn 0.883 0.370 -0.287


usemtl stone

f 1/1/1 3/3/3 2/2/2
f 4/4/4 6/6/6 5/5/5
f 7/7/7 9/9/9 8/8/8
f 10/10/10 12/12/12 11/11/11
f 13/13/13 15/15/15 14/14/14
f 16/16/16 18/18/18 17/17/17
f 19/19/19 21/21/21 20/20/20
f 21/21/21 19/19/19 22/22/22
f 22/22/22 19/19/19 23/23/23
f 24/24/24 21/21/21 22/22/22
f 25/25/25 21/21/21 24/24/24
f 21/21/21 25/25/25 26/26/26
f 24/24/24 27/27/27 25/25/25
f 28/28/28 30/30/30 29/29/29
f 30/30/30 28/28/28 31/31/31
f 32/32/32 34/34/34 33/33/33
f 35/35/35 34/34/34 32/32/32
f 36/36/36 34/34/34 35/35/35
f 36/36/36 37/37/37 34/34/34
f 37/37/37 36/36/36 38/38/38
f 39/39/39 41/41/41 40/40/40
f 41/41/41 39/39/39 42/42/42
f 42/42/42 39/39/39 43/43/43
f 43/43/43 39/39/39 44/44/44
f 44/44/44 39/39/39 45/45/45
f 46/46/46 48/48/48 47/47/47
f 48/48/48 46/46/46 49/49/49
f 48/48/48 49/49/49 50/50/50
f 51/51/51 53/53/53 52/52/52
f 53/53/53 51/51/51 54/54/54
f 54/54/54 51/51/51 55/55/55
f 54/54/54 55/55/55 56/56/56
f 56/56/56 55/55/55 57/57/57
f 56/56/56 57/57/57 58/58/58
f 59/59/59 61/61/61 60/60/60
f 61/61/61 59/59/59 62/62/62
f 62/62/62 59/59/59 63/63/63
f 63/63/63 59/59/59 64/64/64
f 63/63/63 64/64/64 65/65/65
f 66/66/66 68/68/68 67/67/67
f 68/68/68 66/66/66 69/69/69
f 69/69/69 66/66/66 70/70/70
f 69/69/69 70/70/70 71/71/71
f 72/72/72 74/74/74 73/73/73
f 74/74/74 72/72/72 75/75/75
f 76/76/76 78/78/78 77/77/77
f 78/78/78 76/76/76 79/79/79
f 80/80/80 79/79/79 76/76/76
f 79/79/79 80/80/80 81/81/81
f 82/82/82 84/84/84 83/83/83
f 84/84/84 82/82/82 85/85/85
f 84/84/84 85/85/85 86/86/86
f 87/87/87 89/89/89 88/88/88
f 89/89/89 87/87/87 90/90/90
f 89/89/89 90/90/90 91/91/91
f 91/91/91 90/90/90 92/92/92
f 91/91/91 92/92/92 93/93/93
f 94/94/94 96/96/96 95/95/95
f 96/96/96 94/94/94 97/97/97
f 97/97/97 94/94/94 98/98/98
f 99/99/99 101/101/101 100/100/100
f 101/101/101 99/99/99 102/102/102
f 102/102/102 99/99/99 103/103/103
f 104/104/104 106/106/106 105/105/105
f 106/106/106 104/104/104 107/107/107
f 107/107/107 104/104/104 108/108/108
f 109/109/109 111/111/111 110/110/110
f 111/111/111 109/109/109 112/112/112
f 113/113/113 115/115/115 114/114/114
f 115/115/115 113/113/113 116/116/116
f 116/116/116 113/113/113 117/117/117
f 116/116/116 117/117/117 118/118/118
f 116/116/116 118/118/118 119/119/119
f 119/119/119 118/118/118 120/120/120
f 121/121/121 123/123/123 122/122/122
f 123/123/123 121/121/121 124/124/124
f 124/124/124 121/121/121 125/125/125
f 124/124/124 125/125/125 126/126/126
f 126/126/126 125/125/125 127/127/127
f 127/127/127 125/125/125 128/128/128
f 129/129/129 131/131/131 130/130/130
f 131/131/131 129/129/129 132/132/132
f 132/132/132 129/129/129 133/133/133
f 134/134/134 136/136/136 135/135/135
f 136/136/136 134/134/134 137/137/137
f 137/137/137 134/134/134 138/138/138
f 139/139/139 141/141/141 140/140/140
f 141/141/141 139/139/139 142/142/142
f 141/141/141 142/142/142 143/143/143
f 143/143/143 142/142/142 144/144/144
f 145/145/145 147/147/147 146/146/146
f 148/148/148 147/147/147 145/145/145
f 148/148/148 145/145/145 149/149/149
f 150/150/150 147/147/147 148/148/148
f 147/147/147 150/150/150 151/151/151
f 148/148/148 149/149/149 152/152/152
f 152/152/152 149/149/149 153/153/153
f 153/153/153 149/149/149 154/154/154
f 153/153/153 154/154/154 155/155/155
f 153/153/153 155/155/155 156/156/156
f 157/157/157 155/155/155 154/154/154
f 155/155/155 157/157/157 158/158/158
f 159/159/159 161/161/161 160/160/160
f 161/161/161 159/159/159 162/162/162
f 163/163/163 165/165/165 164/164/164
f 165/165/165 163/163/163 166/166/166
f 167/167/167 169/169/169 168/168/168
f 169/169/169 167/167/167 170/170/170
f 169/169/169 170/170/170 171/171/171
f 172/172/172 169/169/169 171/171/171
f 171/171/171 170/170/170 173/173/173
f 173/173/173 170/170/170 174/174/174
f 173/173/173 174/174/174 175/175/175
f 176/176/176 178/178/178 177/177/177
f 178/178/178 176/176/176 179/179/179
f 179/179/179 176/176/176 180/180/180
f 180/180/180 176/176/176 181/181/181
f 182/182/182 184/184/184 183/183/183
f 184/184/184 182/182/182 185/185/185
f 184/184/184 185/185/185 186/186/186
