# Created by Kenney (www.kenney.nl) - UVs and materials modified

mtllib fantasytown.mtl


g roofHighFlat

v 0.500 0.141 -0.500
v 0.500 0.041 -0.400
v -0.500 0.041 -0.400
v -0.500 0.141 -0.500
v 0.500 0.141 0.500
v 0.500 0.000 0.500
v -0.500 0.000 0.500
v -0.500 0.141 0.500
v -0.500 0.141 -0.500
v -0.500 0.000 -0.500
v 0.500 0.000 -0.500
v 0.500 0.141 -0.500
v -0.500 0.000 -0.500
v -0.500 0.141 -0.500
v -0.500 0.041 -0.400
v -0.500 0.000 0.500
v -0.500 0.041 0.400
v -0.500 0.141 0.500
v 0.500 0.041 -0.400
v 0.500 0.141 -0.500
v 0.500 0.000 -0.500
v 0.500 0.000 0.500
v 0.500 0.041 0.400
v 0.500 0.141 0.500
v -0.500 0.041 -0.400
v 0.500 0.041 -0.400
v 0.500 0.041 0.400
v -0.500 0.041 0.400
v -0.500 0.041 0.400
v 0.500 0.041 0.400
v 0.500 0.141 0.500
v -0.500 0.141 0.500
v 0.500 0.000 0.500
v 0.500 0.000 -0.500
v -0.500 0.000 -0.500
v -0.500 0.000 0.500

vt -0.500 0.453
vt -0.500 0.312
vt 0.500 0.312
vt 0.500 0.453
vt -0.500 0.141
vt -0.500 0.000
vt 0.500 0.000
vt 0.500 0.141
vt -0.500 0.141
vt -0.500 0.000
vt 0.500 0.000
vt 0.500 0.141
vt 0.500 0.000
vt 0.500 0.141
vt 0.400 0.041
vt -0.500 0.000
vt -0.400 0.041
vt -0.500 0.141
vt -0.400 0.041
vt -0.500 0.141
vt -0.500 0.000
vt 0.500 0.000
vt 0.400 0.041
vt 0.500 0.141
vt -0.400 0.500
vt -0.400 -0.500
vt 0.400 -0.500
vt 0.400 0.500
vt -0.500 0.312
vt 0.500 0.312
vt 0.500 0.453
vt -0.500 0.453
vt -0.500 -0.500
vt 0.500 -0.500
vt 0.500 0.500
vt -0.500 0.500

vn 0.000 0.707 0.707
vn 0.000 0.707 0.707
vn 0.000 0.707 0.707
vn 0.000 0.707 0.707
vn 0.000 0.000 1.000
vn 0.000 0.000 1.000
vn 0.000 0.000 1.000
vn 0.000 0.000 1.000
vn 0.000 0.000 -1.000
vn 0.000 0.000 -1.000
vn 0.000 0.000 -1.000
vn 0.000 0.000 -1.000
vn -1.000 0.000 0.000
vn -1.000 0.000 0.000
vn -1.000 0.000 0.000
vn -1.000 0.000 0.000
vn -1.000 0.000 0.000
vn -1.000 0.000 0.000
vn 1.000 0.000 0.000
vn 1.000 0.000 0.000
vn 1.000 0.000 0.000
vn 1.000 0.000 0.000
vn 1.000 0.000 0.000
vn 1.000 0.000 0.000
vn 0.000 1.000 0.000
vn 0.000 1.000 0.000
vn 0.000 1.000 0.000
vn 0.000 1.000 0.000
vn 0.000 0.707 -0.707
vn 0.000 0.707 -0.707
vn 0.000 0.707 -0.707
vn 0.000 0.707 -0.707
vn 0.000 -1.000 0.000
vn 0.000 -1.000 0.000
vn 0.000 -1.000 0.000
vn 0.000 -1.000 0.000


usemtl roofRed

f 1/1/1 3/3/3 2/2/2
f 3/3/3 1/1/1 4/4/4
f 5/5/5 7/7/7 6/6/6
f 7/7/7 5/5/5 8/8/8
f 9/9/9 11/11/11 10/10/10
f 11/11/11 9/9/9 12/12/12
f 13/13/13 15/15/15 14/14/14
f 15/15/15 13/13/13 16/16/16
f 15/15/15 16/16/16 17/17/17
f 17/17/17 16/16/16 18/18/18
f 19/19/19 21/21/21 20/20/20
f 21/21/21 19/19/19 22/22/22
f 22/22/22 19/19/19 23/23/23
f 22/22/22 23/23/23 24/24/24
f 25/25/25 27/27/27 26/26/26
f 27/27/27 25/25/25 28/28/28
f 29/29/29 31/31/31 30/30/30
f 31/31/31 29/29/29 32/32/32
f 33/33/33 35/35/35 34/34/34
f 35/35/35 33/33/33 36/36/36
