# Created by Kenney (www.kenney.nl) - UVs and materials modified

mtllib fantasytown.mtl


g roof

v -0.400 0.050 0.500
v -0.400 0.000 0.500
v -0.500 0.000 0.500
v -0.400 0.050 -0.500
v -0.500 0.000 -0.500
v -0.400 0.000 -0.500
v 0.400 0.000 -0.500
v 0.500 0.000 -0.500
v 0.500 0.500 -0.500
v 0.400 0.450 -0.500
v -0.400 0.050 -0.475
v -0.400 0.050 -0.500
v -0.400 0.000 -0.500
v -0.400 0.000 -0.475
v 0.400 0.000 -0.475
v 0.400 0.000 -0.500
v 0.400 0.450 -0.500
v 0.400 0.450 -0.475
v 0.500 0.500 0.500
v 0.500 0.000 0.500
v 0.400 0.000 0.500
v 0.400 0.450 0.500
v -0.400 0.050 0.500
v -0.400 0.050 0.475
v -0.400 0.000 0.475
v -0.400 0.000 0.500
v 0.400 0.000 0.500
v 0.400 0.000 0.475
v 0.400 0.450 0.475
v 0.400 0.450 0.500
v -0.500 0.000 0.500
v -0.400 0.000 0.500
v -0.400 0.000 0.475
v -0.400 0.000 -0.475
v -0.400 0.000 -0.500
v -0.500 0.000 -0.500
v 0.400 0.000 -0.475
v 0.400 0.000 0.475
v 0.400 0.000 -0.500
v 0.400 0.000 0.500
v 0.500 0.000 -0.500
v 0.500 0.000 0.500
v 0.500 0.626 0.500
v 0.500 0.626 -0.500
v 0.500 0.500 -0.500
v 0.500 0.000 -0.500
v 0.500 0.500 0.500
v 0.500 0.000 0.500
v -0.400 0.050 -0.475
v -0.400 0.000 -0.475
v 0.400 0.000 -0.475
v 0.400 0.450 -0.475
v 0.400 0.450 0.475
v 0.400 0.000 0.475
v -0.400 0.000 0.475
v -0.400 0.050 0.475
v -0.545 -0.022 0.500
v -0.567 0.022 0.500
v -0.446 0.083 0.500
v 0.400 0.506 0.500
v 0.500 0.626 0.500
v 0.400 0.576 0.500
v -0.545 -0.022 0.500
v -0.545 -0.022 -0.500
v -0.567 0.022 -0.500
v -0.567 0.022 0.500
v -0.400 0.050 0.500
v 0.400 0.450 0.500
v 0.400 0.450 0.475
v -0.400 0.050 0.475
v -0.545 -0.022 0.500
v -0.500 0.000 0.500
v -0.500 0.000 -0.500
v -0.545 -0.022 -0.500
v -0.400 0.050 -0.475
v 0.400 0.450 -0.475
v 0.400 0.450 -0.500
v -0.400 0.050 -0.500
v -0.446 0.083 -0.500
v 0.400 0.506 -0.500
v 0.400 0.506 0.500
v -0.446 0.083 0.500
v 0.400 0.506 -0.500
v 0.400 0.576 -0.500
v 0.400 0.576 0.500
v 0.400 0.506 0.500
v 0.400 0.576 -0.500
v 0.500 0.626 -0.500
v 0.500 0.626 0.500
v 0.400 0.576 0.500
v -0.567 0.022 -0.500
v -0.545 -0.022 -0.500
v -0.446 0.083 -0.500
v 0.400 0.506 -0.500
v 0.500 0.626 -0.500
v 0.400 0.576 -0.500
v -0.567 0.022 -0.500
v -0.567 0.022 0.500

vt 0.400 0.050
vt 0.400 0.000
vt 0.500 0.000
vt -0.400 0.050
vt -0.500 0.000
vt -0.400 0.000
vt 0.400 0.000
vt 0.500 0.000
vt 0.500 0.500
vt 0.400 0.450
vt -0.475 0.050
vt -0.500 0.050
vt -0.500 0.000
vt -0.475 0.000
vt 0.475 0.000
vt 0.500 0.000
vt 0.500 0.450
vt 0.475 0.450
vt -0.500 0.500
vt -0.500 0.000
vt -0.400 0.000
vt -0.400 0.450
vt 0.500 0.050
vt 0.475 0.050
vt 0.475 0.000
vt 0.500 0.000
vt -0.500 0.000
vt -0.475 0.000
vt -0.475 0.450
vt -0.500 0.450
vt -0.500 0.500
vt -0.500 0.400
vt -0.475 0.400
vt 0.475 0.400
vt 0.500 0.400
vt 0.500 0.500
vt 0.475 -0.400
vt -0.475 -0.400
vt 0.500 -0.400
vt -0.500 -0.400
vt 0.500 -0.500
vt -0.500 -0.500
vt 0.500 0.626
vt -0.500 0.626
vt -0.500 0.500
vt -0.500 0.000
vt 0.500 0.500
vt 0.500 0.000
vt -0.400 0.050
vt -0.400 0.000
vt 0.400 0.000
vt 0.400 0.450
vt -0.400 0.450
vt -0.400 0.000
vt 0.400 0.000
vt 0.400 0.050
vt 0.545 -0.022
vt 0.567 0.022
vt 0.446 0.083
vt -0.400 0.506
vt -0.500 0.626
vt -0.400 0.576
vt -0.500 0.224
vt 0.500 0.224
vt 0.500 0.274
vt -0.500 0.274
vt 0.500 -0.335
vt 0.500 0.559
vt 0.475 0.559
vt 0.475 -0.335
vt 0.500 -0.497
vt 0.500 -0.447
vt -0.500 -0.447
vt -0.500 -0.497
vt -0.475 -0.335
vt -0.475 0.559
vt -0.500 0.559
vt -0.500 -0.335
vt 0.500 -0.362
vt 0.500 0.584
vt -0.500 0.584
vt -0.500 -0.362
vt 0.500 0.506
vt 0.500 0.576
vt -0.500 0.576
vt -0.500 0.506
vt 0.500 0.615
vt 0.500 0.727
vt -0.500 0.727
vt -0.500 0.615
vt -0.567 0.022
vt -0.545 -0.022
vt -0.446 0.083
vt 0.400 0.506
vt 0.500 0.626
vt 0.400 0.576
vt 0.500 -0.497
vt -0.500 -0.497

vn 0.000 0.000 1.000
vn 0.000 0.000 1.000
vn 0.000 0.000 1.000
vn 0.000 0.000 -1.000
vn 0.000 0.000 -1.000
vn 0.000 0.000 -1.000
vn 0.000 0.000 -1.000
vn 0.000 0.000 -1.000
vn 0.000 0.000 -1.000
vn 0.000 0.000 -1.000
vn 1.000 0.000 0.000
vn 1.000 0.000 0.000
vn 1.000 0.000 0.000
vn 1.000 0.000 0.000
vn -1.000 0.000 0.000
vn -1.000 0.000 0.000
vn -1.000 0.000 0.000
vn -1.000 0.000 0.000
vn 0.000 0.000 1.000
vn 0.000 0.000 1.000
vn 0.000 0.000 1.000
vn 0.000 0.000 1.000
vn 1.000 0.000 0.000
vn 1.000 0.000 0.000
vn 1.000 0.000 0.000
vn 1.000 0.000 0.000
vn -1.000 0.000 0.000
vn -1.000 0.000 0.000
vn -1.000 0.000 0.000
vn -1.000 0.000 0.000
vn 0.000 -1.000 0.000
vn 0.000 -1.000 0.000
vn 0.000 -1.000 0.000
vn 0.000 -1.000 0.000
vn 0.000 -1.000 0.000
vn 0.000 -1.000 0.000
vn 0.000 -1.000 0.000
vn 0.000 -1.000 0.000
vn 0.000 -1.000 0.000
vn 0.000 -1.000 0.000
vn 0.000 -1.000 0.000
vn 0.000 -1.000 0.000
vn 1.000 0.000 0.000
vn 1.000 0.000 0.000
vn 1.000 0.000 0.000
vn 1.000 0.000 0.000
vn 1.000 0.000 0.000
vn 1.000 0.000 0.000
vn 0.000 0.000 -1.000
vn 0.000 0.000 -1.000
vn 0.000 0.000 -1.000
vn 0.000 0.000 -1.000
vn 0.000 0.000 1.000
vn 0.000 0.000 1.000
vn 0.000 0.000 1.000
vn 0.000 0.000 1.000
vn 0.000 0.000 1.000
vn 0.000 0.000 1.000
vn 0.000 0.000 1.000
vn 0.000 0.000 1.000
vn 0.000 0.000 1.000
vn 0.000 0.000 1.000
vn -0.894 -0.447 0.000
vn -0.894 -0.447 0.000
vn -0.894 -0.447 0.000
vn -0.894 -0.447 0.000
vn 0.447 -0.894 0.000
vn 0.447 -0.894 0.000
vn 0.447 -0.894 0.000
vn 0.447 -0.894 0.000
vn 0.447 -0.894 0.000
vn 0.447 -0.894 0.000
vn 0.447 -0.894 0.000
vn 0.447 -0.894 0.000
vn 0.447 -0.894 0.000
vn 0.447 -0.894 0.000
vn 0.447 -0.894 0.000
vn 0.447 -0.894 0.000
vn -0.447 0.894 0.000
vn -0.447 0.894 0.000
vn -0.447 0.894 0.000
vn -0.447 0.894 0.000
vn -1.000 0.000 0.000
vn -1.000 0.000 0.000
vn -1.000 0.000 0.000
vn -1.000 0.000 0.000
vn -0.447 0.894 0.000
vn -0.447 0.894 0.000
vn -0.447 0.894 0.000
vn -0.447 0.894 0.000
vn 0.000 0.000 -1.000
vn 0.000 0.000 -1.000
vn 0.000 0.000 -1.000
vn 0.000 0.000 -1.000
vn 0.000 0.000 -1.000
vn 0.000 0.000 -1.000
vn -0.447 0.894 0.000
vn -0.447 0.894 0.000


usemtl wood

f 1/1/1 3/3/3 2/2/2
f 4/4/4 6/6/6 5/5/5
f 7/7/7 9/9/9 8/8/8
f 9/9/9 7/7/7 10/10/10
f 11/11/11 13/13/13 12/12/12
f 13/13/13 11/11/11 14/14/14
f 15/15/15 17/17/17 16/16/16
f 17/17/17 15/15/15 18/18/18
f 19/19/19 21/21/21 20/20/20
f 21/21/21 19/19/19 22/22/22
f 23/23/23 25/25/25 24/24/24
f 25/25/25 23/23/23 26/26/26
f 27/27/27 29/29/29 28/28/28
f 29/29/29 27/27/27 30/30/30

usemtl stone

f 31/31/31 33/33/33 32/32/32
f 33/33/33 31/31/31 34/34/34
f 34/34/34 31/31/31 35/35/35
f 35/35/35 31/31/31 36/36/36
f 37/37/37 33/33/33 34/34/34
f 33/33/33 37/37/37 38/38/38
f 39/39/39 38/38/38 37/37/37
f 39/39/39 40/40/40 38/38/38
f 41/41/41 40/40/40 39/39/39
f 40/40/40 41/41/41 42/42/42
f 43/43/43 45/45/45 44/44/44
f 45/45/45 43/43/43 46/46/46
f 46/46/46 43/43/43 47/47/47
f 48/48/48 46/46/46 47/47/47
f 49/49/49 51/51/51 50/50/50
f 51/51/51 49/49/49 52/52/52
f 53/53/53 55/55/55 54/54/54
f 55/55/55 53/53/53 56/56/56

usemtl roof

f 3/3/3 58/58/58 57/57/57
f 58/58/58 3/3/3 1/1/1
f 58/58/58 1/1/1 59/59/59
f 59/59/59 1/1/1 22/22/22
f 59/59/59 22/22/22 60/60/60
f 60/60/60 22/22/22 19/19/19
f 60/60/60 19/19/19 61/61/61
f 60/60/60 61/61/61 62/62/62
f 63/63/63 65/65/65 64/64/64
f 65/65/65 63/63/63 66/66/66
f 67/67/67 69/69/69 68/68/68
f 69/69/69 67/67/67 70/70/70
f 71/71/71 73/73/73 72/72/72
f 73/73/73 71/71/71 74/74/74
f 75/75/75 77/77/77 76/76/76
f 77/77/77 75/75/75 78/78/78
f 79/79/79 81/81/81 80/80/80
f 81/81/81 79/79/79 82/82/82
f 83/83/83 85/85/85 84/84/84
f 85/85/85 83/83/83 86/86/86
f 87/87/87 89/89/89 88/88/88
f 89/89/89 87/87/87 90/90/90
f 91/91/91 5/5/5 92/92/92
f 5/5/5 91/91/91 4/4/4
f 4/4/4 91/91/91 93/93/93
f 4/4/4 93/93/93 10/10/10
f 10/10/10 93/93/93 94/94/94
f 10/10/10 94/94/94 9/9/9
f 9/9/9 94/94/94 95/95/95
f 95/95/95 94/94/94 96/96/96

usemtl roofLight

f 97/97/97 82/82/82 79/79/79
f 82/82/82 97/97/97 98/98/98
