# Created by Kenney (www.kenney.nl) - UVs and materials modified

mtllib fantasytown.mtl


g roofHighCornerInner

v 0.400 0.971 0.500
v 0.400 0.971 -0.400
v 0.400 1.041 -0.400
v 0.400 1.041 0.500
v 0.400 0.971 -0.400
v -0.471 0.100 0.471
v -0.500 0.100 0.471
v -0.500 0.971 -0.400
v 0.400 1.041 -0.400
v 0.500 1.141 -0.500
v 0.500 1.141 0.500
v 0.400 1.041 0.500
v 0.500 1.141 -0.500
v 0.400 1.041 -0.400
v -0.500 1.041 -0.400
v -0.500 1.141 -0.500
v 0.400 1.041 -0.400
v 0.400 0.971 -0.400
v -0.500 0.971 -0.400
v -0.500 1.041 -0.400
v -0.471 0.100 0.471
v 0.400 0.971 -0.400
v 0.400 0.971 0.500
v -0.471 0.100 0.500
v -0.500 0.071 0.500
v -0.500 0.071 0.500
v -0.500 0.100 0.471
v -0.500 0.071 0.500
v -0.500 0.000 0.500
v -0.500 0.971 -0.400
v -0.500 0.000 -0.500
v -0.500 1.141 -0.500
v -0.500 1.041 -0.400
v 0.500 1.141 0.500
v 0.500 1.141 -0.500
v 0.500 0.000 -0.500
v 0.500 0.000 0.500
v -0.500 1.141 -0.500
v -0.500 0.000 -0.500
v 0.500 0.000 -0.500
v 0.500 1.141 -0.500
v -0.500 0.000 0.500
v -0.500 0.071 0.500
v -0.471 0.100 0.500
v 0.400 0.971 0.500
v 0.500 0.000 0.500
v 0.500 1.141 0.500
v 0.400 1.041 0.500
v 0.500 0.000 0.500
v 0.500 0.000 -0.500
v -0.500 0.000 -0.500
v -0.500 0.000 0.500

vt -0.500 0.971
vt 0.400 0.971
vt 0.400 1.041
vt -0.500 1.041
vt -0.400 0.969
vt 0.471 -0.262
vt 0.500 -0.262
vt 0.500 0.969
vt 0.400 1.019
vt 0.500 1.160
vt -0.500 1.160
vt -0.500 1.019
vt -0.500 1.160
vt -0.400 1.019
vt 0.500 1.019
vt 0.500 1.160
vt -0.400 1.041
vt -0.400 0.971
vt 0.500 0.971
vt 0.500 1.041
vt -0.471 -0.262
vt 0.400 0.969
vt -0.500 0.969
vt -0.500 -0.262
vt -0.500 -0.304
vt 0.500 -0.304
vt -0.471 0.100
vt -0.500 0.071
vt -0.500 0.000
vt 0.400 0.971
vt 0.500 0.000
vt 0.500 1.141
vt 0.400 1.041
vt 0.500 1.141
vt -0.500 1.141
vt -0.500 0.000
vt 0.500 0.000
vt -0.500 1.141
vt -0.500 0.000
vt 0.500 0.000
vt 0.500 1.141
vt 0.500 0.000
vt 0.500 0.071
vt 0.471 0.100
vt -0.400 0.971
vt -0.500 0.000
vt -0.500 1.141
vt -0.400 1.041
vt -0.500 -0.500
vt 0.500 -0.500
vt 0.500 0.500
vt -0.500 0.500

vn -1.000 0.000 0.000
vn -1.000 0.000 0.000
vn -1.000 0.000 0.000
vn -1.000 0.000 0.000
vn 0.000 0.707 0.707
vn 0.000 0.707 0.707
vn 0.000 0.707 0.707
vn 0.000 0.707 0.707
vn -0.707 0.707 0.000
vn -0.707 0.707 0.000
vn -0.707 0.707 0.000
vn -0.707 0.707 0.000
vn 0.000 0.707 0.707
vn 0.000 0.707 0.707
vn 0.000 0.707 0.707
vn 0.000 0.707 0.707
vn 0.000 0.000 1.000
vn 0.000 0.000 1.000
vn 0.000 0.000 1.000
vn 0.000 0.000 1.000
vn -0.707 0.707 0.000
vn -0.707 0.707 0.000
vn -0.707 0.707 0.000
vn -0.707 0.707 0.000
vn -0.707 0.707 0.000
vn 0.000 0.707 0.707
vn -1.000 0.000 0.000
vn -1.000 0.000 0.000
vn -1.000 0.000 0.000
vn -1.000 0.000 0.000
vn -1.000 0.000 0.000
vn -1.000 0.000 0.000
vn -1.000 0.000 0.000
vn 1.000 0.000 0.000
vn 1.000 0.000 0.000
vn 1.000 0.000 0.000
vn 1.000 0.000 0.000
vn 0.000 0.000 -1.000
vn 0.000 0.000 -1.000
vn 0.000 0.000 -1.000
vn 0.000 0.000 -1.000
vn 0.000 0.000 1.000
vn 0.000 0.000 1.000
vn 0.000 0.000 1.000
vn 0.000 0.000 1.000
vn 0.000 0.000 1.000
vn 0.000 0.000 1.000
vn 0.000 0.000 1.000
vn 0.000 -1.000 0.000
vn 0.000 -1.000 0.000
vn 0.000 -1.000 0.000
vn 0.000 -1.000 0.000


usemtl roofRed

f 1/1/1 3/3/3 2/2/2
f 3/3/3 1/1/1 4/4/4
f 5/5/5 7/7/7 6/6/6
f 7/7/7 5/5/5 8/8/8
f 9/9/9 11/11/11 10/10/10
f 11/11/11 9/9/9 12/12/12
f 13/13/13 15/15/15 14/14/14
f 15/15/15 13/13/13 16/16/16
f 17/17/17 19/19/19 18/18/18
f 19/19/19 17/17/17 20/20/20
f 21/21/21 23/23/23 22/22/22
f 23/23/23 21/21/21 24/24/24

usemtl roofRedLight

f 25/25/25 24/24/24 21/21/21
f 7/7/7 26/26/26 6/6/6

usemtl woodDark

f 27/27/27 29/29/29 28/28/28
f 30/30/30 29/29/29 27/27/27
f 30/30/30 31/31/31 29/29/29
f 31/31/31 30/30/30 32/32/32
f 33/33/33 32/32/32 30/30/30
f 34/34/34 36/36/36 35/35/35
f 36/36/36 34/34/34 37/37/37
f 38/38/38 40/40/40 39/39/39
f 40/40/40 38/38/38 41/41/41
f 42/42/42 44/44/44 43/43/43
f 42/42/42 45/45/45 44/44/44
f 46/46/46 45/45/45 42/42/42
f 45/45/45 46/46/46 47/47/47
f 45/45/45 47/47/47 48/48/48
f 49/49/49 51/51/51 50/50/50
f 51/51/51 49/49/49 52/52/52
