# Created by Kenney (www.kenney.nl) - UVs and materials modified

mtllib fantasytown.mtl


g roofHighCorner

v 0.500 1.141 -0.500
v 0.500 1.041 -0.400
v 0.400 1.041 -0.400
v 0.400 1.041 -0.400
v 0.400 1.041 -0.500
v 0.500 1.141 -0.500
v -0.471 0.100 -0.500
v 0.400 0.971 -0.500
v 0.400 0.971 -0.400
v -0.471 0.100 0.471
v 0.500 0.000 0.571
v 0.500 -0.035 0.535
v -0.535 -0.035 0.535
v -0.571 0.000 0.571
v -0.500 0.000 0.500
v -0.500 0.000 -0.500
v -0.535 -0.035 -0.500
v -0.535 -0.035 0.535
v 0.400 0.971 -0.400
v 0.400 0.971 -0.500
v 0.400 1.041 -0.500
v 0.400 1.041 -0.400
v 0.500 1.041 -0.400
v 0.500 0.971 -0.400
v 0.400 0.971 -0.400
v 0.400 1.041 -0.400
v -0.571 0.000 0.571
v -0.535 -0.035 0.535
v -0.535 -0.035 -0.500
v -0.571 0.000 -0.500
v 0.400 0.971 -0.400
v 0.500 0.971 -0.400
v 0.500 0.100 0.471
v -0.471 0.100 0.471
v 0.500 -0.035 0.535
v 0.500 0.000 0.500
v -0.500 0.000 0.500
v -0.535 -0.035 0.535
v 0.500 0.000 0.571
v -0.571 0.000 0.571
v -0.571 0.000 0.571
v -0.571 0.000 -0.500
v -0.571 0.000 -0.500
v -0.535 -0.035 -0.500
v -0.500 0.000 -0.500
v -0.471 0.100 -0.500
v 0.500 0.000 -0.500
v 0.400 0.971 -0.500
v 0.500 1.141 -0.500
v 0.400 1.041 -0.500
v -0.500 0.000 0.500
v 0.500 0.000 0.500
v 0.500 0.000 -0.500
v -0.500 0.000 -0.500
v 0.500 1.041 -0.400
v 0.500 1.141 -0.500
v 0.500 0.000 -0.500
v 0.500 0.971 -0.400
v 0.500 0.000 0.500
v 0.500 0.100 0.471
v 0.500 0.000 0.571
v 0.500 -0.035 0.535

vt -0.500 1.160
vt -0.500 1.019
vt -0.400 1.019
vt 0.400 1.019
vt 0.500 1.019
vt 0.500 1.160
vt 0.500 -0.262
vt 0.500 0.969
vt 0.400 0.969
vt -0.471 -0.262
vt -0.500 0.404
vt -0.500 0.354
vt 0.535 0.354
vt 0.571 0.404
vt 0.500 -0.354
vt -0.500 -0.354
vt -0.500 -0.404
vt 0.535 -0.404
vt 0.400 0.971
vt 0.500 0.971
vt 0.500 1.041
vt 0.400 1.041
vt -0.500 1.041
vt -0.500 0.971
vt -0.400 0.971
vt -0.400 1.041
vt -0.571 0.404
vt -0.535 0.354
vt 0.500 0.354
vt 0.500 0.404
vt -0.400 0.969
vt -0.500 0.969
vt -0.500 -0.262
vt 0.471 -0.262
vt 0.500 -0.404
vt 0.500 -0.354
vt -0.500 -0.354
vt -0.535 -0.404
vt -0.500 -0.404
vt 0.571 -0.404
vt -0.571 -0.404
vt 0.500 -0.404
vt -0.571 0.000
vt -0.535 -0.035
vt -0.500 0.000
vt -0.471 0.100
vt 0.500 0.000
vt 0.400 0.971
vt 0.500 1.141
vt 0.400 1.041
vt -0.500 0.500
vt -0.500 -0.500
vt 0.500 -0.500
vt 0.500 0.500
vt -0.400 1.041
vt -0.500 1.141
vt -0.500 0.000
vt -0.400 0.971
vt 0.500 0.000
vt 0.471 0.100
vt 0.571 0.000
vt 0.535 -0.035

vn 0.000 0.707 0.707
vn 0.000 0.707 0.707
vn 0.000 0.707 0.707
vn -0.707 0.707 0.000
vn -0.707 0.707 0.000
vn -0.707 0.707 0.000
vn -0.707 0.707 0.000
vn -0.707 0.707 0.000
vn -0.707 0.707 0.000
vn -0.707 0.707 0.000
vn 0.000 -0.707 0.707
vn 0.000 -0.707 0.707
vn 0.000 -0.707 0.707
vn 0.000 -0.707 0.707
vn 0.707 -0.707 0.000
vn 0.707 -0.707 0.000
vn 0.707 -0.707 0.000
vn 0.707 -0.707 0.000
vn -1.000 0.000 0.000
vn -1.000 0.000 0.000
vn -1.000 0.000 0.000
vn -1.000 0.000 0.000
vn 0.000 0.000 1.000
vn 0.000 0.000 1.000
vn 0.000 0.000 1.000
vn 0.000 0.000 1.000
vn -0.707 -0.707 0.000
vn -0.707 -0.707 0.000
vn -0.707 -0.707 0.000
vn -0.707 -0.707 0.000
vn 0.000 0.707 0.707
vn 0.000 0.707 0.707
vn 0.000 0.707 0.707
vn 0.000 0.707 0.707
vn 0.000 -0.707 -0.707
vn 0.000 -0.707 -0.707
vn 0.000 -0.707 -0.707
vn 0.000 -0.707 -0.707
vn 0.000 0.707 0.707
vn 0.000 0.707 0.707
vn -0.707 0.707 0.000
vn -0.707 0.707 0.000
vn 0.000 0.000 -1.000
vn 0.000 0.000 -1.000
vn 0.000 0.000 -1.000
vn 0.000 0.000 -1.000
vn 0.000 0.000 -1.000
vn 0.000 0.000 -1.000
vn 0.000 0.000 -1.000
vn 0.000 0.000 -1.000
vn 0.000 -1.000 0.000
vn 0.000 -1.000 0.000
vn 0.000 -1.000 0.000
vn 0.000 -1.000 0.000
vn 1.000 0.000 0.000
vn 1.000 0.000 0.000
vn 1.000 0.000 0.000
vn 1.000 0.000 0.000
vn 1.000 0.000 0.000
vn 1.000 0.000 0.000
vn 1.000 0.000 0.000
vn 1.000 0.000 0.000


usemtl roofRed

f 1/1/1 3/3/3 2/2/2
f 4/4/4 6/6/6 5/5/5
f 7/7/7 9/9/9 8/8/8
f 9/9/9 7/7/7 10/10/10
f 11/11/11 13/13/13 12/12/12
f 13/13/13 11/11/11 14/14/14
f 15/15/15 17/17/17 16/16/16
f 17/17/17 15/15/15 18/18/18
f 19/19/19 21/21/21 20/20/20
f 21/21/21 19/19/19 22/22/22
f 23/23/23 25/25/25 24/24/24
f 25/25/25 23/23/23 26/26/26
f 27/27/27 29/29/29 28/28/28
f 29/29/29 27/27/27 30/30/30
f 31/31/31 33/33/33 32/32/32
f 33/33/33 31/31/31 34/34/34
f 35/35/35 37/37/37 36/36/36
f 37/37/37 35/35/35 38/38/38

usemtl roofRedLight

f 33/33/33 40/40/40 39/39/39
f 40/40/40 33/33/33 34/34/34
f 41/41/41 7/7/7 42/42/42
f 7/7/7 41/41/41 10/10/10

usemtl woodDark

f 43/43/43 45/45/45 44/44/44
f 45/45/45 43/43/43 46/46/46
f 45/45/45 46/46/46 47/47/47
f 47/47/47 46/46/46 48/48/48
f 47/47/47 48/48/48 49/49/49
f 49/49/49 48/48/48 50/50/50
f 51/51/51 53/53/53 52/52/52
f 53/53/53 51/51/51 54/54/54
f 55/55/55 57/57/57 56/56/56
f 57/57/57 55/55/55 58/58/58
f 57/57/57 58/58/58 59/59/59
f 59/59/59 58/58/58 60/60/60
f 59/59/59 60/60/60 61/61/61
f 59/59/59 61/61/61 62/62/62
