# Created by Kenney (www.kenney.nl) - UVs and materials modified

mtllib fantasytown.mtl


g roofFlat

v 0.500 0.076 -0.400
v 0.500 0.126 -0.500
v 0.500 0.000 -0.500
v 0.500 0.000 0.500
v 0.500 0.076 0.400
v 0.500 0.126 0.500
v -0.500 0.076 -0.400
v 0.500 0.076 -0.400
v 0.500 0.076 0.400
v -0.500 0.076 0.400
v -0.500 0.000 -0.500
v -0.500 0.126 -0.500
v -0.500 0.076 -0.400
v -0.500 0.000 0.500
v -0.500 0.076 0.400
v -0.500 0.126 0.500
v -0.500 0.126 -0.500
v -0.500 0.000 -0.500
v 0.500 0.000 -0.500
v 0.500 0.126 -0.500
v -0.500 0.126 -0.500
v 0.500 0.126 -0.500
v 0.500 0.076 -0.400
v -0.500 0.076 -0.400
v 0.500 0.000 0.500
v 0.500 0.000 -0.500
v -0.500 0.000 -0.500
v -0.500 0.000 0.500
v 0.500 0.076 0.400
v 0.500 0.126 0.500
v -0.500 0.126 0.500
v -0.500 0.076 0.400
v 0.500 0.126 0.500
v 0.500 0.000 0.500
v -0.500 0.000 0.500
v -0.500 0.126 0.500

vt -0.400 0.076
vt -0.500 0.126
vt -0.500 0.000
vt 0.500 0.000
vt 0.400 0.076
vt 0.500 0.126
vt -0.400 0.500
vt -0.400 -0.500
vt 0.400 -0.500
vt 0.400 0.500
vt 0.500 0.000
vt 0.500 0.126
vt 0.400 0.076
vt -0.500 0.000
vt -0.400 0.076
vt -0.500 0.126
vt -0.500 0.126
vt -0.500 0.000
vt 0.500 0.000
vt 0.500 0.126
vt 0.500 0.504
vt -0.500 0.504
vt -0.500 0.392
vt 0.500 0.392
vt -0.500 -0.500
vt 0.500 -0.500
vt 0.500 0.500
vt -0.500 0.500
vt 0.500 0.392
vt 0.500 0.504
vt -0.500 0.504
vt -0.500 0.392
vt -0.500 0.126
vt -0.500 0.000
vt 0.500 0.000
vt 0.500 0.126

vn 1.000 0.000 0.000
vn 1.000 0.000 0.000
vn 1.000 0.000 0.000
vn 1.000 0.000 0.000
vn 1.000 0.000 0.000
vn 1.000 0.000 0.000
vn 0.000 1.000 0.000
vn 0.000 1.000 0.000
vn 0.000 1.000 0.000
vn 0.000 1.000 0.000
vn -1.000 0.000 0.000
vn -1.000 0.000 0.000
vn -1.000 0.000 0.000
vn -1.000 0.000 0.000
vn -1.000 0.000 0.000
vn -1.000 0.000 0.000
vn 0.000 0.000 -1.000
vn 0.000 0.000 -1.000
vn 0.000 0.000 -1.000
vn 0.000 0.000 -1.000
vn 0.000 0.894 0.447
vn 0.000 0.894 0.447
vn 0.000 0.894 0.447
vn 0.000 0.894 0.447
vn 0.000 -1.000 0.000
vn 0.000 -1.000 0.000
vn 0.000 -1.000 0.000
vn 0.000 -1.000 0.000
vn 0.000 0.894 -0.447
vn 0.000 0.894 -0.447
vn 0.000 0.894 -0.447
vn 0.000 0.894 -0.447
vn 0.000 0.000 1.000
vn 0.000 0.000 1.000
vn 0.000 0.000 1.000
vn 0.000 0.000 1.000


usemtl roof

f 1/1/1 3/3/3 2/2/2
f 3/3/3 1/1/1 4/4/4
f 4/4/4 1/1/1 5/5/5
f 4/4/4 5/5/5 6/6/6
f 7/7/7 9/9/9 8/8/8
f 9/9/9 7/7/7 10/10/10
f 11/11/11 13/13/13 12/12/12
f 13/13/13 11/11/11 14/14/14
f 13/13/13 14/14/14 15/15/15
f 15/15/15 14/14/14 16/16/16
f 17/17/17 19/19/19 18/18/18
f 19/19/19 17/17/17 20/20/20
f 21/21/21 23/23/23 22/22/22
f 23/23/23 21/21/21 24/24/24
f 25/25/25 27/27/27 26/26/26
f 27/27/27 25/25/25 28/28/28
f 29/29/29 31/31/31 30/30/30
f 31/31/31 29/29/29 32/32/32
f 33/33/33 35/35/35 34/34/34
f 35/35/35 33/33/33 36/36/36
