# Created by Kenney (www.kenney.nl) - UVs and materials modified

mtllib fantasytown.mtl


g roofGableTop

v 0.500 0.126 -0.500
v 0.500 0.376 0.000
v -0.500 0.376 0.000
v -0.500 0.126 -0.500
v -0.500 0.126 -0.500
v -0.500 0.000 -0.500
v 0.500 0.000 -0.500
v 0.500 0.126 -0.500
v -0.500 0.376 0.000
v 0.500 0.376 0.000
v 0.500 0.126 0.500
v -0.500 0.126 0.500
v 0.500 0.126 0.500
v 0.500 0.000 0.500
v -0.500 0.000 0.500
v -0.500 0.126 0.500
v 0.500 0.050 0.400
v 0.500 0.250 0.000
v 0.475 0.250 0.000
v 0.475 0.050 0.400
v 0.500 0.376 0.000
v 0.500 0.126 -0.500
v 0.500 0.000 -0.500
v 0.500 0.050 -0.400
v 0.500 0.250 0.000
v 0.500 0.126 0.500
v 0.500 0.050 0.400
v 0.500 0.000 0.500
v -0.475 0.050 0.400
v -0.475 0.250 0.000
v -0.500 0.250 0.000
v -0.500 0.050 0.400
v -0.500 0.250 0.000
v -0.475 0.250 0.000
v -0.475 0.050 -0.400
v -0.500 0.050 -0.400
v 0.475 0.250 0.000
v 0.500 0.250 0.000
v 0.500 0.050 -0.400
v 0.475 0.050 -0.400
v -0.500 0.050 -0.400
v -0.500 0.000 -0.500
v -0.500 0.126 -0.500
v -0.500 0.376 0.000
v -0.500 0.250 0.000
v -0.500 0.050 0.400
v -0.500 0.126 0.500
v -0.500 0.000 0.500
v 0.500 0.000 -0.400
v -0.500 0.000 0.400
v 0.500 0.000 0.400
v -0.500 0.000 -0.400
v 0.500 0.050 -0.400
v 0.500 0.000 -0.400
v 0.475 0.000 -0.400
v 0.475 0.050 -0.400
v 0.475 0.000 0.400
v 0.500 0.000 0.400
v 0.500 0.050 0.400
v 0.475 0.050 0.400
v -0.475 0.050 -0.400
v -0.475 0.000 -0.400
v -0.500 0.000 -0.400
v -0.500 0.050 -0.400
v -0.500 0.000 0.400
v -0.475 0.000 0.400
v -0.475 0.050 0.400
v -0.500 0.050 0.400
v 0.475 0.250 0.000
v 0.475 0.050 -0.400
v 0.475 0.000 -0.400
v 0.475 0.000 0.400
v 0.475 0.050 0.400
v -0.475 0.000 0.400
v -0.475 0.000 -0.400
v -0.475 0.050 -0.400
v -0.475 0.250 0.000
v -0.475 0.050 0.400
v 0.500 0.000 0.500
v 0.500 0.000 0.400
v 0.475 0.000 0.400
v -0.500 0.000 0.500
v -0.475 0.000 0.400
v -0.500 0.000 0.400
v -0.475 0.000 -0.400
v -0.500 0.000 -0.500
v -0.500 0.000 -0.400
v 0.475 0.000 -0.400
v 0.500 0.000 -0.400
v 0.500 0.000 -0.500

vt 0.500 -0.391
vt 0.500 0.168
vt -0.500 0.168
vt -0.500 -0.391
vt -0.500 0.126
vt -0.500 0.000
vt 0.500 0.000
vt 0.500 0.126
vt 0.500 0.168
vt -0.500 0.168
vt -0.500 -0.391
vt 0.500 -0.391
vt -0.500 0.126
vt -0.500 0.000
vt 0.500 0.000
vt 0.500 0.126
vt 0.500 -0.335
vt 0.500 0.112
vt 0.475 0.112
vt 0.475 -0.335
vt 0.000 0.376
vt -0.500 0.126
vt -0.500 0.000
vt -0.400 0.050
vt 0.000 0.250
vt 0.500 0.126
vt 0.400 0.050
vt 0.500 0.000
vt -0.475 -0.335
vt -0.475 0.112
vt -0.500 0.112
vt -0.500 -0.335
vt 0.500 0.112
vt 0.475 0.112
vt 0.475 -0.335
vt 0.500 -0.335
vt -0.475 0.112
vt -0.500 0.112
vt -0.500 -0.335
vt -0.475 -0.335
vt 0.400 0.050
vt 0.500 0.000
vt 0.500 0.126
vt 0.000 0.376
vt 0.000 0.250
vt -0.400 0.050
vt -0.500 0.126
vt -0.500 0.000
vt -0.400 0.000
vt -0.400 0.000
vt 0.400 0.000
vt 0.400 0.000
vt -0.500 0.050
vt -0.500 0.000
vt -0.475 0.000
vt -0.475 0.050
vt 0.475 0.000
vt 0.500 0.000
vt 0.500 0.050
vt 0.475 0.050
vt 0.475 0.050
vt 0.475 0.000
vt 0.500 0.000
vt 0.500 0.050
vt -0.500 0.000
vt -0.475 0.000
vt -0.475 0.050
vt -0.500 0.050
vt 0.000 0.250
vt -0.400 0.050
vt -0.400 0.000
vt 0.400 0.000
vt 0.400 0.050
vt -0.400 0.000
vt 0.400 0.000
vt 0.400 0.050
vt 0.000 0.250
vt -0.400 0.050
vt -0.500 -0.500
vt -0.400 -0.500
vt -0.400 -0.475
vt -0.500 0.500
vt -0.400 0.475
vt -0.400 0.500
vt 0.400 0.475
vt 0.500 0.500
vt 0.400 0.500
vt 0.400 -0.475
vt 0.400 -0.500
vt 0.500 -0.500

vn 0.000 0.894 -0.447
vn 0.000 0.894 -0.447
vn 0.000 0.894 -0.447
vn 0.000 0.894 -0.447
vn 0.000 0.000 -1.000
vn 0.000 0.000 -1.000
vn 0.000 0.000 -1.000
vn 0.000 0.000 -1.000
vn 0.000 0.894 0.447
vn 0.000 0.894 0.447
vn 0.000 0.894 0.447
vn 0.000 0.894 0.447
vn 0.000 0.000 1.000
vn 0.000 0.000 1.000
vn 0.000 0.000 1.000
vn 0.000 0.000 1.000
vn 0.000 -0.894 -0.447
vn 0.000 -0.894 -0.447
vn 0.000 -0.894 -0.447
vn 0.000 -0.894 -0.447
vn 1.000 0.000 0.000
vn 1.000 0.000 0.000
vn 1.000 0.000 0.000
vn 1.000 0.000 0.000
vn 1.000 0.000 0.000
vn 1.000 0.000 0.000
vn 1.000 0.000 0.000
vn 1.000 0.000 0.000
vn 0.000 -0.894 -0.447
vn 0.000 -0.894 -0.447
vn 0.000 -0.894 -0.447
vn 0.000 -0.894 -0.447
vn 0.000 -0.894 0.447
vn 0.000 -0.894 0.447
vn 0.000 -0.894 0.447
vn 0.000 -0.894 0.447
vn 0.000 -0.894 0.447
vn 0.000 -0.894 0.447
vn 0.000 -0.894 0.447
vn 0.000 -0.894 0.447
vn -1.000 0.000 0.000
vn -1.000 0.000 0.000
vn -1.000 0.000 0.000
vn -1.000 0.000 0.000
vn -1.000 0.000 0.000
vn -1.000 0.000 0.000
vn -1.000 0.000 0.000
vn -1.000 0.000 0.000
vn 1.000 0.000 0.000
vn -1.000 0.000 0.000
vn 1.000 0.000 0.000
vn -1.000 0.000 0.000
vn 0.000 0.000 1.000
vn 0.000 0.000 1.000
vn 0.000 0.000 1.000
vn 0.000 0.000 1.000
vn 0.000 0.000 -1.000
vn 0.000 0.000 -1.000
vn 0.000 0.000 -1.000
vn 0.000 0.000 -1.000
vn 0.000 0.000 1.000
vn 0.000 0.000 1.000
vn 0.000 0.000 1.000
vn 0.000 0.000 1.000
vn 0.000 0.000 -1.000
vn 0.000 0.000 -1.000
vn 0.000 0.000 -1.000
vn 0.000 0.000 -1.000
vn 1.000 0.000 0.000
vn 1.000 0.000 0.000
vn 1.000 0.000 0.000
vn 1.000 0.000 0.000
vn 1.000 0.000 0.000
vn -1.000 0.000 0.000
vn -1.000 0.000 0.000
vn -1.000 0.000 0.000
vn -1.000 0.000 0.000
vn -1.000 0.000 0.000
vn 0.000 -1.000 0.000
vn 0.000 -1.000 0.000
vn 0.000 -1.000 0.000
vn 0.000 -1.000 0.000
vn 0.000 -1.000 0.000
vn 0.000 -1.000 0.000
vn 0.000 -1.000 0.000
vn 0.000 -1.000 0.000
vn 0.000 -1.000 0.000
vn 0.000 -1.000 0.000
vn 0.000 -1.000 0.000
vn 0.000 -1.000 0.000


usemtl roof

f 1/1/1 3/3/3 2/2/2
f 3/3/3 1/1/1 4/4/4
f 5/5/5 7/7/7 6/6/6
f 7/7/7 5/5/5 8/8/8
f 9/9/9 11/11/11 10/10/10
f 11/11/11 9/9/9 12/12/12
f 13/13/13 15/15/15 14/14/14
f 15/15/15 13/13/13 16/16/16
f 17/17/17 19/19/19 18/18/18
f 19/19/19 17/17/17 20/20/20
f 21/21/21 23/23/23 22/22/22
f 23/23/23 21/21/21 24/24/24
f 24/24/24 21/21/21 25/25/25
f 25/25/25 21/21/21 26/26/26
f 25/25/25 26/26/26 27/27/27
f 27/27/27 26/26/26 28/28/28
f 29/29/29 31/31/31 30/30/30
f 31/31/31 29/29/29 32/32/32
f 33/33/33 35/35/35 34/34/34
f 35/35/35 33/33/33 36/36/36
f 37/37/37 39/39/39 38/38/38
f 39/39/39 37/37/37 40/40/40
f 41/41/41 43/43/43 42/42/42
f 43/43/43 41/41/41 44/44/44
f 44/44/44 41/41/41 45/45/45
f 44/44/44 45/45/45 46/46/46
f 44/44/44 46/46/46 47/47/47
f 47/47/47 46/46/46 48/48/48

usemtl wood

f 49/49/49 23/23/23 24/24/24
f 48/48/48 46/46/46 50/50/50
f 28/28/28 51/51/51 27/27/27
f 41/41/41 42/42/42 52/52/52
f 53/53/53 55/55/55 54/54/54
f 55/55/55 53/53/53 56/56/56
f 57/57/57 59/59/59 58/58/58
f 59/59/59 57/57/57 60/60/60
f 61/61/61 63/63/63 62/62/62
f 63/63/63 61/61/61 64/64/64
f 65/65/65 67/67/67 66/66/66
f 67/67/67 65/65/65 68/68/68

usemtl stone

f 69/69/69 71/71/71 70/70/70
f 71/71/71 69/69/69 72/72/72
f 72/72/72 69/69/69 73/73/73
f 74/74/74 76/76/76 75/75/75
f 76/76/76 74/74/74 77/77/77
f 77/77/77 74/74/74 78/78/78
f 79/79/79 81/81/81 80/80/80
f 81/81/81 79/79/79 82/82/82
f 81/81/81 82/82/82 83/83/83
f 83/83/83 82/82/82 84/84/84
f 81/81/81 83/83/83 85/85/85
f 86/86/86 81/81/81 85/85/85
f 86/86/86 85/85/85 87/87/87
f 86/86/86 88/88/88 81/81/81
f 86/86/86 89/89/89 88/88/88
f 89/89/89 86/86/86 90/90/90
