# Created by Kenney (www.kenney.nl) - UVs and materials modified

mtllib fantasytown.mtl


g roofHighGableEnd

v -0.497 0.119 0.496
v -0.497 0.119 -0.496
v 0.000 1.112 0.000
v 0.550 -0.022 0.567
v 0.550 -0.045 0.522
v -0.523 -0.045 0.522
v -0.568 -0.022 0.567
v 0.550 0.119 -0.496
v 0.550 -0.022 -0.567
v 0.550 -0.045 -0.522
v 0.550 1.000 0.000
v 0.550 1.112 0.000
v 0.550 0.119 0.496
v 0.550 -0.045 0.522
v 0.550 -0.022 0.567
v 0.475 0.200 -0.400
v 0.475 1.000 0.000
v 0.550 1.000 0.000
v 0.500 0.200 -0.400
v 0.500 0.000 -0.500
v 0.550 -0.045 -0.522
v -0.523 -0.045 -0.522
v -0.500 0.000 -0.500
v 0.550 -0.045 -0.522
v 0.550 -0.022 -0.567
v -0.568 -0.022 -0.567
v -0.523 -0.045 -0.522
v 0.475 1.000 0.000
v 0.475 0.200 0.400
v 0.500 0.200 0.400
v 0.550 1.000 0.000
v 0.500 0.000 0.500
v 0.550 -0.045 0.522
v -0.500 0.000 0.500
v -0.523 -0.045 0.522
v 0.000 1.112 0.000
v -0.497 0.119 -0.496
v 0.550 0.119 -0.496
v 0.550 1.112 0.000
v 0.550 0.119 0.496
v -0.497 0.119 0.496
v 0.000 1.112 0.000
v 0.550 1.112 0.000
v -0.523 -0.045 0.522
v -0.523 -0.045 -0.522
v -0.568 -0.022 -0.567
v -0.568 -0.022 0.567
v -0.500 0.000 -0.500
v -0.523 -0.045 -0.522
v -0.523 -0.045 0.522
v -0.500 0.000 0.500
v 0.500 0.000 0.500
v 0.500 0.200 0.400
v 0.500 0.000 0.400
v 0.500 0.000 -0.400
v 0.500 0.200 -0.400
v 0.500 0.000 -0.500
v 0.475 0.200 0.400
v 0.475 0.000 0.400
v 0.500 0.000 0.400
v 0.500 0.200 0.400
v 0.500 0.200 -0.400
v 0.500 0.000 -0.400
v 0.475 0.000 -0.400
v 0.475 0.200 -0.400
v 0.500 0.000 0.500
v 0.500 0.000 0.400
v 0.475 0.000 0.400
v -0.500 0.000 0.500
v -0.500 0.000 -0.500
v 0.475 0.000 -0.400
v 0.500 0.000 -0.400
v 0.500 0.000 -0.500
v 0.475 1.000 0.000
v 0.475 0.200 -0.400
v 0.475 0.000 -0.400
v 0.475 0.000 0.400
v 0.475 0.200 0.400
v -0.568 -0.022 -0.567
v 0.550 -0.022 -0.567
v 0.550 -0.022 0.567
v -0.568 -0.022 0.567
v -0.568 -0.022 0.567
v -0.568 -0.022 -0.567

vt -0.496 -0.115
vt 0.496 -0.115
vt 0.000 0.994
vt -0.550 0.497
vt -0.550 0.447
vt 0.523 0.447
vt 0.568 0.497
vt -0.496 0.119
vt -0.567 -0.022
vt -0.522 -0.045
vt 0.000 1.000
vt 0.000 1.112
vt 0.496 0.119
vt 0.522 -0.045
vt 0.567 -0.022
vt -0.475 0.000
vt -0.475 0.894
vt -0.550 0.894
vt -0.500 0.000
vt -0.500 -0.224
vt -0.550 -0.274
vt 0.523 -0.274
vt 0.500 -0.224
vt 0.550 0.447
vt 0.550 0.497
vt -0.568 0.497
vt -0.523 0.447
vt 0.475 0.894
vt 0.475 0.000
vt 0.500 0.000
vt 0.550 0.894
vt 0.500 -0.224
vt 0.550 -0.274
vt -0.500 -0.224
vt -0.523 -0.274
vt 0.000 0.994
vt -0.497 -0.115
vt 0.550 -0.115
vt 0.550 0.994
vt -0.550 -0.115
vt 0.497 -0.115
vt 0.000 0.994
vt -0.550 0.994
vt -0.522 0.448
vt 0.522 0.448
vt 0.567 0.498
vt -0.567 0.498
vt -0.500 -0.224
vt -0.522 -0.274
vt 0.522 -0.274
vt 0.500 -0.224
vt 0.500 0.000
vt 0.400 0.200
vt 0.400 0.000
vt -0.400 0.000
vt -0.400 0.200
vt -0.500 0.000
vt 0.475 0.200
vt 0.475 0.000
vt 0.500 0.000
vt 0.500 0.200
vt -0.500 0.200
vt -0.500 0.000
vt -0.475 0.000
vt -0.475 0.200
vt -0.500 -0.500
vt -0.400 -0.500
vt -0.400 -0.475
vt -0.500 0.500
vt 0.500 0.500
vt 0.400 -0.475
vt 0.400 -0.500
vt 0.500 -0.500
vt 0.000 1.000
vt -0.400 0.200
vt -0.400 0.000
vt 0.400 0.000
vt 0.400 0.200
vt -0.568 -0.274
vt 0.550 -0.274
vt -0.550 -0.274
vt 0.568 -0.274
vt -0.567 -0.274
vt 0.567 -0.274

vn -0.894 0.447 0.000
vn -0.894 0.447 0.000
vn -0.894 0.447 0.000
vn 0.000 -0.894 0.447
vn 0.000 -0.894 0.447
vn 0.000 -0.894 0.447
vn 0.000 -0.894 0.447
vn 1.000 0.000 0.000
vn 1.000 0.000 0.000
vn 1.000 0.000 0.000
vn 1.000 0.000 0.000
vn 1.000 0.000 0.000
vn 1.000 0.000 0.000
vn 1.000 0.000 0.000
vn 1.000 0.000 0.000
vn 0.000 -0.447 0.894
vn 0.000 -0.447 0.894
vn 0.000 -0.447 0.894
vn 0.000 -0.447 0.894
vn 0.000 -0.447 0.894
vn 0.000 -0.447 0.894
vn 0.000 -0.447 0.894
vn 0.000 -0.447 0.894
vn 0.000 -0.894 -0.447
vn 0.000 -0.894 -0.447
vn 0.000 -0.894 -0.447
vn 0.000 -0.894 -0.447
vn 0.000 -0.447 -0.894
vn 0.000 -0.447 -0.894
vn 0.000 -0.447 -0.894
vn 0.000 -0.447 -0.894
vn 0.000 -0.447 -0.894
vn 0.000 -0.447 -0.894
vn 0.000 -0.447 -0.894
vn 0.000 -0.447 -0.894
vn 0.000 0.447 -0.894
vn 0.000 0.447 -0.894
vn 0.000 0.447 -0.894
vn 0.000 0.447 -0.894
vn 0.000 0.447 0.894
vn 0.000 0.447 0.894
vn 0.000 0.447 0.894
vn 0.000 0.447 0.894
vn -0.447 -0.894 0.000
vn -0.447 -0.894 0.000
vn -0.447 -0.894 0.000
vn -0.447 -0.894 0.000
vn 0.894 -0.447 0.000
vn 0.894 -0.447 0.000
vn 0.894 -0.447 0.000
vn 0.894 -0.447 0.000
vn 1.000 0.000 0.000
vn 1.000 0.000 0.000
vn 1.000 0.000 0.000
vn 1.000 0.000 0.000
vn 1.000 0.000 0.000
vn 1.000 0.000 0.000
vn 0.000 0.000 -1.000
vn 0.000 0.000 -1.000
vn 0.000 0.000 -1.000
vn 0.000 0.000 -1.000
vn 0.000 0.000 1.000
vn 0.000 0.000 1.000
vn 0.000 0.000 1.000
vn 0.000 0.000 1.000
vn 0.000 -1.000 0.000
vn 0.000 -1.000 0.000
vn 0.000 -1.000 0.000
vn 0.000 -1.000 0.000
vn 0.000 -1.000 0.000
vn 0.000 -1.000 0.000
vn 0.000 -1.000 0.000
vn 0.000 -1.000 0.000
vn 1.000 0.000 0.000
vn 1.000 0.000 0.000
vn 1.000 0.000 0.000
vn 1.000 0.000 0.000
vn 1.000 0.000 0.000
vn 0.000 0.447 -0.894
vn 0.000 0.447 -0.894
vn 0.000 0.447 0.894
vn 0.000 0.447 0.894
vn -0.894 0.447 0.000
vn -0.894 0.447 0.000


usemtl roofRed

f 1/1/1 3/3/3 2/2/2
f 4/4/4 6/6/6 5/5/5
f 6/6/6 4/4/4 7/7/7
f 8/8/8 10/10/10 9/9/9
f 10/10/10 8/8/8 11/11/11
f 11/11/11 8/8/8 12/12/12
f 11/11/11 12/12/12 13/13/13
f 11/11/11 13/13/13 14/14/14
f 14/14/14 13/13/13 15/15/15
f 16/16/16 18/18/18 17/17/17
f 19/19/19 18/18/18 16/16/16
f 20/20/20 18/18/18 19/19/19
f 20/20/20 21/21/21 18/18/18
f 21/21/21 20/20/20 22/22/22
f 23/23/23 22/22/22 20/20/20
f 24/24/24 26/26/26 25/25/25
f 26/26/26 24/24/24 27/27/27
f 28/28/28 30/30/30 29/29/29
f 31/31/31 30/30/30 28/28/28
f 31/31/31 32/32/32 30/30/30
f 33/33/33 32/32/32 31/31/31
f 33/33/33 34/34/34 32/32/32
f 34/34/34 33/33/33 35/35/35
f 36/36/36 38/38/38 37/37/37
f 38/38/38 36/36/36 39/39/39
f 40/40/40 42/42/42 41/41/41
f 42/42/42 40/40/40 43/43/43
f 44/44/44 46/46/46 45/45/45
f 46/46/46 44/44/44 47/47/47
f 48/48/48 50/50/50 49/49/49
f 50/50/50 48/48/48 51/51/51

usemtl wood

f 52/52/52 54/54/54 53/53/53
f 55/55/55 57/57/57 56/56/56
f 58/58/58 60/60/60 59/59/59
f 60/60/60 58/58/58 61/61/61
f 62/62/62 64/64/64 63/63/63
f 64/64/64 62/62/62 65/65/65

usemtl woodDark

f 66/66/66 68/68/68 67/67/67
f 68/68/68 66/66/66 69/69/69
f 68/68/68 69/69/69 70/70/70
f 70/70/70 71/71/71 68/68/68
f 70/70/70 72/72/72 71/71/71
f 72/72/72 70/70/70 73/73/73
f 74/74/74 76/76/76 75/75/75
f 76/76/76 74/74/74 77/77/77
f 77/77/77 74/74/74 78/78/78

usemtl roofRedLight

f 79/79/79 38/38/38 80/80/80
f 38/38/38 79/79/79 37/37/37
f 81/81/81 41/41/41 82/82/82
f 41/41/41 81/81/81 40/40/40
f 83/83/83 2/2/2 84/84/84
f 2/2/2 83/83/83 1/1/1
