# Created by Kenney (www.kenney.nl) - UVs and materials modified

mtllib fantasytown.mtl


g stairsStone

v -0.145 0.463 0.250
v -0.145 0.463 -0.250
v -0.145 0.500 -0.250
v -0.145 0.500 0.250
v -0.395 0.213 0.250
v -0.375 0.213 0.250
v -0.375 0.213 -0.250
v -0.395 0.213 -0.250
v 0.250 0.750 0.250
v 0.250 0.750 -0.250
v 0.250 0.838 -0.250
v 0.250 0.838 0.250
v 0.355 0.963 0.250
v 0.375 0.963 0.250
v 0.375 0.963 -0.250
v 0.355 0.963 -0.250
v 0.375 0.875 0.250
v 0.375 0.875 -0.250
v 0.375 0.963 -0.250
v 0.375 0.963 0.250
v 0.355 0.963 0.250
v 0.355 0.963 -0.250
v 0.355 1.000 -0.250
v 0.355 1.000 0.250
v -0.250 0.250 0.250
v -0.250 0.250 -0.250
v -0.250 0.338 -0.250
v -0.250 0.338 0.250
v -0.500 0.000 0.250
v -0.425 0.000 0.250
v -0.425 0.000 -0.250
v -0.500 0.000 -0.250
v -0.145 0.463 0.250
v -0.125 0.463 0.250
v -0.125 0.463 -0.250
v -0.145 0.463 -0.250
v -0.020 0.588 0.250
v -0.020 0.588 -0.250
v -0.020 0.625 -0.250
v -0.020 0.625 0.250
v -0.395 0.250 -0.250
v -0.250 0.250 -0.250
v -0.250 0.250 0.250
v -0.395 0.250 0.250
v -0.020 0.625 -0.250
v 0.125 0.625 -0.250
v 0.125 0.625 0.250
v -0.020 0.625 0.250
v -0.395 0.213 0.250
v -0.395 0.213 -0.250
v -0.395 0.250 -0.250
v -0.395 0.250 0.250
v 0.000 0.500 0.250
v 0.000 0.500 -0.250
v 0.000 0.588 -0.250
v 0.000 0.588 0.250
v -0.520 0.125 -0.250
v -0.375 0.125 -0.250
v -0.375 0.125 0.250
v -0.520 0.125 0.250
v 0.500 1.000 0.250
v 0.500 1.000 -0.250
v 0.500 0.925 -0.250
v 0.500 0.925 0.250
v -0.125 0.375 0.250
v -0.125 0.375 -0.250
v -0.125 0.463 -0.250
v -0.125 0.463 0.250
v 0.125 0.625 0.250
v 0.125 0.625 -0.250
v 0.125 0.713 -0.250
v 0.125 0.713 0.250
v 0.230 0.838 0.250
v 0.250 0.838 0.250
v 0.250 0.838 -0.250
v 0.230 0.838 -0.250
v 0.105 0.750 -0.250
v 0.250 0.750 -0.250
v 0.250 0.750 0.250
v 0.105 0.750 0.250
v 0.230 0.838 0.250
v 0.230 0.838 -0.250
v 0.230 0.875 -0.250
v 0.230 0.875 0.250
v -0.270 0.338 0.250
v -0.250 0.338 0.250
v -0.250 0.338 -0.250
v -0.270 0.338 -0.250
v -0.520 0.088 0.250
v -0.520 0.088 -0.250
v -0.520 0.125 -0.250
v -0.520 0.125 0.250
v -0.375 0.125 0.250
v -0.375 0.125 -0.250
v -0.375 0.213 -0.250
v -0.375 0.213 0.250
v 0.230 0.875 -0.250
v 0.375 0.875 -0.250
v 0.375 0.875 0.250
v 0.230 0.875 0.250
v -0.500 0.000 0.250
v -0.500 0.000 -0.250
v -0.500 0.088 -0.250
v -0.500 0.088 0.250
v -0.145 0.500 -0.250
v 0.000 0.500 -0.250
v 0.000 0.500 0.250
v -0.145 0.500 0.250
v -0.020 0.588 0.250
v 0.000 0.588 0.250
v 0.000 0.588 -0.250
v -0.020 0.588 -0.250
v 0.355 1.000 -0.250
v 0.500 1.000 -0.250
v 0.500 1.000 0.250
v 0.355 1.000 0.250
v -0.520 0.125 -0.250
v -0.520 0.088 -0.250
v -0.500 0.088 -0.250
v -0.375 0.125 -0.250
v -0.425 0.000 -0.250
v -0.500 0.000 -0.250
v 0.500 0.925 -0.250
v -0.250 0.250 -0.250
v -0.375 0.213 -0.250
v -0.395 0.250 -0.250
v -0.395 0.213 -0.250
v -0.125 0.375 -0.250
v -0.250 0.338 -0.250
v -0.270 0.375 -0.250
v -0.270 0.338 -0.250
v 0.000 0.500 -0.250
v -0.125 0.463 -0.250
v -0.145 0.500 -0.250
v -0.145 0.463 -0.250
v 0.125 0.625 -0.250
v 0.000 0.588 -0.250
v -0.020 0.625 -0.250
v -0.020 0.588 -0.250
v 0.250 0.750 -0.250
v 0.125 0.713 -0.250
v 0.105 0.750 -0.250
v 0.105 0.713 -0.250
v 0.375 0.875 -0.250
v 0.250 0.838 -0.250
v 0.230 0.875 -0.250
v 0.230 0.838 -0.250
v 0.375 0.963 -0.250
v 0.500 1.000 -0.250
v 0.355 1.000 -0.250
v 0.355 0.963 -0.250
v -0.520 0.088 0.250
v -0.500 0.088 0.250
v -0.500 0.088 -0.250
v -0.520 0.088 -0.250
v -0.425 0.000 0.250
v -0.500 0.000 0.250
v -0.500 0.088 0.250
v -0.375 0.125 0.250
v 0.500 0.925 0.250
v -0.250 0.250 0.250
v -0.520 0.125 0.250
v -0.520 0.088 0.250
v -0.375 0.213 0.250
v -0.395 0.250 0.250
v -0.395 0.213 0.250
v -0.125 0.375 0.250
v -0.250 0.338 0.250
v -0.270 0.375 0.250
v -0.270 0.338 0.250
v 0.000 0.500 0.250
v -0.125 0.463 0.250
v -0.145 0.500 0.250
v -0.145 0.463 0.250
v 0.125 0.625 0.250
v 0.000 0.588 0.250
v -0.020 0.625 0.250
v -0.020 0.588 0.250
v 0.250 0.750 0.250
v 0.125 0.713 0.250
v 0.105 0.750 0.250
v 0.105 0.713 0.250
v 0.375 0.875 0.250
v 0.250 0.838 0.250
v 0.230 0.875 0.250
v 0.230 0.838 0.250
v 0.375 0.963 0.250
v 0.500 1.000 0.250
v 0.355 1.000 0.250
v 0.355 0.963 0.250
v -0.270 0.338 0.250
v -0.270 0.338 -0.250
v -0.270 0.375 -0.250
v -0.270 0.375 0.250
v 0.500 0.925 -0.250
v -0.425 0.000 -0.250
v -0.425 0.000 0.250
v 0.500 0.925 0.250
v -0.270 0.375 -0.250
v -0.125 0.375 -0.250
v -0.125 0.375 0.250
v -0.270 0.375 0.250
v 0.105 0.713 0.250
v 0.125 0.713 0.250
v 0.125 0.713 -0.250
v 0.105 0.713 -0.250
v 0.105 0.713 0.250
v 0.105 0.713 -0.250
v 0.105 0.750 -0.250
v 0.105 0.750 0.250

vt -0.250 0.463
vt 0.250 0.463
vt 0.250 0.500
vt -0.250 0.500
vt -0.250 0.395
vt -0.250 0.375
vt 0.250 0.375
vt 0.250 0.395
vt -0.250 0.750
vt 0.250 0.750
vt 0.250 0.838
vt -0.250 0.838
vt -0.250 -0.355
vt -0.250 -0.375
vt 0.250 -0.375
vt 0.250 -0.355
vt -0.250 0.875
vt 0.250 0.875
vt 0.250 0.963
vt -0.250 0.963
vt -0.250 0.963
vt 0.250 0.963
vt 0.250 1.000
vt -0.250 1.000
vt -0.250 0.250
vt 0.250 0.250
vt 0.250 0.338
vt -0.250 0.338
vt -0.250 0.500
vt -0.250 0.425
vt 0.250 0.425
vt 0.250 0.500
vt -0.250 0.145
vt -0.250 0.125
vt 0.250 0.125
vt 0.250 0.145
vt -0.250 0.588
vt 0.250 0.588
vt 0.250 0.625
vt -0.250 0.625
vt -0.250 0.395
vt -0.250 0.250
vt 0.250 0.250
vt 0.250 0.395
vt -0.250 0.020
vt -0.250 -0.125
vt 0.250 -0.125
vt 0.250 0.020
vt -0.250 0.213
vt 0.250 0.213
vt 0.250 0.250
vt -0.250 0.250
vt -0.250 0.500
vt 0.250 0.500
vt 0.250 0.588
vt -0.250 0.588
vt -0.250 0.520
vt -0.250 0.375
vt 0.250 0.375
vt 0.250 0.520
vt 0.250 1.000
vt -0.250 1.000
vt -0.250 0.925
vt 0.250 0.925
vt -0.250 0.375
vt 0.250 0.375
vt 0.250 0.463
vt -0.250 0.463
vt -0.250 0.625
vt 0.250 0.625
vt 0.250 0.713
vt -0.250 0.713
vt -0.250 -0.230
vt -0.250 -0.250
vt 0.250 -0.250
vt 0.250 -0.230
vt -0.250 -0.105
vt -0.250 -0.250
vt 0.250 -0.250
vt 0.250 -0.105
vt -0.250 0.838
vt 0.250 0.838
vt 0.250 0.875
vt -0.250 0.875
vt -0.250 0.270
vt -0.250 0.250
vt 0.250 0.250
vt 0.250 0.270
vt -0.250 0.088
vt 0.250 0.088
vt 0.250 0.125
vt -0.250 0.125
vt -0.250 0.125
vt 0.250 0.125
vt 0.250 0.213
vt -0.250 0.213
vt -0.250 -0.230
vt -0.250 -0.375
vt 0.250 -0.375
vt 0.250 -0.230
vt -0.250 0.000
vt 0.250 0.000
vt 0.250 0.088
vt -0.250 0.088
vt -0.250 0.145
vt -0.250 0.000
vt 0.250 0.000
vt 0.250 0.145
vt -0.250 0.020
vt -0.250 0.000
vt 0.250 0.000
vt 0.250 0.020
vt -0.250 -0.355
vt -0.250 -0.500
vt 0.250 -0.500
vt 0.250 -0.355
vt -0.520 0.125
vt -0.520 0.088
vt -0.500 0.088
vt -0.375 0.125
vt -0.425 0.000
vt -0.500 0.000
vt 0.500 0.925
vt -0.250 0.250
vt -0.375 0.213
vt -0.395 0.250
vt -0.395 0.213
vt -0.125 0.375
vt -0.250 0.338
vt -0.270 0.375
vt -0.270 0.338
vt 0.000 0.500
vt -0.125 0.463
vt -0.145 0.500
vt -0.145 0.463
vt 0.125 0.625
vt 0.000 0.588
vt -0.020 0.625
vt -0.020 0.588
vt 0.250 0.750
vt 0.125 0.713
vt 0.105 0.750
vt 0.105 0.713
vt 0.375 0.875
vt 0.250 0.838
vt 0.230 0.875
vt 0.230 0.838
vt 0.375 0.963
vt 0.500 1.000
vt 0.355 1.000
vt 0.355 0.963
vt -0.250 0.520
vt -0.250 0.500
vt 0.250 0.500
vt 0.250 0.520
vt 0.425 0.000
vt 0.500 0.000
vt 0.500 0.088
vt 0.375 0.125
vt -0.500 0.925
vt 0.250 0.250
vt 0.520 0.125
vt 0.520 0.088
vt 0.375 0.213
vt 0.395 0.250
vt 0.395 0.213
vt 0.125 0.375
vt 0.250 0.338
vt 0.270 0.375
vt 0.270 0.338
vt 0.000 0.500
vt 0.125 0.463
vt 0.145 0.500
vt 0.145 0.463
vt -0.125 0.625
vt 0.000 0.588
vt 0.020 0.625
vt 0.020 0.588
vt -0.250 0.750
vt -0.125 0.713
vt -0.105 0.750
vt -0.105 0.713
vt -0.375 0.875
vt -0.250 0.838
vt -0.230 0.875
vt -0.230 0.838
vt -0.375 0.963
vt -0.500 1.000
vt -0.355 1.000
vt -0.355 0.963
vt -0.250 0.338
vt 0.250 0.338
vt 0.250 0.375
vt -0.250 0.375
vt -0.250 1.008
vt -0.250 -0.301
vt 0.250 -0.301
vt 0.250 1.008
vt -0.250 0.270
vt -0.250 0.125
vt 0.250 0.125
vt 0.250 0.270
vt -0.250 -0.105
vt -0.250 -0.125
vt 0.250 -0.125
vt 0.250 -0.105
vt -0.250 0.713
vt 0.250 0.713
vt 0.250 0.750
vt -0.250 0.750

vn -1.000 0.000 0.000
vn -1.000 0.000 0.000
vn -1.000 0.000 0.000
vn -1.000 0.000 0.000
vn 0.000 -1.000 0.000
vn 0.000 -1.000 0.000
vn 0.000 -1.000 0.000
vn 0.000 -1.000 0.000
vn -1.000 0.000 0.000
vn -1.000 0.000 0.000
vn -1.000 0.000 0.000
vn -1.000 0.000 0.000
vn 0.000 -1.000 0.000
vn 0.000 -1.000 0.000
vn 0.000 -1.000 0.000
vn 0.000 -1.000 0.000
vn -1.000 0.000 0.000
vn -1.000 0.000 0.000
vn -1.000 0.000 0.000
vn -1.000 0.000 0.000
vn -1.000 0.000 0.000
vn -1.000 0.000 0.000
vn -1.000 0.000 0.000
vn -1.000 0.000 0.000
vn -1.000 0.000 0.000
vn -1.000 0.000 0.000
vn -1.000 0.000 0.000
vn -1.000 0.000 0.000
vn 0.000 -1.000 0.000
vn 0.000 -1.000 0.000
vn 0.000 -1.000 0.000
vn 0.000 -1.000 0.000
vn 0.000 -1.000 0.000
vn 0.000 -1.000 0.000
vn 0.000 -1.000 0.000
vn 0.000 -1.000 0.000
vn -1.000 0.000 0.000
vn -1.000 0.000 0.000
vn -1.000 0.000 0.000
vn -1.000 0.000 0.000
vn 0.000 1.000 0.000
vn 0.000 1.000 0.000
vn 0.000 1.000 0.000
vn 0.000 1.000 0.000
vn 0.000 1.000 0.000
vn 0.000 1.000 0.000
vn 0.000 1.000 0.000
vn 0.000 1.000 0.000
vn -1.000 0.000 0.000
vn -1.000 0.000 0.000
vn -1.000 0.000 0.000
vn -1.000 0.000 0.000
vn -1.000 0.000 0.000
vn -1.000 0.000 0.000
vn -1.000 0.000 0.000
vn -1.000 0.000 0.000
vn 0.000 1.000 0.000
vn 0.000 1.000 0.000
vn 0.000 1.000 0.000
vn 0.000 1.000 0.000
vn 1.000 0.000 0.000
vn 1.000 0.000 0.000
vn 1.000 0.000 0.000
vn 1.000 0.000 0.000
vn -1.000 0.000 0.000
vn -1.000 0.000 0.000
vn -1.000 0.000 0.000
vn -1.000 0.000 0.000
vn -1.000 0.000 0.000
vn -1.000 0.000 0.000
vn -1.000 0.000 0.000
vn -1.000 0.000 0.000
vn 0.000 -1.000 0.000
vn 0.000 -1.000 0.000
vn 0.000 -1.000 0.000
vn 0.000 -1.000 0.000
vn 0.000 1.000 0.000
vn 0.000 1.000 0.000
vn 0.000 1.000 0.000
vn 0.000 1.000 0.000
vn -1.000 0.000 0.000
vn -1.000 0.000 0.000
vn -1.000 0.000 0.000
vn -1.000 0.000 0.000
vn 0.000 -1.000 0.000
vn 0.000 -1.000 0.000
vn 0.000 -1.000 0.000
vn 0.000 -1.000 0.000
vn -1.000 0.000 0.000
vn -1.000 0.000 0.000
vn -1.000 0.000 0.000
vn -1.000 0.000 0.000
vn -1.000 0.000 0.000
vn -1.000 0.000 0.000
vn -1.000 0.000 0.000
vn -1.000 0.000 0.000
vn 0.000 1.000 0.000
vn 0.000 1.000 0.000
vn 0.000 1.000 0.000
vn 0.000 1.000 0.000
vn -1.000 0.000 0.000
vn -1.000 0.000 0.000
vn -1.000 0.000 0.000
vn -1.000 0.000 0.000
vn 0.000 1.000 0.000
vn 0.000 1.000 0.000
vn 0.000 1.000 0.000
vn 0.000 1.000 0.000
vn 0.000 -1.000 0.000
vn 0.000 -1.000 0.000
vn 0.000 -1.000 0.000
vn 0.000 -1.000 0.000
vn 0.000 1.000 0.000
vn 0.000 1.000 0.000
vn 0.000 1.000 0.000
vn 0.000 1.000 0.000
vn 0.000 0.000 -1.000
vn 0.000 0.000 -1.000
vn 0.000 0.000 -1.000
vn 0.000 0.000 -1.000
vn 0.000 0.000 -1.000
vn 0.000 0.000 -1.000
vn 0.000 0.000 -1.000
vn 0.000 0.000 -1.000
vn 0.000 0.000 -1.000
vn 0.000 0.000 -1.000
vn 0.000 0.000 -1.000
vn 0.000 0.000 -1.000
vn 0.000 0.000 -1.000
vn 0.000 0.000 -1.000
vn 0.000 0.000 -1.000
vn 0.000 0.000 -1.000
vn 0.000 0.000 -1.000
vn 0.000 0.000 -1.000
vn 0.000 0.000 -1.000
vn 0.000 0.000 -1.000
vn 0.000 0.000 -1.000
vn 0.000 0.000 -1.000
vn 0.000 0.000 -1.000
vn 0.000 0.000 -1.000
vn 0.000 0.000 -1.000
vn 0.000 0.000 -1.000
vn 0.000 0.000 -1.000
vn 0.000 0.000 -1.000
vn 0.000 0.000 -1.000
vn 0.000 0.000 -1.000
vn 0.000 0.000 -1.000
vn 0.000 0.000 -1.000
vn 0.000 0.000 -1.000
vn 0.000 0.000 -1.000
vn 0.000 0.000 -1.000
vn 0.000 -1.000 0.000
vn 0.000 -1.000 0.000
vn 0.000 -1.000 0.000
vn 0.000 -1.000 0.000
vn 0.000 0.000 1.000
vn 0.000 0.000 1.000
vn 0.000 0.000 1.000
vn 0.000 0.000 1.000
vn 0.000 0.000 1.000
vn 0.000 0.000 1.000
vn 0.000 0.000 1.000
vn 0.000 0.000 1.000
vn 0.000 0.000 1.000
vn 0.000 0.000 1.000
vn 0.000 0.000 1.000
vn 0.000 0.000 1.000
vn 0.000 0.000 1.000
vn 0.000 0.000 1.000
vn 0.000 0.000 1.000
vn 0.000 0.000 1.000
vn 0.000 0.000 1.000
vn 0.000 0.000 1.000
vn 0.000 0.000 1.000
vn 0.000 0.000 1.000
vn 0.000 0.000 1.000
vn 0.000 0.000 1.000
vn 0.000 0.000 1.000
vn 0.000 0.000 1.000
vn 0.000 0.000 1.000
vn 0.000 0.000 1.000
vn 0.000 0.000 1.000
vn 0.000 0.000 1.000
vn 0.000 0.000 1.000
vn 0.000 0.000 1.000
vn 0.000 0.000 1.000
vn 0.000 0.000 1.000
vn 0.000 0.000 1.000
vn 0.000 0.000 1.000
vn 0.000 0.000 1.000
vn -1.000 0.000 0.000
vn -1.000 0.000 0.000
vn -1.000 0.000 0.000
vn -1.000 0.000 0.000
vn 0.707 -0.707 0.000
vn 0.707 -0.707 0.000
vn 0.707 -0.707 0.000
vn 0.707 -0.707 0.000
vn 0.000 1.000 0.000
vn 0.000 1.000 0.000
vn 0.000 1.000 0.000
vn 0.000 1.000 0.000
vn 0.000 -1.000 0.000
vn 0.000 -1.000 0.000
vn 0.000 -1.000 0.000
vn 0.000 -1.000 0.000
vn -1.000 0.000 0.000
vn -1.000 0.000 0.000
vn -1.000 0.000 0.000
vn -1.000 0.000 0.000


usemtl stone

f 1/1/1 3/3/3 2/2/2
f 3/3/3 1/1/1 4/4/4
f 5/5/5 7/7/7 6/6/6
f 7/7/7 5/5/5 8/8/8
f 9/9/9 11/11/11 10/10/10
f 11/11/11 9/9/9 12/12/12
f 13/13/13 15/15/15 14/14/14
f 15/15/15 13/13/13 16/16/16
f 17/17/17 19/19/19 18/18/18
f 19/19/19 17/17/17 20/20/20
f 21/21/21 23/23/23 22/22/22
f 23/23/23 21/21/21 24/24/24
f 25/25/25 27/27/27 26/26/26
f 27/27/27 25/25/25 28/28/28
f 29/29/29 31/31/31 30/30/30
f 31/31/31 29/29/29 32/32/32
f 33/33/33 35/35/35 34/34/34
f 35/35/35 33/33/33 36/36/36
f 37/37/37 39/39/39 38/38/38
f 39/39/39 37/37/37 40/40/40
f 41/41/41 43/43/43 42/42/42
f 43/43/43 41/41/41 44/44/44
f 45/45/45 47/47/47 46/46/46
f 47/47/47 45/45/45 48/48/48
f 49/49/49 51/51/51 50/50/50
f 51/51/51 49/49/49 52/52/52
f 53/53/53 55/55/55 54/54/54
f 55/55/55 53/53/53 56/56/56
f 57/57/57 59/59/59 58/58/58
f 59/59/59 57/57/57 60/60/60
f 61/61/61 63/63/63 62/62/62
f 63/63/63 61/61/61 64/64/64
f 65/65/65 67/67/67 66/66/66
f 67/67/67 65/65/65 68/68/68
f 69/69/69 71/71/71 70/70/70
f 71/71/71 69/69/69 72/72/72
f 73/73/73 75/75/75 74/74/74
f 75/75/75 73/73/73 76/76/76
f 77/77/77 79/79/79 78/78/78
f 79/79/79 77/77/77 80/80/80
f 81/81/81 83/83/83 82/82/82
f 83/83/83 81/81/81 84/84/84
f 85/85/85 87/87/87 86/86/86
f 87/87/87 85/85/85 88/88/88
f 89/89/89 91/91/91 90/90/90
f 91/91/91 89/89/89 92/92/92
f 93/93/93 95/95/95 94/94/94
f 95/95/95 93/93/93 96/96/96
f 97/97/97 99/99/99 98/98/98
f 99/99/99 97/97/97 100/100/100
f 101/101/101 103/103/103 102/102/102
f 103/103/103 101/101/101 104/104/104
f 105/105/105 107/107/107 106/106/106
f 107/107/107 105/105/105 108/108/108
f 109/109/109 111/111/111 110/110/110
f 111/111/111 109/109/109 112/112/112
f 113/113/113 115/115/115 114/114/114
f 115/115/115 113/113/113 116/116/116
f 117/117/117 119/119/119 118/118/118
f 120/120/120 119/119/119 117/117/117
f 121/121/121 119/119/119 120/120/120
f 119/119/119 121/121/121 122/122/122
f 121/121/121 120/120/120 123/123/123
f 123/123/123 120/120/120 124/124/124
f 124/124/124 120/120/120 125/125/125
f 124/124/124 125/125/125 126/126/126
f 126/126/126 125/125/125 127/127/127
f 123/123/123 124/124/124 128/128/128
f 128/128/128 124/124/124 129/129/129
f 128/128/128 129/129/129 130/130/130
f 130/130/130 129/129/129 131/131/131
f 123/123/123 128/128/128 132/132/132
f 132/132/132 128/128/128 133/133/133
f 132/132/132 133/133/133 134/134/134
f 134/134/134 133/133/133 135/135/135
f 123/123/123 132/132/132 136/136/136
f 136/136/136 132/132/132 137/137/137
f 136/136/136 137/137/137 138/138/138
f 138/138/138 137/137/137 139/139/139
f 123/123/123 136/136/136 140/140/140
f 140/140/140 136/136/136 141/141/141
f 140/140/140 141/141/141 142/142/142
f 142/142/142 141/141/141 143/143/143
f 123/123/123 140/140/140 144/144/144
f 144/144/144 140/140/140 145/145/145
f 144/144/144 145/145/145 146/146/146
f 146/146/146 145/145/145 147/147/147
f 123/123/123 144/144/144 148/148/148
f 123/123/123 148/148/148 149/149/149
f 149/149/149 148/148/148 150/150/150
f 150/150/150 148/148/148 151/151/151
f 152/152/152 154/154/154 153/153/153
f 154/154/154 152/152/152 155/155/155
f 156/156/156 158/158/158 157/157/157
f 158/158/158 156/156/156 159/159/159
f 159/159/159 156/156/156 160/160/160
f 159/159/159 160/160/160 161/161/161
f 158/158/158 159/159/159 162/162/162
f 162/162/162 163/163/163 158/158/158
f 159/159/159 161/161/161 164/164/164
f 164/164/164 161/161/161 165/165/165
f 165/165/165 166/166/166 164/164/164
f 161/161/161 160/160/160 167/167/167
f 161/161/161 167/167/167 168/168/168
f 168/168/168 167/167/167 169/169/169
f 169/169/169 170/170/170 168/168/168
f 167/167/167 160/160/160 171/171/171
f 167/167/167 171/171/171 172/172/172
f 172/172/172 171/171/171 173/173/173
f 173/173/173 174/174/174 172/172/172
f 171/171/171 160/160/160 175/175/175
f 171/171/171 175/175/175 176/176/176
f 176/176/176 175/175/175 177/177/177
f 177/177/177 178/178/178 176/176/176
f 175/175/175 160/160/160 179/179/179
f 175/175/175 179/179/179 180/180/180
f 180/180/180 179/179/179 181/181/181
f 181/181/181 182/182/182 180/180/180
f 179/179/179 160/160/160 183/183/183
f 179/179/179 183/183/183 184/184/184
f 184/184/184 183/183/183 185/185/185
f 185/185/185 186/186/186 184/184/184
f 183/183/183 160/160/160 187/187/187
f 187/187/187 160/160/160 188/188/188
f 187/187/187 188/188/188 189/189/189
f 189/189/189 190/190/190 187/187/187
f 191/191/191 193/193/193 192/192/192
f 193/193/193 191/191/191 194/194/194
f 195/195/195 197/197/197 196/196/196
f 197/197/197 195/195/195 198/198/198
f 199/199/199 201/201/201 200/200/200
f 201/201/201 199/199/199 202/202/202
f 203/203/203 205/205/205 204/204/204
f 205/205/205 203/203/203 206/206/206
f 207/207/207 209/209/209 208/208/208
f 209/209/209 207/207/207 210/210/210
