# Created by Kenney (www.kenney.nl) - UVs and materials modified

mtllib fantasytown.mtl


g wallDetailCross

v 0.475 0.080 0.400
v 0.475 0.920 0.400
v 0.475 0.500 0.064
v 0.475 0.500 -0.064
v 0.475 0.920 -0.400
v 0.475 0.080 -0.400
v 0.475 0.000 0.336
v 0.475 0.420 0.000
v 0.475 0.000 -0.336
v 0.425 0.920 0.400
v 0.425 0.080 0.400
v 0.425 0.500 0.064
v 0.425 0.000 0.336
v 0.425 0.000 -0.336
v 0.425 0.420 0.000
v 0.475 1.000 0.336
v 0.475 1.000 -0.336
v 0.475 0.580 0.000
v 0.425 1.000 0.336
v 0.425 0.580 0.000
v 0.425 1.000 -0.336
v 0.425 0.500 -0.064
v 0.425 0.080 -0.400
v 0.425 0.920 -0.400
v 0.425 0.000 0.336
v 0.475 0.000 0.336
v 0.475 0.000 -0.336
v 0.425 0.000 -0.336
v 0.425 1.000 -0.336
v 0.475 1.000 -0.336
v 0.475 1.000 0.336
v 0.425 1.000 0.336
v 0.400 0.000 -0.400
v 0.400 0.000 -0.500
v 0.400 1.000 -0.500
v 0.400 1.000 -0.400
v 0.413 0.920 -0.400
v 0.413 0.500 -0.064
v 0.425 0.500 -0.064
v 0.425 0.920 -0.400
v 0.488 0.420 0.000
v 0.488 0.000 -0.336
v 0.475 0.000 -0.336
v 0.475 0.420 0.000
v 0.500 0.000 -0.400
v 0.488 0.000 -0.400
v 0.488 0.080 -0.400
v 0.500 1.000 -0.400
v 0.475 0.080 -0.400
v 0.488 0.920 -0.400
v 0.475 0.920 -0.400
v 0.488 1.000 -0.400
v 0.475 0.920 -0.400
v 0.475 0.500 -0.064
v 0.488 0.500 -0.064
v 0.488 0.920 -0.400
v 0.400 0.000 0.400
v 0.413 0.000 0.400
v 0.413 0.080 0.400
v 0.400 1.000 0.400
v 0.425 0.080 0.400
v 0.413 0.920 0.400
v 0.425 0.920 0.400
v 0.413 1.000 0.400
v 0.413 1.000 0.336
v 0.413 0.580 0.000
v 0.425 0.580 0.000
v 0.425 1.000 0.336
v 0.400 1.000 -0.500
v 0.400 0.000 -0.500
v 0.500 0.000 -0.500
v 0.500 1.000 -0.500
v 0.488 0.000 -0.336
v 0.488 0.000 -0.400
v 0.400 0.000 -0.500
v 0.500 0.000 -0.500
v 0.500 0.000 -0.400
v 0.413 0.000 -0.400
v 0.400 0.000 -0.400
v 0.413 0.000 -0.336
v 0.475 0.500 -0.064
v 0.475 0.080 -0.400
v 0.488 0.080 -0.400
v 0.488 0.500 -0.064
v 0.425 0.920 0.400
v 0.425 0.500 0.064
v 0.413 0.500 0.064
v 0.413 0.920 0.400
v 0.425 1.000 -0.336
v 0.425 0.580 0.000
v 0.413 0.580 0.000
v 0.413 1.000 -0.336
v 0.488 0.920 0.400
v 0.488 0.500 0.064
v 0.475 0.500 0.064
v 0.475 0.920 0.400
v 0.400 0.000 0.500
v 0.400 0.000 0.400
v 0.400 1.000 0.400
v 0.400 1.000 0.500
v 0.413 0.420 0.000
v 0.413 0.000 0.336
v 0.425 0.000 0.336
v 0.425 0.420 0.000
v 0.475 1.000 0.336
v 0.475 0.580 0.000
v 0.488 0.580 0.000
v 0.488 1.000 0.336
v 0.400 1.000 -0.500
v 0.500 1.000 -0.500
v 0.500 1.000 -0.400
v 0.488 1.000 -0.400
v 0.488 1.000 -0.336
v 0.413 1.000 -0.400
v 0.413 1.000 -0.336
v 0.400 1.000 -0.400
v 0.413 0.000 -0.336
v 0.413 0.000 -0.400
v 0.413 0.080 -0.400
v 0.413 0.500 -0.064
v 0.413 0.420 0.000
v 0.413 0.580 0.000
v 0.413 0.000 0.336
v 0.413 1.000 -0.336
v 0.413 0.920 -0.400
v 0.413 1.000 -0.400
v 0.413 0.500 0.064
v 0.413 1.000 0.336
v 0.413 0.080 0.400
v 0.413 0.000 0.400
v 0.413 0.920 0.400
v 0.413 1.000 0.400
v 0.425 0.420 0.000
v 0.425 0.000 -0.336
v 0.413 0.000 -0.336
v 0.413 0.420 0.000
v 0.425 0.920 -0.400
v 0.425 0.080 -0.400
v 0.413 0.080 -0.400
v 0.413 0.920 -0.400
v 0.400 1.000 -0.400
v 0.413 1.000 -0.400
v 0.400 0.000 -0.400
v 0.413 0.000 -0.400
v 0.500 1.000 0.500
v 0.500 0.000 0.500
v 0.400 0.000 0.500
v 0.400 1.000 0.500
v 0.488 0.000 0.400
v 0.488 0.000 0.336
v 0.400 0.000 0.500
v 0.500 0.000 0.400
v 0.500 0.000 0.500
v 0.413 0.000 0.400
v 0.413 0.000 0.336
v 0.400 0.000 0.400
v 0.500 1.000 0.500
v 0.500 1.000 0.400
v 0.500 0.000 0.400
v 0.500 0.000 0.500
v 0.500 1.000 -0.400
v 0.500 1.000 -0.500
v 0.500 0.000 -0.500
v 0.500 0.000 -0.400
v 0.488 1.000 -0.336
v 0.488 1.000 -0.400
v 0.488 0.920 -0.400
v 0.488 0.500 -0.064
v 0.488 0.580 0.000
v 0.488 0.420 0.000
v 0.488 1.000 0.336
v 0.488 0.000 -0.336
v 0.488 0.000 -0.400
v 0.488 0.080 -0.400
v 0.488 0.500 0.064
v 0.488 0.000 0.336
v 0.488 0.920 0.400
v 0.488 1.000 0.400
v 0.488 0.080 0.400
v 0.488 0.000 0.400
v 0.475 0.920 0.400
v 0.475 0.080 0.400
v 0.488 0.080 0.400
v 0.488 0.920 0.400
v 0.500 1.000 0.400
v 0.488 1.000 0.400
v 0.500 0.000 0.400
v 0.488 0.000 0.400
v 0.475 0.420 0.000
v 0.475 0.000 0.336
v 0.488 0.000 0.336
v 0.488 0.420 0.000
v 0.488 1.000 0.336
v 0.488 1.000 0.400
v 0.400 1.000 0.500
v 0.500 1.000 0.500
v 0.500 1.000 0.400
v 0.413 1.000 0.400
v 0.400 1.000 0.400
v 0.413 1.000 0.336
v 0.413 0.500 -0.064
v 0.413 0.080 -0.400
v 0.425 0.080 -0.400
v 0.425 0.500 -0.064
v 0.488 1.000 -0.336
v 0.488 0.580 0.000
v 0.475 0.580 0.000
v 0.475 1.000 -0.336
v 0.488 0.500 0.064
v 0.488 0.080 0.400
v 0.475 0.080 0.400
v 0.475 0.500 0.064
v 0.425 0.500 0.064
v 0.425 0.080 0.400
v 0.413 0.080 0.400
v 0.413 0.500 0.064

vt 0.400 0.080
vt 0.400 0.920
vt 0.064 0.500
vt -0.064 0.500
vt -0.400 0.920
vt -0.400 0.080
vt 0.336 0.000
vt 0.000 0.420
vt -0.336 0.000
vt -0.400 0.920
vt -0.400 0.080
vt -0.064 0.500
vt -0.336 0.000
vt 0.336 0.000
vt 0.000 0.420
vt 0.336 1.000
vt -0.336 1.000
vt 0.000 0.580
vt -0.336 1.000
vt 0.000 0.580
vt 0.336 1.000
vt 0.064 0.500
vt 0.400 0.080
vt 0.400 0.920
vt -0.336 -0.425
vt -0.336 -0.475
vt 0.336 -0.475
vt 0.336 -0.425
vt -0.336 -0.425
vt -0.336 -0.475
vt 0.336 -0.475
vt 0.336 -0.425
vt 0.400 0.000
vt 0.500 0.000
vt 0.500 1.000
vt 0.400 1.000
vt 0.413 0.968
vt 0.413 0.430
vt 0.425 0.430
vt 0.425 0.968
vt -0.488 0.328
vt -0.488 -0.210
vt -0.475 -0.210
vt -0.475 0.328
vt -0.500 0.000
vt -0.488 0.000
vt -0.488 0.080
vt -0.500 1.000
vt -0.475 0.080
vt -0.488 0.920
vt -0.475 0.920
vt -0.488 1.000
vt 0.475 0.968
vt 0.475 0.430
vt 0.488 0.430
vt 0.488 0.968
vt 0.400 0.000
vt 0.413 0.000
vt 0.413 0.080
vt 0.400 1.000
vt 0.425 0.080
vt 0.413 0.920
vt 0.425 0.920
vt 0.413 1.000
vt 0.413 0.991
vt 0.413 0.453
vt 0.425 0.453
vt 0.425 0.991
vt 0.400 1.000
vt 0.400 0.000
vt 0.500 0.000
vt 0.500 1.000
vt 0.336 -0.488
vt 0.400 -0.488
vt 0.500 -0.400
vt 0.500 -0.500
vt 0.400 -0.500
vt 0.400 -0.413
vt 0.400 -0.400
vt 0.336 -0.413
vt 0.475 0.350
vt 0.475 -0.187
vt 0.488 -0.187
vt 0.488 0.350
vt -0.425 0.968
vt -0.425 0.430
vt -0.413 0.430
vt -0.413 0.968
vt -0.425 0.991
vt -0.425 0.453
vt -0.413 0.453
vt -0.413 0.991
vt -0.488 0.968
vt -0.488 0.430
vt -0.475 0.430
vt -0.475 0.968
vt -0.500 0.000
vt -0.400 0.000
vt -0.400 1.000
vt -0.500 1.000
vt 0.413 0.328
vt 0.413 -0.210
vt 0.425 -0.210
vt 0.425 0.328
vt 0.475 0.991
vt 0.475 0.453
vt 0.488 0.453
vt 0.488 0.991
vt -0.500 -0.400
vt -0.500 -0.500
vt -0.400 -0.500
vt -0.400 -0.488
vt -0.336 -0.488
vt -0.400 -0.413
vt -0.336 -0.413
vt -0.400 -0.400
vt 0.336 0.000
vt 0.400 0.000
vt 0.400 0.080
vt 0.064 0.500
vt 0.000 0.420
vt 0.000 0.580
vt -0.336 0.000
vt 0.336 1.000
vt 0.400 0.920
vt 0.400 1.000
vt -0.064 0.500
vt -0.336 1.000
vt -0.400 0.080
vt -0.400 0.000
vt -0.400 0.920
vt -0.400 1.000
vt -0.425 0.328
vt -0.425 -0.210
vt -0.413 -0.210
vt -0.413 0.328
vt -0.425 0.920
vt -0.425 0.080
vt -0.413 0.080
vt -0.413 0.920
vt -0.400 1.000
vt -0.413 1.000
vt -0.400 0.000
vt -0.413 0.000
vt -0.500 1.000
vt -0.500 0.000
vt -0.400 0.000
vt -0.400 1.000
vt -0.400 -0.488
vt -0.336 -0.488
vt -0.500 -0.400
vt -0.400 -0.500
vt -0.500 -0.500
vt -0.400 -0.413
vt -0.336 -0.413
vt -0.400 -0.400
vt 0.500 1.000
vt 0.400 1.000
vt 0.400 0.000
vt 0.500 0.000
vt -0.400 1.000
vt -0.500 1.000
vt -0.500 0.000
vt -0.400 0.000
vt -0.336 1.000
vt -0.400 1.000
vt -0.400 0.920
vt -0.064 0.500
vt 0.000 0.580
vt 0.000 0.420
vt 0.336 1.000
vt -0.336 0.000
vt -0.400 0.000
vt -0.400 0.080
vt 0.064 0.500
vt 0.336 0.000
vt 0.400 0.920
vt 0.400 1.000
vt 0.400 0.080
vt 0.400 0.000
vt 0.475 0.920
vt 0.475 0.080
vt 0.488 0.080
vt 0.488 0.920
vt 0.500 1.000
vt 0.488 1.000
vt 0.500 0.000
vt 0.488 0.000
vt 0.475 0.328
vt 0.475 -0.210
vt 0.488 -0.210
vt 0.488 0.328
vt 0.336 -0.488
vt 0.400 -0.488
vt 0.500 -0.400
vt 0.500 -0.500
vt 0.400 -0.500
vt 0.400 -0.413
vt 0.400 -0.400
vt 0.336 -0.413
vt 0.413 0.350
vt 0.413 -0.187
vt 0.425 -0.187
vt 0.425 0.350
vt -0.488 0.991
vt -0.488 0.453
vt -0.475 0.453
vt -0.475 0.991
vt -0.488 0.350
vt -0.488 -0.187
vt -0.475 -0.187
vt -0.475 0.350
vt -0.425 0.350
vt -0.425 -0.187
vt -0.413 -0.187
vt -0.413 0.350

vn 1.000 0.000 0.000
vn 1.000 0.000 0.000
vn 1.000 0.000 0.000
vn 1.000 0.000 0.000
vn 1.000 0.000 0.000
vn 1.000 0.000 0.000
vn 1.000 0.000 0.000
vn 1.000 0.000 0.000
vn 1.000 0.000 0.000
vn -1.000 0.000 0.000
vn -1.000 0.000 0.000
vn -1.000 0.000 0.000
vn -1.000 0.000 0.000
vn -1.000 0.000 0.000
vn -1.000 0.000 0.000
vn 1.000 0.000 0.000
vn 1.000 0.000 0.000
vn 1.000 0.000 0.000
vn -1.000 0.000 0.000
vn -1.000 0.000 0.000
vn -1.000 0.000 0.000
vn -1.000 0.000 0.000
vn -1.000 0.000 0.000
vn -1.000 0.000 0.000
vn 0.000 -1.000 0.000
vn 0.000 -1.000 0.000
vn 0.000 -1.000 0.000
vn 0.000 -1.000 0.000
vn 0.000 1.000 0.000
vn 0.000 1.000 0.000
vn 0.000 1.000 0.000
vn 0.000 1.000 0.000
vn -1.000 0.000 0.000
vn -1.000 0.000 0.000
vn -1.000 0.000 0.000
vn -1.000 0.000 0.000
vn 0.000 -0.625 -0.781
vn 0.000 -0.625 -0.781
vn 0.000 -0.625 -0.781
vn 0.000 -0.625 -0.781
vn 0.000 -0.625 0.781
vn 0.000 -0.625 0.781
vn 0.000 -0.625 0.781
vn 0.000 -0.625 0.781
vn 0.000 0.000 1.000
vn 0.000 0.000 1.000
vn 0.000 0.000 1.000
vn 0.000 0.000 1.000
vn 0.000 0.000 1.000
vn 0.000 0.000 1.000
vn 0.000 0.000 1.000
vn 0.000 0.000 1.000
vn 0.000 -0.625 -0.781
vn 0.000 -0.625 -0.781
vn 0.000 -0.625 -0.781
vn 0.000 -0.625 -0.781
vn 0.000 0.000 -1.000
vn 0.000 0.000 -1.000
vn 0.000 0.000 -1.000
vn 0.000 0.000 -1.000
vn 0.000 0.000 -1.000
vn 0.000 0.000 -1.000
vn 0.000 0.000 -1.000
vn 0.000 0.000 -1.000
vn 0.000 0.625 -0.781
vn 0.000 0.625 -0.781
vn 0.000 0.625 -0.781
vn 0.000 0.625 -0.781
vn 0.000 0.000 -1.000
vn 0.000 0.000 -1.000
vn 0.000 0.000 -1.000
vn 0.000 0.000 -1.000
vn 0.000 -1.000 0.000
vn 0.000 -1.000 0.000
vn 0.000 -1.000 0.000
vn 0.000 -1.000 0.000
vn 0.000 -1.000 0.000
vn 0.000 -1.000 0.000
vn 0.000 -1.000 0.000
vn 0.000 -1.000 0.000
vn 0.000 0.625 -0.781
vn 0.000 0.625 -0.781
vn 0.000 0.625 -0.781
vn 0.000 0.625 -0.781
vn 0.000 -0.625 0.781
vn 0.000 -0.625 0.781
vn 0.000 -0.625 0.781
vn 0.000 -0.625 0.781
vn 0.000 0.625 0.781
vn 0.000 0.625 0.781
vn 0.000 0.625 0.781
vn 0.000 0.625 0.781
vn 0.000 -0.625 0.781
vn 0.000 -0.625 0.781
vn 0.000 -0.625 0.781
vn 0.000 -0.625 0.781
vn -1.000 0.000 0.000
vn -1.000 0.000 0.000
vn -1.000 0.000 0.000
vn -1.000 0.000 0.000
vn 0.000 -0.625 -0.781
vn 0.000 -0.625 -0.781
vn 0.000 -0.625 -0.781
vn 0.000 -0.625 -0.781
vn 0.000 0.625 -0.781
vn 0.000 0.625 -0.781
vn 0.000 0.625 -0.781
vn 0.000 0.625 -0.781
vn 0.000 1.000 0.000
vn 0.000 1.000 0.000
vn 0.000 1.000 0.000
vn 0.000 1.000 0.000
vn 0.000 1.000 0.000
vn 0.000 1.000 0.000
vn 0.000 1.000 0.000
vn 0.000 1.000 0.000
vn -1.000 0.000 0.000
vn -1.000 0.000 0.000
vn -1.000 0.000 0.000
vn -1.000 0.000 0.000
vn -1.000 0.000 0.000
vn -1.000 0.000 0.000
vn -1.000 0.000 0.000
vn -1.000 0.000 0.000
vn -1.000 0.000 0.000
vn -1.000 0.000 0.000
vn -1.000 0.000 0.000
vn -1.000 0.000 0.000
vn -1.000 0.000 0.000
vn -1.000 0.000 0.000
vn -1.000 0.000 0.000
vn -1.000 0.000 0.000
vn 0.000 -0.625 0.781
vn 0.000 -0.625 0.781
vn 0.000 -0.625 0.781
vn 0.000 -0.625 0.781
vn 0.000 0.000 1.000
vn 0.000 0.000 1.000
vn 0.000 0.000 1.000
vn 0.000 0.000 1.000
vn 0.000 0.000 1.000
vn 0.000 0.000 1.000
vn 0.000 0.000 1.000
vn 0.000 0.000 1.000
vn 0.000 0.000 1.000
vn 0.000 0.000 1.000
vn 0.000 0.000 1.000
vn 0.000 0.000 1.000
vn 0.000 -1.000 0.000
vn 0.000 -1.000 0.000
vn 0.000 -1.000 0.000
vn 0.000 -1.000 0.000
vn 0.000 -1.000 0.000
vn 0.000 -1.000 0.000
vn 0.000 -1.000 0.000
vn 0.000 -1.000 0.000
vn 1.000 0.000 0.000
vn 1.000 0.000 0.000
vn 1.000 0.000 0.000
vn 1.000 0.000 0.000
vn 1.000 0.000 0.000
vn 1.000 0.000 0.000
vn 1.000 0.000 0.000
vn 1.000 0.000 0.000
vn 1.000 0.000 0.000
vn 1.000 0.000 0.000
vn 1.000 0.000 0.000
vn 1.000 0.000 0.000
vn 1.000 0.000 0.000
vn 1.000 0.000 0.000
vn 1.000 0.000 0.000
vn 1.000 0.000 0.000
vn 1.000 0.000 0.000
vn 1.000 0.000 0.000
vn 1.000 0.000 0.000
vn 1.000 0.000 0.000
vn 1.000 0.000 0.000
vn 1.000 0.000 0.000
vn 1.000 0.000 0.000
vn 1.000 0.000 0.000
vn 0.000 0.000 -1.000
vn 0.000 0.000 -1.000
vn 0.000 0.000 -1.000
vn 0.000 0.000 -1.000
vn 0.000 0.000 -1.000
vn 0.000 0.000 -1.000
vn 0.000 0.000 -1.000
vn 0.000 0.000 -1.000
vn 0.000 -0.625 -0.781
vn 0.000 -0.625 -0.781
vn 0.000 -0.625 -0.781
vn 0.000 -0.625 -0.781
vn 0.000 1.000 0.000
vn 0.000 1.000 0.000
vn 0.000 1.000 0.000
vn 0.000 1.000 0.000
vn 0.000 1.000 0.000
vn 0.000 1.000 0.000
vn 0.000 1.000 0.000
vn 0.000 1.000 0.000
vn 0.000 0.625 -0.781
vn 0.000 0.625 -0.781
vn 0.000 0.625 -0.781
vn 0.000 0.625 -0.781
vn 0.000 0.625 0.781
vn 0.000 0.625 0.781
vn 0.000 0.625 0.781
vn 0.000 0.625 0.781
vn 0.000 0.625 0.781
vn 0.000 0.625 0.781
vn 0.000 0.625 0.781
vn 0.000 0.625 0.781
vn 0.000 0.625 0.781
vn 0.000 0.625 0.781
vn 0.000 0.625 0.781
vn 0.000 0.625 0.781


usemtl stone

f 1/1/1 3/3/3 2/2/2
f 4/4/4 6/6/6 5/5/5
f 7/7/7 9/9/9 8/8/8
f 10/10/10 12/12/12 11/11/11
f 13/13/13 15/15/15 14/14/14
f 16/16/16 18/18/18 17/17/17
f 19/19/19 21/21/21 20/20/20
f 22/22/22 24/24/24 23/23/23
f 25/25/25 27/27/27 26/26/26
f 27/27/27 25/25/25 28/28/28
f 29/29/29 31/31/31 30/30/30
f 31/31/31 29/29/29 32/32/32

usemtl wood

f 33/33/33 35/35/35 34/34/34
f 35/35/35 33/33/33 36/36/36
f 37/37/37 39/39/39 38/38/38
f 39/39/39 37/37/37 40/40/40
f 41/41/41 43/43/43 42/42/42
f 43/43/43 41/41/41 44/44/44
f 45/45/45 47/47/47 46/46/46
f 47/47/47 45/45/45 48/48/48
f 47/47/47 48/48/48 49/49/49
f 49/49/49 48/48/48 50/50/50
f 51/51/51 49/49/49 50/50/50
f 50/50/50 48/48/48 52/52/52
f 53/53/53 55/55/55 54/54/54
f 55/55/55 53/53/53 56/56/56
f 57/57/57 59/59/59 58/58/58
f 59/59/59 57/57/57 60/60/60
f 59/59/59 60/60/60 61/61/61
f 61/61/61 60/60/60 62/62/62
f 63/63/63 61/61/61 62/62/62
f 62/62/62 60/60/60 64/64/64
f 65/65/65 67/67/67 66/66/66
f 67/67/67 65/65/65 68/68/68
f 69/69/69 71/71/71 70/70/70
f 71/71/71 69/69/69 72/72/72
f 27/27/27 74/74/74 73/73/73
f 75/75/75 74/74/74 27/27/27
f 75/75/75 27/27/27 28/28/28
f 76/76/76 74/74/74 75/75/75
f 74/74/74 76/76/76 77/77/77
f 75/75/75 28/28/28 78/78/78
f 75/75/75 78/78/78 79/79/79
f 78/78/78 28/28/28 80/80/80
f 81/81/81 83/83/83 82/82/82
f 83/83/83 81/81/81 84/84/84
f 85/85/85 87/87/87 86/86/86
f 87/87/87 85/85/85 88/88/88
f 89/89/89 91/91/91 90/90/90
f 91/91/91 89/89/89 92/92/92
f 93/93/93 95/95/95 94/94/94
f 95/95/95 93/93/93 96/96/96
f 97/97/97 99/99/99 98/98/98
f 99/99/99 97/97/97 100/100/100
f 101/101/101 103/103/103 102/102/102
f 103/103/103 101/101/101 104/104/104
f 105/105/105 107/107/107 106/106/106
f 107/107/107 105/105/105 108/108/108
f 109/109/109 111/111/111 110/110/110
f 111/111/111 109/109/109 112/112/112
f 112/112/112 109/109/109 113/113/113
f 113/113/113 109/109/109 30/30/30
f 30/30/30 109/109/109 29/29/29
f 29/29/29 109/109/109 114/114/114
f 115/115/115 29/29/29 114/114/114
f 114/114/114 109/109/109 116/116/116
f 117/117/117 119/119/119 118/118/118
f 119/119/119 117/117/117 120/120/120
f 120/120/120 117/117/117 121/121/121
f 122/122/122 120/120/120 121/121/121
f 122/122/122 121/121/121 123/123/123
f 124/124/124 120/120/120 122/122/122
f 124/124/124 125/125/125 120/120/120
f 125/125/125 124/124/124 126/126/126
f 122/122/122 123/123/123 127/127/127
f 127/127/127 128/128/128 122/122/122
f 127/127/127 123/123/123 129/129/129
f 129/129/129 123/123/123 130/130/130
f 128/128/128 127/127/127 131/131/131
f 128/128/128 131/131/131 132/132/132
f 133/133/133 135/135/135 134/134/134
f 135/135/135 133/133/133 136/136/136
f 137/137/137 139/139/139 138/138/138
f 140/140/140 139/139/139 137/137/137
f 141/141/141 139/139/139 140/140/140
f 141/141/141 140/140/140 142/142/142
f 143/143/143 139/139/139 141/141/141
f 139/139/139 143/143/143 144/144/144
f 145/145/145 147/147/147 146/146/146
f 147/147/147 145/145/145 148/148/148
f 26/26/26 150/150/150 149/149/149
f 149/149/149 151/151/151 26/26/26
f 152/152/152 151/151/151 149/149/149
f 151/151/151 152/152/152 153/153/153
f 26/26/26 151/151/151 25/25/25
f 25/25/25 151/151/151 154/154/154
f 155/155/155 25/25/25 154/154/154
f 154/154/154 151/151/151 156/156/156
f 157/157/157 159/159/159 158/158/158
f 159/159/159 157/157/157 160/160/160
f 161/161/161 163/163/163 162/162/162
f 163/163/163 161/161/161 164/164/164
f 165/165/165 167/167/167 166/166/166
f 167/167/167 165/165/165 168/168/168
f 168/168/168 165/165/165 169/169/169
f 170/170/170 168/168/168 169/169/169
f 170/170/170 169/169/169 171/171/171
f 172/172/172 168/168/168 170/170/170
f 173/173/173 168/168/168 172/172/172
f 168/168/168 173/173/173 174/174/174
f 170/170/170 171/171/171 175/175/175
f 175/175/175 176/176/176 170/170/170
f 175/175/175 171/171/171 177/177/177
f 177/177/177 171/171/171 178/178/178
f 176/176/176 175/175/175 179/179/179
f 176/176/176 179/179/179 180/180/180
f 181/181/181 183/183/183 182/182/182
f 184/184/184 183/183/183 181/181/181
f 185/185/185 183/183/183 184/184/184
f 185/185/185 184/184/184 186/186/186
f 187/187/187 183/183/183 185/185/185
f 183/183/183 187/187/187 188/188/188
f 189/189/189 191/191/191 190/190/190
f 191/191/191 189/189/189 192/192/192
f 31/31/31 194/194/194 193/193/193
f 195/195/195 194/194/194 31/31/31
f 195/195/195 31/31/31 32/32/32
f 196/196/196 194/194/194 195/195/195
f 194/194/194 196/196/196 197/197/197
f 195/195/195 32/32/32 198/198/198
f 195/195/195 198/198/198 199/199/199
f 198/198/198 32/32/32 200/200/200
f 201/201/201 203/203/203 202/202/202
f 203/203/203 201/201/201 204/204/204
f 205/205/205 207/207/207 206/206/206
f 207/207/207 205/205/205 208/208/208
f 209/209/209 211/211/211 210/210/210
f 211/211/211 209/209/209 212/212/212
f 213/213/213 215/215/215 214/214/214
f 215/215/215 213/213/213 216/216/216
