# Created by Kenney (www.kenney.nl) - UVs and materials modified

mtllib fantasytown.mtl


g wallArchTop

v 0.400 0.268 0.147
v 0.400 0.181 0.176
v 0.500 0.181 0.176
v 0.500 0.268 0.147
v 0.400 0.426 0.055
v 0.400 0.350 0.106
v 0.500 0.350 0.106
v 0.500 0.426 0.055
v 0.500 0.400 0.193
v 0.500 0.306 0.239
v 0.475 0.306 0.239
v 0.475 0.400 0.193
v 0.400 0.793 -0.396
v 0.425 0.793 -0.396
v 0.425 0.773 -0.293
v 0.400 0.773 -0.293
v 0.400 0.555 -0.074
v 0.500 0.555 -0.074
v 0.500 0.606 -0.150
v 0.400 0.606 -0.150
v 0.500 0.793 -0.396
v 0.475 0.793 -0.396
v 0.475 0.793 -0.400
v 0.500 0.793 -0.400
v 0.475 0.800 -0.500
v 0.500 0.800 -0.500
v 0.425 0.400 0.193
v 0.425 0.306 0.239
v 0.400 0.306 0.239
v 0.400 0.400 0.193
v 0.500 0.793 -0.400
v 0.500 0.800 -0.500
v 0.500 0.700 -0.500
v 0.500 0.694 -0.409
v 0.500 0.676 -0.319
v 0.500 0.793 -0.396
v 0.500 0.773 -0.293
v 0.500 0.647 -0.232
v 0.500 0.739 -0.194
v 0.500 0.606 -0.150
v 0.500 0.693 -0.100
v 0.500 0.555 -0.074
v 0.500 0.635 -0.013
v 0.500 0.495 -0.005
v 0.500 0.566 0.066
v 0.500 0.426 0.055
v 0.500 0.350 0.106
v 0.500 0.487 0.135
v 0.500 0.268 0.147
v 0.500 0.400 0.193
v 0.500 0.181 0.176
v 0.500 0.091 0.194
v 0.500 0.306 0.239
v 0.500 0.000 0.200
v 0.500 0.000 0.300
v 0.500 0.207 0.273
v 0.500 0.104 0.293
v 0.475 0.793 -0.396
v 0.500 0.793 -0.396
v 0.500 0.773 -0.293
v 0.475 0.773 -0.293
v 0.475 0.773 -0.293
v 0.500 0.773 -0.293
v 0.500 0.739 -0.194
v 0.475 0.739 -0.194
v 0.425 0.793 -0.396
v 0.400 0.793 -0.396
v 0.400 0.793 -0.400
v 0.425 0.793 -0.400
v 0.400 0.800 -0.500
v 0.425 0.800 -0.500
v 0.400 0.091 0.194
v 0.400 0.000 0.200
v 0.500 0.000 0.200
v 0.500 0.091 0.194
v 0.400 0.606 -0.150
v 0.500 0.606 -0.150
v 0.500 0.647 -0.232
v 0.400 0.647 -0.232
v 0.400 0.676 -0.319
v 0.500 0.676 -0.319
v 0.500 0.694 -0.409
v 0.400 0.694 -0.409
v 0.400 0.647 -0.232
v 0.500 0.647 -0.232
v 0.500 0.676 -0.319
v 0.400 0.676 -0.319
v 0.425 0.487 0.135
v 0.425 0.400 0.193
v 0.400 0.400 0.193
v 0.400 0.487 0.135
v 0.400 0.693 -0.100
v 0.425 0.693 -0.100
v 0.425 0.635 -0.013
v 0.400 0.635 -0.013
v 0.400 0.694 -0.409
v 0.500 0.694 -0.409
v 0.500 0.700 -0.500
v 0.400 0.700 -0.500
v 0.425 0.104 0.293
v 0.425 0.000 0.300
v 0.400 0.000 0.300
v 0.400 0.104 0.293
v 0.400 0.495 -0.005
v 0.400 0.426 0.055
v 0.500 0.426 0.055
v 0.500 0.495 -0.005
v 0.425 0.207 0.273
v 0.425 0.104 0.293
v 0.400 0.104 0.293
v 0.400 0.207 0.273
v 0.400 0.739 -0.194
v 0.425 0.739 -0.194
v 0.425 0.693 -0.100
v 0.400 0.693 -0.100
v 0.475 0.693 -0.100
v 0.500 0.693 -0.100
v 0.500 0.635 -0.013
v 0.475 0.635 -0.013
v 0.400 0.773 -0.293
v 0.425 0.773 -0.293
v 0.425 0.739 -0.194
v 0.400 0.739 -0.194
v 0.475 0.635 -0.013
v 0.500 0.635 -0.013
v 0.500 0.566 0.066
v 0.475 0.566 0.066
v 0.475 0.739 -0.194
v 0.500 0.739 -0.194
v 0.500 0.693 -0.100
v 0.475 0.693 -0.100
v 0.400 0.181 0.176
v 0.400 0.091 0.194
v 0.500 0.091 0.194
v 0.500 0.181 0.176
v 0.400 0.495 -0.005
v 0.500 0.495 -0.005
v 0.500 0.555 -0.074
v 0.400 0.555 -0.074
v 0.425 0.566 0.066
v 0.425 0.487 0.135
v 0.400 0.487 0.135
v 0.400 0.566 0.066
v 0.400 0.635 -0.013
v 0.425 0.635 -0.013
v 0.425 0.566 0.066
v 0.400 0.566 0.066
v 0.500 0.566 0.066
v 0.500 0.487 0.135
v 0.475 0.487 0.135
v 0.475 0.566 0.066
v 0.500 0.487 0.135
v 0.500 0.400 0.193
v 0.475 0.400 0.193
v 0.475 0.487 0.135
v 0.500 0.306 0.239
v 0.500 0.207 0.273
v 0.475 0.207 0.273
v 0.475 0.306 0.239
v 0.500 0.207 0.273
v 0.500 0.104 0.293
v 0.475 0.104 0.293
v 0.475 0.207 0.273
v 0.400 0.694 -0.409
v 0.400 0.700 -0.500
v 0.400 0.800 -0.500
v 0.400 0.793 -0.400
v 0.400 0.676 -0.319
v 0.400 0.793 -0.396
v 0.400 0.773 -0.293
v 0.400 0.647 -0.232
v 0.400 0.739 -0.194
v 0.400 0.606 -0.150
v 0.400 0.693 -0.100
v 0.400 0.555 -0.074
v 0.400 0.635 -0.013
v 0.400 0.495 -0.005
v 0.400 0.566 0.066
v 0.400 0.426 0.055
v 0.400 0.350 0.106
v 0.400 0.487 0.135
v 0.400 0.268 0.147
v 0.400 0.400 0.193
v 0.400 0.181 0.176
v 0.400 0.091 0.194
v 0.400 0.306 0.239
v 0.400 0.000 0.200
v 0.400 0.000 0.300
v 0.400 0.207 0.273
v 0.400 0.104 0.293
v 0.400 0.350 0.106
v 0.400 0.268 0.147
v 0.500 0.268 0.147
v 0.500 0.350 0.106
v 0.425 0.306 0.239
v 0.425 0.207 0.273
v 0.400 0.207 0.273
v 0.400 0.306 0.239
v 0.500 0.104 0.293
v 0.500 0.000 0.300
v 0.475 0.000 0.300
v 0.475 0.104 0.293
v 0.425 1.000 -0.500
v 0.475 1.000 -0.500
v 0.475 1.000 0.400
v 0.425 1.000 0.400
v 0.425 0.000 0.400
v 0.475 0.000 0.400
v 0.475 0.000 0.300
v 0.425 0.000 0.300
v 0.400 0.000 0.200
v 0.400 0.000 0.300
v 0.500 0.000 0.200
v 0.500 0.000 0.300
v 0.425 0.793 -0.400
v 0.425 0.800 -0.500
v 0.425 1.000 -0.500
v 0.425 1.000 0.400
v 0.425 0.793 -0.396
v 0.425 0.773 -0.293
v 0.425 0.739 -0.194
v 0.425 0.693 -0.100
v 0.425 0.635 -0.013
v 0.425 0.566 0.066
v 0.425 0.487 0.135
v 0.425 0.400 0.193
v 0.425 0.306 0.239
v 0.425 0.207 0.273
v 0.425 0.104 0.293
v 0.425 0.000 0.300
v 0.425 0.000 0.400
v 0.475 0.800 -0.500
v 0.475 1.000 -0.500
v 0.425 1.000 -0.500
v 0.425 0.800 -0.500
v 0.500 0.800 -0.500
v 0.400 0.800 -0.500
v 0.500 0.700 -0.500
v 0.400 0.700 -0.500
v 0.475 1.000 0.400
v 0.475 1.000 -0.500
v 0.475 0.800 -0.500
v 0.475 0.793 -0.400
v 0.475 0.793 -0.396
v 0.475 0.773 -0.293
v 0.475 0.739 -0.194
v 0.475 0.693 -0.100
v 0.475 0.635 -0.013
v 0.475 0.566 0.066
v 0.475 0.487 0.135
v 0.475 0.400 0.193
v 0.475 0.306 0.239
v 0.475 0.207 0.273
v 0.475 0.104 0.293
v 0.475 0.000 0.300
v 0.475 0.000 0.400
v 0.500 1.000 0.400
v 0.500 1.000 0.500
v 0.400 1.000 0.500
v 0.400 1.000 0.400
v 0.475 1.000 0.400
v 0.475 0.000 0.400
v 0.500 0.000 0.400
v 0.500 1.000 0.400
v 0.400 0.000 0.500
v 0.400 0.000 0.400
v 0.400 1.000 0.400
v 0.400 1.000 0.500
v 0.400 0.000 0.500
v 0.500 0.000 0.500
v 0.500 0.000 0.400
v 0.400 0.000 0.400
v 0.400 1.000 0.400
v 0.400 0.000 0.400
v 0.425 0.000 0.400
v 0.425 1.000 0.400
v 0.500 1.000 0.500
v 0.500 1.000 0.400
v 0.500 0.000 0.400
v 0.500 0.000 0.500
v 0.500 1.000 0.500
v 0.500 0.000 0.500
v 0.400 0.000 0.500
v 0.400 1.000 0.500

vt 0.400 0.207
vt 0.400 0.115
vt 0.500 0.115
vt 0.500 0.207
vt 0.400 0.390
vt 0.400 0.298
vt 0.500 0.298
vt 0.500 0.390
vt -0.500 0.273
vt -0.500 0.169
vt -0.475 0.169
vt -0.475 0.273
vt -0.543 -0.400
vt -0.543 -0.425
vt -0.438 -0.425
vt -0.438 -0.400
vt 0.400 0.573
vt 0.500 0.573
vt 0.500 0.664
vt 0.400 0.664
vt -0.500 1.006
vt -0.475 1.006
vt -0.475 1.010
vt -0.500 1.010
vt -0.475 1.111
vt -0.500 1.111
vt 0.190 -0.425
vt 0.294 -0.425
vt 0.294 -0.400
vt 0.190 -0.400
vt -0.400 0.793
vt -0.500 0.800
vt -0.500 0.700
vt -0.409 0.694
vt -0.319 0.676
vt -0.396 0.793
vt -0.293 0.773
vt -0.232 0.647
vt -0.194 0.739
vt -0.150 0.606
vt -0.100 0.693
vt -0.074 0.555
vt -0.013 0.635
vt -0.005 0.495
vt 0.066 0.566
vt 0.055 0.426
vt 0.106 0.350
vt 0.135 0.487
vt 0.147 0.268
vt 0.193 0.400
vt 0.176 0.181
vt 0.194 0.091
vt 0.239 0.306
vt 0.200 0.000
vt 0.300 0.000
vt 0.273 0.207
vt 0.293 0.104
vt -0.475 1.006
vt -0.500 1.006
vt -0.500 0.901
vt -0.475 0.901
vt -0.475 0.901
vt -0.500 0.901
vt -0.500 0.797
vt -0.475 0.797
vt -0.543 -0.425
vt -0.543 -0.400
vt -0.547 -0.400
vt -0.547 -0.425
vt -0.647 -0.400
vt -0.647 -0.425
vt 0.400 0.023
vt 0.400 -0.068
vt 0.500 -0.068
vt 0.500 0.023
vt 0.400 0.664
vt 0.500 0.664
vt 0.500 0.756
vt 0.400 0.756
vt 0.400 0.847
vt 0.500 0.847
vt 0.500 0.939
vt 0.400 0.939
vt 0.400 0.756
vt 0.500 0.756
vt 0.500 0.847
vt 0.400 0.847
vt 0.085 -0.425
vt 0.190 -0.425
vt 0.190 -0.400
vt 0.085 -0.400
vt -0.229 -0.400
vt -0.229 -0.425
vt -0.124 -0.425
vt -0.124 -0.400
vt 0.400 0.939
vt 0.500 0.939
vt 0.500 1.031
vt 0.400 1.031
vt 0.504 -0.425
vt 0.608 -0.425
vt 0.608 -0.400
vt 0.504 -0.400
vt 0.400 0.481
vt 0.400 0.390
vt 0.500 0.390
vt 0.500 0.481
vt 0.399 -0.425
vt 0.504 -0.425
vt 0.504 -0.400
vt 0.399 -0.400
vt -0.333 -0.400
vt -0.333 -0.425
vt -0.229 -0.425
vt -0.229 -0.400
vt -0.475 0.692
vt -0.500 0.692
vt -0.500 0.587
vt -0.475 0.587
vt -0.438 -0.400
vt -0.438 -0.425
vt -0.333 -0.425
vt -0.333 -0.400
vt -0.475 0.587
vt -0.500 0.587
vt -0.500 0.483
vt -0.475 0.483
vt -0.475 0.797
vt -0.500 0.797
vt -0.500 0.692
vt -0.475 0.692
vt 0.400 0.115
vt 0.400 0.023
vt 0.500 0.023
vt 0.500 0.115
vt 0.400 0.481
vt 0.500 0.481
vt 0.500 0.573
vt 0.400 0.573
vt -0.019 -0.425
vt 0.085 -0.425
vt 0.085 -0.400
vt -0.019 -0.400
vt -0.124 -0.400
vt -0.124 -0.425
vt -0.019 -0.425
vt -0.019 -0.400
vt -0.500 0.483
vt -0.500 0.378
vt -0.475 0.378
vt -0.475 0.483
vt -0.500 0.378
vt -0.500 0.273
vt -0.475 0.273
vt -0.475 0.378
vt -0.500 0.169
vt -0.500 0.064
vt -0.475 0.064
vt -0.475 0.169
vt -0.500 0.064
vt -0.500 -0.040
vt -0.475 -0.040
vt -0.475 0.064
vt 0.409 0.694
vt 0.500 0.700
vt 0.500 0.800
vt 0.400 0.793
vt 0.319 0.676
vt 0.396 0.793
vt 0.293 0.773
vt 0.232 0.647
vt 0.194 0.739
vt 0.150 0.606
vt 0.100 0.693
vt 0.074 0.555
vt 0.013 0.635
vt 0.005 0.495
vt -0.066 0.566
vt -0.055 0.426
vt -0.106 0.350
vt -0.135 0.487
vt -0.147 0.268
vt -0.193 0.400
vt -0.176 0.181
vt -0.194 0.091
vt -0.239 0.306
vt -0.200 0.000
vt -0.300 0.000
vt -0.273 0.207
vt -0.293 0.104
vt 0.400 0.298
vt 0.400 0.207
vt 0.500 0.207
vt 0.500 0.298
vt 0.294 -0.425
vt 0.399 -0.425
vt 0.399 -0.400
vt 0.294 -0.400
vt -0.500 -0.040
vt -0.500 -0.145
vt -0.475 -0.145
vt -0.475 -0.040
vt -0.500 -0.425
vt -0.500 -0.475
vt 0.400 -0.475
vt 0.400 -0.425
vt -0.400 -0.425
vt -0.400 -0.475
vt -0.300 -0.475
vt -0.300 -0.425
vt -0.200 -0.400
vt -0.300 -0.400
vt -0.200 -0.500
vt -0.300 -0.500
vt 0.400 0.793
vt 0.500 0.800
vt 0.500 1.000
vt -0.400 1.000
vt 0.396 0.793
vt 0.293 0.773
vt 0.194 0.739
vt 0.100 0.693
vt 0.013 0.635
vt -0.066 0.566
vt -0.135 0.487
vt -0.193 0.400
vt -0.239 0.306
vt -0.273 0.207
vt -0.293 0.104
vt -0.300 0.000
vt -0.400 0.000
vt 0.475 0.800
vt 0.475 1.000
vt 0.425 1.000
vt 0.425 0.800
vt 0.500 0.800
vt 0.400 0.800
vt 0.500 0.700
vt 0.400 0.700
vt 0.400 1.000
vt -0.500 1.000
vt -0.500 0.800
vt -0.400 0.793
vt -0.396 0.793
vt -0.293 0.773
vt -0.194 0.739
vt -0.100 0.693
vt -0.013 0.635
vt 0.066 0.566
vt 0.135 0.487
vt 0.193 0.400
vt 0.239 0.306
vt 0.273 0.207
vt 0.293 0.104
vt 0.300 0.000
vt 0.400 0.000
vt 0.400 -0.500
vt 0.500 -0.500
vt 0.500 -0.400
vt 0.400 -0.400
vt 0.475 1.000
vt 0.475 0.000
vt 0.500 0.000
vt 0.500 1.000
vt -0.500 0.000
vt -0.400 0.000
vt -0.400 1.000
vt -0.500 1.000
vt -0.500 -0.400
vt -0.500 -0.500
vt -0.400 -0.500
vt -0.400 -0.400
vt 0.400 1.000
vt 0.400 0.000
vt 0.425 0.000
vt 0.425 1.000
vt 0.500 1.000
vt 0.400 1.000
vt 0.400 0.000
vt 0.500 0.000
vt -0.500 1.000
vt -0.500 0.000
vt -0.400 0.000
vt -0.400 1.000

vn 0.000 -0.383 -0.924
vn 0.000 -0.259 -0.966
vn 0.000 -0.259 -0.966
vn 0.000 -0.383 -0.924
vn 0.000 -0.609 -0.793
vn 0.000 -0.500 -0.866
vn 0.000 -0.500 -0.866
vn 0.000 -0.609 -0.793
vn 0.000 0.500 0.866
vn 0.000 0.383 0.924
vn 0.000 0.383 0.924
vn 0.000 0.500 0.866
vn 0.000 0.991 0.131
vn 0.000 0.991 0.131
vn 0.000 0.966 0.259
vn 0.000 0.966 0.259
vn 0.000 -0.793 -0.609
vn 0.000 -0.793 -0.609
vn 0.000 -0.866 -0.500
vn 0.000 -0.866 -0.500
vn 0.000 0.991 0.131
vn 0.000 0.991 0.131
vn 0.000 0.998 0.065
vn 0.000 0.998 0.065
vn 0.000 0.998 0.065
vn 0.000 0.998 0.065
vn 0.000 0.500 0.866
vn 0.000 0.383 0.924
vn 0.000 0.383 0.924
vn 0.000 0.500 0.866
vn 1.000 0.000 0.000
vn 1.000 0.000 0.000
vn 1.000 0.000 0.000
vn 1.000 0.000 0.000
vn 1.000 0.000 0.000
vn 1.000 0.000 0.000
vn 1.000 0.000 0.000
vn 1.000 0.000 0.000
vn 1.000 0.000 0.000
vn 1.000 0.000 0.000
vn 1.000 0.000 0.000
vn 1.000 0.000 0.000
vn 1.000 0.000 0.000
vn 1.000 0.000 0.000
vn 1.000 0.000 0.000
vn 1.000 0.000 0.000
vn 1.000 0.000 0.000
vn 1.000 0.000 0.000
vn 1.000 0.000 0.000
vn 1.000 0.000 0.000
vn 1.000 0.000 0.000
vn 1.000 0.000 0.000
vn 1.000 0.000 0.000
vn 1.000 0.000 0.000
vn 1.000 0.000 0.000
vn 1.000 0.000 0.000
vn 1.000 0.000 0.000
vn 0.000 0.991 0.131
vn 0.000 0.991 0.131
vn 0.000 0.966 0.259
vn 0.000 0.966 0.259
vn 0.000 0.966 0.259
vn 0.000 0.966 0.259
vn 0.000 0.924 0.383
vn 0.000 0.924 0.383
vn 0.000 0.991 0.131
vn 0.000 0.991 0.131
vn 0.000 0.998 0.065
vn 0.000 0.998 0.065
vn 0.000 0.998 0.065
vn 0.000 0.998 0.065
vn 0.000 -0.131 -0.991
vn 0.000 -0.065 -0.998
vn 0.000 -0.065 -0.998
vn 0.000 -0.131 -0.991
vn 0.000 -0.866 -0.500
vn 0.000 -0.866 -0.500
vn 0.000 -0.924 -0.383
vn 0.000 -0.924 -0.383
vn 0.000 -0.966 -0.259
vn 0.000 -0.966 -0.259
vn 0.000 -0.991 -0.131
vn 0.000 -0.991 -0.131
vn 0.000 -0.924 -0.383
vn 0.000 -0.924 -0.383
vn 0.000 -0.966 -0.259
vn 0.000 -0.966 -0.259
vn 0.000 0.609 0.793
vn 0.000 0.500 0.866
vn 0.000 0.500 0.866
vn 0.000 0.609 0.793
vn 0.000 0.866 0.500
vn 0.000 0.866 0.500
vn 0.000 0.793 0.609
vn 0.000 0.793 0.609
vn 0.000 -0.991 -0.131
vn 0.000 -0.991 -0.131
vn 0.000 -0.998 -0.065
vn 0.000 -0.998 -0.065
vn 0.000 0.131 0.991
vn 0.000 0.065 0.998
vn 0.000 0.065 0.998
vn 0.000 0.131 0.991
vn 0.000 -0.707 -0.707
vn 0.000 -0.609 -0.793
vn 0.000 -0.609 -0.793
vn 0.000 -0.707 -0.707
vn 0.000 0.259 0.966
vn 0.000 0.131 0.991
vn 0.000 0.131 0.991
vn 0.000 0.259 0.966
vn 0.000 0.924 0.383
vn 0.000 0.924 0.383
vn 0.000 0.866 0.500
vn 0.000 0.866 0.500
vn 0.000 0.866 0.500
vn 0.000 0.866 0.500
vn 0.000 0.793 0.609
vn 0.000 0.793 0.609
vn 0.000 0.966 0.259
vn 0.000 0.966 0.259
vn 0.000 0.924 0.383
vn 0.000 0.924 0.383
vn 0.000 0.793 0.609
vn 0.000 0.793 0.609
vn 0.000 0.707 0.707
vn 0.000 0.707 0.707
vn 0.000 0.924 0.383
vn 0.000 0.924 0.383
vn 0.000 0.866 0.500
vn 0.000 0.866 0.500
vn 0.000 -0.259 -0.966
vn 0.000 -0.131 -0.991
vn 0.000 -0.131 -0.991
vn 0.000 -0.259 -0.966
vn 0.000 -0.707 -0.707
vn 0.000 -0.707 -0.707
vn 0.000 -0.793 -0.609
vn 0.000 -0.793 -0.609
vn 0.000 0.707 0.707
vn 0.000 0.609 0.793
vn 0.000 0.609 0.793
vn 0.000 0.707 0.707
vn 0.000 0.793 0.609
vn 0.000 0.793 0.609
vn 0.000 0.707 0.707
vn 0.000 0.707 0.707
vn 0.000 0.707 0.707
vn 0.000 0.609 0.793
vn 0.000 0.609 0.793
vn 0.000 0.707 0.707
vn 0.000 0.609 0.793
vn 0.000 0.500 0.866
vn 0.000 0.500 0.866
vn 0.000 0.609 0.793
vn 0.000 0.383 0.924
vn 0.000 0.259 0.966
vn 0.000 0.259 0.966
vn 0.000 0.383 0.924
vn 0.000 0.259 0.966
vn 0.000 0.131 0.991
vn 0.000 0.131 0.991
vn 0.000 0.259 0.966
vn -1.000 0.000 0.000
vn -1.000 0.000 0.000
vn -1.000 0.000 0.000
vn -1.000 0.000 0.000
vn -1.000 0.000 0.000
vn -1.000 0.000 0.000
vn -1.000 0.000 0.000
vn -1.000 0.000 0.000
vn -1.000 0.000 0.000
vn -1.000 0.000 0.000
vn -1.000 0.000 0.000
vn -1.000 0.000 0.000
vn -1.000 0.000 0.000
vn -1.000 0.000 0.000
vn -1.000 0.000 0.000
vn -1.000 0.000 0.000
vn -1.000 0.000 0.000
vn -1.000 0.000 0.000
vn -1.000 0.000 0.000
vn -1.000 0.000 0.000
vn -1.000 0.000 0.000
vn -1.000 0.000 0.000
vn -1.000 0.000 0.000
vn -1.000 0.000 0.000
vn -1.000 0.000 0.000
vn -1.000 0.000 0.000
vn -1.000 0.000 0.000
vn 0.000 -0.500 -0.866
vn 0.000 -0.383 -0.924
vn 0.000 -0.383 -0.924
vn 0.000 -0.500 -0.866
vn 0.000 0.383 0.924
vn 0.000 0.259 0.966
vn 0.000 0.259 0.966
vn 0.000 0.383 0.924
vn 0.000 0.131 0.991
vn 0.000 0.065 0.998
vn 0.000 0.065 0.998
vn 0.000 0.131 0.991
vn 0.000 1.000 0.000
vn 0.000 1.000 0.000
vn 0.000 1.000 0.000
vn 0.000 1.000 0.000
vn 0.000 -1.000 0.000
vn 0.000 -1.000 0.000
vn 0.000 -1.000 0.000
vn 0.000 -1.000 0.000
vn 0.000 -1.000 0.000
vn 0.000 -1.000 0.000
vn 0.000 -1.000 0.000
vn 0.000 -1.000 0.000
vn -1.000 0.000 0.000
vn -1.000 0.000 0.000
vn -1.000 0.000 0.000
vn -1.000 0.000 0.000
vn -1.000 0.000 0.000
vn -1.000 0.000 0.000
vn -1.000 0.000 0.000
vn -1.000 0.000 0.000
vn -1.000 0.000 0.000
vn -1.000 0.000 0.000
vn -1.000 0.000 0.000
vn -1.000 0.000 0.000
vn -1.000 0.000 0.000
vn -1.000 0.000 0.000
vn -1.000 0.000 0.000
vn -1.000 0.000 0.000
vn -1.000 0.000 0.000
vn 0.000 0.000 -1.000
vn 0.000 0.000 -1.000
vn 0.000 0.000 -1.000
vn 0.000 0.000 -1.000
vn 0.000 0.000 -1.000
vn 0.000 0.000 -1.000
vn 0.000 0.000 -1.000
vn 0.000 0.000 -1.000
vn 1.000 0.000 0.000
vn 1.000 0.000 0.000
vn 1.000 0.000 0.000
vn 1.000 0.000 0.000
vn 1.000 0.000 0.000
vn 1.000 0.000 0.000
vn 1.000 0.000 0.000
vn 1.000 0.000 0.000
vn 1.000 0.000 0.000
vn 1.000 0.000 0.000
vn 1.000 0.000 0.000
vn 1.000 0.000 0.000
vn 1.000 0.000 0.000
vn 1.000 0.000 0.000
vn 1.000 0.000 0.000
vn 1.000 0.000 0.000
vn 1.000 0.000 0.000
vn 0.000 1.000 0.000
vn 0.000 1.000 0.000
vn 0.000 1.000 0.000
vn 0.000 1.000 0.000
vn 0.000 0.000 -1.000
vn 0.000 0.000 -1.000
vn 0.000 0.000 -1.000
vn 0.000 0.000 -1.000
vn -1.000 0.000 0.000
vn -1.000 0.000 0.000
vn -1.000 0.000 0.000
vn -1.000 0.000 0.000
vn 0.000 -1.000 0.000
vn 0.000 -1.000 0.000
vn 0.000 -1.000 0.000
vn 0.000 -1.000 0.000
vn 0.000 0.000 -1.000
vn 0.000 0.000 -1.000
vn 0.000 0.000 -1.000
vn 0.000 0.000 -1.000
vn 1.000 0.000 0.000
vn 1.000 0.000 0.000
vn 1.000 0.000 0.000
vn 1.000 0.000 0.000
vn 0.000 0.000 1.000
vn 0.000 0.000 1.000
vn 0.000 0.000 1.000
vn 0.000 0.000 1.000


usemtl stoneDark

f 1/1/1 3/3/3 2/2/2
f 3/3/3 1/1/1 4/4/4
f 5/5/5 7/7/7 6/6/6
f 7/7/7 5/5/5 8/8/8
f 9/9/9 11/11/11 10/10/10
f 11/11/11 9/9/9 12/12/12
f 13/13/13 15/15/15 14/14/14
f 15/15/15 13/13/13 16/16/16
f 17/17/17 19/19/19 18/18/18
f 19/19/19 17/17/17 20/20/20
f 21/21/21 23/23/23 22/22/22
f 23/23/23 21/21/21 24/24/24
f 24/24/24 25/25/25 23/23/23
f 25/25/25 24/24/24 26/26/26
f 27/27/27 29/29/29 28/28/28
f 29/29/29 27/27/27 30/30/30
f 31/31/31 33/33/33 32/32/32
f 33/33/33 31/31/31 34/34/34
f 34/34/34 31/31/31 35/35/35
f 35/35/35 31/31/31 36/36/36
f 35/35/35 36/36/36 37/37/37
f 35/35/35 37/37/37 38/38/38
f 38/38/38 37/37/37 39/39/39
f 38/38/38 39/39/39 40/40/40
f 40/40/40 39/39/39 41/41/41
f 40/40/40 41/41/41 42/42/42
f 42/42/42 41/41/41 43/43/43
f 42/42/42 43/43/43 44/44/44
f 44/44/44 43/43/43 45/45/45
f 44/44/44 45/45/45 46/46/46
f 46/46/46 45/45/45 47/47/47
f 47/47/47 45/45/45 48/48/48
f 47/47/47 48/48/48 49/49/49
f 49/49/49 48/48/48 50/50/50
f 49/49/49 50/50/50 51/51/51
f 51/51/51 50/50/50 52/52/52
f 52/52/52 50/50/50 53/53/53
f 52/52/52 53/53/53 54/54/54
f 54/54/54 53/53/53 55/55/55
f 55/55/55 53/53/53 56/56/56
f 55/55/55 56/56/56 57/57/57
f 58/58/58 60/60/60 59/59/59
f 60/60/60 58/58/58 61/61/61
f 62/62/62 64/64/64 63/63/63
f 64/64/64 62/62/62 65/65/65
f 66/66/66 68/68/68 67/67/67
f 68/68/68 66/66/66 69/69/69
f 69/69/69 70/70/70 68/68/68
f 70/70/70 69/69/69 71/71/71
f 72/72/72 74/74/74 73/73/73
f 74/74/74 72/72/72 75/75/75
f 76/76/76 78/78/78 77/77/77
f 78/78/78 76/76/76 79/79/79
f 80/80/80 82/82/82 81/81/81
f 82/82/82 80/80/80 83/83/83
f 84/84/84 86/86/86 85/85/85
f 86/86/86 84/84/84 87/87/87
f 88/88/88 90/90/90 89/89/89
f 90/90/90 88/88/88 91/91/91
f 92/92/92 94/94/94 93/93/93
f 94/94/94 92/92/92 95/95/95
f 96/96/96 98/98/98 97/97/97
f 98/98/98 96/96/96 99/99/99
f 100/100/100 102/102/102 101/101/101
f 102/102/102 100/100/100 103/103/103
f 104/104/104 106/106/106 105/105/105
f 106/106/106 104/104/104 107/107/107
f 108/108/108 110/110/110 109/109/109
f 110/110/110 108/108/108 111/111/111
f 112/112/112 114/114/114 113/113/113
f 114/114/114 112/112/112 115/115/115
f 116/116/116 118/118/118 117/117/117
f 118/118/118 116/116/116 119/119/119
f 120/120/120 122/122/122 121/121/121
f 122/122/122 120/120/120 123/123/123
f 124/124/124 126/126/126 125/125/125
f 126/126/126 124/124/124 127/127/127
f 128/128/128 130/130/130 129/129/129
f 130/130/130 128/128/128 131/131/131
f 132/132/132 134/134/134 133/133/133
f 134/134/134 132/132/132 135/135/135
f 136/136/136 138/138/138 137/137/137
f 138/138/138 136/136/136 139/139/139
f 140/140/140 142/142/142 141/141/141
f 142/142/142 140/140/140 143/143/143
f 144/144/144 146/146/146 145/145/145
f 146/146/146 144/144/144 147/147/147
f 148/148/148 150/150/150 149/149/149
f 150/150/150 148/148/148 151/151/151
f 152/152/152 154/154/154 153/153/153
f 154/154/154 152/152/152 155/155/155
f 156/156/156 158/158/158 157/157/157
f 158/158/158 156/156/156 159/159/159
f 160/160/160 162/162/162 161/161/161
f 162/162/162 160/160/160 163/163/163
f 164/164/164 166/166/166 165/165/165
f 166/166/166 164/164/164 167/167/167
f 167/167/167 164/164/164 168/168/168
f 167/167/167 168/168/168 169/169/169
f 169/169/169 168/168/168 170/170/170
f 170/170/170 168/168/168 171/171/171
f 170/170/170 171/171/171 172/172/172
f 172/172/172 171/171/171 173/173/173
f 172/172/172 173/173/173 174/174/174
f 174/174/174 173/173/173 175/175/175
f 174/174/174 175/175/175 176/176/176
f 176/176/176 175/175/175 177/177/177
f 176/176/176 177/177/177 178/178/178
f 178/178/178 177/177/177 179/179/179
f 178/178/178 179/179/179 180/180/180
f 178/178/178 180/180/180 181/181/181
f 181/181/181 180/180/180 182/182/182
f 181/181/181 182/182/182 183/183/183
f 183/183/183 182/182/182 184/184/184
f 183/183/183 184/184/184 185/185/185
f 183/183/183 185/185/185 186/186/186
f 186/186/186 185/185/185 187/187/187
f 186/186/186 187/187/187 188/188/188
f 186/186/186 188/188/188 189/189/189
f 189/189/189 188/188/188 190/190/190
f 191/191/191 193/193/193 192/192/192
f 193/193/193 191/191/191 194/194/194
f 195/195/195 197/197/197 196/196/196
f 197/197/197 195/195/195 198/198/198
f 199/199/199 201/201/201 200/200/200
f 201/201/201 199/199/199 202/202/202

usemtl stone

f 203/203/203 205/205/205 204/204/204
f 205/205/205 203/203/203 206/206/206
f 207/207/207 209/209/209 208/208/208
f 210/210/210 209/209/209 207/207/207
f 211/211/211 209/209/209 210/210/210
f 211/211/211 210/210/210 212/212/212
f 213/213/213 209/209/209 211/211/211
f 209/209/209 213/213/213 214/214/214
f 215/215/215 217/217/217 216/216/216
f 217/217/217 215/215/215 218/218/218
f 218/218/218 215/215/215 219/219/219
f 218/218/218 219/219/219 220/220/220
f 218/218/218 220/220/220 221/221/221
f 218/218/218 221/221/221 222/222/222
f 218/218/218 222/222/222 223/223/223
f 218/218/218 223/223/223 224/224/224
f 218/218/218 224/224/224 225/225/225
f 218/218/218 225/225/225 226/226/226
f 218/218/218 226/226/226 227/227/227
f 218/218/218 227/227/227 228/228/228
f 218/218/218 228/228/228 229/229/229
f 218/218/218 229/229/229 230/230/230
f 218/218/218 230/230/230 231/231/231
f 232/232/232 234/234/234 233/233/233
f 234/234/234 232/232/232 235/235/235
f 236/236/236 235/235/235 232/232/232
f 236/236/236 237/237/237 235/235/235
f 238/238/238 237/237/237 236/236/236
f 237/237/237 238/238/238 239/239/239
f 240/240/240 242/242/242 241/241/241
f 242/242/242 240/240/240 243/243/243
f 243/243/243 240/240/240 244/244/244
f 244/244/244 240/240/240 245/245/245
f 245/245/245 240/240/240 246/246/246
f 246/246/246 240/240/240 247/247/247
f 247/247/247 240/240/240 248/248/248
f 248/248/248 240/240/240 249/249/249
f 249/249/249 240/240/240 250/250/250
f 250/250/250 240/240/240 251/251/251
f 251/251/251 240/240/240 252/252/252
f 252/252/252 240/240/240 253/253/253
f 253/253/253 240/240/240 254/254/254
f 254/254/254 240/240/240 255/255/255
f 255/255/255 240/240/240 256/256/256

usemtl wood

f 205/205/205 258/258/258 257/257/257
f 258/258/258 205/205/205 259/259/259
f 259/259/259 205/205/205 206/206/206
f 259/259/259 206/206/206 260/260/260
f 261/261/261 263/263/263 262/262/262
f 263/263/263 261/261/261 264/264/264
f 265/265/265 267/267/267 266/266/266
f 267/267/267 265/265/265 268/268/268
f 269/269/269 271/271/271 270/270/270
f 271/271/271 269/269/269 208/208/208
f 208/208/208 269/269/269 207/207/207
f 207/207/207 269/269/269 272/272/272
f 273/273/273 275/275/275 274/274/274
f 275/275/275 273/273/273 276/276/276
f 277/277/277 279/279/279 278/278/278
f 279/279/279 277/277/277 280/280/280
f 281/281/281 283/283/283 282/282/282
f 283/283/283 281/281/281 284/284/284
