# Created by Kenney (www.kenney.nl) - UVs and materials modified

mtllib fantasytown.mtl


g wallWoodRounded

v 0.439 1.000 0.182
v 0.459 1.000 0.123
v 0.459 0.000 0.123
v 0.439 0.000 0.182
v 0.055 1.000 0.421
v 0.055 0.000 0.421
v 0.110 0.000 0.411
v 0.110 1.000 0.411
v 0.163 1.000 0.393
v 0.163 0.000 0.393
v 0.213 0.000 0.368
v 0.213 1.000 0.368
v 0.425 0.000 0.000
v 0.425 0.000 -0.400
v 0.425 1.000 -0.400
v 0.425 1.000 0.000
v 0.301 0.000 0.301
v 0.337 0.000 0.259
v 0.337 1.000 0.259
v 0.301 1.000 0.301
v 0.110 1.000 0.411
v 0.110 0.000 0.411
v 0.163 0.000 0.393
v 0.163 1.000 0.393
v 0.336 1.000 0.336
v 0.336 0.000 0.336
v 0.289 0.000 0.377
v 0.289 1.000 0.377
v -0.400 1.000 0.425
v -0.400 0.000 0.425
v 0.000 0.000 0.425
v 0.000 1.000 0.425
v 0.421 0.000 0.055
v 0.425 0.000 0.000
v 0.425 1.000 0.000
v 0.421 1.000 0.055
v 0.000 1.000 0.425
v 0.000 0.000 0.425
v 0.055 0.000 0.421
v 0.055 1.000 0.421
v 0.062 1.000 0.471
v 0.062 0.000 0.471
v 0.000 0.000 0.475
v 0.000 1.000 0.475
v 0.425 1.000 -0.400
v 0.475 1.000 -0.400
v 0.475 1.000 0.000
v 0.471 1.000 0.062
v 0.459 1.000 0.123
v 0.439 1.000 0.182
v 0.425 1.000 0.000
v 0.411 1.000 0.238
v 0.421 1.000 0.055
v 0.411 1.000 0.110
v 0.377 1.000 0.289
v 0.393 1.000 0.163
v 0.368 1.000 0.213
v 0.336 1.000 0.336
v 0.337 1.000 0.259
v 0.301 1.000 0.301
v 0.289 1.000 0.377
v 0.259 1.000 0.337
v 0.238 1.000 0.411
v 0.213 1.000 0.368
v 0.182 1.000 0.439
v 0.163 1.000 0.393
v 0.123 1.000 0.459
v 0.110 1.000 0.411
v 0.062 1.000 0.471
v 0.055 1.000 0.421
v 0.000 1.000 0.475
v 0.000 1.000 0.425
v -0.400 1.000 0.475
v -0.400 1.000 0.425
v 0.259 1.000 0.337
v 0.259 0.000 0.337
v 0.301 0.000 0.301
v 0.301 1.000 0.301
v 0.471 1.000 0.062
v 0.475 1.000 0.000
v 0.475 0.000 0.000
v 0.471 0.000 0.062
v 0.393 0.000 0.163
v 0.411 0.000 0.110
v 0.411 1.000 0.110
v 0.393 1.000 0.163
v 0.411 0.000 0.110
v 0.421 0.000 0.055
v 0.421 1.000 0.055
v 0.411 1.000 0.110
v 0.459 1.000 0.123
v 0.471 1.000 0.062
v 0.471 0.000 0.062
v 0.459 0.000 0.123
v 0.000 1.000 0.475
v 0.000 0.000 0.475
v -0.400 0.000 0.475
v -0.400 1.000 0.475
v 0.123 1.000 0.459
v 0.123 0.000 0.459
v 0.062 0.000 0.471
v 0.062 1.000 0.471
v 0.377 1.000 0.289
v 0.411 1.000 0.238
v 0.411 0.000 0.238
v 0.377 0.000 0.289
v 0.475 1.000 0.000
v 0.475 1.000 -0.400
v 0.475 0.000 -0.400
v 0.475 0.000 0.000
v 0.368 0.000 0.213
v 0.393 0.000 0.163
v 0.393 1.000 0.163
v 0.368 1.000 0.213
v 0.238 1.000 0.411
v 0.238 0.000 0.411
v 0.182 0.000 0.439
v 0.182 1.000 0.439
v 0.336 1.000 0.336
v 0.377 1.000 0.289
v 0.377 0.000 0.289
v 0.336 0.000 0.336
v 0.182 1.000 0.439
v 0.182 0.000 0.439
v 0.123 0.000 0.459
v 0.123 1.000 0.459
v 0.213 1.000 0.368
v 0.213 0.000 0.368
v 0.259 0.000 0.337
v 0.259 1.000 0.337
v 0.337 0.000 0.259
v 0.368 0.000 0.213
v 0.368 1.000 0.213
v 0.337 1.000 0.259
v 0.000 0.000 0.425
v -0.400 0.000 0.425
v -0.400 0.000 0.475
v 0.000 0.000 0.475
v 0.055 0.000 0.421
v 0.062 0.000 0.471
v 0.110 0.000 0.411
v 0.123 0.000 0.459
v 0.163 0.000 0.393
v 0.182 0.000 0.439
v 0.213 0.000 0.368
v 0.238 0.000 0.411
v 0.259 0.000 0.337
v 0.289 0.000 0.377
v 0.301 0.000 0.301
v 0.336 0.000 0.336
v 0.337 0.000 0.259
v 0.368 0.000 0.213
v 0.377 0.000 0.289
v 0.393 0.000 0.163
v 0.411 0.000 0.110
v 0.411 0.000 0.238
v 0.421 0.000 0.055
v 0.425 0.000 0.000
v 0.439 0.000 0.182
v 0.425 0.000 -0.400
v 0.459 0.000 0.123
v 0.471 0.000 0.062
v 0.475 0.000 -0.400
v 0.475 0.000 0.000
v 0.411 1.000 0.238
v 0.439 1.000 0.182
v 0.439 0.000 0.182
v 0.411 0.000 0.238
v 0.289 1.000 0.377
v 0.289 0.000 0.377
v 0.238 0.000 0.411
v 0.238 1.000 0.411
v -0.400 1.000 0.425
v -0.400 1.000 0.400
v -0.400 0.000 0.400
v -0.400 0.000 0.425
v -0.400 1.000 0.500
v -0.400 1.000 0.475
v -0.400 0.000 0.475
v -0.400 0.000 0.500
v -0.500 1.000 0.400
v -0.500 0.000 0.400
v -0.400 0.000 0.400
v -0.400 1.000 0.400
v 0.400 1.000 -0.500
v 0.500 1.000 -0.500
v 0.500 1.000 -0.400
v 0.400 1.000 -0.400
v 0.500 0.000 -0.400
v 0.500 0.000 -0.500
v 0.400 0.000 -0.500
v 0.400 0.000 -0.400
v -0.500 0.000 0.500
v -0.400 0.000 0.500
v -0.400 0.000 0.400
v -0.500 0.000 0.400
v -0.400 1.000 0.500
v -0.400 0.000 0.500
v -0.500 0.000 0.500
v -0.500 1.000 0.500
v 0.400 0.000 -0.400
v 0.400 0.000 -0.500
v 0.400 1.000 -0.500
v 0.400 1.000 -0.400
v 0.400 1.000 -0.500
v 0.400 0.000 -0.500
v 0.500 0.000 -0.500
v 0.500 1.000 -0.500
v -0.400 1.000 0.500
v -0.500 1.000 0.500
v -0.400 1.000 0.400
v -0.500 1.000 0.400
v -0.500 0.000 0.500
v -0.500 0.000 0.400
v -0.500 1.000 0.400
v -0.500 1.000 0.500
v 0.500 1.000 -0.400
v 0.500 0.000 -0.400
v 0.475 0.000 -0.400
v 0.475 1.000 -0.400
v 0.425 1.000 -0.400
v 0.425 0.000 -0.400
v 0.400 0.000 -0.400
v 0.400 1.000 -0.400
v 0.500 1.000 -0.400
v 0.500 1.000 -0.500
v 0.500 0.000 -0.500
v 0.500 0.000 -0.400

vt 0.031 1.000
vt -0.031 1.000
vt -0.031 0.000
vt 0.031 0.000
vt -0.028 1.000
vt -0.028 0.000
vt 0.028 0.000
vt 0.028 1.000
vt 0.083 1.000
vt 0.083 0.000
vt 0.139 0.000
vt 0.139 1.000
vt 0.584 0.000
vt 0.984 0.000
vt 0.984 1.000
vt 0.584 1.000
vt 0.250 0.000
vt 0.306 0.000
vt 0.306 1.000
vt 0.250 1.000
vt 0.028 1.000
vt 0.028 0.000
vt 0.083 0.000
vt 0.083 1.000
vt 0.217 1.000
vt 0.217 0.000
vt 0.280 0.000
vt 0.280 1.000
vt -0.483 1.000
vt -0.483 0.000
vt -0.083 0.000
vt -0.083 1.000
vt 0.528 0.000
vt 0.584 0.000
vt 0.584 1.000
vt 0.528 1.000
vt -0.083 1.000
vt -0.083 0.000
vt -0.028 0.000
vt -0.028 1.000
vt 0.528 1.000
vt 0.528 0.000
vt 0.590 0.000
vt 0.590 1.000
vt -0.400 -0.425
vt -0.400 -0.475
vt 0.000 -0.475
vt 0.062 -0.471
vt 0.123 -0.459
vt 0.182 -0.439
vt 0.000 -0.425
vt 0.238 -0.411
vt 0.055 -0.421
vt 0.110 -0.411
vt 0.289 -0.377
vt 0.163 -0.393
vt 0.213 -0.368
vt 0.336 -0.336
vt 0.259 -0.337
vt 0.301 -0.301
vt 0.377 -0.289
vt 0.337 -0.259
vt 0.411 -0.238
vt 0.368 -0.213
vt 0.439 -0.182
vt 0.393 -0.163
vt 0.459 -0.123
vt 0.411 -0.110
vt 0.471 -0.062
vt 0.421 -0.055
vt 0.475 0.000
vt 0.425 0.000
vt 0.475 0.400
vt 0.425 0.400
vt 0.195 1.000
vt 0.195 0.000
vt 0.250 0.000
vt 0.250 1.000
vt -0.093 1.000
vt -0.155 1.000
vt -0.155 0.000
vt -0.093 0.000
vt 0.417 0.000
vt 0.473 0.000
vt 0.473 1.000
vt 0.417 1.000
vt 0.473 0.000
vt 0.528 0.000
vt 0.528 1.000
vt 0.473 1.000
vt -0.031 1.000
vt -0.093 1.000
vt -0.093 0.000
vt -0.031 0.000
vt 0.590 1.000
vt 0.590 0.000
vt 0.990 0.000
vt 0.990 1.000
vt 0.466 1.000
vt 0.466 0.000
vt 0.528 0.000
vt 0.528 1.000
vt 0.155 1.000
vt 0.093 1.000
vt 0.093 0.000
vt 0.155 0.000
vt -0.155 1.000
vt -0.555 1.000
vt -0.555 0.000
vt -0.155 0.000
vt 0.361 0.000
vt 0.417 0.000
vt 0.417 1.000
vt 0.361 1.000
vt 0.342 1.000
vt 0.342 0.000
vt 0.404 0.000
vt 0.404 1.000
vt 0.217 1.000
vt 0.155 1.000
vt 0.155 0.000
vt 0.217 0.000
vt 0.404 1.000
vt 0.404 0.000
vt 0.466 0.000
vt 0.466 1.000
vt 0.139 1.000
vt 0.139 0.000
vt 0.195 0.000
vt 0.195 1.000
vt 0.306 0.000
vt 0.361 0.000
vt 0.361 1.000
vt 0.306 1.000
vt -0.425 0.000
vt -0.425 0.400
vt -0.475 0.400
vt -0.475 0.000
vt -0.421 -0.055
vt -0.471 -0.062
vt -0.411 -0.110
vt -0.459 -0.123
vt -0.393 -0.163
vt -0.439 -0.182
vt -0.368 -0.213
vt -0.411 -0.238
vt -0.337 -0.259
vt -0.377 -0.289
vt -0.301 -0.301
vt -0.336 -0.336
vt -0.259 -0.337
vt -0.213 -0.368
vt -0.289 -0.377
vt -0.163 -0.393
vt -0.110 -0.411
vt -0.238 -0.411
vt -0.055 -0.421
vt 0.000 -0.425
vt -0.182 -0.439
vt 0.400 -0.425
vt -0.123 -0.459
vt -0.062 -0.471
vt 0.400 -0.475
vt 0.000 -0.475
vt 0.093 1.000
vt 0.031 1.000
vt 0.031 0.000
vt 0.093 0.000
vt 0.280 1.000
vt 0.280 0.000
vt 0.342 0.000
vt 0.342 1.000
vt 0.425 1.000
vt 0.400 1.000
vt 0.400 0.000
vt 0.425 0.000
vt 0.500 1.000
vt 0.475 1.000
vt 0.475 0.000
vt 0.500 0.000
vt -0.500 1.000
vt -0.500 0.000
vt -0.400 0.000
vt -0.400 1.000
vt -0.500 -0.400
vt -0.500 -0.500
vt -0.400 -0.500
vt -0.400 -0.400
vt 0.400 -0.500
vt 0.500 -0.500
vt 0.500 -0.400
vt 0.400 -0.400
vt -0.500 0.500
vt -0.500 0.400
vt -0.400 0.400
vt -0.400 0.500
vt 0.400 1.000
vt 0.400 0.000
vt 0.500 0.000
vt 0.500 1.000
vt 0.400 0.000
vt 0.500 0.000
vt 0.500 1.000
vt 0.400 1.000
vt 0.400 1.000
vt 0.400 0.000
vt 0.500 0.000
vt 0.500 1.000
vt 0.500 0.400
vt 0.500 0.500
vt 0.400 0.400
vt 0.400 0.500
vt -0.500 0.000
vt -0.400 0.000
vt -0.400 1.000
vt -0.500 1.000
vt -0.500 1.000
vt -0.500 0.000
vt -0.475 0.000
vt -0.475 1.000
vt -0.425 1.000
vt -0.425 0.000
vt -0.400 0.000
vt -0.400 1.000
vt -0.400 1.000
vt -0.500 1.000
vt -0.500 0.000
vt -0.400 0.000

vn 0.924 0.000 0.383
vn 0.966 0.000 0.259
vn 0.966 0.000 0.259
vn 0.924 0.000 0.383
vn -0.131 0.000 -0.991
vn -0.131 0.000 -0.991
vn -0.259 0.000 -0.966
vn -0.259 0.000 -0.966
vn -0.383 0.000 -0.924
vn -0.383 0.000 -0.924
vn -0.500 0.000 -0.866
vn -0.500 0.000 -0.866
vn -0.999 0.000 -0.033
vn -1.000 0.000 0.000
vn -1.000 0.000 0.000
vn -0.999 0.000 -0.033
vn -0.707 0.000 -0.707
vn -0.793 0.000 -0.609
vn -0.793 0.000 -0.609
vn -0.707 0.000 -0.707
vn -0.259 0.000 -0.966
vn -0.259 0.000 -0.966
vn -0.383 0.000 -0.924
vn -0.383 0.000 -0.924
vn 0.707 0.000 0.707
vn 0.707 0.000 0.707
vn 0.609 0.000 0.793
vn 0.609 0.000 0.793
vn 0.000 0.000 -1.000
vn 0.000 0.000 -1.000
vn -0.033 0.000 -0.999
vn -0.033 0.000 -0.999
vn -0.991 0.000 -0.131
vn -0.999 0.000 -0.033
vn -0.999 0.000 -0.033
vn -0.991 0.000 -0.131
vn -0.033 0.000 -0.999
vn -0.033 0.000 -0.999
vn -0.131 0.000 -0.991
vn -0.131 0.000 -0.991
vn 0.131 0.000 0.991
vn 0.131 0.000 0.991
vn 0.033 0.000 0.999
vn 0.033 0.000 0.999
vn 0.000 1.000 0.000
vn 0.000 1.000 0.000
vn 0.000 1.000 0.000
vn 0.000 1.000 0.000
vn 0.000 1.000 0.000
vn 0.000 1.000 0.000
vn 0.000 1.000 0.000
vn 0.000 1.000 0.000
vn 0.000 1.000 0.000
vn 0.000 1.000 0.000
vn 0.000 1.000 0.000
vn 0.000 1.000 0.000
vn 0.000 1.000 0.000
vn 0.000 1.000 0.000
vn 0.000 1.000 0.000
vn 0.000 1.000 0.000
vn 0.000 1.000 0.000
vn 0.000 1.000 0.000
vn 0.000 1.000 0.000
vn 0.000 1.000 0.000
vn 0.000 1.000 0.000
vn 0.000 1.000 0.000
vn 0.000 1.000 0.000
vn 0.000 1.000 0.000
vn 0.000 1.000 0.000
vn 0.000 1.000 0.000
vn 0.000 1.000 0.000
vn 0.000 1.000 0.000
vn 0.000 1.000 0.000
vn 0.000 1.000 0.000
vn -0.609 0.000 -0.793
vn -0.609 0.000 -0.793
vn -0.707 0.000 -0.707
vn -0.707 0.000 -0.707
vn 0.991 0.000 0.131
vn 0.999 0.000 0.033
vn 0.999 0.000 0.033
vn 0.991 0.000 0.131
vn -0.924 0.000 -0.383
vn -0.966 0.000 -0.259
vn -0.966 0.000 -0.259
vn -0.924 0.000 -0.383
vn -0.966 0.000 -0.259
vn -0.991 0.000 -0.131
vn -0.991 0.000 -0.131
vn -0.966 0.000 -0.259
vn 0.966 0.000 0.259
vn 0.991 0.000 0.131
vn 0.991 0.000 0.131
vn 0.966 0.000 0.259
vn 0.033 0.000 0.999
vn 0.033 0.000 0.999
vn 0.000 0.000 1.000
vn 0.000 0.000 1.000
vn 0.259 0.000 0.966
vn 0.259 0.000 0.966
vn 0.131 0.000 0.991
vn 0.131 0.000 0.991
vn 0.793 0.000 0.609
vn 0.866 0.000 0.500
vn 0.866 0.000 0.500
vn 0.793 0.000 0.609
vn 0.999 0.000 0.033
vn 1.000 0.000 0.000
vn 1.000 0.000 0.000
vn 0.999 0.000 0.033
vn -0.866 0.000 -0.500
vn -0.924 0.000 -0.383
vn -0.924 0.000 -0.383
vn -0.866 0.000 -0.500
vn 0.500 0.000 0.866
vn 0.500 0.000 0.866
vn 0.383 0.000 0.924
vn 0.383 0.000 0.924
vn 0.707 0.000 0.707
vn 0.793 0.000 0.609
vn 0.793 0.000 0.609
vn 0.707 0.000 0.707
vn 0.383 0.000 0.924
vn 0.383 0.000 0.924
vn 0.259 0.000 0.966
vn 0.259 0.000 0.966
vn -0.500 0.000 -0.866
vn -0.500 0.000 -0.866
vn -0.609 0.000 -0.793
vn -0.609 0.000 -0.793
vn -0.793 0.000 -0.609
vn -0.866 0.000 -0.500
vn -0.866 0.000 -0.500
vn -0.793 0.000 -0.609
vn 0.000 -1.000 0.000
vn 0.000 -1.000 0.000
vn 0.000 -1.000 0.000
vn 0.000 -1.000 0.000
vn 0.000 -1.000 0.000
vn 0.000 -1.000 0.000
vn 0.000 -1.000 0.000
vn 0.000 -1.000 0.000
vn 0.000 -1.000 0.000
vn 0.000 -1.000 0.000
vn 0.000 -1.000 0.000
vn 0.000 -1.000 0.000
vn 0.000 -1.000 0.000
vn 0.000 -1.000 0.000
vn 0.000 -1.000 0.000
vn 0.000 -1.000 0.000
vn 0.000 -1.000 0.000
vn 0.000 -1.000 0.000
vn 0.000 -1.000 0.000
vn 0.000 -1.000 0.000
vn 0.000 -1.000 0.000
vn 0.000 -1.000 0.000
vn 0.000 -1.000 0.000
vn 0.000 -1.000 0.000
vn 0.000 -1.000 0.000
vn 0.000 -1.000 0.000
vn 0.000 -1.000 0.000
vn 0.000 -1.000 0.000
vn 0.000 -1.000 0.000
vn 0.000 -1.000 0.000
vn 0.866 0.000 0.500
vn 0.924 0.000 0.383
vn 0.924 0.000 0.383
vn 0.866 0.000 0.500
vn 0.609 0.000 0.793
vn 0.609 0.000 0.793
vn 0.500 0.000 0.866
vn 0.500 0.000 0.866
vn 1.000 0.000 0.000
vn 1.000 0.000 0.000
vn 1.000 0.000 0.000
vn 1.000 0.000 0.000
vn 1.000 0.000 0.000
vn 1.000 0.000 0.000
vn 1.000 0.000 0.000
vn 1.000 0.000 0.000
vn 0.000 0.000 -1.000
vn 0.000 0.000 -1.000
vn 0.000 0.000 -1.000
vn 0.000 0.000 -1.000
vn 0.000 1.000 0.000
vn 0.000 1.000 0.000
vn 0.000 1.000 0.000
vn 0.000 1.000 0.000
vn 0.000 -1.000 0.000
vn 0.000 -1.000 0.000
vn 0.000 -1.000 0.000
vn 0.000 -1.000 0.000
vn 0.000 -1.000 0.000
vn 0.000 -1.000 0.000
vn 0.000 -1.000 0.000
vn 0.000 -1.000 0.000
vn 0.000 0.000 1.000
vn 0.000 0.000 1.000
vn 0.000 0.000 1.000
vn 0.000 0.000 1.000
vn -1.000 0.000 0.000
vn -1.000 0.000 0.000
vn -1.000 0.000 0.000
vn -1.000 0.000 0.000
vn 0.000 0.000 -1.000
vn 0.000 0.000 -1.000
vn 0.000 0.000 -1.000
vn 0.000 0.000 -1.000
vn 0.000 1.000 0.000
vn 0.000 1.000 0.000
vn 0.000 1.000 0.000
vn 0.000 1.000 0.000
vn -1.000 0.000 0.000
vn -1.000 0.000 0.000
vn -1.000 0.000 0.000
vn -1.000 0.000 0.000
vn 0.000 0.000 1.000
vn 0.000 0.000 1.000
vn 0.000 0.000 1.000
vn 0.000 0.000 1.000
vn 0.000 0.000 1.000
vn 0.000 0.000 1.000
vn 0.000 0.000 1.000
vn 0.000 0.000 1.000
vn 1.000 0.000 0.000
vn 1.000 0.000 0.000
vn 1.000 0.000 0.000
vn 1.000 0.000 0.000


usemtl woodDark

f 1/1/1 3/3/3 2/2/2
f 3/3/3 1/1/1 4/4/4
f 5/5/5 7/7/7 6/6/6
f 7/7/7 5/5/5 8/8/8
f 9/9/9 11/11/11 10/10/10
f 11/11/11 9/9/9 12/12/12
f 13/13/13 15/15/15 14/14/14
f 15/15/15 13/13/13 16/16/16
f 17/17/17 19/19/19 18/18/18
f 19/19/19 17/17/17 20/20/20
f 21/21/21 23/23/23 22/22/22
f 23/23/23 21/21/21 24/24/24
f 25/25/25 27/27/27 26/26/26
f 27/27/27 25/25/25 28/28/28
f 29/29/29 31/31/31 30/30/30
f 31/31/31 29/29/29 32/32/32
f 33/33/33 35/35/35 34/34/34
f 35/35/35 33/33/33 36/36/36
f 37/37/37 39/39/39 38/38/38
f 39/39/39 37/37/37 40/40/40
f 41/41/41 43/43/43 42/42/42
f 43/43/43 41/41/41 44/44/44
f 45/45/45 47/47/47 46/46/46
f 47/47/47 45/45/45 48/48/48
f 48/48/48 45/45/45 49/49/49
f 49/49/49 45/45/45 50/50/50
f 50/50/50 45/45/45 51/51/51
f 50/50/50 51/51/51 52/52/52
f 52/52/52 51/51/51 53/53/53
f 52/52/52 53/53/53 54/54/54
f 52/52/52 54/54/54 55/55/55
f 55/55/55 54/54/54 56/56/56
f 55/55/55 56/56/56 57/57/57
f 55/55/55 57/57/57 58/58/58
f 58/58/58 57/57/57 59/59/59
f 58/58/58 59/59/59 60/60/60
f 58/58/58 60/60/60 61/61/61
f 61/61/61 60/60/60 62/62/62
f 61/61/61 62/62/62 63/63/63
f 63/63/63 62/62/62 64/64/64
f 63/63/63 64/64/64 65/65/65
f 65/65/65 64/64/64 66/66/66
f 65/65/65 66/66/66 67/67/67
f 67/67/67 66/66/66 68/68/68
f 67/67/67 68/68/68 69/69/69
f 69/69/69 68/68/68 70/70/70
f 69/69/69 70/70/70 71/71/71
f 71/71/71 70/70/70 72/72/72
f 71/71/71 72/72/72 73/73/73
f 73/73/73 72/72/72 74/74/74
f 75/75/75 77/77/77 76/76/76
f 77/77/77 75/75/75 78/78/78
f 79/79/79 81/81/81 80/80/80
f 81/81/81 79/79/79 82/82/82
f 83/83/83 85/85/85 84/84/84
f 85/85/85 83/83/83 86/86/86
f 87/87/87 89/89/89 88/88/88
f 89/89/89 87/87/87 90/90/90
f 91/91/91 93/93/93 92/92/92
f 93/93/93 91/91/91 94/94/94
f 95/95/95 97/97/97 96/96/96
f 97/97/97 95/95/95 98/98/98
f 99/99/99 101/101/101 100/100/100
f 101/101/101 99/99/99 102/102/102
f 103/103/103 105/105/105 104/104/104
f 105/105/105 103/103/103 106/106/106
f 107/107/107 109/109/109 108/108/108
f 109/109/109 107/107/107 110/110/110
f 111/111/111 113/113/113 112/112/112
f 113/113/113 111/111/111 114/114/114
f 115/115/115 117/117/117 116/116/116
f 117/117/117 115/115/115 118/118/118
f 119/119/119 121/121/121 120/120/120
f 121/121/121 119/119/119 122/122/122
f 123/123/123 125/125/125 124/124/124
f 125/125/125 123/123/123 126/126/126
f 127/127/127 129/129/129 128/128/128
f 129/129/129 127/127/127 130/130/130
f 131/131/131 133/133/133 132/132/132
f 133/133/133 131/131/131 134/134/134
f 135/135/135 137/137/137 136/136/136
f 135/135/135 138/138/138 137/137/137
f 139/139/139 138/138/138 135/135/135
f 139/139/139 140/140/140 138/138/138
f 141/141/141 140/140/140 139/139/139
f 141/141/141 142/142/142 140/140/140
f 143/143/143 142/142/142 141/141/141
f 143/143/143 144/144/144 142/142/142
f 145/145/145 144/144/144 143/143/143
f 145/145/145 146/146/146 144/144/144
f 147/147/147 146/146/146 145/145/145
f 147/147/147 148/148/148 146/146/146
f 149/149/149 148/148/148 147/147/147
f 149/149/149 150/150/150 148/148/148
f 151/151/151 150/150/150 149/149/149
f 152/152/152 150/150/150 151/151/151
f 152/152/152 153/153/153 150/150/150
f 154/154/154 153/153/153 152/152/152
f 155/155/155 153/153/153 154/154/154
f 155/155/155 156/156/156 153/153/153
f 157/157/157 156/156/156 155/155/155
f 158/158/158 156/156/156 157/157/157
f 156/156/156 158/158/158 159/159/159
f 160/160/160 159/159/159 158/158/158
f 160/160/160 161/161/161 159/159/159
f 160/160/160 162/162/162 161/161/161
f 163/163/163 162/162/162 160/160/160
f 162/162/162 163/163/163 164/164/164
f 165/165/165 167/167/167 166/166/166
f 167/167/167 165/165/165 168/168/168
f 169/169/169 171/171/171 170/170/170
f 171/171/171 169/169/169 172/172/172

usemtl wood

f 173/173/173 175/175/175 174/174/174
f 175/175/175 173/173/173 176/176/176
f 177/177/177 179/179/179 178/178/178
f 179/179/179 177/177/177 180/180/180
f 181/181/181 183/183/183 182/182/182
f 183/183/183 181/181/181 184/184/184
f 185/185/185 187/187/187 186/186/186
f 187/187/187 185/185/185 46/46/46
f 46/46/46 185/185/185 45/45/45
f 45/45/45 185/185/185 188/188/188
f 163/163/163 190/190/190 189/189/189
f 190/190/190 163/163/163 191/191/191
f 191/191/191 163/163/163 160/160/160
f 191/191/191 160/160/160 192/192/192
f 193/193/193 137/137/137 194/194/194
f 137/137/137 193/193/193 136/136/136
f 136/136/136 193/193/193 195/195/195
f 195/195/195 193/193/193 196/196/196
f 197/197/197 199/199/199 198/198/198
f 199/199/199 197/197/197 200/200/200
f 201/201/201 203/203/203 202/202/202
f 203/203/203 201/201/201 204/204/204
f 205/205/205 207/207/207 206/206/206
f 207/207/207 205/205/205 208/208/208
f 73/73/73 210/210/210 209/209/209
f 210/210/210 73/73/73 74/74/74
f 210/210/210 74/74/74 211/211/211
f 210/210/210 211/211/211 212/212/212
f 213/213/213 215/215/215 214/214/214
f 215/215/215 213/213/213 216/216/216
f 217/217/217 219/219/219 218/218/218
f 219/219/219 217/217/217 220/220/220
f 221/221/221 223/223/223 222/222/222
f 223/223/223 221/221/221 224/224/224
f 225/225/225 227/227/227 226/226/226
f 227/227/227 225/225/225 228/228/228
