# Created by Kenney (www.kenney.nl) - UVs and materials modified

mtllib fantasytown.mtl


g wallWoodDetailHorizontal

v 0.425 0.425 -0.400
v 0.425 0.150 -0.400
v 0.413 0.150 -0.400
v 0.413 0.425 -0.400
v 0.400 1.000 -0.400
v 0.413 0.575 -0.400
v 0.400 0.000 -0.400
v 0.413 0.000 -0.400
v 0.425 1.000 -0.400
v 0.425 0.575 -0.400
v 0.400 1.000 0.400
v 0.400 0.000 0.400
v 0.413 0.000 0.400
v 0.413 0.150 0.400
v 0.413 0.425 0.400
v 0.425 0.150 0.400
v 0.425 0.425 0.400
v 0.413 0.575 0.400
v 0.425 0.575 0.400
v 0.425 1.000 0.400
v 0.400 1.000 -0.500
v 0.500 1.000 -0.500
v 0.500 1.000 -0.400
v 0.475 1.000 -0.400
v 0.425 1.000 -0.400
v 0.400 1.000 -0.400
v 0.488 0.575 0.400
v 0.488 0.575 -0.400
v 0.488 0.425 -0.400
v 0.488 0.425 0.400
v 0.475 0.425 0.400
v 0.475 0.150 0.400
v 0.488 0.150 0.400
v 0.488 0.425 0.400
v 0.500 1.000 0.400
v 0.488 0.575 0.400
v 0.500 0.000 0.400
v 0.488 0.000 0.400
v 0.475 1.000 0.400
v 0.475 0.575 0.400
v 0.475 0.150 -0.400
v 0.488 0.150 -0.400
v 0.488 0.150 0.400
v 0.475 0.150 0.400
v 0.413 0.000 0.400
v 0.413 0.000 -0.400
v 0.413 0.150 -0.400
v 0.413 0.150 0.400
v 0.475 0.575 -0.400
v 0.488 0.575 -0.400
v 0.488 0.575 0.400
v 0.475 0.575 0.400
v 0.475 1.000 0.400
v 0.500 1.000 0.400
v 0.500 1.000 0.500
v 0.400 1.000 0.500
v 0.425 1.000 0.400
v 0.400 1.000 0.400
v 0.400 0.000 0.500
v 0.400 0.000 0.400
v 0.400 1.000 0.400
v 0.400 1.000 0.500
v 0.500 1.000 -0.400
v 0.500 1.000 -0.500
v 0.500 0.000 -0.500
v 0.500 0.000 -0.400
v 0.500 1.000 0.500
v 0.500 0.000 0.500
v 0.400 0.000 0.500
v 0.400 1.000 0.500
v 0.488 0.150 0.400
v 0.488 0.150 -0.400
v 0.488 0.000 -0.400
v 0.488 0.000 0.400
v 0.500 1.000 -0.400
v 0.500 0.000 -0.400
v 0.488 0.000 -0.400
v 0.488 0.150 -0.400
v 0.488 0.425 -0.400
v 0.475 0.150 -0.400
v 0.475 0.425 -0.400
v 0.488 0.575 -0.400
v 0.475 0.575 -0.400
v 0.475 1.000 -0.400
v 0.413 0.150 -0.400
v 0.425 0.150 -0.400
v 0.425 0.150 0.400
v 0.413 0.150 0.400
v 0.400 0.000 -0.400
v 0.400 0.000 -0.500
v 0.400 1.000 -0.500
v 0.400 1.000 -0.400
v 0.475 0.425 0.400
v 0.488 0.425 0.400
v 0.488 0.425 -0.400
v 0.475 0.425 -0.400
v 0.500 1.000 0.500
v 0.500 1.000 0.400
v 0.500 0.000 0.400
v 0.500 0.000 0.500
v 0.400 0.000 0.500
v 0.500 0.000 0.500
v 0.500 0.000 0.400
v 0.488 0.000 0.400
v 0.413 0.000 0.400
v 0.400 0.000 0.400
v 0.488 0.000 -0.400
v 0.413 0.000 -0.400
v 0.400 0.000 -0.500
v 0.400 0.000 -0.400
v 0.500 0.000 -0.500
v 0.500 0.000 -0.400
v 0.413 0.575 -0.400
v 0.425 0.575 -0.400
v 0.425 0.575 0.400
v 0.413 0.575 0.400
v 0.413 0.425 0.400
v 0.425 0.425 0.400
v 0.425 0.425 -0.400
v 0.413 0.425 -0.400
v 0.413 0.425 0.400
v 0.413 0.425 -0.400
v 0.413 0.575 -0.400
v 0.413 0.575 0.400
v 0.400 1.000 -0.500
v 0.400 0.000 -0.500
v 0.500 0.000 -0.500
v 0.500 1.000 -0.500
v 0.475 1.000 0.400
v 0.475 1.000 -0.400
v 0.475 0.575 -0.400
v 0.475 0.575 0.400
v 0.475 0.425 0.400
v 0.475 0.425 -0.400
v 0.475 0.150 -0.400
v 0.475 0.150 0.400
v 0.425 0.575 0.400
v 0.425 0.575 -0.400
v 0.425 1.000 -0.400
v 0.425 1.000 0.400
v 0.425 0.150 0.400
v 0.425 0.150 -0.400
v 0.425 0.425 -0.400
v 0.425 0.425 0.400

vt -0.425 0.425
vt -0.425 0.150
vt -0.413 0.150
vt -0.413 0.425
vt -0.400 1.000
vt -0.413 0.575
vt -0.400 0.000
vt -0.413 0.000
vt -0.425 1.000
vt -0.425 0.575
vt 0.400 1.000
vt 0.400 0.000
vt 0.413 0.000
vt 0.413 0.150
vt 0.413 0.425
vt 0.425 0.150
vt 0.425 0.425
vt 0.413 0.575
vt 0.425 0.575
vt 0.425 1.000
vt -0.500 -0.400
vt -0.500 -0.500
vt -0.400 -0.500
vt -0.400 -0.475
vt -0.400 -0.425
vt -0.400 -0.400
vt 0.400 0.575
vt -0.400 0.575
vt -0.400 0.425
vt 0.400 0.425
vt 0.475 0.425
vt 0.475 0.150
vt 0.488 0.150
vt 0.488 0.425
vt 0.500 1.000
vt 0.488 0.575
vt 0.500 0.000
vt 0.488 0.000
vt 0.475 1.000
vt 0.475 0.575
vt -0.400 -0.475
vt -0.400 -0.488
vt 0.400 -0.488
vt 0.400 -0.475
vt -0.400 0.000
vt 0.400 0.000
vt 0.400 0.150
vt -0.400 0.150
vt -0.400 -0.475
vt -0.400 -0.488
vt 0.400 -0.488
vt 0.400 -0.475
vt 0.400 -0.475
vt 0.400 -0.500
vt 0.500 -0.500
vt 0.500 -0.400
vt 0.400 -0.425
vt 0.400 -0.400
vt -0.500 0.000
vt -0.400 0.000
vt -0.400 1.000
vt -0.500 1.000
vt -0.400 1.000
vt -0.500 1.000
vt -0.500 0.000
vt -0.400 0.000
vt -0.500 1.000
vt -0.500 0.000
vt -0.400 0.000
vt -0.400 1.000
vt 0.400 0.150
vt -0.400 0.150
vt -0.400 0.000
vt 0.400 0.000
vt -0.500 1.000
vt -0.500 0.000
vt -0.488 0.000
vt -0.488 0.150
vt -0.488 0.425
vt -0.475 0.150
vt -0.475 0.425
vt -0.488 0.575
vt -0.475 0.575
vt -0.475 1.000
vt -0.400 -0.413
vt -0.400 -0.425
vt 0.400 -0.425
vt 0.400 -0.413
vt 0.400 0.000
vt 0.500 0.000
vt 0.500 1.000
vt 0.400 1.000
vt -0.400 -0.475
vt -0.400 -0.488
vt 0.400 -0.488
vt 0.400 -0.475
vt 0.500 1.000
vt 0.400 1.000
vt 0.400 0.000
vt 0.500 0.000
vt -0.500 -0.400
vt -0.500 -0.500
vt -0.400 -0.500
vt -0.400 -0.488
vt -0.400 -0.413
vt -0.400 -0.400
vt 0.400 -0.488
vt 0.400 -0.413
vt 0.500 -0.400
vt 0.400 -0.400
vt 0.500 -0.500
vt 0.400 -0.500
vt -0.400 -0.413
vt -0.400 -0.425
vt 0.400 -0.425
vt 0.400 -0.413
vt -0.400 -0.413
vt -0.400 -0.425
vt 0.400 -0.425
vt 0.400 -0.413
vt -0.400 0.425
vt 0.400 0.425
vt 0.400 0.575
vt -0.400 0.575
vt 0.400 1.000
vt 0.400 0.000
vt 0.500 0.000
vt 0.500 1.000
vt 0.400 1.000
vt -0.400 1.000
vt -0.400 0.575
vt 0.400 0.575
vt 0.400 0.425
vt -0.400 0.425
vt -0.400 0.150
vt 0.400 0.150
vt -0.400 0.575
vt 0.400 0.575
vt 0.400 1.000
vt -0.400 1.000
vt -0.400 0.150
vt 0.400 0.150
vt 0.400 0.425
vt -0.400 0.425

vn 0.000 0.000 1.000
vn 0.000 0.000 1.000
vn 0.000 0.000 1.000
vn 0.000 0.000 1.000
vn 0.000 0.000 1.000
vn 0.000 0.000 1.000
vn 0.000 0.000 1.000
vn 0.000 0.000 1.000
vn 0.000 0.000 1.000
vn 0.000 0.000 1.000
vn 0.000 0.000 -1.000
vn 0.000 0.000 -1.000
vn 0.000 0.000 -1.000
vn 0.000 0.000 -1.000
vn 0.000 0.000 -1.000
vn 0.000 0.000 -1.000
vn 0.000 0.000 -1.000
vn 0.000 0.000 -1.000
vn 0.000 0.000 -1.000
vn 0.000 0.000 -1.000
vn 0.000 1.000 0.000
vn 0.000 1.000 0.000
vn 0.000 1.000 0.000
vn 0.000 1.000 0.000
vn 0.000 1.000 0.000
vn 0.000 1.000 0.000
vn 1.000 0.000 0.000
vn 1.000 0.000 0.000
vn 1.000 0.000 0.000
vn 1.000 0.000 0.000
vn 0.000 0.000 -1.000
vn 0.000 0.000 -1.000
vn 0.000 0.000 -1.000
vn 0.000 0.000 -1.000
vn 0.000 0.000 -1.000
vn 0.000 0.000 -1.000
vn 0.000 0.000 -1.000
vn 0.000 0.000 -1.000
vn 0.000 0.000 -1.000
vn 0.000 0.000 -1.000
vn 0.000 1.000 0.000
vn 0.000 1.000 0.000
vn 0.000 1.000 0.000
vn 0.000 1.000 0.000
vn -1.000 0.000 0.000
vn -1.000 0.000 0.000
vn -1.000 0.000 0.000
vn -1.000 0.000 0.000
vn 0.000 1.000 0.000
vn 0.000 1.000 0.000
vn 0.000 1.000 0.000
vn 0.000 1.000 0.000
vn 0.000 1.000 0.000
vn 0.000 1.000 0.000
vn 0.000 1.000 0.000
vn 0.000 1.000 0.000
vn 0.000 1.000 0.000
vn 0.000 1.000 0.000
vn -1.000 0.000 0.000
vn -1.000 0.000 0.000
vn -1.000 0.000 0.000
vn -1.000 0.000 0.000
vn 1.000 0.000 0.000
vn 1.000 0.000 0.000
vn 1.000 0.000 0.000
vn 1.000 0.000 0.000
vn 0.000 0.000 1.000
vn 0.000 0.000 1.000
vn 0.000 0.000 1.000
vn 0.000 0.000 1.000
vn 1.000 0.000 0.000
vn 1.000 0.000 0.000
vn 1.000 0.000 0.000
vn 1.000 0.000 0.000
vn 0.000 0.000 1.000
vn 0.000 0.000 1.000
vn 0.000 0.000 1.000
vn 0.000 0.000 1.000
vn 0.000 0.000 1.000
vn 0.000 0.000 1.000
vn 0.000 0.000 1.000
vn 0.000 0.000 1.000
vn 0.000 0.000 1.000
vn 0.000 0.000 1.000
vn 0.000 1.000 0.000
vn 0.000 1.000 0.000
vn 0.000 1.000 0.000
vn 0.000 1.000 0.000
vn -1.000 0.000 0.000
vn -1.000 0.000 0.000
vn -1.000 0.000 0.000
vn -1.000 0.000 0.000
vn 0.000 -1.000 0.000
vn 0.000 -1.000 0.000
vn 0.000 -1.000 0.000
vn 0.000 -1.000 0.000
vn 1.000 0.000 0.000
vn 1.000 0.000 0.000
vn 1.000 0.000 0.000
vn 1.000 0.000 0.000
vn 0.000 -1.000 0.000
vn 0.000 -1.000 0.000
vn 0.000 -1.000 0.000
vn 0.000 -1.000 0.000
vn 0.000 -1.000 0.000
vn 0.000 -1.000 0.000
vn 0.000 -1.000 0.000
vn 0.000 -1.000 0.000
vn 0.000 -1.000 0.000
vn 0.000 -1.000 0.000
vn 0.000 -1.000 0.000
vn 0.000 -1.000 0.000
vn 0.000 1.000 0.000
vn 0.000 1.000 0.000
vn 0.000 1.000 0.000
vn 0.000 1.000 0.000
vn 0.000 -1.000 0.000
vn 0.000 -1.000 0.000
vn 0.000 -1.000 0.000
vn 0.000 -1.000 0.000
vn -1.000 0.000 0.000
vn -1.000 0.000 0.000
vn -1.000 0.000 0.000
vn -1.000 0.000 0.000
vn 0.000 0.000 -1.000
vn 0.000 0.000 -1.000
vn 0.000 0.000 -1.000
vn 0.000 0.000 -1.000
vn 1.000 0.000 0.000
vn 1.000 0.000 0.000
vn 1.000 0.000 0.000
vn 1.000 0.000 0.000
vn 1.000 0.000 0.000
vn 1.000 0.000 0.000
vn 1.000 0.000 0.000
vn 1.000 0.000 0.000
vn -1.000 0.000 0.000
vn -1.000 0.000 0.000
vn -1.000 0.000 0.000
vn -1.000 0.000 0.000
vn -1.000 0.000 0.000
vn -1.000 0.000 0.000
vn -1.000 0.000 0.000
vn -1.000 0.000 0.000


usemtl wood

f 1/1/1 3/3/3 2/2/2
f 4/4/4 3/3/3 1/1/1
f 5/5/5 3/3/3 4/4/4
f 5/5/5 4/4/4 6/6/6
f 7/7/7 3/3/3 5/5/5
f 3/3/3 7/7/7 8/8/8
f 5/5/5 6/6/6 9/9/9
f 9/9/9 6/6/6 10/10/10
f 11/11/11 13/13/13 12/12/12
f 13/13/13 11/11/11 14/14/14
f 14/14/14 11/11/11 15/15/15
f 14/14/14 15/15/15 16/16/16
f 17/17/17 16/16/16 15/15/15
f 15/15/15 11/11/11 18/18/18
f 18/18/18 11/11/11 19/19/19
f 19/19/19 11/11/11 20/20/20
f 21/21/21 23/23/23 22/22/22
f 23/23/23 21/21/21 24/24/24
f 24/24/24 21/21/21 25/25/25
f 25/25/25 21/21/21 26/26/26
f 27/27/27 29/29/29 28/28/28
f 29/29/29 27/27/27 30/30/30
f 31/31/31 33/33/33 32/32/32
f 34/34/34 33/33/33 31/31/31
f 35/35/35 33/33/33 34/34/34
f 35/35/35 34/34/34 36/36/36
f 37/37/37 33/33/33 35/35/35
f 33/33/33 37/37/37 38/38/38
f 35/35/35 36/36/36 39/39/39
f 39/39/39 36/36/36 40/40/40
f 41/41/41 43/43/43 42/42/42
f 43/43/43 41/41/41 44/44/44
f 45/45/45 47/47/47 46/46/46
f 47/47/47 45/45/45 48/48/48
f 49/49/49 51/51/51 50/50/50
f 51/51/51 49/49/49 52/52/52
f 53/53/53 55/55/55 54/54/54
f 55/55/55 53/53/53 56/56/56
f 56/56/56 53/53/53 57/57/57
f 56/56/56 57/57/57 58/58/58
f 59/59/59 61/61/61 60/60/60
f 61/61/61 59/59/59 62/62/62
f 63/63/63 65/65/65 64/64/64
f 65/65/65 63/63/63 66/66/66
f 67/67/67 69/69/69 68/68/68
f 69/69/69 67/67/67 70/70/70
f 71/71/71 73/73/73 72/72/72
f 73/73/73 71/71/71 74/74/74
f 75/75/75 77/77/77 76/76/76
f 77/77/77 75/75/75 78/78/78
f 78/78/78 75/75/75 79/79/79
f 78/78/78 79/79/79 80/80/80
f 81/81/81 80/80/80 79/79/79
f 79/79/79 75/75/75 82/82/82
f 82/82/82 75/75/75 83/83/83
f 83/83/83 75/75/75 84/84/84
f 85/85/85 87/87/87 86/86/86
f 87/87/87 85/85/85 88/88/88
f 89/89/89 91/91/91 90/90/90
f 91/91/91 89/89/89 92/92/92
f 93/93/93 95/95/95 94/94/94
f 95/95/95 93/93/93 96/96/96
f 97/97/97 99/99/99 98/98/98
f 99/99/99 97/97/97 100/100/100
f 101/101/101 103/103/103 102/102/102
f 103/103/103 101/101/101 104/104/104
f 104/104/104 101/101/101 105/105/105
f 105/105/105 101/101/101 106/106/106
f 104/104/104 105/105/105 107/107/107
f 108/108/108 107/107/107 105/105/105
f 109/109/109 107/107/107 108/108/108
f 109/109/109 108/108/108 110/110/110
f 111/111/111 107/107/107 109/109/109
f 107/107/107 111/111/111 112/112/112
f 113/113/113 115/115/115 114/114/114
f 115/115/115 113/113/113 116/116/116
f 117/117/117 119/119/119 118/118/118
f 119/119/119 117/117/117 120/120/120
f 121/121/121 123/123/123 122/122/122
f 123/123/123 121/121/121 124/124/124
f 125/125/125 127/127/127 126/126/126
f 127/127/127 125/125/125 128/128/128

usemtl woodDark

f 25/25/25 53/53/53 24/24/24
f 53/53/53 25/25/25 57/57/57
f 129/129/129 131/131/131 130/130/130
f 131/131/131 129/129/129 132/132/132
f 133/133/133 135/135/135 134/134/134
f 135/135/135 133/133/133 136/136/136
f 137/137/137 139/139/139 138/138/138
f 139/139/139 137/137/137 140/140/140
f 141/141/141 143/143/143 142/142/142
f 143/143/143 141/141/141 144/144/144
