# Created by Kenney (www.kenney.nl) - UVs and materials modified

mtllib fantasytown.mtl


g wallSlope

v 0.425 0.000 0.400
v 0.425 0.000 -0.400
v 0.425 0.500 -0.400
v 0.425 1.000 0.400
v 0.475 1.000 0.400
v 0.475 0.500 -0.400
v 0.475 0.000 -0.400
v 0.475 0.000 0.400
v 0.425 0.000 0.400
v 0.475 0.000 0.400
v 0.475 0.000 -0.400
v 0.425 0.000 -0.400
v 0.425 0.500 -0.400
v 0.475 0.500 -0.400
v 0.475 1.000 0.400
v 0.425 1.000 0.400
v 0.400 0.500 -0.500
v 0.400 0.000 -0.500
v 0.500 0.000 -0.500
v 0.500 0.500 -0.500
v 0.500 0.500 -0.400
v 0.500 0.500 -0.500
v 0.500 0.000 -0.500
v 0.500 0.000 -0.400
v 0.475 1.000 0.400
v 0.475 0.000 0.400
v 0.500 0.000 0.400
v 0.500 1.000 0.400
v 0.425 0.500 -0.400
v 0.425 0.000 -0.400
v 0.400 0.000 -0.400
v 0.400 0.500 -0.400
v 0.500 0.000 -0.400
v 0.500 0.000 -0.500
v 0.400 0.000 -0.500
v 0.400 0.000 -0.400
v 0.400 0.000 0.500
v 0.400 0.000 0.400
v 0.400 1.000 0.400
v 0.400 1.000 0.500
v 0.500 1.000 0.500
v 0.500 1.000 0.400
v 0.500 0.000 0.400
v 0.500 0.000 0.500
v 0.475 1.000 0.400
v 0.500 1.000 0.400
v 0.500 1.000 0.500
v 0.400 1.000 0.500
v 0.425 1.000 0.400
v 0.400 1.000 0.400
v 0.400 1.000 0.400
v 0.400 0.000 0.400
v 0.425 0.000 0.400
v 0.425 1.000 0.400
v 0.400 0.500 -0.500
v 0.500 0.500 -0.500
v 0.500 0.500 -0.400
v 0.475 0.500 -0.400
v 0.425 0.500 -0.400
v 0.400 0.500 -0.400
v 0.400 0.000 -0.400
v 0.400 0.000 -0.500
v 0.400 0.500 -0.500
v 0.400 0.500 -0.400
v 0.500 0.500 -0.400
v 0.500 0.000 -0.400
v 0.475 0.000 -0.400
v 0.475 0.500 -0.400
v 0.500 1.000 0.500
v 0.500 0.000 0.500
v 0.400 0.000 0.500
v 0.400 1.000 0.500
v 0.400 0.000 0.500
v 0.500 0.000 0.500
v 0.500 0.000 0.400
v 0.400 0.000 0.400

vt -0.400 0.000
vt 0.400 0.000
vt 0.400 0.500
vt -0.400 1.000
vt 0.400 1.000
vt -0.400 0.500
vt -0.400 0.000
vt 0.400 0.000
vt -0.400 -0.425
vt -0.400 -0.475
vt 0.400 -0.475
vt 0.400 -0.425
vt 0.425 -0.074
vt 0.475 -0.074
vt 0.475 0.869
vt 0.425 0.869
vt 0.400 0.500
vt 0.400 0.000
vt 0.500 0.000
vt 0.500 0.500
vt -0.400 0.500
vt -0.500 0.500
vt -0.500 0.000
vt -0.400 0.000
vt 0.475 1.000
vt 0.475 0.000
vt 0.500 0.000
vt 0.500 1.000
vt -0.425 0.500
vt -0.425 0.000
vt -0.400 0.000
vt -0.400 0.500
vt 0.400 -0.500
vt 0.500 -0.500
vt 0.500 -0.400
vt 0.400 -0.400
vt -0.500 0.000
vt -0.400 0.000
vt -0.400 1.000
vt -0.500 1.000
vt 0.500 1.000
vt 0.400 1.000
vt 0.400 0.000
vt 0.500 0.000
vt 0.400 -0.475
vt 0.400 -0.500
vt 0.500 -0.500
vt 0.500 -0.400
vt 0.400 -0.425
vt 0.400 -0.400
vt 0.400 1.000
vt 0.400 0.000
vt 0.425 0.000
vt 0.425 1.000
vt -0.500 -0.400
vt -0.500 -0.500
vt -0.400 -0.500
vt -0.400 -0.475
vt -0.400 -0.425
vt -0.400 -0.400
vt 0.400 0.000
vt 0.500 0.000
vt 0.500 0.500
vt 0.400 0.500
vt -0.500 0.500
vt -0.500 0.000
vt -0.475 0.000
vt -0.475 0.500
vt -0.500 1.000
vt -0.500 0.000
vt -0.400 0.000
vt -0.400 1.000
vt -0.500 -0.400
vt -0.500 -0.500
vt -0.400 -0.500
vt -0.400 -0.400

vn -1.000 0.000 0.000
vn -1.000 0.000 0.000
vn -1.000 0.000 0.000
vn -1.000 0.000 0.000
vn 1.000 0.000 0.000
vn 1.000 0.000 0.000
vn 1.000 0.000 0.000
vn 1.000 0.000 0.000
vn 0.000 -1.000 0.000
vn 0.000 -1.000 0.000
vn 0.000 -1.000 0.000
vn 0.000 -1.000 0.000
vn 0.000 0.848 -0.530
vn 0.000 0.848 -0.530
vn 0.000 0.848 -0.530
vn 0.000 0.848 -0.530
vn 0.000 0.000 -1.000
vn 0.000 0.000 -1.000
vn 0.000 0.000 -1.000
vn 0.000 0.000 -1.000
vn 1.000 0.000 0.000
vn 1.000 0.000 0.000
vn 1.000 0.000 0.000
vn 1.000 0.000 0.000
vn 0.000 0.000 -1.000
vn 0.000 0.000 -1.000
vn 0.000 0.000 -1.000
vn 0.000 0.000 -1.000
vn 0.000 0.000 1.000
vn 0.000 0.000 1.000
vn 0.000 0.000 1.000
vn 0.000 0.000 1.000
vn 0.000 -1.000 0.000
vn 0.000 -1.000 0.000
vn 0.000 -1.000 0.000
vn 0.000 -1.000 0.000
vn -1.000 0.000 0.000
vn -1.000 0.000 0.000
vn -1.000 0.000 0.000
vn -1.000 0.000 0.000
vn 1.000 0.000 0.000
vn 1.000 0.000 0.000
vn 1.000 0.000 0.000
vn 1.000 0.000 0.000
vn 0.000 1.000 0.000
vn 0.000 1.000 0.000
vn 0.000 1.000 0.000
vn 0.000 1.000 0.000
vn 0.000 1.000 0.000
vn 0.000 1.000 0.000
vn 0.000 0.000 -1.000
vn 0.000 0.000 -1.000
vn 0.000 0.000 -1.000
vn 0.000 0.000 -1.000
vn 0.000 1.000 0.000
vn 0.000 1.000 0.000
vn 0.000 1.000 0.000
vn 0.000 1.000 0.000
vn 0.000 1.000 0.000
vn 0.000 1.000 0.000
vn -1.000 0.000 0.000
vn -1.000 0.000 0.000
vn -1.000 0.000 0.000
vn -1.000 0.000 0.000
vn 0.000 0.000 1.000
vn 0.000 0.000 1.000
vn 0.000 0.000 1.000
vn 0.000 0.000 1.000
vn 0.000 0.000 1.000
vn 0.000 0.000 1.000
vn 0.000 0.000 1.000
vn 0.000 0.000 1.000
vn 0.000 -1.000 0.000
vn 0.000 -1.000 0.000
vn 0.000 -1.000 0.000
vn 0.000 -1.000 0.000


usemtl stone

f 1/1/1 3/3/3 2/2/2
f 3/3/3 1/1/1 4/4/4
f 5/5/5 7/7/7 6/6/6
f 7/7/7 5/5/5 8/8/8
f 9/9/9 11/11/11 10/10/10
f 11/11/11 9/9/9 12/12/12
f 13/13/13 15/15/15 14/14/14
f 15/15/15 13/13/13 16/16/16

usemtl wood

f 17/17/17 19/19/19 18/18/18
f 19/19/19 17/17/17 20/20/20
f 21/21/21 23/23/23 22/22/22
f 23/23/23 21/21/21 24/24/24
f 25/25/25 27/27/27 26/26/26
f 27/27/27 25/25/25 28/28/28
f 29/29/29 31/31/31 30/30/30
f 31/31/31 29/29/29 32/32/32
f 11/11/11 34/34/34 33/33/33
f 34/34/34 11/11/11 35/35/35
f 35/35/35 11/11/11 12/12/12
f 35/35/35 12/12/12 36/36/36
f 37/37/37 39/39/39 38/38/38
f 39/39/39 37/37/37 40/40/40
f 41/41/41 43/43/43 42/42/42
f 43/43/43 41/41/41 44/44/44
f 45/45/45 47/47/47 46/46/46
f 47/47/47 45/45/45 48/48/48
f 48/48/48 45/45/45 49/49/49
f 48/48/48 49/49/49 50/50/50
f 51/51/51 53/53/53 52/52/52
f 53/53/53 51/51/51 54/54/54
f 55/55/55 57/57/57 56/56/56
f 57/57/57 55/55/55 58/58/58
f 58/58/58 55/55/55 59/59/59
f 59/59/59 55/55/55 60/60/60
f 61/61/61 63/63/63 62/62/62
f 63/63/63 61/61/61 64/64/64
f 65/65/65 67/67/67 66/66/66
f 67/67/67 65/65/65 68/68/68
f 69/69/69 71/71/71 70/70/70
f 71/71/71 69/69/69 72/72/72
f 73/73/73 75/75/75 74/74/74
f 75/75/75 73/73/73 10/10/10
f 10/10/10 73/73/73 9/9/9
f 9/9/9 73/73/73 76/76/76
